<svg xmlns="http://www.w3.org/2000/svg" width="1440" height="900"><path d="M667,476L630,367L567,460Z" fill="#121931" stroke="#121931" stroke-width="1.51"/><path d="M630,367L576,311L567,460Z" fill="#121c31" stroke="#121c31" stroke-width="1.51"/><path d="M567,460L631,579L667,476Z" fill="#121731" stroke="#121731" stroke-width="1.51"/><path d="M567,460L556,584L631,579Z" fill="#131830" stroke="#131830" stroke-width="1.51"/><path d="M437,475L556,584L567,460Z" fill="#121a31" stroke="#121a31" stroke-width="1.51"/><path d="M667,476L773,349L630,367Z" fill="#121831" stroke="#121831" stroke-width="1.51"/><path d="M630,367L580,255L576,311Z" fill="#122031" stroke="#122031" stroke-width="1.51"/><path d="M813,438L773,349L667,476Z" fill="#121530" stroke="#121530" stroke-width="1.51"/><path d="M576,311L437,475L567,460Z" fill="#111d31" stroke="#111d31" stroke-width="1.51"/><path d="M642,193L580,255L630,367Z" fill="#112131" stroke="#112131" stroke-width="1.51"/><path d="M800,574L813,438L667,476Z" fill="#121330" stroke="#121330" stroke-width="1.51"/><path d="M400,299L437,475L576,311Z" fill="#122231" stroke="#122231" stroke-width="1.51"/><path d="M556,584L583,647L631,579Z" fill="#14162f" stroke="#14162f" stroke-width="1.51"/><path d="M631,579L800,574L667,476Z" fill="#121430" stroke="#121430" stroke-width="1.51"/><path d="M423,693L583,647L556,584Z" fill="#14192f" stroke="#14192f" stroke-width="1.51"/><path d="M653,680L800,574L631,579Z" fill="#13132f" stroke="#13132f" stroke-width="1.51"/><path d="M773,349L642,193L630,367Z" fill="#111d31" stroke="#111d31" stroke-width="1.51"/><path d="M813,438L874,423L773,349Z" fill="#131630" stroke="#131630" stroke-width="1.51"/><path d="M773,349L789,203L642,193Z" fill="#121f31" stroke="#121f31" stroke-width="1.51"/><path d="M906,568L874,423L813,438Z" fill="#13122f" stroke="#13122f" stroke-width="1.51"/><path d="M583,647L653,680L631,579Z" fill="#14152e" stroke="#14152e" stroke-width="1.51"/><path d="M449,219L400,299L576,311Z" fill="#112631" stroke="#112631" stroke-width="1.51"/><path d="M449,219L576,311L580,255Z" fill="#112431" stroke="#112431" stroke-width="1.51"/><path d="M437,475L411,599L556,584Z" fill="#131c30" stroke="#131c30" stroke-width="1.51"/><path d="M556,765L666,768L653,680Z" fill="#15142d" stroke="#15142d" stroke-width="1.51"/><path d="M327,557L411,599L437,475Z" fill="#131f30" stroke="#131f30" stroke-width="1.51"/><path d="M572,116L449,219L580,255Z" fill="#102731" stroke="#102731" stroke-width="1.51"/><path d="M920,229L789,203L773,349Z" fill="#131d30" stroke="#131d30" stroke-width="1.51"/><path d="M874,423L909,355L773,349Z" fill="#131730" stroke="#131730" stroke-width="1.51"/><path d="M1018,299L909,355L1040,413Z" fill="#14172e" stroke="#14172e" stroke-width="1.51"/><path d="M642,193L572,116L580,255Z" fill="#112631" stroke="#112631" stroke-width="1.51"/><path d="M802,140L639,121L642,193Z" fill="#112531" stroke="#112531" stroke-width="1.51"/><path d="M800,574L906,568L813,438Z" fill="#13122f" stroke="#13122f" stroke-width="1.51"/><path d="M860,653L906,568L800,574Z" fill="#14112e" stroke="#14112e" stroke-width="1.51"/><path d="M653,680L792,696L800,574Z" fill="#14112e" stroke="#14112e" stroke-width="1.51"/><path d="M639,121L572,116L642,193Z" fill="#102731" stroke="#102731" stroke-width="1.51"/><path d="M280,464L327,557L437,475Z" fill="#122131" stroke="#122131" stroke-width="1.51"/><path d="M792,696L860,653L800,574Z" fill="#15102d" stroke="#15102d" stroke-width="1.51"/><path d="M315,686L423,693L411,599Z" fill="#141d2f" stroke="#141d2f" stroke-width="1.51"/><path d="M411,599L423,693L556,584Z" fill="#141b2f" stroke="#141b2f" stroke-width="1.51"/><path d="M653,680L666,768L792,696Z" fill="#14112d" stroke="#14112d" stroke-width="1.51"/><path d="M400,299L298,362L437,475Z" fill="#112431" stroke="#112431" stroke-width="1.51"/><path d="M289,189L298,362L400,299Z" fill="#0f2a31" stroke="#0f2a31" stroke-width="1.51"/><path d="M556,765L653,680L583,647Z" fill="#15152e" stroke="#15152e" stroke-width="1.51"/><path d="M789,203L802,140L642,193Z" fill="#112231" stroke="#112231" stroke-width="1.51"/><path d="M920,229L802,140L789,203Z" fill="#132130" stroke="#132130" stroke-width="1.51"/><path d="M423,693L556,765L583,647Z" fill="#15182e" stroke="#15182e" stroke-width="1.51"/><path d="M298,362L280,464L437,475Z" fill="#112331" stroke="#112331" stroke-width="1.51"/><path d="M909,355L920,229L773,349Z" fill="#131a30" stroke="#131a30" stroke-width="1.51"/><path d="M1018,299L920,229L909,355Z" fill="#141a2f" stroke="#141a2f" stroke-width="1.51"/><path d="M675,877L748,809L666,768Z" fill="#17112d" stroke="#17112d" stroke-width="1.51"/><path d="M423,693L443,781L556,765Z" fill="#16192e" stroke="#16192e" stroke-width="1.51"/><path d="M336,786L443,781L423,693Z" fill="#161c2d" stroke="#161c2d" stroke-width="1.51"/><path d="M792,696L924,797L860,653Z" fill="#150e2c" stroke="#150e2c" stroke-width="1.51"/><path d="M666,768L748,809L792,696Z" fill="#150f2d" stroke="#150f2d" stroke-width="1.51"/><path d="M675,877L666,768L556,765Z" fill="#17132d" stroke="#17132d" stroke-width="1.51"/><path d="M327,557L315,686L411,599Z" fill="#141f2f" stroke="#141f2f" stroke-width="1.51"/><path d="M224,597L315,686L327,557Z" fill="#14222f" stroke="#14222f" stroke-width="1.51"/><path d="M566,23L421,77L572,116Z" fill="#132a2e" stroke="#132a2e" stroke-width="1.51"/><path d="M572,116L421,77L449,219Z" fill="#0e2d31" stroke="#0e2d31" stroke-width="1.51"/><path d="M449,219L289,189L400,299Z" fill="#0f2b31" stroke="#0f2b31" stroke-width="1.51"/><path d="M566,23L572,116L639,121Z" fill="#13282f" stroke="#13282f" stroke-width="1.51"/><path d="M644,-20L566,23L639,121Z" fill="#16272d" stroke="#16272d" stroke-width="1.51"/><path d="M328,133L289,189L449,219Z" fill="#0d2f31" stroke="#0d2f31" stroke-width="1.51"/><path d="M171,486L224,597L280,464Z" fill="#13232f" stroke="#13232f" stroke-width="1.51"/><path d="M1040,413L909,355L874,423Z" fill="#14152f" stroke="#14152f" stroke-width="1.51"/><path d="M920,229L902,89L802,140Z" fill="#132230" stroke="#132230" stroke-width="1.51"/><path d="M1020,585L906,568L1018,660Z" fill="#150f2c" stroke="#150f2c" stroke-width="1.51"/><path d="M1020,585L1040,413L906,568Z" fill="#14102d" stroke="#14102d" stroke-width="1.51"/><path d="M906,568L1040,413L874,423Z" fill="#13122f" stroke="#13122f" stroke-width="1.51"/><path d="M421,77L328,133L449,219Z" fill="#0d2f31" stroke="#0d2f31" stroke-width="1.51"/><path d="M1018,299L987,217L920,229Z" fill="#141d2f" stroke="#141d2f" stroke-width="1.51"/><path d="M755,-6L644,-20L639,121Z" fill="#16242d" stroke="#16242d" stroke-width="1.51"/><path d="M1018,660L906,568L860,653Z" fill="#15102c" stroke="#15102c" stroke-width="1.51"/><path d="M190,365L280,464L298,362Z" fill="#102731" stroke="#102731" stroke-width="1.51"/><path d="M280,464L224,597L327,557Z" fill="#122330" stroke="#122330" stroke-width="1.51"/><path d="M225,235L190,365L298,362Z" fill="#102b31" stroke="#102b31" stroke-width="1.51"/><path d="M1009,122L902,89L920,229Z" fill="#14222f" stroke="#14222f" stroke-width="1.51"/><path d="M289,189L225,235L298,362Z" fill="#0d2e31" stroke="#0d2e31" stroke-width="1.51"/><path d="M185,70L225,235L289,189Z" fill="#0c3330" stroke="#0c3330" stroke-width="1.51"/><path d="M527,877L675,877L556,765Z" fill="#19152d" stroke="#19152d" stroke-width="1.51"/><path d="M976,767L1018,660L860,653Z" fill="#160e2c" stroke="#160e2c" stroke-width="1.51"/><path d="M566,23L439,-17L421,77Z" fill="#152c2c" stroke="#152c2c" stroke-width="1.51"/><path d="M755,-6L639,121L802,140Z" fill="#14242f" stroke="#14242f" stroke-width="1.51"/><path d="M190,365L171,486L280,464Z" fill="#132430" stroke="#132430" stroke-width="1.51"/><path d="M902,89L755,-6L802,140Z" fill="#15232e" stroke="#15232e" stroke-width="1.51"/><path d="M924,797L792,696L748,809Z" fill="#160e2c" stroke="#160e2c" stroke-width="1.51"/><path d="M1020,585L1106,477L1040,413Z" fill="#14102d" stroke="#14102d" stroke-width="1.51"/><path d="M443,781L527,877L556,765Z" fill="#17182d" stroke="#17182d" stroke-width="1.51"/><path d="M427,924L527,877L443,781Z" fill="#1b192d" stroke="#1b192d" stroke-width="1.51"/><path d="M315,686L336,786L423,693Z" fill="#151e2e" stroke="#151e2e" stroke-width="1.51"/><path d="M201,784L336,786L315,686Z" fill="#16202d" stroke="#16202d" stroke-width="1.51"/><path d="M779,911L924,797L748,809Z" fill="#190e2c" stroke="#190e2c" stroke-width="1.51"/><path d="M421,77L296,-6L328,133Z" fill="#10312e" stroke="#10312e" stroke-width="1.51"/><path d="M328,133L185,70L289,189Z" fill="#093431" stroke="#093431" stroke-width="1.51"/><path d="M545,-110L439,-17L566,23Z" fill="#18292a" stroke="#18292a" stroke-width="1.51"/><path d="M1098,562L1106,477L1020,585Z" fill="#150f2d" stroke="#150f2d" stroke-width="1.51"/><path d="M1040,413L1149,365L1018,299Z" fill="#15162e" stroke="#15162e" stroke-width="1.51"/><path d="M1135,188L1009,122L987,217Z" fill="#14202e" stroke="#14202e" stroke-width="1.51"/><path d="M224,597L189,651L315,686Z" fill="#15222e" stroke="#15222e" stroke-width="1.51"/><path d="M122,584L189,651L224,597Z" fill="#16212d" stroke="#16212d" stroke-width="1.51"/><path d="M1095,646L1098,562L1020,585Z" fill="#160e2c" stroke="#160e2c" stroke-width="1.51"/><path d="M924,797L976,767L860,653Z" fill="#160d2b" stroke="#160d2b" stroke-width="1.51"/><path d="M1095,646L1020,585L1018,660Z" fill="#160e2b" stroke="#160e2b" stroke-width="1.51"/><path d="M902,89L855,-47L755,-6Z" fill="#18222b" stroke="#18222b" stroke-width="1.51"/><path d="M987,217L1009,122L920,229Z" fill="#14202f" stroke="#14202f" stroke-width="1.51"/><path d="M1135,188L987,217L1018,299Z" fill="#141c2e" stroke="#141c2e" stroke-width="1.51"/><path d="M675,877L779,911L748,809Z" fill="#1a102d" stroke="#1a102d" stroke-width="1.51"/><path d="M924,797L1032,900L976,767Z" fill="#190d2a" stroke="#190d2a" stroke-width="1.51"/><path d="M758,1032L779,911L675,877Z" fill="#1d102d" stroke="#1d102d" stroke-width="1.51"/><path d="M1153,782L1095,646L1018,660Z" fill="#170c2b" stroke="#170c2b" stroke-width="1.51"/><path d="M1262,481L1149,365L1106,477Z" fill="#15102d" stroke="#15102d" stroke-width="1.51"/><path d="M171,486L122,584L224,597Z" fill="#16222d" stroke="#16222d" stroke-width="1.51"/><path d="M70,425L122,584L171,486Z" fill="#17232c" stroke="#17232c" stroke-width="1.51"/><path d="M70,425L171,486L190,365Z" fill="#15242e" stroke="#15242e" stroke-width="1.51"/><path d="M527,877L566,1030L675,877Z" fill="#1d152d" stroke="#1d152d" stroke-width="1.51"/><path d="M336,786L350,882L443,781Z" fill="#181d2d" stroke="#181d2d" stroke-width="1.51"/><path d="M201,784L350,882L336,786Z" fill="#18202d" stroke="#18202d" stroke-width="1.51"/><path d="M201,784L315,686L189,651Z" fill="#15212d" stroke="#15212d" stroke-width="1.51"/><path d="M1106,477L1149,365L1040,413Z" fill="#14122d" stroke="#14122d" stroke-width="1.51"/><path d="M1262,481L1106,477L1098,562Z" fill="#150e2c" stroke="#150e2c" stroke-width="1.51"/><path d="M689,-114L545,-110L644,-20Z" fill="#1b2427" stroke="#1b2427" stroke-width="1.51"/><path d="M644,-20L545,-110L566,23Z" fill="#19272a" stroke="#19272a" stroke-width="1.51"/><path d="M1028,16L855,-47L902,89Z" fill="#19212a" stroke="#19212a" stroke-width="1.51"/><path d="M350,882L427,924L443,781Z" fill="#1b1c2d" stroke="#1b1c2d" stroke-width="1.51"/><path d="M439,-17L296,-6L421,77Z" fill="#142e2c" stroke="#142e2c" stroke-width="1.51"/><path d="M225,235L80,349L190,365Z" fill="#132a2e" stroke="#132a2e" stroke-width="1.51"/><path d="M689,-114L644,-20L755,-6Z" fill="#192229" stroke="#192229" stroke-width="1.51"/><path d="M439,-17L324,-108L296,-6Z" fill="#172e29" stroke="#172e29" stroke-width="1.51"/><path d="M753,-160L689,-114L755,-6Z" fill="#1c2127" stroke="#1c2127" stroke-width="1.51"/><path d="M90,203L80,349L225,235Z" fill="#132d2d" stroke="#132d2d" stroke-width="1.51"/><path d="M102,767L201,784L189,651Z" fill="#18202b" stroke="#18202b" stroke-width="1.51"/><path d="M80,349L70,425L190,365Z" fill="#16262d" stroke="#16262d" stroke-width="1.51"/><path d="M1009,122L1028,16L902,89Z" fill="#16212c" stroke="#16212c" stroke-width="1.51"/><path d="M1149,365L1135,188L1018,299Z" fill="#15192e" stroke="#15192e" stroke-width="1.51"/><path d="M296,-6L185,70L328,133Z" fill="#0f332e" stroke="#0f332e" stroke-width="1.51"/><path d="M779,911L893,937L924,797Z" fill="#1b0e2b" stroke="#1b0e2b" stroke-width="1.51"/><path d="M976,767L1153,782L1018,660Z" fill="#170c2a" stroke="#170c2a" stroke-width="1.51"/><path d="M758,1032L893,937L779,911Z" fill="#1f0f2c" stroke="#1f0f2c" stroke-width="1.51"/><path d="M1131,95L1028,16L1009,122Z" fill="#17212c" stroke="#17212c" stroke-width="1.51"/><path d="M855,-47L753,-160L755,-6Z" fill="#1b2128" stroke="#1b2128" stroke-width="1.51"/><path d="M123,103L90,203L225,235Z" fill="#11312e" stroke="#11312e" stroke-width="1.51"/><path d="M80,349L-14,363L70,425Z" fill="#18252b" stroke="#18252b" stroke-width="1.51"/><path d="M1028,16L881,-96L855,-47Z" fill="#1b2028" stroke="#1b2028" stroke-width="1.51"/><path d="M185,70L123,103L225,235Z" fill="#0e342e" stroke="#0e342e" stroke-width="1.51"/><path d="M118,-15L123,103L185,70Z" fill="#15322a" stroke="#15322a" stroke-width="1.51"/><path d="M296,-6L182,-12L185,70Z" fill="#13322a" stroke="#13322a" stroke-width="1.51"/><path d="M545,-110L463,-146L439,-17Z" fill="#1a2927" stroke="#1a2927" stroke-width="1.51"/><path d="M753,-160L463,-146L545,-110Z" fill="#1d2525" stroke="#1d2525" stroke-width="1.51"/><path d="M753,-160L545,-110L689,-114Z" fill="#1d2226" stroke="#1d2226" stroke-width="1.51"/><path d="M122,584L64,646L189,651Z" fill="#18212b" stroke="#18212b" stroke-width="1.51"/><path d="M-55,555L64,646L122,584Z" fill="#1a2029" stroke="#1a2029" stroke-width="1.51"/><path d="M465,1018L566,1030L527,877Z" fill="#20182d" stroke="#20182d" stroke-width="1.51"/><path d="M465,1018L527,877L427,924Z" fill="#1f1a2d" stroke="#1f1a2d" stroke-width="1.51"/><path d="M465,1018L427,924L298,1048Z" fill="#211c2d" stroke="#211c2d" stroke-width="1.51"/><path d="M881,-96L753,-160L855,-47Z" fill="#1c2026" stroke="#1c2026" stroke-width="1.51"/><path d="M1248,72L1131,95L1135,188Z" fill="#16212d" stroke="#16212d" stroke-width="1.51"/><path d="M1135,188L1131,95L1009,122Z" fill="#15222e" stroke="#15222e" stroke-width="1.51"/><path d="M298,1048L427,924L350,882Z" fill="#1f1e2d" stroke="#1f1e2d" stroke-width="1.51"/><path d="M463,-146L324,-108L439,-17Z" fill="#1a2c27" stroke="#1a2c27" stroke-width="1.51"/><path d="M696,1054L758,1032L675,877Z" fill="#20102d" stroke="#20102d" stroke-width="1.51"/><path d="M201,784L170,884L350,882Z" fill="#1b212d" stroke="#1b212d" stroke-width="1.51"/><path d="M64,646L102,767L189,651Z" fill="#18202a" stroke="#18202a" stroke-width="1.51"/><path d="M913,1005L1032,900L893,937Z" fill="#1f0d2b" stroke="#1f0d2b" stroke-width="1.51"/><path d="M893,937L1032,900L924,797Z" fill="#1c0d2b" stroke="#1c0d2b" stroke-width="1.51"/><path d="M207,-137L182,-12L296,-6Z" fill="#173127" stroke="#173127" stroke-width="1.51"/><path d="M566,1030L696,1054L675,877Z" fill="#20132d" stroke="#20132d" stroke-width="1.51"/><path d="M298,1048L696,1054L566,1030Z" fill="#23182d" stroke="#23182d" stroke-width="1.51"/><path d="M1089,882L1153,782L976,767Z" fill="#1a0b2a" stroke="#1a0b2a" stroke-width="1.51"/><path d="M1255,588L1262,481L1098,562Z" fill="#160d2c" stroke="#160d2c" stroke-width="1.51"/><path d="M70,425L-21,485L122,584Z" fill="#19222b" stroke="#19222b" stroke-width="1.51"/><path d="M-5,194L-14,363L80,349Z" fill="#18292a" stroke="#18292a" stroke-width="1.51"/><path d="M-5,194L80,349L90,203Z" fill="#162d2b" stroke="#162d2b" stroke-width="1.51"/><path d="M-5,194L90,203L123,103Z" fill="#13312b" stroke="#13312b" stroke-width="1.51"/><path d="M1255,588L1098,562L1095,646Z" fill="#170d2b" stroke="#170d2b" stroke-width="1.51"/><path d="M1149,365L1263,231L1135,188Z" fill="#161a2d" stroke="#161a2d" stroke-width="1.51"/><path d="M102,767L170,884L201,784Z" fill="#1b202a" stroke="#1b202a" stroke-width="1.51"/><path d="M758,1032L913,1005L893,937Z" fill="#200e2c" stroke="#200e2c" stroke-width="1.51"/><path d="M990,1060L913,1005L758,1032Z" fill="#220e2b" stroke="#220e2b" stroke-width="1.51"/><path d="M64,646L-24,765L102,767Z" fill="#1b1f27" stroke="#1b1f27" stroke-width="1.51"/><path d="M-14,363L-21,485L70,425Z" fill="#192329" stroke="#192329" stroke-width="1.51"/><path d="M1094,1029L1089,882L1032,900Z" fill="#1f0b2a" stroke="#1f0b2a" stroke-width="1.51"/><path d="M1032,900L1089,882L976,767Z" fill="#1b0c2a" stroke="#1b0c2a" stroke-width="1.51"/><path d="M1248,648L1255,588L1095,646Z" fill="#170c2a" stroke="#170c2a" stroke-width="1.51"/><path d="M1318,235L1271,354L1377,345Z" fill="#1b182d" stroke="#1b182d" stroke-width="1.51"/><path d="M1262,481L1271,354L1149,365Z" fill="#17122d" stroke="#17122d" stroke-width="1.51"/><path d="M1253,799L1248,648L1153,782Z" fill="#190a29" stroke="#190a29" stroke-width="1.51"/><path d="M1153,782L1248,648L1095,646Z" fill="#180b2a" stroke="#180b2a" stroke-width="1.51"/><path d="M1131,95L1110,-28L1028,16Z" fill="#192029" stroke="#192029" stroke-width="1.51"/><path d="M1028,16L971,-156L881,-96Z" fill="#1c1f26" stroke="#1c1f26" stroke-width="1.51"/><path d="M881,-96L971,-156L753,-160Z" fill="#1e1f24" stroke="#1e1f24" stroke-width="1.51"/><path d="M1248,72L1110,-28L1131,95Z" fill="#191f29" stroke="#191f29" stroke-width="1.51"/><path d="M1271,354L1263,231L1149,365Z" fill="#17172d" stroke="#17172d" stroke-width="1.51"/><path d="M-121,448L-55,555L-21,485Z" fill="#1c2027" stroke="#1c2027" stroke-width="1.51"/><path d="M-38,73L-5,194L123,103Z" fill="#153229" stroke="#153229" stroke-width="1.51"/><path d="M182,-12L118,-15L185,70Z" fill="#163228" stroke="#163228" stroke-width="1.51"/><path d="M207,-137L118,-15L182,-12Z" fill="#193125" stroke="#193125" stroke-width="1.51"/><path d="M1110,-28L971,-156L1028,16Z" fill="#1c1f26" stroke="#1c1f26" stroke-width="1.51"/><path d="M465,1018L298,1048L566,1030Z" fill="#231b2d" stroke="#231b2d" stroke-width="1.51"/><path d="M170,884L228,990L350,882Z" fill="#1e212d" stroke="#1e212d" stroke-width="1.51"/><path d="M93,915L228,990L170,884Z" fill="#20202a" stroke="#20202a" stroke-width="1.51"/><path d="M-21,485L-55,555L122,584Z" fill="#1a2129" stroke="#1a2129" stroke-width="1.51"/><path d="M102,767L93,915L170,884Z" fill="#1e2029" stroke="#1e2029" stroke-width="1.51"/><path d="M-121,448L-21,485L-14,363Z" fill="#1b2228" stroke="#1b2228" stroke-width="1.51"/><path d="M228,990L298,1048L350,882Z" fill="#21212d" stroke="#21212d" stroke-width="1.51"/><path d="M-55,555L-35,672L64,646Z" fill="#1b1f27" stroke="#1b1f27" stroke-width="1.51"/><path d="M324,-108L207,-137L296,-6Z" fill="#183127" stroke="#183127" stroke-width="1.51"/><path d="M463,-146L207,-137L324,-108Z" fill="#1a2e25" stroke="#1a2e25" stroke-width="1.51"/><path d="M73,-154L207,-137L463,-146Z" fill="#1a3024" stroke="#1a3024" stroke-width="1.51"/><path d="M-24,765L93,915L102,767Z" fill="#1d1f27" stroke="#1d1f27" stroke-width="1.51"/><path d="M228,990L72,1047L298,1048Z" fill="#25212b" stroke="#25212b" stroke-width="1.51"/><path d="M1110,-28L1136,-111L971,-156Z" fill="#1e1e24" stroke="#1e1e24" stroke-width="1.51"/><path d="M1263,231L1248,72L1135,188Z" fill="#171f2d" stroke="#171f2d" stroke-width="1.51"/><path d="M1263,231L1348,116L1248,72Z" fill="#1a212d" stroke="#1a212d" stroke-width="1.51"/><path d="M1271,354L1318,235L1263,231Z" fill="#19192d" stroke="#19192d" stroke-width="1.51"/><path d="M1377,345L1271,354L1386,431Z" fill="#1b142d" stroke="#1b142d" stroke-width="1.51"/><path d="M1355,543L1262,481L1255,588Z" fill="#190e2c" stroke="#190e2c" stroke-width="1.51"/><path d="M-132,680L-24,765L-35,672Z" fill="#1e1e25" stroke="#1e1e25" stroke-width="1.51"/><path d="M-35,672L-24,765L64,646Z" fill="#1c1e27" stroke="#1c1e27" stroke-width="1.51"/><path d="M913,1005L990,1060L1032,900Z" fill="#200d2a" stroke="#200d2a" stroke-width="1.51"/><path d="M1218,912L1253,799L1153,782Z" fill="#1c0a29" stroke="#1c0a29" stroke-width="1.51"/><path d="M696,1054L990,1060L758,1032Z" fill="#220f2c" stroke="#220f2c" stroke-width="1.51"/><path d="M-136,1054L990,1060L696,1054Z" fill="#24182d" stroke="#24182d" stroke-width="1.51"/><path d="M1218,912L1153,782L1089,882Z" fill="#1c0a29" stroke="#1c0a29" stroke-width="1.51"/><path d="M1248,648L1355,543L1255,588Z" fill="#190d2b" stroke="#190d2b" stroke-width="1.51"/><path d="M1367,710L1355,543L1248,648Z" fill="#1b0c2a" stroke="#1b0c2a" stroke-width="1.51"/><path d="M-55,555L-132,680L-35,672Z" fill="#1d1e25" stroke="#1d1e25" stroke-width="1.51"/><path d="M-131,315L-121,448L-14,363Z" fill="#1c2426" stroke="#1c2426" stroke-width="1.51"/><path d="M1246,-36L1136,-111L1110,-28Z" fill="#1d1e25" stroke="#1d1e25" stroke-width="1.51"/><path d="M118,-15L-38,73L123,103Z" fill="#183128" stroke="#183128" stroke-width="1.51"/><path d="M-5,194L-131,315L-14,363Z" fill="#1a2928" stroke="#1a2928" stroke-width="1.51"/><path d="M-39,7L-38,73L118,-15Z" fill="#1a3025" stroke="#1a3025" stroke-width="1.51"/><path d="M1324,-3L1246,-36L1248,72Z" fill="#1e1f28" stroke="#1e1f28" stroke-width="1.51"/><path d="M1386,431L1271,354L1262,481Z" fill="#19112d" stroke="#19112d" stroke-width="1.51"/><path d="M990,1060L1094,1029L1032,900Z" fill="#210c2a" stroke="#210c2a" stroke-width="1.51"/><path d="M-124,219L-131,315L-5,194Z" fill="#1a2b26" stroke="#1a2b26" stroke-width="1.51"/><path d="M1355,543L1386,431L1262,481Z" fill="#1b0f2c" stroke="#1b0f2c" stroke-width="1.51"/><path d="M1094,1029L1218,912L1089,882Z" fill="#1f0a29" stroke="#1f0a29" stroke-width="1.51"/><path d="M1253,799L1367,710L1248,648Z" fill="#1b0b29" stroke="#1b0b29" stroke-width="1.51"/><path d="M-38,73L-124,219L-5,194Z" fill="#183027" stroke="#183027" stroke-width="1.51"/><path d="M1248,72L1246,-36L1110,-28Z" fill="#1b1f27" stroke="#1b1f27" stroke-width="1.51"/><path d="M1348,116L1263,231L1318,235Z" fill="#1a1e2d" stroke="#1a1e2d" stroke-width="1.51"/><path d="M-38,73L-167,117L-124,219Z" fill="#193125" stroke="#193125" stroke-width="1.51"/><path d="M-7,-152L-39,7L118,-15Z" fill="#1d3021" stroke="#1d3021" stroke-width="1.51"/><path d="M1465,118L1348,116L1318,235Z" fill="#1d202d" stroke="#1d202d" stroke-width="1.51"/><path d="M-121,448L-165,529L-55,555Z" fill="#1d1f25" stroke="#1d1f25" stroke-width="1.51"/><path d="M-131,315L-165,529L-121,448Z" fill="#1d2125" stroke="#1d2125" stroke-width="1.51"/><path d="M-167,117L-165,529L-131,315Z" fill="#1d2724" stroke="#1d2724" stroke-width="1.51"/><path d="M1476,551L1473,419L1386,431Z" fill="#1e102d" stroke="#1e102d" stroke-width="1.51"/><path d="M1335,825L1367,710L1253,799Z" fill="#1d0a29" stroke="#1d0a29" stroke-width="1.51"/><path d="M-165,529L-132,680L-55,555Z" fill="#1e1f24" stroke="#1e1f24" stroke-width="1.51"/><path d="M-24,765L-15,943L93,915Z" fill="#211e26" stroke="#211e26" stroke-width="1.51"/><path d="M753,-160L73,-154L463,-146Z" fill="#1c2a24" stroke="#1c2a24" stroke-width="1.51"/><path d="M207,-137L73,-154L118,-15Z" fill="#1b3023" stroke="#1b3023" stroke-width="1.51"/><path d="M1218,912L1335,825L1253,799Z" fill="#1e0a29" stroke="#1e0a29" stroke-width="1.51"/><path d="M1344,904L1335,825L1218,912Z" fill="#200a29" stroke="#200a29" stroke-width="1.51"/><path d="M-175,829L-15,943L-24,765Z" fill="#211d23" stroke="#211d23" stroke-width="1.51"/><path d="M93,915L72,1047L228,990Z" fill="#242029" stroke="#242029" stroke-width="1.51"/><path d="M1094,1029L1223,992L1218,912Z" fill="#210a29" stroke="#210a29" stroke-width="1.51"/><path d="M1339,1016L1223,992L1094,1029Z" fill="#230a29" stroke="#230a29" stroke-width="1.51"/><path d="M1348,116L1324,-3L1248,72Z" fill="#1d202a" stroke="#1d202a" stroke-width="1.51"/><path d="M1246,-36L1241,-144L1136,-111Z" fill="#1f1d23" stroke="#1f1d23" stroke-width="1.51"/><path d="M-15,943L72,1047L93,915Z" fill="#241f27" stroke="#241f27" stroke-width="1.51"/><path d="M298,1048L-136,1054L696,1054Z" fill="#24212d" stroke="#24212d" stroke-width="1.51"/><path d="M1384,-153L1241,-144L1246,-36Z" fill="#211d23" stroke="#211d23" stroke-width="1.51"/><path d="M1136,-111L1241,-144L971,-156Z" fill="#1f1c22" stroke="#1f1c22" stroke-width="1.51"/><path d="M-124,219L-167,117L-131,315Z" fill="#1b2c25" stroke="#1b2c25" stroke-width="1.51"/><path d="M-117,3L-167,117L-38,73Z" fill="#1c3022" stroke="#1c3022" stroke-width="1.51"/><path d="M-117,3L-38,73L-39,7Z" fill="#1c3022" stroke="#1c3022" stroke-width="1.51"/><path d="M1501,228L1465,118L1318,235Z" fill="#1f1e2d" stroke="#1f1e2d" stroke-width="1.51"/><path d="M1348,116L1465,118L1324,-3Z" fill="#1f202b" stroke="#1f202b" stroke-width="1.51"/><path d="M1386,431L1476,362L1377,345Z" fill="#1d142d" stroke="#1d142d" stroke-width="1.51"/><path d="M1476,551L1386,431L1355,543Z" fill="#1d0e2c" stroke="#1d0e2c" stroke-width="1.51"/><path d="M1476,551L1355,543L1459,701Z" fill="#1e0d2b" stroke="#1e0d2b" stroke-width="1.51"/><path d="M-110,-95L-117,3L-39,7Z" fill="#1f2e1e" stroke="#1f2e1e" stroke-width="1.51"/><path d="M1473,419L1476,362L1386,431Z" fill="#1e132d" stroke="#1e132d" stroke-width="1.51"/><path d="M73,-154L-7,-152L118,-15Z" fill="#1e2f20" stroke="#1e2f20" stroke-width="1.51"/><path d="M1459,701L1355,543L1367,710Z" fill="#1d0c2a" stroke="#1d0c2a" stroke-width="1.51"/><path d="M1579,184L1501,228L1612,342Z" fill="#231c2d" stroke="#231c2d" stroke-width="1.51"/><path d="M1467,827L1459,701L1367,710Z" fill="#1f0a29" stroke="#1f0a29" stroke-width="1.51"/><path d="M1223,992L1344,904L1218,912Z" fill="#220a29" stroke="#220a29" stroke-width="1.51"/><path d="M-15,943L-43,1000L72,1047Z" fill="#261e25" stroke="#261e25" stroke-width="1.51"/><path d="M-145,939L-43,1000L-15,943Z" fill="#261e23" stroke="#261e23" stroke-width="1.51"/><path d="M1467,827L1367,710L1335,825Z" fill="#1f0a29" stroke="#1f0a29" stroke-width="1.51"/><path d="M-167,117L-175,829L-165,529Z" fill="#1e1f24" stroke="#1e1f24" stroke-width="1.51"/><path d="M-165,529L-175,829L-132,680Z" fill="#1f1d22" stroke="#1f1d22" stroke-width="1.51"/><path d="M-132,680L-175,829L-24,765Z" fill="#1e1c22" stroke="#1e1c22" stroke-width="1.51"/><path d="M1501,228L1318,235L1377,345Z" fill="#1d1a2d" stroke="#1d1a2d" stroke-width="1.51"/><path d="M1324,-3L1384,-153L1246,-36Z" fill="#211e25" stroke="#211e25" stroke-width="1.51"/><path d="M1476,362L1501,228L1377,345Z" fill="#1f182d" stroke="#1f182d" stroke-width="1.51"/><path d="M1567,465L1476,362L1473,419Z" fill="#20122d" stroke="#20122d" stroke-width="1.51"/><path d="M-7,-152L-110,-95L-39,7Z" fill="#1f2e1e" stroke="#1f2e1e" stroke-width="1.51"/><path d="M-117,3L-110,-95L-167,117Z" fill="#1e2f1f" stroke="#1e2f1f" stroke-width="1.51"/><path d="M-175,829L-145,939L-15,943Z" fill="#241d22" stroke="#241d22" stroke-width="1.51"/><path d="M1344,904L1467,827L1335,825Z" fill="#210a29" stroke="#210a29" stroke-width="1.51"/><path d="M1223,992L1339,1016L1344,904Z" fill="#240a29" stroke="#240a29" stroke-width="1.51"/><path d="M990,1060L1339,1016L1094,1029Z" fill="#220b29" stroke="#220b29" stroke-width="1.51"/><path d="M1484,941L1467,827L1344,904Z" fill="#240a29" stroke="#240a29" stroke-width="1.51"/><path d="M1582,529L1567,465L1476,551Z" fill="#210e2c" stroke="#210e2c" stroke-width="1.51"/><path d="M1476,551L1567,465L1473,419Z" fill="#200f2c" stroke="#200f2c" stroke-width="1.51"/><path d="M1582,529L1476,551L1577,710Z" fill="#220d2b" stroke="#220d2b" stroke-width="1.51"/><path d="M1481,-21L1324,-3L1465,118Z" fill="#222029" stroke="#222029" stroke-width="1.51"/><path d="M1481,-21L1384,-153L1324,-3Z" fill="#231e25" stroke="#231e25" stroke-width="1.51"/><path d="M1241,-144L1384,-153L971,-156Z" fill="#201c21" stroke="#201c21" stroke-width="1.51"/><path d="M971,-156L1384,-153L753,-160Z" fill="#1f1d22" stroke="#1f1d22" stroke-width="1.51"/><path d="M1577,710L1476,551L1459,701Z" fill="#210d2a" stroke="#210d2a" stroke-width="1.51"/><path d="M1501,228L1476,362L1612,342Z" fill="#21182d" stroke="#21182d" stroke-width="1.51"/><path d="M1579,184L1465,118L1501,228Z" fill="#211f2d" stroke="#211f2d" stroke-width="1.51"/><path d="M1568,-35L1481,-21L1465,118Z" fill="#252028" stroke="#252028" stroke-width="1.51"/><path d="M-175,829L-136,1054L-145,939Z" fill="#271d21" stroke="#271d21" stroke-width="1.51"/><path d="M-145,939L-136,1054L-43,1000Z" fill="#281d22" stroke="#281d22" stroke-width="1.51"/><path d="M-43,1000L-136,1054L72,1047Z" fill="#291f24" stroke="#291f24" stroke-width="1.51"/><path d="M72,1047L-136,1054L298,1048Z" fill="#272028" stroke="#272028" stroke-width="1.51"/><path d="M1612,342L1476,362L1567,465Z" fill="#21132d" stroke="#21132d" stroke-width="1.51"/><path d="M1582,529L1612,342L1567,465Z" fill="#22102d" stroke="#22102d" stroke-width="1.51"/><path d="M1582,529L1577,710L1612,342Z" fill="#220f2c" stroke="#220f2c" stroke-width="1.51"/><path d="M1565,807L1577,710L1459,701Z" fill="#210a29" stroke="#210a29" stroke-width="1.51"/><path d="M1565,807L1459,701L1467,827Z" fill="#210a29" stroke="#210a29" stroke-width="1.51"/><path d="M1456,1026L1484,941L1344,904Z" fill="#270a29" stroke="#270a29" stroke-width="1.51"/><path d="M1577,908L1565,807L1467,827Z" fill="#250a29" stroke="#250a29" stroke-width="1.51"/><path d="M1484,941L1577,908L1467,827Z" fill="#260a29" stroke="#260a29" stroke-width="1.51"/><path d="M1339,1016L1456,1026L1344,904Z" fill="#260a29" stroke="#260a29" stroke-width="1.51"/><path d="M990,1060L1456,1026L1339,1016Z" fill="#250a29" stroke="#250a29" stroke-width="1.51"/><path d="M1481,-21L1493,-148L1384,-153Z" fill="#261d23" stroke="#261d23" stroke-width="1.51"/><path d="M1568,-35L1493,-148L1481,-21Z" fill="#271e25" stroke="#271e25" stroke-width="1.51"/><path d="M1579,184L1618,111L1465,118Z" fill="#23222d" stroke="#23222d" stroke-width="1.51"/><path d="M1612,342L1618,111L1579,184Z" fill="#241e2d" stroke="#241e2d" stroke-width="1.51"/><path d="M1618,111L1568,-35L1465,118Z" fill="#25212a" stroke="#25212a" stroke-width="1.51"/><path d="M1568,1003L1577,908L1484,941Z" fill="#2a0a29" stroke="#2a0a29" stroke-width="1.51"/><path d="M1565,807L1577,908L1577,710Z" fill="#240a29" stroke="#240a29" stroke-width="1.51"/><path d="M1577,710L1577,908L1612,342Z" fill="#230d2a" stroke="#230d2a" stroke-width="1.51"/><path d="M1456,1026L1568,1003L1484,941Z" fill="#2a0a29" stroke="#2a0a29" stroke-width="1.51"/><path d="M1568,-35L1582,-127L1493,-148Z" fill="#281e23" stroke="#281e23" stroke-width="1.51"/><path d="M1618,111L1582,-127L1568,-35Z" fill="#281f26" stroke="#281f26" stroke-width="1.51"/></svg>