<svg xmlns="http://www.w3.org/2000/svg" width="1440" height="900"><path d="M741,416L678,396L681,478Z" fill="#f4f4f3" stroke="#f4f4f3" stroke-width="1.51"/><path d="M681,478L777,499L741,416Z" fill="#f2f3f2" stroke="#f2f3f2" stroke-width="1.51"/><path d="M678,396L605,487L681,478Z" fill="#f3f3f2" stroke="#f3f3f2" stroke-width="1.51"/><path d="M681,478L683,560L777,499Z" fill="#edf1ee" stroke="#edf1ee" stroke-width="1.51"/><path d="M760,327L659,322L678,396Z" fill="#f1f1ef" stroke="#f1f1ef" stroke-width="1.51"/><path d="M678,396L571,389L605,487Z" fill="#f2f2f0" stroke="#f2f2f0" stroke-width="1.51"/><path d="M741,416L760,327L678,396Z" fill="#f3f2f1" stroke="#f3f2f1" stroke-width="1.51"/><path d="M854,398L760,327L741,416Z" fill="#eef0ec" stroke="#eef0ec" stroke-width="1.51"/><path d="M605,487L683,560L681,478Z" fill="#edf0ec" stroke="#edf0ec" stroke-width="1.51"/><path d="M659,322L571,389L678,396Z" fill="#f1f1ee" stroke="#f1f1ee" stroke-width="1.51"/><path d="M683,560L783,568L777,499Z" fill="#e7eee9" stroke="#e7eee9" stroke-width="1.51"/><path d="M777,499L854,398L741,416Z" fill="#eef2ef" stroke="#eef2ef" stroke-width="1.51"/><path d="M844,505L854,398L777,499Z" fill="#eaefeb" stroke="#eaefeb" stroke-width="1.51"/><path d="M783,568L844,505L777,499Z" fill="#e6ece7" stroke="#e6ece7" stroke-width="1.51"/><path d="M659,322L596,308L571,389Z" fill="#f0f0eb" stroke="#f0f0eb" stroke-width="1.51"/><path d="M597,246L596,308L659,322Z" fill="#efeee9" stroke="#efeee9" stroke-width="1.51"/><path d="M605,487L579,600L683,560Z" fill="#e7ede7" stroke="#e7ede7" stroke-width="1.51"/><path d="M571,389L512,495L605,487Z" fill="#f1f1ee" stroke="#f1f1ee" stroke-width="1.51"/><path d="M492,390L512,495L571,389Z" fill="#f0f0ec" stroke="#f0f0ec" stroke-width="1.51"/><path d="M760,327L745,238L659,322Z" fill="#f1f0ed" stroke="#f1f0ed" stroke-width="1.51"/><path d="M852,301L745,238L760,327Z" fill="#ebede7" stroke="#ebede7" stroke-width="1.51"/><path d="M512,495L579,600L605,487Z" fill="#e9ede7" stroke="#e9ede7" stroke-width="1.51"/><path d="M764,652L848,599L783,568Z" fill="#dce7de" stroke="#dce7de" stroke-width="1.51"/><path d="M854,398L852,301L760,327Z" fill="#eaeee8" stroke="#eaeee8" stroke-width="1.51"/><path d="M513,332L492,390L571,389Z" fill="#efeeea" stroke="#efeeea" stroke-width="1.51"/><path d="M596,308L513,332L571,389Z" fill="#efefe9" stroke="#efefe9" stroke-width="1.51"/><path d="M521,240L513,332L596,308Z" fill="#edede6" stroke="#edede6" stroke-width="1.51"/><path d="M655,216L597,246L659,322Z" fill="#eeeee8" stroke="#eeeee8" stroke-width="1.51"/><path d="M783,568L848,599L844,505Z" fill="#e0e9e1" stroke="#e0e9e1" stroke-width="1.51"/><path d="M844,505L926,479L854,398Z" fill="#e7ede8" stroke="#e7ede8" stroke-width="1.51"/><path d="M764,652L783,568L683,560Z" fill="#e2eae3" stroke="#e2eae3" stroke-width="1.51"/><path d="M745,238L655,216L659,322Z" fill="#efefea" stroke="#efefea" stroke-width="1.51"/><path d="M691,673L764,652L683,560Z" fill="#e0e9e1" stroke="#e0e9e1" stroke-width="1.51"/><path d="M930,580L926,479L844,505Z" fill="#dee8e0" stroke="#dee8e0" stroke-width="1.51"/><path d="M854,398L924,327L852,301Z" fill="#e5ebe3" stroke="#e5ebe3" stroke-width="1.51"/><path d="M926,479L932,405L854,398Z" fill="#e5ece6" stroke="#e5ece6" stroke-width="1.51"/><path d="M579,600L691,673L683,560Z" fill="#e1e9e1" stroke="#e1e9e1" stroke-width="1.51"/><path d="M852,301L854,250L745,238Z" fill="#e8ebe4" stroke="#e8ebe4" stroke-width="1.51"/><path d="M745,238L695,139L655,216Z" fill="#eeede7" stroke="#eeede7" stroke-width="1.51"/><path d="M932,252L854,250L852,301Z" fill="#e3e9df" stroke="#e3e9df" stroke-width="1.51"/><path d="M932,405L924,327L854,398Z" fill="#e4ebe3" stroke="#e4ebe3" stroke-width="1.51"/><path d="M512,495L484,563L579,600Z" fill="#e5ebe3" stroke="#e5ebe3" stroke-width="1.51"/><path d="M579,600L598,675L691,673Z" fill="#dce6dc" stroke="#dce6dc" stroke-width="1.51"/><path d="M424,483L484,563L512,495Z" fill="#e9ece5" stroke="#e9ece5" stroke-width="1.51"/><path d="M523,666L598,675L579,600Z" fill="#dbe6da" stroke="#dbe6da" stroke-width="1.51"/><path d="M597,246L521,240L596,308Z" fill="#edede6" stroke="#edede6" stroke-width="1.51"/><path d="M403,323L433,428L492,390Z" fill="#eeede7" stroke="#eeede7" stroke-width="1.51"/><path d="M509,138L521,240L597,246Z" fill="#ebeae2" stroke="#ebeae2" stroke-width="1.51"/><path d="M492,390L433,428L512,495Z" fill="#f0efec" stroke="#f0efec" stroke-width="1.51"/><path d="M403,323L492,390L513,332Z" fill="#edede7" stroke="#edede7" stroke-width="1.51"/><path d="M848,599L930,580L844,505Z" fill="#dce7dd" stroke="#dce7dd" stroke-width="1.51"/><path d="M926,479L1021,423L932,405Z" fill="#e1e9e2" stroke="#e1e9e2" stroke-width="1.51"/><path d="M914,673L930,580L848,599Z" fill="#d3e2d5" stroke="#d3e2d5" stroke-width="1.51"/><path d="M433,428L424,483L512,495Z" fill="#eeefe9" stroke="#eeefe9" stroke-width="1.51"/><path d="M439,658L523,666L484,563Z" fill="#dce5d9" stroke="#dce5d9" stroke-width="1.51"/><path d="M484,563L523,666L579,600Z" fill="#dee7dd" stroke="#dee7dd" stroke-width="1.51"/><path d="M764,652L859,684L848,599Z" fill="#d6e4d8" stroke="#d6e4d8" stroke-width="1.51"/><path d="M841,752L859,684L764,652Z" fill="#d0e0d3" stroke="#d0e0d3" stroke-width="1.51"/><path d="M771,770L764,652L691,673Z" fill="#d6e4d9" stroke="#d6e4d9" stroke-width="1.51"/><path d="M781,131L695,139L745,238Z" fill="#ecece5" stroke="#ecece5" stroke-width="1.51"/><path d="M924,327L932,252L852,301Z" fill="#e2e8df" stroke="#e2e8df" stroke-width="1.51"/><path d="M1000,247L932,252L924,327Z" fill="#dde6da" stroke="#dde6da" stroke-width="1.51"/><path d="M781,131L745,238L854,250Z" fill="#e8eae3" stroke="#e8eae3" stroke-width="1.51"/><path d="M655,216L610,125L597,246Z" fill="#ecece4" stroke="#ecece4" stroke-width="1.51"/><path d="M869,153L781,131L854,250Z" fill="#e4e8de" stroke="#e4e8de" stroke-width="1.51"/><path d="M521,240L403,323L513,332Z" fill="#ecebe4" stroke="#ecebe4" stroke-width="1.51"/><path d="M342,409L347,500L424,483Z" fill="#edede7" stroke="#edede7" stroke-width="1.51"/><path d="M930,580L1009,511L926,479Z" fill="#d9e6db" stroke="#d9e6db" stroke-width="1.51"/><path d="M932,405L1014,332L924,327Z" fill="#dfe8de" stroke="#dfe8de" stroke-width="1.51"/><path d="M1044,592L1009,511L930,580Z" fill="#d1e1d4" stroke="#d1e1d4" stroke-width="1.51"/><path d="M859,684L914,673L848,599Z" fill="#d1e1d4" stroke="#d1e1d4" stroke-width="1.51"/><path d="M1009,511L1021,423L926,479Z" fill="#dde7de" stroke="#dde7de" stroke-width="1.51"/><path d="M424,483L415,588L484,563Z" fill="#e5eae1" stroke="#e5eae1" stroke-width="1.51"/><path d="M347,500L415,588L424,483Z" fill="#e6eae1" stroke="#e6eae1" stroke-width="1.51"/><path d="M695,139L610,125L655,216Z" fill="#ecebe3" stroke="#ecebe3" stroke-width="1.51"/><path d="M521,240L403,213L403,323Z" fill="#eaeae1" stroke="#eaeae1" stroke-width="1.51"/><path d="M659,40L610,125L695,139Z" fill="#ebe7df" stroke="#ebe7df" stroke-width="1.51"/><path d="M598,675L697,764L691,673Z" fill="#d6e3d8" stroke="#d6e3d8" stroke-width="1.51"/><path d="M859,684L935,739L914,673Z" fill="#c9ddcd" stroke="#c9ddcd" stroke-width="1.51"/><path d="M523,666L582,742L598,675Z" fill="#d5e2d5" stroke="#d5e2d5" stroke-width="1.51"/><path d="M504,768L582,742L523,666Z" fill="#d1e0d1" stroke="#d1e0d1" stroke-width="1.51"/><path d="M582,742L697,764L598,675Z" fill="#d3e1d4" stroke="#d3e1d4" stroke-width="1.51"/><path d="M932,252L869,153L854,250Z" fill="#e1e7dd" stroke="#e1e7dd" stroke-width="1.51"/><path d="M1021,423L1014,332L932,405Z" fill="#dde7dd" stroke="#dde7dd" stroke-width="1.51"/><path d="M932,252L934,126L869,153Z" fill="#dee5d9" stroke="#dee5d9" stroke-width="1.51"/><path d="M697,764L771,770L691,673Z" fill="#d4e2d6" stroke="#d4e2d6" stroke-width="1.51"/><path d="M415,588L439,658L484,563Z" fill="#dee6da" stroke="#dee6da" stroke-width="1.51"/><path d="M771,770L841,752L764,652Z" fill="#cfe0d2" stroke="#cfe0d2" stroke-width="1.51"/><path d="M610,125L509,138L597,246Z" fill="#eaeae1" stroke="#eaeae1" stroke-width="1.51"/><path d="M1014,332L1000,247L924,327Z" fill="#dce6da" stroke="#dce6da" stroke-width="1.51"/><path d="M342,409L424,483L433,428Z" fill="#eeeee9" stroke="#eeeee9" stroke-width="1.51"/><path d="M415,588L317,676L439,658Z" fill="#d9e2d4" stroke="#d9e2d4" stroke-width="1.51"/><path d="M403,323L342,409L433,428Z" fill="#edece5" stroke="#edece5" stroke-width="1.51"/><path d="M318,300L342,409L403,323Z" fill="#ebebe2" stroke="#ebebe2" stroke-width="1.51"/><path d="M438,164L403,213L521,240Z" fill="#e9e9df" stroke="#e9e9df" stroke-width="1.51"/><path d="M1009,511L1102,487L1021,423Z" fill="#d7e5da" stroke="#d7e5da" stroke-width="1.51"/><path d="M1021,423L1106,419L1014,332Z" fill="#d9e4d9" stroke="#d9e4d9" stroke-width="1.51"/><path d="M1039,662L1044,592L930,580Z" fill="#cbddce" stroke="#cbddce" stroke-width="1.51"/><path d="M1039,662L930,580L914,673Z" fill="#ccdecf" stroke="#ccdecf" stroke-width="1.51"/><path d="M509,138L438,164L521,240Z" fill="#e9e9de" stroke="#e9e9de" stroke-width="1.51"/><path d="M841,752L935,739L859,684Z" fill="#c8dccc" stroke="#c8dccc" stroke-width="1.51"/><path d="M848,838L935,739L841,752Z" fill="#c3d9c8" stroke="#c3d9c8" stroke-width="1.51"/><path d="M439,658L504,768L523,666Z" fill="#d4e1d2" stroke="#d4e1d2" stroke-width="1.51"/><path d="M582,742L595,833L697,764Z" fill="#ceded0" stroke="#ceded0" stroke-width="1.51"/><path d="M697,764L752,857L771,770Z" fill="#cdded2" stroke="#cdded2" stroke-width="1.51"/><path d="M1000,247L934,126L932,252Z" fill="#dbe4d7" stroke="#dbe4d7" stroke-width="1.51"/><path d="M869,153L847,70L781,131Z" fill="#e4e5da" stroke="#e4e5da" stroke-width="1.51"/><path d="M754,40L659,40L695,139Z" fill="#ece5de" stroke="#ece5de" stroke-width="1.51"/><path d="M925,70L847,70L869,153Z" fill="#dfe1d5" stroke="#dfe1d5" stroke-width="1.51"/><path d="M610,125L596,39L509,138Z" fill="#e9e5dc" stroke="#e9e5dc" stroke-width="1.51"/><path d="M754,40L695,139L781,131Z" fill="#eae7df" stroke="#eae7df" stroke-width="1.51"/><path d="M509,138L481,39L438,164Z" fill="#e7e4d9" stroke="#e7e4d9" stroke-width="1.51"/><path d="M847,70L754,40L781,131Z" fill="#e6e3da" stroke="#e6e3da" stroke-width="1.51"/><path d="M439,658L431,757L504,768Z" fill="#d0dece" stroke="#d0dece" stroke-width="1.51"/><path d="M347,500L320,574L415,588Z" fill="#e2e8dd" stroke="#e2e8dd" stroke-width="1.51"/><path d="M252,484L320,574L347,500Z" fill="#e5e8de" stroke="#e5e8de" stroke-width="1.51"/><path d="M1044,592L1102,487L1009,511Z" fill="#d0e1d4" stroke="#d0e1d4" stroke-width="1.51"/><path d="M1014,332L1093,313L1000,247Z" fill="#d7e2d5" stroke="#d7e2d5" stroke-width="1.51"/><path d="M403,213L318,300L403,323Z" fill="#e9e9df" stroke="#e9e9df" stroke-width="1.51"/><path d="M342,409L252,484L347,500Z" fill="#ecece5" stroke="#ecece5" stroke-width="1.51"/><path d="M336,215L318,300L403,213Z" fill="#e8e8dd" stroke="#e8e8dd" stroke-width="1.51"/><path d="M1102,487L1106,419L1021,423Z" fill="#d8e5da" stroke="#d8e5da" stroke-width="1.51"/><path d="M1000,247L1035,167L934,126Z" fill="#d8e2d3" stroke="#d8e2d3" stroke-width="1.51"/><path d="M935,739L1039,662L914,673Z" fill="#c5dbc9" stroke="#c5dbc9" stroke-width="1.51"/><path d="M1044,592L1121,583L1102,487Z" fill="#cbdece" stroke="#cbdece" stroke-width="1.51"/><path d="M516,826L595,833L582,742Z" fill="#cbdcce" stroke="#cbdcce" stroke-width="1.51"/><path d="M771,770L848,838L841,752Z" fill="#c7dbcc" stroke="#c7dbcc" stroke-width="1.51"/><path d="M659,40L596,39L610,125Z" fill="#eae3db" stroke="#eae3db" stroke-width="1.51"/><path d="M661,-27L596,39L659,40Z" fill="#eadfd7" stroke="#eadfd7" stroke-width="1.51"/><path d="M1106,419L1093,313L1014,332Z" fill="#d6e3d6" stroke="#d6e3d6" stroke-width="1.51"/><path d="M504,768L516,826L582,742Z" fill="#ccddcd" stroke="#ccddcd" stroke-width="1.51"/><path d="M317,676L431,757L439,658Z" fill="#d2dfcf" stroke="#d2dfcf" stroke-width="1.51"/><path d="M595,833L691,858L697,764Z" fill="#cbddd1" stroke="#cbddd1" stroke-width="1.51"/><path d="M691,858L752,857L697,764Z" fill="#ccddd2" stroke="#ccddd2" stroke-width="1.51"/><path d="M353,127L403,213L438,164Z" fill="#e7e6db" stroke="#e7e6db" stroke-width="1.51"/><path d="M353,127L336,215L403,213Z" fill="#e6e6da" stroke="#e6e6da" stroke-width="1.51"/><path d="M752,857L848,838L771,770Z" fill="#c7dacd" stroke="#c7dacd" stroke-width="1.51"/><path d="M935,739L1021,771L1039,662Z" fill="#bfd7c3" stroke="#bfd7c3" stroke-width="1.51"/><path d="M934,126L925,70L869,153Z" fill="#dde1d5" stroke="#dde1d5" stroke-width="1.51"/><path d="M1121,236L1035,167L1000,247Z" fill="#d4e0d0" stroke="#d4e0d0" stroke-width="1.51"/><path d="M857,-32L751,-25L754,40Z" fill="#e6dcd3" stroke="#e6dcd3" stroke-width="1.51"/><path d="M1020,81L925,70L934,126Z" fill="#d9ddce" stroke="#d9ddce" stroke-width="1.51"/><path d="M426,848L516,826L504,768Z" fill="#c8d9ca" stroke="#c8d9ca" stroke-width="1.51"/><path d="M595,833L598,906L691,858Z" fill="#c7d9cd" stroke="#c7d9cd" stroke-width="1.51"/><path d="M1114,656L1121,583L1044,592Z" fill="#c4d9c8" stroke="#c4d9c8" stroke-width="1.51"/><path d="M1102,487L1185,403L1106,419Z" fill="#d3e2d6" stroke="#d3e2d6" stroke-width="1.51"/><path d="M239,415L342,409L232,341Z" fill="#ebeae1" stroke="#ebeae1" stroke-width="1.51"/><path d="M239,415L252,484L342,409Z" fill="#ecebe4" stroke="#ecebe4" stroke-width="1.51"/><path d="M320,574L317,676L415,588Z" fill="#dbe3d6" stroke="#dbe3d6" stroke-width="1.51"/><path d="M265,661L317,676L320,574Z" fill="#d8e1d2" stroke="#d8e1d2" stroke-width="1.51"/><path d="M481,907L598,906L516,826Z" fill="#c4d7ca" stroke="#c4d7ca" stroke-width="1.51"/><path d="M596,39L481,39L509,138Z" fill="#e8e2d8" stroke="#e8e2d8" stroke-width="1.51"/><path d="M232,341L342,409L318,300Z" fill="#eae9e1" stroke="#eae9e1" stroke-width="1.51"/><path d="M1039,662L1114,656L1044,592Z" fill="#c3d9c7" stroke="#c3d9c7" stroke-width="1.51"/><path d="M1003,828L1021,771L935,739Z" fill="#bad4c0" stroke="#bad4c0" stroke-width="1.51"/><path d="M754,40L751,-25L659,40Z" fill="#ebe1da" stroke="#ebe1da" stroke-width="1.51"/><path d="M596,39L496,-7L481,39Z" fill="#e8ddd4" stroke="#e8ddd4" stroke-width="1.51"/><path d="M857,-32L754,40L847,70Z" fill="#e4ddd3" stroke="#e4ddd3" stroke-width="1.51"/><path d="M425,40L353,127L438,164Z" fill="#e6e3d7" stroke="#e6e3d7" stroke-width="1.51"/><path d="M247,249L232,341L318,300Z" fill="#e8e6dc" stroke="#e8e6dc" stroke-width="1.51"/><path d="M751,-25L661,-27L659,40Z" fill="#ebded7" stroke="#ebded7" stroke-width="1.51"/><path d="M1093,313L1121,236L1000,247Z" fill="#d3e0d1" stroke="#d3e0d1" stroke-width="1.51"/><path d="M1035,167L1020,81L934,126Z" fill="#d6decf" stroke="#d6decf" stroke-width="1.51"/><path d="M1213,315L1121,236L1093,313Z" fill="#cedecd" stroke="#cedecd" stroke-width="1.51"/><path d="M1185,403L1093,313L1106,419Z" fill="#d2e1d3" stroke="#d2e1d3" stroke-width="1.51"/><path d="M1093,741L1114,656L1039,662Z" fill="#bcd5c1" stroke="#bcd5c1" stroke-width="1.51"/><path d="M247,249L318,300L336,215Z" fill="#e7e7dc" stroke="#e7e7dc" stroke-width="1.51"/><path d="M1114,139L1020,81L1035,167Z" fill="#d1dccb" stroke="#d1dccb" stroke-width="1.51"/><path d="M925,70L857,-32L847,70Z" fill="#dfdcd0" stroke="#dfdcd0" stroke-width="1.51"/><path d="M661,-27L577,-27L596,39Z" fill="#e9ddd4" stroke="#e9ddd4" stroke-width="1.51"/><path d="M426,848L504,768L431,757Z" fill="#cadaca" stroke="#cadaca" stroke-width="1.51"/><path d="M516,826L598,906L595,833Z" fill="#c6d9cc" stroke="#c6d9cc" stroke-width="1.51"/><path d="M691,858L757,921L752,857Z" fill="#c7dacf" stroke="#c7dacf" stroke-width="1.51"/><path d="M840,910L941,859L848,838Z" fill="#bcd4c5" stroke="#bcd4c5" stroke-width="1.51"/><path d="M496,-7L425,40L481,39Z" fill="#e7dcd2" stroke="#e7dcd2" stroke-width="1.51"/><path d="M481,39L425,40L438,164Z" fill="#e7e1d6" stroke="#e7e1d6" stroke-width="1.51"/><path d="M147,423L252,484L239,415Z" fill="#ece7e0" stroke="#ece7e0" stroke-width="1.51"/><path d="M164,575L241,587L252,484Z" fill="#e1e1d7" stroke="#e1e1d7" stroke-width="1.51"/><path d="M252,484L241,587L320,574Z" fill="#e1e5da" stroke="#e1e5da" stroke-width="1.51"/><path d="M265,661L319,736L317,676Z" fill="#d1ddcc" stroke="#d1ddcc" stroke-width="1.51"/><path d="M317,676L319,736L431,757Z" fill="#cfddcb" stroke="#cfddcb" stroke-width="1.51"/><path d="M1187,514L1102,487L1121,583Z" fill="#caddcd" stroke="#caddcd" stroke-width="1.51"/><path d="M1187,514L1185,403L1102,487Z" fill="#cfe0d3" stroke="#cfe0d3" stroke-width="1.51"/><path d="M848,838L941,859L935,739Z" fill="#bdd5c5" stroke="#bdd5c5" stroke-width="1.51"/><path d="M840,910L848,838L752,857Z" fill="#c1d7ca" stroke="#c1d7ca" stroke-width="1.51"/><path d="M577,-27L496,-7L596,39Z" fill="#e8dcd3" stroke="#e8dcd3" stroke-width="1.51"/><path d="M687,939L757,921L691,858Z" fill="#c5d9cf" stroke="#c5d9cf" stroke-width="1.51"/><path d="M241,587L265,661L320,574Z" fill="#dae2d3" stroke="#dae2d3" stroke-width="1.51"/><path d="M225,125L336,215L353,127Z" fill="#e5e4d7" stroke="#e5e4d7" stroke-width="1.51"/><path d="M225,125L247,249L336,215Z" fill="#e6e4d7" stroke="#e6e4d7" stroke-width="1.51"/><path d="M1184,577L1187,514L1121,583Z" fill="#c5dac9" stroke="#c5dac9" stroke-width="1.51"/><path d="M953,-21L857,-32L925,70Z" fill="#dcd8cb" stroke="#dcd8cb" stroke-width="1.51"/><path d="M751,-25L666,-95L661,-27Z" fill="#ebdad4" stroke="#ebdad4" stroke-width="1.51"/><path d="M661,-27L591,-101L577,-27Z" fill="#e9d9d0" stroke="#e9d9d0" stroke-width="1.51"/><path d="M757,921L840,910L752,857Z" fill="#c1d6cb" stroke="#c1d6cb" stroke-width="1.51"/><path d="M319,736L426,848L431,757Z" fill="#c9dac8" stroke="#c9dac8" stroke-width="1.51"/><path d="M1021,771L1093,741L1039,662Z" fill="#bad5bf" stroke="#bad5bf" stroke-width="1.51"/><path d="M941,859L1003,828L935,739Z" fill="#bad3c1" stroke="#bad3c1" stroke-width="1.51"/><path d="M1043,903L1003,828L941,859Z" fill="#b2cfbd" stroke="#b2cfbd" stroke-width="1.51"/><path d="M1110,818L1093,741L1021,771Z" fill="#b3d0b9" stroke="#b3d0b9" stroke-width="1.51"/><path d="M1114,656L1184,577L1121,583Z" fill="#c1d8c5" stroke="#c1d8c5" stroke-width="1.51"/><path d="M870,1015L917,930L840,910Z" fill="#b5cfc3" stroke="#b5cfc3" stroke-width="1.51"/><path d="M598,906L687,939L691,858Z" fill="#c5d8cd" stroke="#c5d8cd" stroke-width="1.51"/><path d="M683,991L687,939L598,906Z" fill="#c1d5cb" stroke="#c1d5cb" stroke-width="1.51"/><path d="M1184,688L1184,577L1114,656Z" fill="#bbd4c0" stroke="#bbd4c0" stroke-width="1.51"/><path d="M1016,-5L953,-21L925,70Z" fill="#d8d6c7" stroke="#d8d6c7" stroke-width="1.51"/><path d="M1121,236L1114,139L1035,167Z" fill="#d0ddcb" stroke="#d0ddcb" stroke-width="1.51"/><path d="M1190,163L1114,139L1121,236Z" fill="#ccdbc7" stroke="#ccdbc7" stroke-width="1.51"/><path d="M425,40L336,72L353,127Z" fill="#e5dfd3" stroke="#e5dfd3" stroke-width="1.51"/><path d="M343,-19L336,72L425,40Z" fill="#e5dbcf" stroke="#e5dbcf" stroke-width="1.51"/><path d="M426,848L481,907L516,826Z" fill="#c4d6c8" stroke="#c4d6c8" stroke-width="1.51"/><path d="M400,933L481,907L426,848Z" fill="#c1d4c6" stroke="#c1d4c6" stroke-width="1.51"/><path d="M1016,-5L925,70L1020,81Z" fill="#d6d8c9" stroke="#d6d8c9" stroke-width="1.51"/><path d="M1185,403L1213,315L1093,313Z" fill="#cedecf" stroke="#cedecf" stroke-width="1.51"/><path d="M1273,400L1213,315L1185,403Z" fill="#ccdccf" stroke="#ccdccf" stroke-width="1.51"/><path d="M1273,400L1185,403L1293,477Z" fill="#ccddd1" stroke="#ccddd1" stroke-width="1.51"/><path d="M577,-27L492,-108L496,-7Z" fill="#e7d7ce" stroke="#e7d7ce" stroke-width="1.51"/><path d="M496,-7L420,-42L425,40Z" fill="#e6dace" stroke="#e6dace" stroke-width="1.51"/><path d="M772,-110L666,-95L751,-25Z" fill="#ead8d2" stroke="#ead8d2" stroke-width="1.51"/><path d="M772,-110L751,-25L857,-32Z" fill="#e5d7ce" stroke="#e5d7ce" stroke-width="1.51"/><path d="M840,910L917,930L941,859Z" fill="#b7d1c2" stroke="#b7d1c2" stroke-width="1.51"/><path d="M1195,761L1184,688L1093,741Z" fill="#b1d0b7" stroke="#b1d0b7" stroke-width="1.51"/><path d="M754,1005L840,910L757,921Z" fill="#bdd4c9" stroke="#bdd4c9" stroke-width="1.51"/><path d="M1090,57L1016,-5L1020,81Z" fill="#d2d5c4" stroke="#d2d5c4" stroke-width="1.51"/><path d="M864,-125L772,-110L857,-32Z" fill="#e1d2c9" stroke="#e1d2c9" stroke-width="1.51"/><path d="M1114,139L1090,57L1020,81Z" fill="#cfd8c6" stroke="#cfd8c6" stroke-width="1.51"/><path d="M1184,73L1090,57L1114,139Z" fill="#cbd5c2" stroke="#cbd5c2" stroke-width="1.51"/><path d="M1293,477L1185,403L1187,514Z" fill="#ccded2" stroke="#ccded2" stroke-width="1.51"/><path d="M1093,741L1184,688L1114,656Z" fill="#b7d3bc" stroke="#b7d3bc" stroke-width="1.51"/><path d="M1110,818L1021,771L1003,828Z" fill="#b3d0bb" stroke="#b3d0bb" stroke-width="1.51"/><path d="M666,-95L591,-101L661,-27Z" fill="#e9d7cf" stroke="#e9d7cf" stroke-width="1.51"/><path d="M864,-125L857,-32L932,-133Z" fill="#ddcfc4" stroke="#ddcfc4" stroke-width="1.51"/><path d="M666,-95L772,-110L591,-101Z" fill="#e9d5ce" stroke="#e9d5ce" stroke-width="1.51"/><path d="M232,341L147,423L239,415Z" fill="#ebe6dd" stroke="#ebe6dd" stroke-width="1.51"/><path d="M241,587L157,669L265,661Z" fill="#d6ddcd" stroke="#d6ddcd" stroke-width="1.51"/><path d="M141,302L147,423L232,341Z" fill="#eae3d9" stroke="#eae3d9" stroke-width="1.51"/><path d="M165,251L232,341L247,249Z" fill="#e7e3d8" stroke="#e7e3d8" stroke-width="1.51"/><path d="M136,501L164,575L252,484Z" fill="#e4e1d7" stroke="#e4e1d7" stroke-width="1.51"/><path d="M265,661L243,762L319,736Z" fill="#cedac8" stroke="#cedac8" stroke-width="1.51"/><path d="M319,736L311,858L426,848Z" fill="#c6d7c6" stroke="#c6d7c6" stroke-width="1.51"/><path d="M492,-108L420,-42L496,-7Z" fill="#e6d6cb" stroke="#e6d6cb" stroke-width="1.51"/><path d="M1213,315L1208,214L1121,236Z" fill="#cbdbca" stroke="#cbdbca" stroke-width="1.51"/><path d="M687,939L754,1005L757,921Z" fill="#c0d6cd" stroke="#c0d6cd" stroke-width="1.51"/><path d="M606,1030L683,991L598,906Z" fill="#bed3c9" stroke="#bed3c9" stroke-width="1.51"/><path d="M1043,903L1110,818L1003,828Z" fill="#afcdb9" stroke="#afcdb9" stroke-width="1.51"/><path d="M170,746L243,762L265,661Z" fill="#cdd7c5" stroke="#cdd7c5" stroke-width="1.51"/><path d="M1208,214L1190,163L1121,236Z" fill="#cadac8" stroke="#cadac8" stroke-width="1.51"/><path d="M225,125L353,127L336,72Z" fill="#e4e1d3" stroke="#e4e1d3" stroke-width="1.51"/><path d="M225,125L165,251L247,249Z" fill="#e5e1d4" stroke="#e5e1d4" stroke-width="1.51"/><path d="M86,589L136,501L62,472Z" fill="#e3dcd2" stroke="#e3dcd2" stroke-width="1.51"/><path d="M147,423L136,501L252,484Z" fill="#eae4dd" stroke="#eae4dd" stroke-width="1.51"/><path d="M255,61L225,125L336,72Z" fill="#e4ddcf" stroke="#e4ddcf" stroke-width="1.51"/><path d="M683,991L754,1005L687,939Z" fill="#c0d5cc" stroke="#c0d5cc" stroke-width="1.51"/><path d="M516,1028L606,1030L598,906Z" fill="#bcd1c7" stroke="#bcd1c7" stroke-width="1.51"/><path d="M243,762L311,858L319,736Z" fill="#c7d7c4" stroke="#c7d7c4" stroke-width="1.51"/><path d="M1293,477L1187,514L1292,592Z" fill="#c3d8ca" stroke="#c3d8ca" stroke-width="1.51"/><path d="M1213,315L1302,245L1208,214Z" fill="#c7d9c9" stroke="#c7d9c9" stroke-width="1.51"/><path d="M165,251L141,302L232,341Z" fill="#e8e1d7" stroke="#e8e1d7" stroke-width="1.51"/><path d="M420,-42L343,-19L425,40Z" fill="#e5d8cd" stroke="#e5d8cd" stroke-width="1.51"/><path d="M412,-112L343,-19L420,-42Z" fill="#e4d4c8" stroke="#e4d4c8" stroke-width="1.51"/><path d="M1014,1027L1043,903L917,930Z" fill="#accaba" stroke="#accaba" stroke-width="1.51"/><path d="M917,930L1043,903L941,859Z" fill="#b2cebd" stroke="#b2cebd" stroke-width="1.51"/><path d="M311,858L400,933L426,848Z" fill="#c1d4c4" stroke="#c1d4c4" stroke-width="1.51"/><path d="M343,-19L255,61L336,72Z" fill="#e4dbcd" stroke="#e4dbcd" stroke-width="1.51"/><path d="M225,125L146,150L165,251Z" fill="#e5ded1" stroke="#e5ded1" stroke-width="1.51"/><path d="M591,-101L492,-108L577,-27Z" fill="#e7d5cc" stroke="#e7d5cc" stroke-width="1.51"/><path d="M772,-110L492,-108L591,-101Z" fill="#e8d4cc" stroke="#e8d4cc" stroke-width="1.51"/><path d="M932,-133L857,-32L953,-21Z" fill="#dbd1c5" stroke="#dbd1c5" stroke-width="1.51"/><path d="M772,-110L864,-125L492,-108Z" fill="#ead5ce" stroke="#ead5ce" stroke-width="1.51"/><path d="M243,762L256,859L311,858Z" fill="#c4d4c2" stroke="#c4d4c2" stroke-width="1.51"/><path d="M164,575L157,669L241,587Z" fill="#dadcce" stroke="#dadcce" stroke-width="1.51"/><path d="M86,589L157,669L164,575Z" fill="#d9d9cb" stroke="#d9d9cb" stroke-width="1.51"/><path d="M1200,836L1195,761L1110,818Z" fill="#aacab3" stroke="#aacab3" stroke-width="1.51"/><path d="M1110,818L1195,761L1093,741Z" fill="#afceb6" stroke="#afceb6" stroke-width="1.51"/><path d="M1292,592L1187,514L1184,577Z" fill="#c1d8c7" stroke="#c1d8c7" stroke-width="1.51"/><path d="M1292,592L1184,577L1287,654Z" fill="#b9d3c1" stroke="#b9d3c1" stroke-width="1.51"/><path d="M516,1028L598,906L481,907Z" fill="#bfd3c7" stroke="#bfd3c7" stroke-width="1.51"/><path d="M683,991L606,1030L754,1005Z" fill="#bcd2ca" stroke="#bcd2ca" stroke-width="1.51"/><path d="M754,1005L870,1015L840,910Z" fill="#b7d0c6" stroke="#b7d0c6" stroke-width="1.51"/><path d="M606,1030L870,1015L754,1005Z" fill="#bad2ca" stroke="#bad2ca" stroke-width="1.51"/><path d="M1022,-108L932,-133L953,-21Z" fill="#d7cdbf" stroke="#d7cdbf" stroke-width="1.51"/><path d="M1090,57L1087,-29L1016,-5Z" fill="#d0d1c0" stroke="#d0d1c0" stroke-width="1.51"/><path d="M1190,163L1184,73L1114,139Z" fill="#c9d7c3" stroke="#c9d7c3" stroke-width="1.51"/><path d="M1259,129L1184,73L1190,163Z" fill="#c6d4c2" stroke="#c6d4c2" stroke-width="1.51"/><path d="M1259,129L1190,163L1208,214Z" fill="#c6d7c5" stroke="#c6d7c5" stroke-width="1.51"/><path d="M1191,-40L1087,-29L1090,57Z" fill="#cbcdba" stroke="#cbcdba" stroke-width="1.51"/><path d="M1273,400L1301,336L1213,315Z" fill="#c9dacd" stroke="#c9dacd" stroke-width="1.51"/><path d="M1367,403L1301,336L1273,400Z" fill="#c7d9cd" stroke="#c7d9cd" stroke-width="1.51"/><path d="M1287,654L1184,577L1184,688Z" fill="#b8d3bf" stroke="#b8d3bf" stroke-width="1.51"/><path d="M1293,477L1367,403L1273,400Z" fill="#c8dbd0" stroke="#c8dbd0" stroke-width="1.51"/><path d="M178,821L256,859L243,762Z" fill="#c4d2bf" stroke="#c4d2bf" stroke-width="1.51"/><path d="M311,858L334,941L400,933Z" fill="#bed1c2" stroke="#bed1c2" stroke-width="1.51"/><path d="M157,669L170,746L265,661Z" fill="#d0d8c6" stroke="#d0d8c6" stroke-width="1.51"/><path d="M348,-127L412,-112L492,-108Z" fill="#e4cfc4" stroke="#e4cfc4" stroke-width="1.51"/><path d="M1022,-108L953,-21L1016,-5Z" fill="#d5cfc0" stroke="#d5cfc0" stroke-width="1.51"/><path d="M238,-42L163,72L255,61Z" fill="#e3d5c8" stroke="#e3d5c8" stroke-width="1.51"/><path d="M492,-108L412,-112L420,-42Z" fill="#e5d2c7" stroke="#e5d2c7" stroke-width="1.51"/><path d="M348,-127L492,-108L864,-125Z" fill="#e7d2c9" stroke="#e7d2c9" stroke-width="1.51"/><path d="M418,1011L481,907L400,933Z" fill="#bcd1c4" stroke="#bcd1c4" stroke-width="1.51"/><path d="M418,1011L516,1028L481,907Z" fill="#bad0c4" stroke="#bad0c4" stroke-width="1.51"/><path d="M260,932L334,941L311,858Z" fill="#bed1c1" stroke="#bed1c1" stroke-width="1.51"/><path d="M163,72L146,150L225,125Z" fill="#e4dacc" stroke="#e4dacc" stroke-width="1.51"/><path d="M63,247L75,313L141,302Z" fill="#e7dcd1" stroke="#e7dcd1" stroke-width="1.51"/><path d="M163,72L225,125L255,61Z" fill="#e3dacc" stroke="#e3dacc" stroke-width="1.51"/><path d="M1283,769L1287,654L1184,688Z" fill="#afcdb7" stroke="#afcdb7" stroke-width="1.51"/><path d="M1301,336L1302,245L1213,315Z" fill="#c7d9ca" stroke="#c7d9ca" stroke-width="1.51"/><path d="M1119,-104L1022,-108L1087,-29Z" fill="#cec9b7" stroke="#cec9b7" stroke-width="1.51"/><path d="M1087,-29L1022,-108L1016,-5Z" fill="#d1cdbd" stroke="#d1cdbd" stroke-width="1.51"/><path d="M136,501L86,589L164,575Z" fill="#e0dbd0" stroke="#e0dbd0" stroke-width="1.51"/><path d="M157,669L65,684L170,746Z" fill="#cfd3c1" stroke="#cfd3c1" stroke-width="1.51"/><path d="M62,472L136,501L147,423Z" fill="#eae1d9" stroke="#eae1d9" stroke-width="1.51"/><path d="M75,313L147,423L141,302Z" fill="#e9dfd6" stroke="#e9dfd6" stroke-width="1.51"/><path d="M1195,761L1283,769L1184,688Z" fill="#acccb5" stroke="#acccb5" stroke-width="1.51"/><path d="M1043,903L1124,911L1110,818Z" fill="#aac9b5" stroke="#aac9b5" stroke-width="1.51"/><path d="M1124,989L1124,911L1043,903Z" fill="#a5c6b3" stroke="#a5c6b3" stroke-width="1.51"/><path d="M63,247L141,302L165,251Z" fill="#e7ddd2" stroke="#e7ddd2" stroke-width="1.51"/><path d="M1191,-40L1119,-104L1087,-29Z" fill="#cac8b5" stroke="#cac8b5" stroke-width="1.51"/><path d="M1302,245L1259,129L1208,214Z" fill="#c5d7c5" stroke="#c5d7c5" stroke-width="1.51"/><path d="M60,406L62,472L147,423Z" fill="#ebe0d8" stroke="#ebe0d8" stroke-width="1.51"/><path d="M334,941L418,1011L400,933Z" fill="#bbcfc2" stroke="#bbcfc2" stroke-width="1.51"/><path d="M1124,911L1200,836L1110,818Z" fill="#a7c9b2" stroke="#a7c9b2" stroke-width="1.51"/><path d="M870,1015L950,1026L917,930Z" fill="#afccbe" stroke="#afccbe" stroke-width="1.51"/><path d="M606,1030L950,1026L870,1015Z" fill="#b5cec5" stroke="#b5cec5" stroke-width="1.51"/><path d="M75,313L60,406L147,423Z" fill="#e9ded6" stroke="#e9ded6" stroke-width="1.51"/><path d="M53,774L178,821L170,746Z" fill="#c7cebb" stroke="#c7cebb" stroke-width="1.51"/><path d="M170,746L178,821L243,762Z" fill="#c7d2bf" stroke="#c7d2bf" stroke-width="1.51"/><path d="M256,859L260,932L311,858Z" fill="#bfd1c0" stroke="#bfd1c0" stroke-width="1.51"/><path d="M334,941L312,1020L418,1011Z" fill="#b8cdc0" stroke="#b8cdc0" stroke-width="1.51"/><path d="M146,150L63,247L165,251Z" fill="#e5dccf" stroke="#e5dccf" stroke-width="1.51"/><path d="M238,-42L255,61L343,-19Z" fill="#e3d6c9" stroke="#e3d6c9" stroke-width="1.51"/><path d="M147,938L260,932L256,859Z" fill="#bdcdbc" stroke="#bdcdbc" stroke-width="1.51"/><path d="M412,-112L348,-127L343,-19Z" fill="#e3d1c5" stroke="#e3d1c5" stroke-width="1.51"/><path d="M932,-133L348,-127L864,-125Z" fill="#ead4cd" stroke="#ead4cd" stroke-width="1.51"/><path d="M-12,302L-6,427L60,406Z" fill="#e9d9d1" stroke="#e9d9d1" stroke-width="1.51"/><path d="M76,150L63,247L146,150Z" fill="#e4d9cc" stroke="#e4d9cc" stroke-width="1.51"/><path d="M249,-116L238,-42L343,-19Z" fill="#e2d1c4" stroke="#e2d1c4" stroke-width="1.51"/><path d="M1345,669L1350,584L1292,592Z" fill="#b5d0bf" stroke="#b5d0bf" stroke-width="1.51"/><path d="M1292,592L1350,584L1293,477Z" fill="#bdd5c6" stroke="#bdd5c6" stroke-width="1.51"/><path d="M1301,336L1367,325L1302,245Z" fill="#c4d7c9" stroke="#c4d7c9" stroke-width="1.51"/><path d="M1345,669L1292,592L1287,654Z" fill="#b3cfbd" stroke="#b3cfbd" stroke-width="1.51"/><path d="M1382,498L1367,403L1293,477Z" fill="#c6d9cf" stroke="#c6d9cf" stroke-width="1.51"/><path d="M1389,78L1261,67L1259,129Z" fill="#c1cebd" stroke="#c1cebd" stroke-width="1.51"/><path d="M950,1026L1014,1027L917,930Z" fill="#abc9bb" stroke="#abc9bb" stroke-width="1.51"/><path d="M1280,824L1195,761L1200,836Z" fill="#a7c8b1" stroke="#a7c8b1" stroke-width="1.51"/><path d="M606,1030L1014,1027L950,1026Z" fill="#b0ccc1" stroke="#b0ccc1" stroke-width="1.51"/><path d="M1280,824L1283,769L1195,761Z" fill="#a7c8b1" stroke="#a7c8b1" stroke-width="1.51"/><path d="M1187,933L1200,836L1124,911Z" fill="#a3c6b0" stroke="#a3c6b0" stroke-width="1.51"/><path d="M1259,129L1261,67L1184,73Z" fill="#c5d1be" stroke="#c5d1be" stroke-width="1.51"/><path d="M1354,168L1259,129L1302,245Z" fill="#c2d4c3" stroke="#c2d4c3" stroke-width="1.51"/><path d="M1367,403L1367,325L1301,336Z" fill="#c4d7cb" stroke="#c4d7cb" stroke-width="1.51"/><path d="M265,1033L312,1020L260,932Z" fill="#b6cbbd" stroke="#b6cbbd" stroke-width="1.51"/><path d="M86,589L65,684L157,669Z" fill="#d5d5c5" stroke="#d5d5c5" stroke-width="1.51"/><path d="M4,663L65,684L86,589Z" fill="#d5d2c2" stroke="#d5d2c2" stroke-width="1.51"/><path d="M-23,562L86,589L62,472Z" fill="#e1d7cd" stroke="#e1d7cd" stroke-width="1.51"/><path d="M1191,-40L1090,57L1184,73Z" fill="#c9cfbb" stroke="#c9cfbb" stroke-width="1.51"/><path d="M1022,-108L1119,-104L932,-133Z" fill="#d2c8b9" stroke="#d2c8b9" stroke-width="1.51"/><path d="M1261,67L1191,-40L1184,73Z" fill="#c6cdba" stroke="#c6cdba" stroke-width="1.51"/><path d="M1367,403L1456,317L1367,325Z" fill="#c1d5ca" stroke="#c1d5ca" stroke-width="1.51"/><path d="M1350,584L1382,498L1293,477Z" fill="#bfd5c9" stroke="#bfd5c9" stroke-width="1.51"/><path d="M1433,478L1382,498L1450,600Z" fill="#bad2c6" stroke="#bad2c6" stroke-width="1.51"/><path d="M1283,769L1345,669L1287,654Z" fill="#adcbb7" stroke="#adcbb7" stroke-width="1.51"/><path d="M163,72L76,150L146,150Z" fill="#e3d8ca" stroke="#e3d8ca" stroke-width="1.51"/><path d="M81,44L76,150L163,72Z" fill="#e3d4c6" stroke="#e3d4c6" stroke-width="1.51"/><path d="M1367,325L1367,247L1302,245Z" fill="#c2d5c7" stroke="#c2d5c7" stroke-width="1.51"/><path d="M1456,317L1367,247L1367,325Z" fill="#bfd3c7" stroke="#bfd3c7" stroke-width="1.51"/><path d="M1283,769L1382,751L1345,669Z" fill="#a7c8b3" stroke="#a7c8b3" stroke-width="1.51"/><path d="M1124,989L1187,933L1124,911Z" fill="#a0c4af" stroke="#a0c4af" stroke-width="1.51"/><path d="M1014,1027L1124,989L1043,903Z" fill="#a5c6b4" stroke="#a5c6b4" stroke-width="1.51"/><path d="M1299,904L1280,824L1200,836Z" fill="#a1c4af" stroke="#a1c4af" stroke-width="1.51"/><path d="M260,932L312,1020L334,941Z" fill="#b9cebf" stroke="#b9cebf" stroke-width="1.51"/><path d="M418,1011L312,1020L516,1028Z" fill="#b7cdc1" stroke="#b7cdc1" stroke-width="1.51"/><path d="M265,1033L260,932L177,999Z" fill="#b6c9ba" stroke="#b6c9ba" stroke-width="1.51"/><path d="M60,406L-6,427L62,472Z" fill="#eadcd5" stroke="#eadcd5" stroke-width="1.51"/><path d="M-12,302L60,406L75,313Z" fill="#e8dad1" stroke="#e8dad1" stroke-width="1.51"/><path d="M-12,302L75,313L63,247Z" fill="#e6d9ce" stroke="#e6d9ce" stroke-width="1.51"/><path d="M1367,247L1354,168L1302,245Z" fill="#c1d3c4" stroke="#c1d3c4" stroke-width="1.51"/><path d="M1261,67L1273,-26L1191,-40Z" fill="#c4c9b7" stroke="#c4c9b7" stroke-width="1.51"/><path d="M238,-42L175,-47L163,72Z" fill="#e2d0c3" stroke="#e2d0c3" stroke-width="1.51"/><path d="M348,-127L249,-116L343,-19Z" fill="#e2d0c3" stroke="#e2d0c3" stroke-width="1.51"/><path d="M249,-116L175,-47L238,-42Z" fill="#e1cdbf" stroke="#e1cdbf" stroke-width="1.51"/><path d="M-6,427L-23,477L62,472Z" fill="#eadbd4" stroke="#eadbd4" stroke-width="1.51"/><path d="M-94,493L-23,477L-6,427Z" fill="#e9d7d0" stroke="#e9d7d0" stroke-width="1.51"/><path d="M-18,229L-12,302L63,247Z" fill="#e5d6cb" stroke="#e5d6cb" stroke-width="1.51"/><path d="M-18,229L63,247L76,150Z" fill="#e4d6ca" stroke="#e4d6ca" stroke-width="1.51"/><path d="M65,684L53,774L170,746Z" fill="#cbcebc" stroke="#cbcebc" stroke-width="1.51"/><path d="M7,751L53,774L65,684Z" fill="#cacbb8" stroke="#cacbb8" stroke-width="1.51"/><path d="M-23,562L4,663L86,589Z" fill="#d9d2c5" stroke="#d9d2c5" stroke-width="1.51"/><path d="M175,-47L81,44L163,72Z" fill="#e2d0c2" stroke="#e2d0c2" stroke-width="1.51"/><path d="M-23,477L-23,562L62,472Z" fill="#e5d7ce" stroke="#e5d7ce" stroke-width="1.51"/><path d="M1382,498L1433,478L1367,403Z" fill="#c3d7ce" stroke="#c3d7ce" stroke-width="1.51"/><path d="M1367,247L1469,163L1354,168Z" fill="#bdd1c2" stroke="#bdd1c2" stroke-width="1.51"/><path d="M1450,600L1382,498L1350,584Z" fill="#b7d1c3" stroke="#b7d1c3" stroke-width="1.51"/><path d="M1450,600L1350,584L1345,669Z" fill="#b1cdbd" stroke="#b1cdbd" stroke-width="1.51"/><path d="M1362,-22L1273,-26L1261,67Z" fill="#c0c7b6" stroke="#c0c7b6" stroke-width="1.51"/><path d="M1191,-40L1204,-112L1119,-104Z" fill="#c7c4b1" stroke="#c7c4b1" stroke-width="1.51"/><path d="M312,1020L265,1033L516,1028Z" fill="#b5cbbf" stroke="#b5cbbf" stroke-width="1.51"/><path d="M516,1028L265,1033L606,1030Z" fill="#b7cdc2" stroke="#b7cdc2" stroke-width="1.51"/><path d="M606,1030L1286,1032L1014,1027Z" fill="#a8c7b9" stroke="#a8c7b9" stroke-width="1.51"/><path d="M147,938L256,859L178,821Z" fill="#c0cdbc" stroke="#c0cdbc" stroke-width="1.51"/><path d="M1259,-90L1204,-112L1191,-40Z" fill="#c5c3b0" stroke="#c5c3b0" stroke-width="1.51"/><path d="M1119,-104L1204,-112L932,-133Z" fill="#cdc5b4" stroke="#cdc5b4" stroke-width="1.51"/><path d="M53,774L86,858L178,821Z" fill="#c4cbb8" stroke="#c4cbb8" stroke-width="1.51"/><path d="M64,907L86,858L-13,828Z" fill="#c0c4b3" stroke="#c0c4b3" stroke-width="1.51"/><path d="M86,858L147,938L178,821Z" fill="#c0c9b8" stroke="#c0c9b8" stroke-width="1.51"/><path d="M-12,302L-87,319L-6,427Z" fill="#e8d5cd" stroke="#e8d5cd" stroke-width="1.51"/><path d="M-31,141L-18,229L76,150Z" fill="#e3d3c7" stroke="#e3d3c7" stroke-width="1.51"/><path d="M1014,1027L1181,1013L1124,989Z" fill="#9ec2b0" stroke="#9ec2b0" stroke-width="1.51"/><path d="M1124,989L1181,1013L1187,933Z" fill="#9dc1ad" stroke="#9dc1ad" stroke-width="1.51"/><path d="M1187,933L1299,904L1200,836Z" fill="#a0c3ae" stroke="#a0c3ae" stroke-width="1.51"/><path d="M1353,843L1283,769L1280,824Z" fill="#a2c4af" stroke="#a2c4af" stroke-width="1.51"/><path d="M1353,843L1382,751L1283,769Z" fill="#a2c5af" stroke="#a2c5af" stroke-width="1.51"/><path d="M1286,1032L1299,904L1187,933Z" fill="#99bfab" stroke="#99bfab" stroke-width="1.51"/><path d="M-13,828L7,751L-96,769Z" fill="#c6c4b1" stroke="#c6c4b1" stroke-width="1.51"/><path d="M4,663L7,751L65,684Z" fill="#cecdbb" stroke="#cecdbb" stroke-width="1.51"/><path d="M1362,-22L1259,-90L1273,-26Z" fill="#c1c3b1" stroke="#c1c3b1" stroke-width="1.51"/><path d="M1476,404L1456,317L1367,403Z" fill="#c0d4ca" stroke="#c0d4ca" stroke-width="1.51"/><path d="M1461,680L1450,600L1345,669Z" fill="#accab9" stroke="#accab9" stroke-width="1.51"/><path d="M1433,478L1476,404L1367,403Z" fill="#c2d6cd" stroke="#c2d6cd" stroke-width="1.51"/><path d="M1273,-26L1259,-90L1191,-40Z" fill="#c4c4b2" stroke="#c4c4b2" stroke-width="1.51"/><path d="M1389,78L1259,129L1354,168Z" fill="#bfd0bf" stroke="#bfd0bf" stroke-width="1.51"/><path d="M147,938L177,999L260,932Z" fill="#b9c8b9" stroke="#b9c8b9" stroke-width="1.51"/><path d="M71,1004L177,999L147,938Z" fill="#b7c3b4" stroke="#b7c3b4" stroke-width="1.51"/><path d="M64,907L147,938L86,858Z" fill="#bdc6b5" stroke="#bdc6b5" stroke-width="1.51"/><path d="M1299,904L1353,843L1280,824Z" fill="#9ec2ae" stroke="#9ec2ae" stroke-width="1.51"/><path d="M1382,751L1461,680L1345,669Z" fill="#a7c8b5" stroke="#a7c8b5" stroke-width="1.51"/><path d="M1469,163L1389,78L1354,168Z" fill="#bccfbe" stroke="#bccfbe" stroke-width="1.51"/><path d="M1532,489L1476,404L1433,478Z" fill="#bed4cc" stroke="#bed4cc" stroke-width="1.51"/><path d="M-10,82L-31,141L76,150Z" fill="#e2d1c3" stroke="#e2d1c3" stroke-width="1.51"/><path d="M-18,229L-87,319L-12,302Z" fill="#e6d4c9" stroke="#e6d4c9" stroke-width="1.51"/><path d="M-23,477L-94,493L-23,562Z" fill="#e3d4cb" stroke="#e3d4cb" stroke-width="1.51"/><path d="M-10,82L76,150L81,44Z" fill="#e2d0c2" stroke="#e2d0c2" stroke-width="1.51"/><path d="M-10,82L81,44L-6,-8Z" fill="#e1cabc" stroke="#e1cabc" stroke-width="1.51"/><path d="M1456,317L1469,252L1367,247Z" fill="#bdd2c5" stroke="#bdd2c5" stroke-width="1.51"/><path d="M1534,335L1469,252L1456,317Z" fill="#bbd0c5" stroke="#bbd0c5" stroke-width="1.51"/><path d="M-13,828L86,858L53,774Z" fill="#c3c7b5" stroke="#c3c7b5" stroke-width="1.51"/><path d="M58,-47L81,44L175,-47Z" fill="#e1cabd" stroke="#e1cabd" stroke-width="1.51"/><path d="M-93,222L-87,319L-18,229Z" fill="#e5d1c6" stroke="#e5d1c6" stroke-width="1.51"/><path d="M-23,562L-120,600L4,663Z" fill="#d8cec0" stroke="#d8cec0" stroke-width="1.51"/><path d="M249,-116L139,-128L175,-47Z" fill="#e1c8bb" stroke="#e1c8bb" stroke-width="1.51"/><path d="M348,-127L139,-128L249,-116Z" fill="#e1c9bc" stroke="#e1c9bc" stroke-width="1.51"/><path d="M932,-133L139,-128L348,-127Z" fill="#e5cfc5" stroke="#e5cfc5" stroke-width="1.51"/><path d="M-114,385L-94,493L-6,427Z" fill="#ead6ce" stroke="#ead6ce" stroke-width="1.51"/><path d="M7,751L-13,828L53,774Z" fill="#c6c7b4" stroke="#c6c7b4" stroke-width="1.51"/><path d="M1450,600L1532,489L1433,478Z" fill="#b7d0c5" stroke="#b7d0c5" stroke-width="1.51"/><path d="M1469,733L1461,680L1382,751Z" fill="#a3c5b1" stroke="#a3c5b1" stroke-width="1.51"/><path d="M94,-100L58,-47L175,-47Z" fill="#e1c6b9" stroke="#e1c6b9" stroke-width="1.51"/><path d="M1450,46L1362,-22L1389,78Z" fill="#bbc6b6" stroke="#bbc6b6" stroke-width="1.51"/><path d="M1389,78L1362,-22L1261,67Z" fill="#bfc9b8" stroke="#bfc9b8" stroke-width="1.51"/><path d="M139,-128L94,-100L175,-47Z" fill="#e0c5b8" stroke="#e0c5b8" stroke-width="1.51"/><path d="M-102,683L7,751L4,663Z" fill="#cec9b8" stroke="#cec9b8" stroke-width="1.51"/><path d="M-87,319L-114,385L-6,427Z" fill="#e8d4cc" stroke="#e8d4cc" stroke-width="1.51"/><path d="M-93,222L-114,385L-87,319Z" fill="#e6d1c7" stroke="#e6d1c7" stroke-width="1.51"/><path d="M1469,252L1469,163L1367,247Z" fill="#bcd0c2" stroke="#bcd0c2" stroke-width="1.51"/><path d="M1540,251L1469,163L1469,252Z" fill="#b8cec1" stroke="#b8cec1" stroke-width="1.51"/><path d="M-89,147L-31,141L-115,69Z" fill="#e1cbbe" stroke="#e1cbbe" stroke-width="1.51"/><path d="M-89,147L-93,222L-31,141Z" fill="#e2cec1" stroke="#e2cec1" stroke-width="1.51"/><path d="M-31,141L-93,222L-18,229Z" fill="#e3d1c4" stroke="#e3d1c4" stroke-width="1.51"/><path d="M1547,584L1532,489L1450,600Z" fill="#b1cdc1" stroke="#b1cdc1" stroke-width="1.51"/><path d="M1467,836L1469,733L1382,751Z" fill="#9ec2ae" stroke="#9ec2ae" stroke-width="1.51"/><path d="M1467,836L1382,751L1353,843Z" fill="#9dc1ad" stroke="#9dc1ad" stroke-width="1.51"/><path d="M1476,404L1534,335L1456,317Z" fill="#bcd1c7" stroke="#bcd1c7" stroke-width="1.51"/><path d="M1547,584L1450,600L1543,644Z" fill="#abc9bb" stroke="#abc9bb" stroke-width="1.51"/><path d="M58,-47L-6,-8L81,44Z" fill="#e1c7ba" stroke="#e1c7ba" stroke-width="1.51"/><path d="M0,-128L-6,-8L58,-47Z" fill="#e0c1b4" stroke="#e0c1b4" stroke-width="1.51"/><path d="M1299,904L1375,939L1353,843Z" fill="#99beac" stroke="#99beac" stroke-width="1.51"/><path d="M1181,1013L1286,1032L1187,933Z" fill="#98beab" stroke="#98beab" stroke-width="1.51"/><path d="M1014,1027L1286,1032L1181,1013Z" fill="#99beac" stroke="#99beac" stroke-width="1.51"/><path d="M265,1033L1286,1032L606,1030Z" fill="#bbd2cb" stroke="#bbd2cb" stroke-width="1.51"/><path d="M-94,493L-120,600L-23,562Z" fill="#dfcfc5" stroke="#dfcfc5" stroke-width="1.51"/><path d="M-114,385L-120,600L-94,493Z" fill="#e5d1c9" stroke="#e5d1c9" stroke-width="1.51"/><path d="M-120,600L-102,683L4,663Z" fill="#d4cabb" stroke="#d4cabb" stroke-width="1.51"/><path d="M1550,388L1534,335L1476,404Z" fill="#bbd1c8" stroke="#bbd1c8" stroke-width="1.51"/><path d="M-115,69L-31,141L-10,82Z" fill="#e1cabd" stroke="#e1cabd" stroke-width="1.51"/><path d="M-93,222L-115,69L-114,385Z" fill="#e3cdc2" stroke="#e3cdc2" stroke-width="1.51"/><path d="M1354,990L1375,939L1299,904Z" fill="#95bcaa" stroke="#95bcaa" stroke-width="1.51"/><path d="M1469,163L1450,46L1389,78Z" fill="#b9caba" stroke="#b9caba" stroke-width="1.51"/><path d="M1472,-5L1450,46L1521,65Z" fill="#b7c3b4" stroke="#b7c3b4" stroke-width="1.51"/><path d="M-19,934L64,907L-13,828Z" fill="#bec1b0" stroke="#bec1b0" stroke-width="1.51"/><path d="M-19,934L71,1004L64,907Z" fill="#b9bfb0" stroke="#b9bfb0" stroke-width="1.51"/><path d="M64,907L71,1004L147,938Z" fill="#b9c2b3" stroke="#b9c2b3" stroke-width="1.51"/><path d="M177,999L71,1004L265,1033Z" fill="#b5c4b6" stroke="#b5c4b6" stroke-width="1.51"/><path d="M1534,335L1540,251L1469,252Z" fill="#b8cec3" stroke="#b8cec3" stroke-width="1.51"/><path d="M1532,489L1550,388L1476,404Z" fill="#bcd3cb" stroke="#bcd3cb" stroke-width="1.51"/><path d="M1286,1032L1354,990L1299,904Z" fill="#94bcaa" stroke="#94bcaa" stroke-width="1.51"/><path d="M1543,644L1461,680L1532,755Z" fill="#a2c4b2" stroke="#a2c4b2" stroke-width="1.51"/><path d="M1543,644L1450,600L1461,680Z" fill="#a9c8b9" stroke="#a9c8b9" stroke-width="1.51"/><path d="M1532,489L1547,584L1550,388Z" fill="#b7d0c7" stroke="#b7d0c7" stroke-width="1.51"/><path d="M1467,836L1353,843L1457,919Z" fill="#97bdaa" stroke="#97bdaa" stroke-width="1.51"/><path d="M1550,388L1540,251L1534,335Z" fill="#b8cfc5" stroke="#b8cfc5" stroke-width="1.51"/><path d="M-102,683L-96,769L7,751Z" fill="#cac5b2" stroke="#cac5b2" stroke-width="1.51"/><path d="M-120,600L-96,769L-102,683Z" fill="#d0c6b5" stroke="#d0c6b5" stroke-width="1.51"/><path d="M1457,919L1353,843L1375,939Z" fill="#96bcab" stroke="#96bcab" stroke-width="1.51"/><path d="M1532,755L1461,680L1469,733Z" fill="#a0c3b0" stroke="#a0c3b0" stroke-width="1.51"/><path d="M1362,-22L1371,-117L1259,-90Z" fill="#bfbfae" stroke="#bfbfae" stroke-width="1.51"/><path d="M1259,-90L1371,-117L1204,-112Z" fill="#c1bead" stroke="#c1bead" stroke-width="1.51"/><path d="M1204,-112L1371,-117L932,-133Z" fill="#c7c1ae" stroke="#c7c1ae" stroke-width="1.51"/><path d="M1440,-114L1371,-117L1362,-22Z" fill="#bbbcac" stroke="#bbbcac" stroke-width="1.51"/><path d="M-88,822L-19,934L-13,828Z" fill="#c0bfae" stroke="#c0bfae" stroke-width="1.51"/><path d="M-96,769L-88,822L-13,828Z" fill="#c4c1ae" stroke="#c4c1ae" stroke-width="1.51"/><path d="M1521,65L1450,46L1469,163Z" fill="#b7c8b9" stroke="#b7c8b9" stroke-width="1.51"/><path d="M1450,46L1472,-5L1362,-22Z" fill="#bac2b3" stroke="#bac2b3" stroke-width="1.51"/><path d="M1467,836L1532,755L1469,733Z" fill="#9ac0ac" stroke="#9ac0ac" stroke-width="1.51"/><path d="M1530,858L1532,755L1467,836Z" fill="#96bdaa" stroke="#96bdaa" stroke-width="1.51"/><path d="M-85,-17L-115,69L-10,82Z" fill="#e0c5b8" stroke="#e0c5b8" stroke-width="1.51"/><path d="M-89,147L-115,69L-93,222Z" fill="#e1ccbf" stroke="#e1ccbf" stroke-width="1.51"/><path d="M-114,385L-115,69L-120,600Z" fill="#e7d0c8" stroke="#e7d0c8" stroke-width="1.51"/><path d="M-85,-17L-10,82L-6,-8Z" fill="#e0c4b8" stroke="#e0c4b8" stroke-width="1.51"/><path d="M1466,1010L1457,919L1375,939Z" fill="#8fb8a8" stroke="#8fb8a8" stroke-width="1.51"/><path d="M94,-100L0,-128L58,-47Z" fill="#dfc0b3" stroke="#dfc0b3" stroke-width="1.51"/><path d="M139,-128L0,-128L94,-100Z" fill="#dfbfb3" stroke="#dfbfb3" stroke-width="1.51"/><path d="M932,-133L0,-128L139,-128Z" fill="#e3cdc1" stroke="#e3cdc1" stroke-width="1.51"/><path d="M1556,125L1521,65L1469,163Z" fill="#b5c8ba" stroke="#b5c8ba" stroke-width="1.51"/><path d="M-80,-93L-85,-17L-6,-8Z" fill="#dfbeb1" stroke="#dfbeb1" stroke-width="1.51"/><path d="M1540,251L1556,125L1469,163Z" fill="#b6ccbe" stroke="#b6ccbe" stroke-width="1.51"/><path d="M1550,388L1556,125L1540,251Z" fill="#b6cdc2" stroke="#b6cdc2" stroke-width="1.51"/><path d="M1547,584L1556,125L1550,388Z" fill="#b9cfc7" stroke="#b9cfc7" stroke-width="1.51"/><path d="M-107,936L-24,996L-19,934Z" fill="#b8baab" stroke="#b8baab" stroke-width="1.51"/><path d="M-19,934L-24,996L71,1004Z" fill="#b7bcad" stroke="#b7bcad" stroke-width="1.51"/><path d="M71,1004L-106,993L265,1033Z" fill="#b4beb0" stroke="#b4beb0" stroke-width="1.51"/><path d="M1472,-5L1440,-114L1362,-22Z" fill="#babeae" stroke="#babeae" stroke-width="1.51"/><path d="M1536,-22L1440,-114L1472,-5Z" fill="#b7bcad" stroke="#b7bcad" stroke-width="1.51"/><path d="M1536,-22L1472,-5L1521,65Z" fill="#b5c0b1" stroke="#b5c0b1" stroke-width="1.51"/><path d="M1457,919L1530,858L1467,836Z" fill="#93bba9" stroke="#93bba9" stroke-width="1.51"/><path d="M1532,755L1530,858L1543,644Z" fill="#9abfac" stroke="#9abfac" stroke-width="1.51"/><path d="M1543,644L1531,1032L1547,584Z" fill="#99bfac" stroke="#99bfac" stroke-width="1.51"/><path d="M0,-128L-80,-93L-6,-8Z" fill="#dfbdb0" stroke="#dfbdb0" stroke-width="1.51"/><path d="M-85,-17L-80,-93L-115,69Z" fill="#dfbeb1" stroke="#dfbeb1" stroke-width="1.51"/><path d="M-88,822L-107,936L-19,934Z" fill="#bdbcab" stroke="#bdbcab" stroke-width="1.51"/><path d="M-96,769L-107,936L-88,822Z" fill="#c1bdab" stroke="#c1bdab" stroke-width="1.51"/><path d="M-120,600L-107,936L-96,769Z" fill="#c6c0ad" stroke="#c6c0ad" stroke-width="1.51"/><path d="M1556,125L1536,-22L1521,65Z" fill="#b3c2b4" stroke="#b3c2b4" stroke-width="1.51"/><path d="M1457,919L1530,924L1530,858Z" fill="#8fb8a8" stroke="#8fb8a8" stroke-width="1.51"/><path d="M1354,990L1466,1010L1375,939Z" fill="#8fb8a8" stroke="#8fb8a8" stroke-width="1.51"/><path d="M1286,1032L1466,1010L1354,990Z" fill="#8eb7a7" stroke="#8eb7a7" stroke-width="1.51"/><path d="M1466,1010L1530,924L1457,919Z" fill="#8cb6a7" stroke="#8cb6a7" stroke-width="1.51"/><path d="M1530,858L1530,924L1543,644Z" fill="#95bcaa" stroke="#95bcaa" stroke-width="1.51"/><path d="M-107,936L-106,993L-24,996Z" fill="#b7b7a8" stroke="#b7b7a8" stroke-width="1.51"/><path d="M-24,996L-106,993L71,1004Z" fill="#b5b9ab" stroke="#b5b9ab" stroke-width="1.51"/><path d="M-120,600L-106,993L-107,936Z" fill="#c1bcab" stroke="#c1bcab" stroke-width="1.51"/><path d="M1466,1010L1531,1032L1530,924Z" fill="#88b3a4" stroke="#88b3a4" stroke-width="1.51"/><path d="M1530,924L1531,1032L1543,644Z" fill="#91b9a8" stroke="#91b9a8" stroke-width="1.51"/><path d="M1286,1032L1531,1032L1466,1010Z" fill="#8ab4a5" stroke="#8ab4a5" stroke-width="1.51"/><path d="M265,1033L1531,1032L1286,1032Z" fill="#a3c4b4" stroke="#a3c4b4" stroke-width="1.51"/><path d="M1536,-22L1554,-129L1440,-114Z" fill="#b5b8a9" stroke="#b5b8a9" stroke-width="1.51"/><path d="M1440,-114L1554,-129L1371,-117Z" fill="#b7b7a8" stroke="#b7b7a8" stroke-width="1.51"/><path d="M1371,-117L1554,-129L932,-133Z" fill="#c1bdab" stroke="#c1bdab" stroke-width="1.51"/><path d="M1556,125L1554,-129L1536,-22Z" fill="#b3bdaf" stroke="#b3bdaf" stroke-width="1.51"/></svg>