<svg xmlns="http://www.w3.org/2000/svg" width="512" height="512" style="isolation:isolate"><defs><clipPath id="a"><path d="M0 0h512v512H0z"/></clipPath></defs><g clip-path="url(#a)"><clipPath id="b"><path fill="#FFF" d="M0 0h512v512H0z"/></clipPath><g clip-path="url(#b)"><path fill="#9D9D9D" fill-rule="evenodd" d="M190.093 359.243c-22.17.077-41.212-13.28-50.193-28.834-4.796-6.794-14.283-9.211-14.418 0v42.53c0 17.087-6.229 31.86-18.688 44.319-12.104 12.104-26.877 18.155-44.32 18.155-17.087 0-31.86-6.051-44.319-18.155C6.052 404.799 0 390.026 0 372.939V139.061c0-13.171 3.738-25.096 11.213-35.776 7.832-11.035 17.799-18.689 29.903-22.96 6.763-2.492 13.883-3.738 21.358-3.738 19.223 0 35.242 7.475 48.057 22.426 6.764 7.476 10.68 11.392 11.748 11.748 0 0 50.764 61.384 52.188 62.452 1.424 1.068 5.606 9.233 15.626 9.233 10.019 0 14.736-8.165 16.16-9.233 1.423-1.068 52.187-62.452 52.187-62.452.356.356 4.094-3.56 11.214-11.748 13.171-14.951 29.368-22.426 48.591-22.426 7.119 0 14.239 1.246 21.358 3.738 12.104 4.271 21.893 11.925 29.369 22.96 7.831 10.68 11.747 22.605 11.747 35.776v233.878c0 17.087-6.23 31.86-18.689 44.319-12.103 12.104-26.876 18.155-44.319 18.155-17.087 0-31.86-6.051-44.32-18.155-12.103-12.459-18.154-27.232-18.154-44.319v-42.53c-1.053-11.607-11.312-4.293-14.952 0-9.611 17.799-28.023 28.758-50.192 28.834zm267.442-174.795q-22.426 0-38.445-15.485-15.485-16.019-15.485-38.445 0-22.427 15.485-37.912 16.019-16.019 38.445-16.019 22.427 0 38.446 16.019Q512 108.091 512 130.518q0 22.426-16.019 38.445-16.019 15.485-38.446 15.485zm.534 10.68q22.427 0 37.912 16.019Q512 227.166 512 249.592v131.89q0 22.427-16.019 38.446-15.485 15.485-37.912 15.485-22.426 0-38.445-15.485-16.019-16.019-16.019-38.446v-131.89q0-22.426 16.019-38.445 16.019-16.019 38.445-16.019z"/></g></g></svg>
