<?xml version="1.0" encoding="utf-8"?>
<!-- Generator: Adobe Illustrator 16.0.3, SVG Export Plug-In . SVG Version: 6.00 Build 0)  -->
<!DOCTYPE svg PUBLIC "-//W3C//DTD SVG 1.1//EN" "http://www.w3.org/Graphics/SVG/1.1/DTD/svg11.dtd">
<svg version="1.1" id="Layer" xmlns="http://www.w3.org/2000/svg" xmlns:xlink="http://www.w3.org/1999/xlink" x="0px" y="0px"
	 width="256px" height="256px" viewBox="0 0 256 256" enable-background="new 0 0 256 256" xml:space="preserve">
<path fill="#EC6B43" d="M128,32c-44.183,0-80,35.817-80,80c0,31.234,16,56,44.002,71.462C111.037,193.973,112,224,128,224
	s16.964-30.025,36-40.538C192,168,208,143.233,208,112C208,67.817,172.183,32,128,32z M128,132c-11.046,0-20-8.954-20-20
	s8.954-20,20-20s20,8.954,20,20S139.046,132,128,132z"/>
<g>
</g>
<g>
</g>
<g>
</g>
<g>
</g>
<g>
</g>
<g>
</g>
</svg>
