<svg id="レイヤー_1" data-name="レイヤー 1" xmlns="http://www.w3.org/2000/svg" viewBox="0 0 441 144"><defs><style>.cls-1,.cls-2{stroke:#000;stroke-miterlimit:10}.cls-2{fill:none;stroke-width:2px}</style></defs><path class="cls-1" d="M47.21 63c-9.41 0-14.14-2.63-14.14-7.87a9.47 9.47 0 0 1 .19-1.86l4.48-25.6c1.15-6.46 7-9.73 17.41-9.73h34.36l-.89 5.19H54.25c-6.08 0-9.41 1.53-9.92 4.54L39.85 53.3a3.29 3.29 0 0 0-.06.77c0 2.56 2.75 3.84 8.32 3.84H67.5c6.08 0 9.34-1.48 9.92-4.48l2.68-15h6.53l-2.69 15C82.79 59.83 77.1 63 66.6 63zm87.29 0L127 42.87h-26.22L97.2 63h-6.6l7.94-45h37.37c8.64 0 12.1 3.33 12.1 8.45a16.22 16.22 0 0 1-.26 2.43l-.51 3.12c-1 6.27-5.7 10.3-13.57 10.75L141.22 63zm6.72-34.18a8.55 8.55 0 0 0 .13-1.28c0-2.81-1.92-4.41-6.33-4.41h-30.79l-2.56 14.52h30.79c5 0 7.61-2.43 8.19-5.63zM162.54 63c-8.71 0-12.16-3.33-12.16-8.45a16.22 16.22 0 0 1 .26-2.43l4.09-23.3c1.15-6.43 5.76-10.82 15.74-10.82h29c8.64 0 12.1 3.33 12.1 8.45a17.24 17.24 0 0 1-.19 2.43l-4.1 23.3C206.12 58.61 201.51 63 191.53 63zm42.24-34.18a10 10 0 0 0 .12-1.28c0-2.81-1.92-4.41-6.33-4.41h-29c-5.06 0-7.62 2.11-8.26 5.69l-4.09 23.36a8.81 8.81 0 0 0-.13 1.28c0 2.75 1.92 4.42 6.33 4.42h29c5.06 0 7.62-2.18 8.26-5.7zM227.37 63c-8.7 0-12.16-3.33-12.16-8.45a16.22 16.22 0 0 1 .26-2.43l6-34.18h6.59l-6 34.24a8.81 8.81 0 0 0-.13 1.28c0 2.75 1.92 4.42 6.34 4.42h27.64c5.06 0 7.23-2.18 7.87-5.7l6-34.24h6.53l-6 34.18c-1.15 6.46-4 10.88-13.95 10.88zm104.57 0l-42.49-37.7-6.72 37.7H277l7.91-45h5.69L331 54.39 337.38 18h5.7l-7.94 45zm11.97 0l7.94-45h40.25c10.43 0 14.27 3.14 14.27 9.41a21.22 21.22 0 0 1-.38 3.9l-3.33 18.88C401.19 58.61 396.58 63 384.17 63zm55.55-31.75a11 11 0 0 0 .26-2.75c0-3.9-2.31-5.37-8.51-5.37h-33.67l-6.14 34.78h33.66c7.49 0 10.11-2.18 11.07-7.75zM91.47 109.07l-3 17h-6.6L89.81 81h36c8.64 0 12.09 3.33 12.09 8.45a15.87 15.87 0 0 1-.19 2.43l-1.09 6.34c-1.08 6.46-5.82 10.88-15.74 10.88zm39.68-17.22a9.27 9.27 0 0 0 .13-1.21c0-3.65-3.52-4.48-10.18-4.48H95.5L92.37 104h28.41c5.57 0 8.64-2 9.28-5.7zM151.57 126c-8.71 0-12.16-3.33-12.16-8.45a17.58 17.58 0 0 1 .25-2.43l4.1-23.3C144.91 85.39 149.52 81 159.5 81h29c8.64 0 12.1 3.33 12.1 8.45a17.24 17.24 0 0 1-.19 2.43l-4.1 23.3c-1.15 6.46-5.76 10.88-15.74 10.88zm42.23-34.15a8.55 8.55 0 0 0 .13-1.28c0-2.81-1.92-4.41-6.33-4.41h-29c-5.06 0-7.62 2.11-8.26 5.69l-4.09 23.36a8.81 8.81 0 0 0-.13 1.28c0 2.75 1.92 4.42 6.33 4.42h29c5.06 0 7.62-2.18 8.26-5.7zm8.97 34.15l7.93-45h6.59l-7 39.94h43.44l-.93 5.06zm61.75 0l7.94-45h6.59l-7.94 45zm22.19 0l.9-5.12h38.27c4.67 0 7.61-2.44 8.19-5.63l.83-4.93a7.08 7.08 0 0 0 .06-1.09c0-2.75-2-4.48-6.2-4.48h-26.05c-8.64 0-12-3.39-12-8.45a15.21 15.21 0 0 1 .19-2.37l.38-2.17C292.41 85.39 297 81 306.87 81h37.31l-.9 5.19H306c-5 0-7.42 2.24-8.06 5.56l-.48 2.25a7.65 7.65 0 0 0-.13 1.09c0 2.81 2.05 4.48 6.28 4.48h26c8.58 0 12 3.32 12 8.38a17.58 17.58 0 0 1-.25 2.43l-.84 4.87C339.51 121.67 334.83 126 325 126z"/><path class="cls-2" d="M0 71.53h441"/></svg>
