<?xml version="1.0" encoding="UTF-8" standalone="no"?>
<!-- Created with Inkscape (http://www.inkscape.org/) -->

<svg
   xmlns:osb="http://www.openswatchbook.org/uri/2009/osb"
   xmlns:dc="http://purl.org/dc/elements/1.1/"
   xmlns:cc="http://creativecommons.org/ns#"
   xmlns:rdf="http://www.w3.org/1999/02/22-rdf-syntax-ns#"
   xmlns:svg="http://www.w3.org/2000/svg"
   xmlns="http://www.w3.org/2000/svg"
   xmlns:xlink="http://www.w3.org/1999/xlink"
   xmlns:sodipodi="http://sodipodi.sourceforge.net/DTD/sodipodi-0.dtd"
   xmlns:inkscape="http://www.inkscape.org/namespaces/inkscape"
   width="1920"
   height="1080"
   viewBox="0 0 507.99999 285.75001"
   version="1.1"
   id="svg8"
   inkscape:version="0.92.1 r15371"
   sodipodi:docname="welcome-fg.svg">
  <defs
     id="defs2">
    <linearGradient
       inkscape:collect="always"
       id="linearGradient7044">
      <stop
         style="stop-color:#000000;stop-opacity:1;"
         offset="0"
         id="stop7040" />
      <stop
         style="stop-color:#ffffff;stop-opacity:1"
         offset="1"
         id="stop7042" />
    </linearGradient>
    <pattern
       inkscape:collect="always"
       xlink:href="#Checkerboard"
       id="pattern7010"
       patternTransform="matrix(1.673813,0,0,1.673813,-177.6001,-146.38611)" />
    <pattern
       inkscape:stockid="Checkerboard"
       id="Checkerboard"
       patternTransform="translate(0,0) scale(10,10)"
       height="2"
       width="2"
       patternUnits="userSpaceOnUse"
       inkscape:collect="always">
      <rect
         id="rect6201"
         height="1"
         width="1"
         y="0"
         x="0"
         style="fill:black;stroke:none" />
      <rect
         id="rect6203"
         height="1"
         width="1"
         y="1"
         x="1"
         style="fill:black;stroke:none" />
    </pattern>
    <linearGradient
       id="linearGradient5406"
       osb:paint="solid">
      <stop
         style="stop-color:#000000;stop-opacity:1;"
         offset="0"
         id="stop5404" />
    </linearGradient>
    <pattern
       patternUnits="userSpaceOnUse"
       width="15.999999"
       height="16.000025"
       patternTransform="matrix(0.26458333,0,0,0.26458333,-16.933332,263.1333)"
       id="pattern6465">
      <path
         d="m 8.0000542,8.0000126 h 7.9998878 c 3e-5,0 5.7e-5,3.78e-5 5.7e-5,3.78e-5 V 15.99995 c 0,3.7e-5 -2.7e-5,7.5e-5 -5.7e-5,7.5e-5 H 8.0000542 c -3.03e-5,0 -5.67e-5,-3.8e-5 -5.67e-5,-7.5e-5 V 8.0000504 c 0,0 2.64e-5,-3.78e-5 5.67e-5,-3.78e-5 z M 5.6692913e-5,0 H 7.9999408 c 3.02e-5,0 5.67e-5,3.7795275e-5 5.67e-5,7.5590551e-5 V 7.999937 c 0,3.78e-5 -2.65e-5,7.56e-5 -5.67e-5,7.56e-5 H 5.6692913e-5 C 2.2677165e-5,8.0000126 0,7.9999748 0,7.999937 V 7.5590551e-5 C 0,3.7795276e-5 2.2677165e-5,0 5.6692913e-5,0 Z"
         style="opacity:1;fill:#db1545;fill-opacity:1;fill-rule:nonzero;stroke:none;stroke-width:15.99999905;stroke-linecap:round;stroke-linejoin:round;stroke-miterlimit:4;stroke-dasharray:none;stroke-opacity:1"
         id="rect6445-2"
         inkscape:connector-curvature="0" />
    </pattern>
    <linearGradient
       inkscape:collect="always"
       xlink:href="#linearGradient7044"
       id="linearGradient6476"
       gradientUnits="userSpaceOnUse"
       gradientTransform="matrix(3.223659,0,0,2.5556636,-579.27357,808.39)"
       x1="86.490868"
       y1="-216.62756"
       x2="176.77992"
       y2="-216.62756" />
    <mask
       maskUnits="userSpaceOnUse"
       id="mask6472">
      <rect
         transform="rotate(-90)"
         y="-0.91986513"
         x="-300.45657"
         height="511.36566"
         width="291.06116"
         id="rect6474"
         style="opacity:1;fill:url(#linearGradient6476);fill-opacity:1;fill-rule:nonzero;stroke:none;stroke-width:0.92238116;stroke-miterlimit:4;stroke-dasharray:none" />
    </mask>
  </defs>
  <sodipodi:namedview
     id="base"
     pagecolor="#1e1d65"
     bordercolor="#666666"
     borderopacity="1.0"
     inkscape:pageopacity="0.84705882"
     inkscape:pageshadow="2"
     inkscape:zoom="1.1172287"
     inkscape:cx="751.51702"
     inkscape:cy="393.05342"
     inkscape:document-units="mm"
     inkscape:current-layer="layer1"
     showgrid="true"
     units="px"
     inkscape:pagecheckerboard="true"
     inkscape:window-width="1920"
     inkscape:window-height="1017"
     inkscape:window-x="-8"
     inkscape:window-y="1072"
     inkscape:window-maximized="1"
     objecttolerance="1"
     guidetolerance="10000"
     gridtolerance="10000"
     inkscape:snap-bbox="true"
     inkscape:bbox-paths="true"
     inkscape:bbox-nodes="true"
     inkscape:snap-bbox-edge-midpoints="true"
     inkscape:snap-bbox-midpoints="true"
     showguides="false">
    <inkscape:grid
       type="xygrid"
       id="grid6443"
       spacingx="2.1166667"
       spacingy="2.1166667"
       empspacing="4"
       color="#3f3fff"
       opacity="0.1254902"
       enabled="false" />
    <sodipodi:guide
       position="-69.219003,3.872392"
       orientation="1,0"
       id="guide6508"
       inkscape:locked="false" />
  </sodipodi:namedview>
  <metadata
     id="metadata5">
    <rdf:RDF>
      <cc:Work
         rdf:about="">
        <dc:format>image/svg+xml</dc:format>
        <dc:type
           rdf:resource="http://purl.org/dc/dcmitype/StillImage" />
        <dc:title />
      </cc:Work>
    </rdf:RDF>
  </metadata>
  <g
     inkscape:label="レイヤー 1"
     inkscape:groupmode="layer"
     id="layer1"
     transform="translate(0,-11.249983)">
    <path
       style="fill:#253276;fill-opacity:1;stroke:none;stroke-width:0.99999994px;stroke-linecap:butt;stroke-linejoin:miter;stroke-opacity:1"
       d="M 500.58203 825.29688 L 446.36133 844.20898 L 465.27539 900.95117 L 419.88281 911.03711 L 408.53516 871.94922 L 361.88086 884.55859 L 375.75195 918.60352 L 320.27148 933.73438 L 307.66211 889.60352 L 259.74805 903.47266 L 273.61719 947.60352 L 240.83398 958.95312 L 258.48633 994.25781 L 537.14844 931.21289 L 500.58203 825.29688 z M 489.48633 851.75 L 489.93359 863.3418 L 477.89648 866.01562 L 474.33008 856.20898 L 489.48633 851.75 z M 494.39062 876.26953 L 495.2832 886.07812 L 485.91992 888.75195 L 481.46289 879.39062 L 494.39062 876.26953 z M 292.89062 908.36719 L 292.89062 919.51172 L 284.41992 921.29492 L 279.51562 912.37891 L 292.89062 908.36719 z "
       transform="matrix(0.26458333,0,0,0.26458333,0,11.249983)"
       id="path4522" />
    <path
       style="fill:#253276;stroke:none;stroke-width:0.26458332px;stroke-linecap:butt;stroke-linejoin:miter;stroke-opacity:1;fill-opacity:1"
       d="m 381.65643,238.28361 -47.37344,16.34717 116.09827,29.02457 -14.01186,-23.68672 -31.02626,-0.33362 z"
       id="path4520"
       inkscape:connector-curvature="0" />
    <path
       style="fill:#172062;fill-opacity:1;stroke:none;stroke-width:0.26499999;stroke-linecap:butt;stroke-linejoin:miter;stroke-miterlimit:4;stroke-dasharray:none;stroke-opacity:1"
       d="m 149.59224,187.51883 -30.48108,6.4476 18.58548,61.14441 32.06774,-5.02079 2.27916,-39.16205 -20.18463,5.72179 z m -19.28212,12.50282 11.30447,-2.22985 0.81973,12.45223 -7.5888,1.65389 z m 15.28477,16.59486 0.74067,11.65353 -7.42226,2.02029 -3.70369,-10.82413 z m 1.61836,17.96698 1.20153,11.02325 -5.56723,1.37628 -3.18232,-10.49349 z m 14.34445,-2.69044 0.26461,11.20806 -5.86133,1.29523 -1.20102,-11.02336 z"
       id="path5398"
       inkscape:connector-curvature="0" />
    <circle
       style="fill:#172062;fill-opacity:1;stroke:none;stroke-width:1.99730551"
       id="path5392"
       cx="253.06117"
       cy="887.61829"
       r="642.68146" />
    <path
       style="fill:#172062;fill-opacity:1;stroke:none;stroke-width:0.26458332px;stroke-linecap:butt;stroke-linejoin:miter;stroke-opacity:1"
       d="m 329.51477,199.15082 -32.04286,18.26817 12.8142,1.28619 -6.02656,28.18505 32.94792,3.49531 0.51681,-27.76301 11.91226,1.00737 z m -14.10711,25.93826 6.27123,0.90288 -1.15019,5.4805 -6.00929,-0.898 z m 13.58524,2.09643 0.42171,5.50053 -6.35262,-0.44337 1.22618,-5.67857 z m -15.04127,5.73678 6.21844,0.90138 -1.87301,4.94347 -5.07899,-0.81761 z m 8.80707,1.53673 6.3403,1.10313 0.43128,4.98637 -7.83808,-1.19409 z"
       id="path6874"
       inkscape:connector-curvature="0"
       sodipodi:nodetypes="cccccccccccccccccccccccccccc" />
    <path
       style="fill:#172062;fill-opacity:1;stroke:none;stroke-width:0.26458332px;stroke-linecap:butt;stroke-linejoin:miter;stroke-opacity:1"
       d="m 366.28967,254.78298 7.49431,-30.40441 -7.41388,-2.66046 1.18763,-3.36104 7.21205,2.27141 1.38362,-5.73044 -7.20912,-2.66047 1.28561,-3.65794 7.01313,2.7643 2.17341,-7.01022 3.35519,1.48161 -2.1734,6.51147 6.70747,2.66046 -1.28564,3.16213 -6.31255,-2.46154 -1.68638,6.02735 6.80837,2.46447 -0.9887,3.84808 -6.90052,-2.47031 -6.71038,30.41026 z"
       id="path6891"
       inkscape:connector-curvature="0"
       sodipodi:nodetypes="ccccccccccccccccccccc" />
    <path
       style="fill:#172062;fill-opacity:1;stroke:none;stroke-width:0.99999994px;stroke-linecap:butt;stroke-linejoin:miter;stroke-opacity:1"
       d="M 278.09961 779.17383 L 273.55469 781.65234 L 282.30273 807.51562 L 265.05078 812.48633 L 316.54688 967.83984 L 396.62305 947.04297 L 369.47266 782.39453 L 286.1543 806.4043 L 278.09961 779.17383 z M 341.34766 817.19922 L 346.93555 855.88672 L 315.41797 863.33008 L 300.96094 827.68945 L 341.34766 817.19922 z M 355.63477 872.21094 L 358.58984 909.34961 L 332.12891 916.2207 L 318.54883 881.09766 L 355.63477 872.21094 z "
       transform="matrix(0.26458333,0,0,0.26458333,0,11.249983)"
       id="path6944" />
    <path
       style="fill:#172062;fill-opacity:1;stroke:none;stroke-width:0.24600939px;stroke-linecap:butt;stroke-linejoin:miter;stroke-opacity:1"
       d="m 43.603475,280.06036 -10.564819,-28.58824 -6.574764,2.28618 -0.916385,-3.37337 6.23111,-2.47535 -2.011396,-5.37101 -6.431418,2.16468 -1.002197,-3.66725 6.348194,-1.96596 -2.123972,-6.85578 3.11982,-0.81419 1.86458,6.45975 6.080155,-1.86705 0.744318,3.27357 -5.700174,1.79072 1.953823,5.78639 6.048884,-2.08256 1.308957,3.64208 -6.116434,2.13257 11.116753,28.12778 z"
       id="path6891-8"
       inkscape:connector-curvature="0"
       sodipodi:nodetypes="ccccccccccccccccccccc" />
    <path
       style="fill:#172062;fill-opacity:1;stroke:none;stroke-width:0.26458332px;stroke-linecap:butt;stroke-linejoin:miter;stroke-opacity:1"
       d="m 411.98753,264.70523 3.91734,-12.57157 -7.13355,-3.53259 -1.396,-8.02014 5.81668,-6.93436 10.92618,-0.52461 7.35863,5.88054 0.0806,8.11138 -5.67524,6.95564 -7.37536,-0.96565 -1.04168,4.03744 5.21293,-1.96321 1.42492,-6.58308 5.61592,-1.7579 5.33002,3.98422 -1.35343,5.14755 -3.67857,2.33882 -4.89966,-2.03926 -7.52592,2.91667 -1.60892,6.84465 z"
       id="path6985"
       inkscape:connector-curvature="0"
       sodipodi:nodetypes="ccccccccccccccccccccc" />
    <path
       style="fill:#172062;fill-opacity:1;stroke:none;stroke-width:0.27861062px;stroke-linecap:butt;stroke-linejoin:miter;stroke-opacity:1"
       d="m 438.77767,272.41521 -0.009,-2.99656 1.24656,2.44908 1.28337,-1.87551 -0.0534,2.25473 2.30831,-1.55949 -1.70125,2.67579 z"
       id="path7212"
       inkscape:connector-curvature="0" />
    <path
       style="fill:#172062;fill-opacity:1;stroke:none;stroke-width:0.29395995px;stroke-linecap:butt;stroke-linejoin:miter;stroke-opacity:1"
       d="m 387.1467,259.13862 -0.3913,-3.17093 1.60741,2.46066 1.09423,-2.12083 0.23196,2.39229 2.19942,-1.8946 -1.42637,3.01207 z"
       id="path7212-4"
       inkscape:connector-curvature="0" />
    <path
       style="fill:#172062;fill-opacity:1;stroke:none;stroke-width:0.26458332px;stroke-linecap:butt;stroke-linejoin:miter;stroke-opacity:1"
       d="m 457.96894,278.42384 1.02302,-2.77836 -1.31183,-0.56021 0.33336,-0.616 1.26318,0.48291 0.54568,-1.37607 0.81934,0.31324 -0.47741,1.4022 1.87364,0.67714 0.47795,-1.14765 0.83893,0.26207 -0.47245,1.28672 1.80283,0.70884 0.41215,-1.23149 0.92825,0.33529 -0.49337,1.23952 1.38917,0.51162 -0.21081,0.85845 -1.42731,-0.56527 -1.05878,2.6669 -0.81279,-0.33034 0.94975,-2.68892 -1.68742,-0.7038 -1.03512,2.65627 -0.83236,-0.27915 0.99293,-2.75061 -1.92628,-0.79522 -1.00194,2.82543 z"
       id="path7229"
       inkscape:connector-curvature="0"
       sodipodi:nodetypes="ccccccccccccccccccccccccccccc" />
    <path
       id="path7233"
       style="fill:#172062;fill-opacity:1;stroke:none;stroke-width:0.3185696px;stroke-linecap:butt;stroke-linejoin:miter;stroke-opacity:1"
       d="m 73.482785,265.42476 4.944364,-1.72314 -0.207904,-0.52164 -2.012479,0.86151 -0.0213,-0.63037 -0.837931,0.3339 0.324488,0.46118 -2.371778,0.68852 z m 0.497305,0.21764 4.223597,-1.35549 0.556753,4.37406 -2.879727,0.92419 z"
       inkscape:connector-curvature="0"
       sodipodi:nodetypes="cccccccccccccc" />
    <path
       style="fill:#172062;stroke:none;stroke-width:0.26458332px;stroke-linecap:butt;stroke-linejoin:miter;stroke-opacity:1;fill-opacity:1"
       d="m 156.55184,206.61884 0.47605,-0.20403 1.0201,8.90891 -0.47605,0.20402 z"
       id="path7236"
       inkscape:connector-curvature="0" />
    <path
       style="fill:#172062;stroke:none;stroke-width:0.26458332px;stroke-linecap:butt;stroke-linejoin:miter;stroke-opacity:1;fill-opacity:1"
       d="m 160.97229,209.47512 0.20402,4.96451 0.47605,-0.068 0.068,-5.03251 z"
       id="path7238"
       inkscape:connector-curvature="0" />
    <path
       style="fill:#172062;fill-opacity:1;stroke:none;stroke-width:0.34364724px;stroke-linecap:butt;stroke-linejoin:miter;stroke-opacity:1"
       d="m 23.838748,287.33572 -2.186787,-3.04882 3.027872,1.63785 -0.07842,-2.79635 1.585239,2.33549 1.177306,-3.18042 0.241718,3.90016 z"
       id="path7212-4-6"
       inkscape:connector-curvature="0" />
    <circle
       style="opacity:0.5;fill:#ff0016;fill-opacity:1;fill-rule:nonzero;stroke:none;stroke-width:2.11666656;stroke-linecap:round;stroke-linejoin:round;stroke-miterlimit:4;stroke-dasharray:none;stroke-opacity:1"
       id="path4535"
       cx="120.03474"
       cy="193.66763"
       r="2.5126758" />
    <circle
       style="opacity:0.5;fill:#ff0016;fill-opacity:1;fill-rule:nonzero;stroke:none;stroke-width:2.11666656;stroke-linecap:round;stroke-linejoin:round;stroke-miterlimit:4;stroke-dasharray:none;stroke-opacity:1"
       id="path4535-2"
       cx="97.333473"
       cy="218.84901"
       r="2.5126758" />
    <circle
       style="opacity:0.5;fill:#ff0016;fill-opacity:1;fill-rule:nonzero;stroke:none;stroke-width:2.11666656;stroke-linecap:round;stroke-linejoin:round;stroke-miterlimit:4;stroke-dasharray:none;stroke-opacity:1"
       id="path4535-24"
       cx="70.128021"
       cy="226.19046"
       r="2.5126758" />
    <circle
       style="opacity:0.25;fill:#ff0016;fill-opacity:1;fill-rule:nonzero;stroke:none;stroke-width:1.41842699;stroke-linecap:round;stroke-linejoin:round;stroke-miterlimit:4;stroke-dasharray:none;stroke-opacity:1"
       id="path4535-25"
       cx="118.05532"
       cy="234.83446"
       r="1.6838019" />
    <circle
       style="opacity:0.5;fill:#ffbe16;fill-opacity:1;fill-rule:nonzero;stroke:none;stroke-width:1.3186785;stroke-linecap:round;stroke-linejoin:round;stroke-miterlimit:4;stroke-dasharray:none;stroke-opacity:1"
       id="path4535-9"
       cx="110.59546"
       cy="252.2408"
       r="1.5653913" />
    <circle
       style="opacity:0.5;fill:#ffbe16;fill-opacity:1;fill-rule:nonzero;stroke:none;stroke-width:1.3186785;stroke-linecap:round;stroke-linejoin:round;stroke-miterlimit:4;stroke-dasharray:none;stroke-opacity:1"
       id="path4535-9-7"
       cx="122.43651"
       cy="242.53113"
       r="1.5653913" />
    <circle
       style="opacity:0.5;fill:#ffbe16;fill-opacity:1;fill-rule:nonzero;stroke:none;stroke-width:1.3186785;stroke-linecap:round;stroke-linejoin:round;stroke-miterlimit:4;stroke-dasharray:none;stroke-opacity:1"
       id="path4535-9-2"
       cx="64.415337"
       cy="265.26596"
       r="1.5653913" />
  </g>
</svg>
