<?xml version="1.0" encoding="UTF-8" standalone="no"?>
<!DOCTYPE svg PUBLIC "-//W3C//DTD SVG 1.1//EN" "http://www.w3.org/Graphics/SVG/1.1/DTD/svg11.dtd">
<svg width="100%" height="100%" viewBox="0 0 512 512" version="1.1" xmlns="http://www.w3.org/2000/svg" xmlns:xlink="http://www.w3.org/1999/xlink" xml:space="preserve" xmlns:serif="http://www.serif.com/" style="fill-rule:evenodd;clip-rule:evenodd;stroke-linejoin:round;stroke-miterlimit:2;">
    <path d="M416,199.998C416,177.908 398.092,160 376.002,160L312.038,160C301.419,160 291.235,164.218 283.727,171.727C276.218,179.235 272,189.419 272,200.038L272,228C272,234.627 277.373,240 284,240L376.002,240C398.092,240 416,222.092 416,200.002L416,199.998Z" style="fill:url(#_Linear1);"/>
    <g transform="matrix(6.12323e-17,1,-1,6.12323e-17,512,-4.54747e-13)">
        <path d="M416,199.998C416,177.908 398.092,160 376.002,160L312.038,160C301.419,160 291.235,164.218 283.727,171.727C276.218,179.235 272,189.419 272,200.038L272,228C272,234.627 277.373,240 284,240L376.002,240C398.092,240 416,222.092 416,200.002L416,199.998Z" style="fill:url(#_Linear2);"/>
    </g>
    <g transform="matrix(-1,1.22465e-16,-1.22465e-16,-1,512,512)">
        <path d="M416,199.998C416,177.908 398.092,160 376.002,160L312.038,160C301.419,160 291.235,164.218 283.727,171.727C276.218,179.235 272,189.419 272,200.038L272,228C272,234.627 277.373,240 284,240L376.002,240C398.092,240 416,222.092 416,200.002L416,199.998Z" style="fill:url(#_Linear3);"/>
    </g>
    <g transform="matrix(6.12323e-17,-1,1,6.12323e-17,0,512)">
        <path d="M416,199.998C416,177.908 398.092,160 376.002,160L312.038,160C301.419,160 291.235,164.218 283.727,171.727C276.218,179.235 272,189.419 272,200.038L272,228C272,234.627 277.373,240 284,240L376.002,240C398.092,240 416,222.092 416,200.002L416,199.998Z" style="fill:url(#_Linear4);"/>
    </g>
    <defs>
        <linearGradient id="_Linear1" x1="0" y1="0" x2="1" y2="0" gradientUnits="userSpaceOnUse" gradientTransform="matrix(144,0,0,80,272,200)"><stop offset="0" style="stop-color:rgb(198,230,111);stop-opacity:1"/><stop offset="1" style="stop-color:rgb(90,200,113);stop-opacity:1"/></linearGradient>
        <linearGradient id="_Linear2" x1="0" y1="0" x2="1" y2="0" gradientUnits="userSpaceOnUse" gradientTransform="matrix(144,0,0,80,272,200)"><stop offset="0" style="stop-color:rgb(97,232,195);stop-opacity:1"/><stop offset="1" style="stop-color:rgb(90,200,113);stop-opacity:1"/></linearGradient>
        <linearGradient id="_Linear3" x1="0" y1="0" x2="1" y2="0" gradientUnits="userSpaceOnUse" gradientTransform="matrix(144,0,0,80,272,200)"><stop offset="0" style="stop-color:rgb(198,230,111);stop-opacity:1"/><stop offset="1" style="stop-color:rgb(90,200,113);stop-opacity:1"/></linearGradient>
        <linearGradient id="_Linear4" x1="0" y1="0" x2="1" y2="0" gradientUnits="userSpaceOnUse" gradientTransform="matrix(144,0,0,80,272,200)"><stop offset="0" style="stop-color:rgb(98,232,195);stop-opacity:1"/><stop offset="1" style="stop-color:rgb(90,200,113);stop-opacity:1"/></linearGradient>
    </defs>
</svg>
