<svg
   xmlns:dc="http://purl.org/dc/elements/1.1/"
   xmlns:cc="http://creativecommons.org/ns#"
   xmlns:rdf="http://www.w3.org/1999/02/22-rdf-syntax-ns#"
   xmlns:svg="http://www.w3.org/2000/svg"
   xmlns="http://www.w3.org/2000/svg"
   id="svg10"
   version="1.1"
   viewBox="-7 -15 280 70"
   height="205.08"
   width="680"
   >
  <metadata id="metadata16">
    <rdf:RDF>
      <cc:Work rdf:about="">
        <dc:format>image/svg+xml</dc:format>
        <dc:type rdf:resource="http://purl.org/dc/dcmitype/StillImage" />
        <dc:title></dc:title>
      </cc:Work>
    </rdf:RDF>
  </metadata>

  <style>
    #g8 {
      animation-name: floating;
      animation-duration: 3s;
      animation-iteration-count: infinite;
      animation-timing-function: ease-in-out;
    }

    @keyframes floating {
      0% { transform: translate(0, 0px); }
      50% { transform: translate(0, -8px); }
      100% { transform: translate(0, 0px); }
    }
  </style>

  <linearGradient id="myGradient" gradientTransform="rotate(90)">
    <stop offset="5%" stop-color="#A0458F" />
    <stop offset="95%" stop-color="#6A5DD8" />
  </linearGradient>

  <defs id="defs14" />

  <g id="g8">
    <path
      id="yamisskey"
      d="M870.171,164.111 C861.127,173.030 848.971,177.493 833.699,177.493 C824.855,177.493 816.887,175.858 809.787,172.593 C802.687,169.324 799.137,163.758 799.137,155.893 C799.137,153.224 799.737,150.693 800.937,148.293 C804.137,141.093 809.668,137.493 817.537,137.493 C819.402,137.493 822.002,138.024 825.337,139.093 C828.668,140.158 831.402,140.693 833.537,140.693 C839.137,140.693 842.802,139.493 844.537,137.093 C845.202,136.158 845.337,135.424 844.937,134.893 C844.402,134.093 843.468,133.824 842.137,134.093 C839.868,134.493 837.402,134.693 834.737,134.693 C821.268,134.693 809.737,129.905 800.137,120.324 C790.537,110.743 785.737,99.233 785.737,85.793 L785.737,58.052 C785.737,52.464 787.693,47.705 791.605,43.780 C795.518,39.855 800.262,37.893 805.837,37.893 C811.409,37.893 816.184,39.855 820.165,43.774 C824.146,47.693 826.137,52.443 826.137,58.021 L826.137,85.724 C826.137,87.983 826.990,89.943 828.696,91.602 C830.402,93.264 832.415,94.093 834.737,94.093 C837.193,94.093 839.240,93.264 840.877,91.602 C842.515,89.943 843.337,87.983 843.337,85.724 L843.337,58.021 C843.337,52.443 845.324,47.693 849.305,43.774 C853.287,39.855 858.062,37.893 863.637,37.893 C869.209,37.893 873.952,39.858 877.865,43.786 C881.777,47.714 883.737,52.474 883.737,58.064 L883.737,85.824 C883.737,87.689 883.737,89.686 883.737,91.814 L883.737,128.364 C883.737,143.274 879.215,155.189 870.171,164.111 ZM732.828,69.093 C730.159,69.761 727.894,71.093 726.028,73.093 C722.294,76.693 720.428,81.027 720.428,86.093 C720.428,91.293 722.259,95.727 725.928,99.393 C729.594,103.061 734.028,104.893 739.228,104.893 C744.294,104.893 748.628,103.027 752.228,99.293 C755.294,96.227 759.028,94.693 763.428,94.693 C767.828,94.693 771.559,96.227 774.628,99.293 C777.694,102.361 779.228,106.093 779.228,110.493 C779.228,114.893 777.694,118.627 774.628,121.693 C764.759,131.427 752.959,136.293 739.228,136.293 C725.359,136.293 713.528,131.393 703.728,121.593 C693.928,111.793 689.028,99.961 689.028,86.093 C689.028,72.361 693.928,60.593 703.728,50.793 C713.528,40.993 725.359,36.093 739.228,36.093 C752.959,36.093 764.494,40.693 773.828,49.893 C776.894,52.961 778.428,56.693 778.428,61.093 C778.428,65.493 776.894,69.227 773.828,72.293 L750.628,95.293 C747.294,98.627 743.959,100.293 740.628,100.293 C735.828,100.293 732.094,98.964 729.428,96.308 C726.759,93.652 725.428,90.133 725.428,85.749 C725.428,81.499 726.991,77.846 730.122,74.789 L734.100,70.564 C734.584,70.146 734.694,69.724 734.428,69.302 C734.028,69.030 733.494,68.961 732.828,69.093 ZM662.220,81.402 L662.220,81.602 L661.820,81.799 C659.951,82.999 659.886,84.461 661.620,86.193 C662.020,86.458 666.751,91.049 675.820,99.964 C679.951,103.958 682.020,108.814 682.020,114.533 C682.020,119.858 680.086,124.549 676.220,128.605 C672.351,132.664 667.551,134.693 661.820,134.693 C656.351,134.693 651.620,132.774 647.620,128.936 L627.620,109.689 C627.086,109.293 626.551,109.093 626.020,109.093 C624.951,109.093 624.420,111.049 624.420,114.955 C624.420,120.427 622.420,125.083 618.420,128.927 C614.420,132.771 609.620,134.693 604.020,134.693 C598.420,134.693 593.651,132.736 589.720,128.821 C585.786,124.905 583.820,120.158 583.820,114.583 L583.820,21.802 C583.820,16.227 585.776,11.483 589.689,7.568 C593.601,3.652 598.345,1.693 603.920,1.693 C609.492,1.693 614.267,3.661 618.248,7.593 C622.229,11.527 624.220,16.293 624.220,21.893 L624.220,53.093 C624.220,54.427 624.689,55.293 625.626,55.693 C626.426,56.093 627.295,55.961 628.233,55.293 C628.767,55.027 636.795,49.761 652.314,39.493 C655.792,37.361 659.539,36.293 663.551,36.293 C670.908,36.293 676.595,39.286 680.611,45.274 C682.748,48.736 683.820,52.461 683.820,56.452 C683.820,63.771 680.820,69.427 674.820,73.418 L662.220,81.402 ZM562.099,70.293 C561.030,70.293 559.964,70.161 558.899,69.893 C555.030,69.093 547.564,68.161 536.499,67.093 C535.164,66.961 533.899,66.961 532.699,67.093 C531.630,67.227 531.099,67.624 531.099,68.283 C531.230,69.080 531.764,69.611 532.702,69.874 C535.896,70.699 539.892,71.593 544.686,72.552 C552.689,73.883 558.958,76.014 563.493,78.946 C572.030,84.543 576.299,92.936 576.299,104.124 C576.299,113.183 573.299,120.577 567.299,126.302 C560.364,132.964 550.699,136.293 538.299,136.293 C529.230,136.293 519.099,135.024 507.899,132.493 C504.299,131.693 501.399,129.893 499.199,127.093 C496.999,124.293 495.899,121.161 495.899,117.693 C495.899,113.427 497.399,109.793 500.399,106.793 C503.399,103.793 506.964,102.293 511.099,102.293 C512.299,102.293 513.430,102.427 514.499,102.693 C518.364,103.493 525.764,104.493 536.699,105.693 C538.164,105.693 539.764,105.627 541.499,105.493 C542.164,105.493 542.499,105.093 542.499,104.293 C542.630,103.627 542.230,103.161 541.299,102.893 C536.764,102.093 532.564,101.227 528.699,100.293 C524.299,99.361 521.164,98.561 519.299,97.893 C515.564,96.827 512.430,95.427 509.899,93.693 C501.364,88.093 497.030,79.693 496.899,68.493 C496.899,59.561 499.964,52.161 506.099,46.293 C513.564,39.093 524.164,35.827 537.899,36.493 C547.099,36.893 556.299,38.093 565.499,40.093 C568.964,40.893 571.830,42.693 574.099,45.493 C576.364,48.293 577.499,51.493 577.499,55.093 C577.499,59.227 575.999,62.793 572.999,65.793 C569.999,68.793 566.364,70.293 562.099,70.293 ZM474.177,70.293 C473.108,70.293 472.043,70.161 470.977,69.893 C467.109,69.093 459.643,68.161 448.577,67.093 C447.243,66.961 445.977,66.961 444.777,67.093 C443.708,67.227 443.177,67.624 443.177,68.283 C443.308,69.080 443.843,69.611 444.780,69.874 C447.974,70.699 451.971,71.593 456.765,72.552 C464.768,73.883 471.037,76.014 475.571,78.946 C484.109,84.543 488.377,92.936 488.377,104.124 C488.377,113.183 485.377,120.577 479.377,126.302 C472.443,132.964 462.777,136.293 450.377,136.293 C441.308,136.293 431.177,135.024 419.977,132.493 C416.377,131.693 413.477,129.893 411.277,127.093 C409.077,124.293 407.977,121.161 407.977,117.693 C407.977,113.427 409.477,109.793 412.477,106.793 C415.477,103.793 419.043,102.293 423.177,102.293 C424.377,102.293 425.509,102.427 426.577,102.693 C430.443,103.493 437.843,104.493 448.777,105.693 C450.243,105.693 451.843,105.627 453.577,105.493 C454.243,105.493 454.577,105.093 454.577,104.293 C454.709,103.627 454.309,103.161 453.377,102.893 C448.843,102.093 444.643,101.227 440.777,100.293 C436.377,99.361 433.243,98.561 431.377,97.893 C427.643,96.827 424.508,95.427 421.977,93.693 C413.443,88.093 409.109,79.693 408.977,68.493 C408.977,59.561 412.043,52.161 418.177,46.293 C425.643,39.093 436.243,35.827 449.977,36.493 C459.177,36.893 468.377,38.093 477.577,40.093 C481.043,40.893 483.909,42.693 486.177,45.493 C488.443,48.293 489.577,51.493 489.577,55.093 C489.577,59.227 488.077,62.793 485.077,65.793 C482.077,68.793 478.443,70.293 474.177,70.293 ZM380.252,134.693 C374.677,134.693 369.902,132.727 365.921,128.793 C361.939,124.861 359.952,120.093 359.952,114.493 L359.952,65.093 C359.952,59.493 361.939,54.693 365.921,50.693 C369.902,46.693 374.677,44.693 380.252,44.693 C385.824,44.693 390.568,46.693 394.480,50.693 C398.393,54.693 400.352,59.493 400.352,65.093 L400.352,114.493 C400.352,120.093 398.393,124.861 394.480,128.793 C390.568,132.727 385.824,134.693 380.252,134.693 ZM380.052,40.693 C374.477,40.693 369.733,38.727 365.821,34.793 C361.908,30.861 359.952,26.093 359.952,20.493 C359.952,14.893 361.908,10.127 365.821,6.193 C369.733,2.261 374.477,0.293 380.052,0.293 C385.624,0.293 390.399,2.261 394.380,6.193 C398.361,10.127 400.352,14.893 400.352,20.493 C400.352,26.093 398.361,30.861 394.380,34.793 C390.399,38.727 385.624,40.693 380.052,40.693 ZM334.659,134.693 C329.590,134.693 325.259,132.893 321.659,129.293 C318.059,125.693 316.259,121.361 316.259,116.293 L316.259,76.493 C316.259,74.493 315.190,73.493 313.059,73.493 C311.059,73.493 310.059,74.493 310.059,76.493 L310.059,116.293 C310.059,121.361 308.259,125.693 304.659,129.293 C301.059,132.893 296.724,134.693 291.659,134.693 C286.590,134.693 282.259,132.893 278.659,129.293 C275.059,125.693 273.259,121.361 273.259,116.293 L273.259,76.493 C273.259,74.493 272.259,73.493 270.259,73.493 C268.124,73.493 267.059,74.493 267.059,76.493 L267.059,116.293 C267.059,121.361 265.259,125.693 261.659,129.293 C258.059,132.893 253.724,134.693 248.659,134.693 C243.590,134.693 239.259,132.893 235.659,129.293 C232.059,125.693 230.259,121.361 230.259,116.293 L230.259,76.493 C230.259,65.561 234.159,56.193 241.959,48.393 C249.759,40.593 259.190,36.693 270.259,36.693 C275.324,36.693 280.524,37.761 285.859,39.893 C289.590,41.361 294.059,41.161 299.259,39.293 C303.790,37.561 308.459,36.693 313.259,36.693 C324.324,36.693 333.759,40.593 341.559,48.393 C349.359,56.193 353.259,65.561 353.259,76.493 L353.259,116.293 C353.259,121.361 351.459,125.693 347.859,129.293 C344.259,132.893 339.859,134.693 334.659,134.693 ZM202.275,133.693 C199.875,133.693 197.740,133.293 195.875,132.493 C194.275,131.961 192.675,131.961 191.075,132.493 C185.206,134.758 179.140,135.893 172.875,135.893 C159.275,135.893 147.606,131.061 137.875,121.393 C128.140,111.727 123.275,100.027 123.275,86.293 C123.275,72.561 128.140,60.861 137.875,51.193 C147.606,41.527 159.275,36.693 172.875,36.693 C179.540,36.693 185.875,37.961 191.875,40.493 C192.806,40.893 194.006,40.827 195.475,40.293 C197.740,39.493 200.006,39.093 202.275,39.093 C207.875,39.093 212.675,41.061 216.675,44.993 C220.675,48.927 222.675,53.693 222.675,59.293 L222.675,113.293 C222.675,118.893 220.675,123.693 216.675,127.693 C212.675,131.693 207.875,133.693 202.275,133.693 ZM179.515,79.893 C177.675,78.161 175.459,77.293 172.872,77.293 C170.284,77.293 168.103,78.161 166.331,79.893 C164.559,81.627 163.675,83.761 163.675,86.293 C163.675,88.827 164.559,90.993 166.331,92.793 C168.103,94.593 170.284,95.493 172.872,95.493 C175.459,95.493 177.675,94.593 179.515,92.793 C181.353,90.993 182.275,88.827 182.275,86.293 C182.275,83.761 181.353,81.627 179.515,79.893 ZM96.077,83.214 C94.208,85.486 93.277,88.024 93.277,90.827 L93.277,110.055 C93.277,116.599 90.977,122.177 86.377,126.783 C81.777,131.389 76.209,133.693 69.677,133.693 C63.330,133.693 57.877,131.389 53.318,126.783 C48.755,122.177 46.477,116.599 46.477,110.055 L46.477,90.827 C46.477,88.024 45.540,85.486 43.665,83.214 L6.502,41.152 C2.618,36.746 0.677,31.674 0.677,25.930 C0.677,18.718 3.408,12.777 8.877,8.102 C13.143,4.230 18.208,2.293 24.077,2.293 C31.143,2.293 37.077,4.977 41.877,10.339 L63.877,35.280 C65.608,36.755 67.543,37.493 69.677,37.493 C71.943,37.493 73.877,36.755 75.477,35.280 L97.477,10.339 C102.277,4.977 108.277,2.293 115.477,2.293 C121.209,2.293 126.277,4.230 130.677,8.102 C136.143,12.777 138.877,18.718 138.877,25.930 C138.877,31.674 136.943,36.746 133.077,41.152 L96.077,83.214 Z"
      transform="scale(0.3)"
      style="fill:url(#myGradient);"/>
  </g>
</svg>

