<?xml version="1.0" encoding="utf-8"?>
<!-- Generator: Adobe Illustrator 16.0.3, SVG Export Plug-In . SVG Version: 6.00 Build 0)  -->
<!DOCTYPE svg PUBLIC "-//W3C//DTD SVG 1.1//EN" "http://www.w3.org/Graphics/SVG/1.1/DTD/svg11.dtd">
<svg version="1.1" xmlns="http://www.w3.org/2000/svg" xmlns:xlink="http://www.w3.org/1999/xlink" x="0px" y="0px" width="248px"
	 height="80px" viewBox="0 0 248 80" enable-background="new 0 0 248 80" xml:space="preserve">
<g id="レイヤー_1">
	<g>
		<path fill="#1D2022" d="M126.516,17.676v44.355h-1.152V19.26l-19.297,27.363h-0.936L85.833,19.26v42.771H84.68V17.676h1.44
			l19.514,27.723l19.441-27.723H126.516z"/>
		<path fill="#1D2022" d="M136.448,40.142c-0.576,0-1.008-0.432-1.008-1.008s0.432-1.008,1.008-1.008s1.008,0.432,1.008,1.008
			S137.024,40.142,136.448,40.142z M135.872,62.031V44.895h1.152v17.137H135.872z"/>
		<path fill="#1D2022" d="M149.769,54.471c-2.88-0.791-4.752-2.447-4.752-5.04c0-3.097,2.52-4.968,5.472-4.968
			c1.872,0,3.384,0.791,4.393,1.943l-0.792,0.721c-0.936-1.152-2.088-1.729-3.672-1.729c-2.521,0-4.249,1.584-4.249,3.816
			c0,2.376,1.44,3.6,4.249,4.32c3.096,0.791,4.608,2.305,4.608,4.752c0,2.664-2.592,4.32-5.473,4.32
			c-1.872,0-3.384-0.432-5.112-1.729l0.648-0.863c1.8,1.225,2.952,1.656,4.537,1.656c2.448,0,4.248-1.297,4.248-3.313
			S152.577,55.264,149.769,54.471z"/>
		<path fill="#1D2022" d="M165.896,54.471c-2.88-0.791-4.752-2.447-4.752-5.04c0-3.097,2.52-4.968,5.472-4.968
			c1.872,0,3.384,0.791,4.393,1.943l-0.792,0.721c-0.936-1.152-2.088-1.729-3.672-1.729c-2.521,0-4.249,1.584-4.249,3.816
			c0,2.376,1.44,3.6,4.249,4.32c3.096,0.791,4.608,2.305,4.608,4.752c0,2.664-2.592,4.32-5.473,4.32
			c-1.872,0-3.384-0.432-5.112-1.729l0.648-0.863c1.8,1.225,2.952,1.656,4.537,1.656c2.448,0,4.248-1.297,4.248-3.313
			S168.705,55.264,165.896,54.471z"/>
		<path fill="#1D2022" d="M178.64,62.031V5.291h1.152v49.324l10.513-9.721h1.656l-9.289,8.353l9.577,8.784h-1.728l-8.713-8.064
			l-2.016,1.873v6.191H178.64z"/>
		<path fill="#1D2022" d="M196.927,53.823c0-6.265,3.889-9.36,8.713-9.36c5.185,0,7.777,4.031,7.777,7.848v1.08h-15.266
			c0,5.256,3.384,8.281,7.777,8.281c2.664,0,4.608-1.152,6.265-3.24l0.648,0.648c-1.656,2.232-3.888,3.527-7.272,3.527
			C200.672,62.607,196.927,59.223,196.927,53.823z M198.224,52.383h13.897c0-4.176-2.52-6.984-6.552-6.984
			C201.464,45.398,198.728,47.99,198.224,52.383z"/>
		<path fill="#1D2022" d="M217.807,44.895h1.368l6.625,15.77l6.625-15.77h1.296l-7.489,17.137
			c-1.656,3.744-4.464,8.641-7.272,12.674l-0.936-0.721c2.736-3.816,5.977-9.145,7.201-12.096L217.807,44.895z"/>
	</g>
	<path fill="#1D2022" d="M72,20c0-6.627-5.373-12-12-12H20C13.373,8,8,13.373,8,20v40c0,6.627,5.373,12,12,12h40
		c6.627,0,12-5.373,12-12V20z"/>
</g>
<g id="レイヤー_2">
	<polyline fill="none" stroke="#FFFFFF" stroke-width="3" stroke-miterlimit="10" points="20.8,46.133 30.4,33.333 40,46.133 
		49.6,33.333 59.2,46.133 	"/>
	<circle fill="#FFFFFF" cx="49.6" cy="33.333" r="4.8"/>
	<circle fill="#FFFFFF" cx="40" cy="46.133" r="4.8"/>
	<circle fill="#FFFFFF" cx="20.8" cy="46.133" r="4.8"/>
	<circle fill="#FFFFFF" cx="59.2" cy="46.133" r="4.8"/>
	<circle fill="#FFFFFF" cx="30.4" cy="33.333" r="4.8"/>
	<g>
	</g>
	<g>
	</g>
	<g>
	</g>
	<g>
	</g>
	<g>
	</g>
	<g>
	</g>
</g>
</svg>
