<svg viewBox="0 0 441 109.05" xmlns="http://www.w3.org/2000/svg"><g stroke-miterlimit="10"><path d="M47.21 45.55c-9.41 0-14.14-2.62-14.14-7.87a9.47 9.47 0 0 1 .19-1.86l4.48-25.6C38.89 3.76 44.74.5 55.15.5H89.5l-.89 5.18H54.25c-6.08 0-9.41 1.54-9.92 4.54l-4.48 25.6a3.38 3.38 0 0 0-.06.77c0 2.56 2.75 3.84 8.32 3.84H67.5c6.08 0 9.34-1.47 9.92-4.48l2.68-15h6.53l-2.69 15c-1.15 6.4-6.84 9.6-17.34 9.6zm87.29 0l-7.48-20.16h-26.24L97.2 45.55h-6.6l7.9-45h37.37c8.64 0 12.1 3.33 12.1 8.44a16.48 16.48 0 0 1-.26 2.44l-.51 3.13c-1 6.27-5.7 10.31-13.57 10.75l7.59 20.24zm6.72-34.17a8.81 8.81 0 0 0 .13-1.28c0-2.82-1.92-4.42-6.33-4.42h-30.79l-2.56 14.53h30.83c5 0 7.61-2.43 8.19-5.63zm21.28 34.17c-8.71 0-12.16-3.33-12.16-8.45a16.36 16.36 0 0 1 .26-2.43l4.09-23.29C155.88 4.91 160.5.55 170.5.55h29c8.64 0 12.1 3.33 12.1 8.44a17.49 17.49 0 0 1-.19 2.44l-4.1 23.29c-1.19 6.41-5.81 10.83-15.81 10.83zm42.24-34.17a10.35 10.35 0 0 0 .12-1.28c0-2.82-1.92-4.42-6.33-4.42h-29c-5.06 0-7.62 2.11-8.26 5.7l-4.09 23.35a8.81 8.81 0 0 0-.13 1.28c0 2.76 1.92 4.42 6.33 4.42h29c5.06 0 7.62-2.18 8.26-5.7zm22.63 34.17c-8.7 0-12.16-3.33-12.16-8.45a16.36 16.36 0 0 1 .26-2.43L221.5.55h6.59l-6 34.23a8.81 8.81 0 0 0-.13 1.28c0 2.76 1.92 4.42 6.34 4.42h27.64c5.06 0 7.23-2.18 7.87-5.7l6-34.23h6.53l-6 34.17c-1.15 6.46-4 10.88-13.95 10.88zm104.57 0L289.5 7.86l-6.77 37.69h-5.76l7.94-45h5.69l40.38 36.41 6.4-36.41h5.7l-7.94 45zm11.97 0l7.94-45h40.25c10.43 0 14.27 3.13 14.27 9.4a21.41 21.41 0 0 1-.38 3.91l-3.33 18.88c-1.47 8.44-6.08 12.86-18.49 12.86zm55.59-31.74a11.06 11.06 0 0 0 .26-2.75c0-3.91-2.31-5.38-8.51-5.38H357.5l-6.14 34.75h33.66c7.49 0 10.11-2.18 11.07-7.74z" fill="#8cc63f" stroke="#0071bc"/><g stroke="#000"><path d="M91.5 91.55l-3 17h-6.59l7.9-45h36c8.64 0 12.09 3.33 12.09 8.44a16.09 16.09 0 0 1-.19 2.44l-1.09 6.33c-1.08 6.47-5.82 10.88-15.74 10.88zm39.68-17.21a9.59 9.59 0 0 0 .13-1.22c0-3.65-3.52-4.48-10.18-4.48H95.5l-3.13 17.79h28.41c5.57 0 8.64-2 9.28-5.69zm20.39 34.21c-8.71 0-12.16-3.33-12.16-8.45a17.74 17.74 0 0 1 .25-2.43l4.1-23.29c1.15-6.47 5.74-10.83 15.74-10.83h29c8.64 0 12.1 3.33 12.1 8.44a17.49 17.49 0 0 1-.19 2.44l-4.1 23.29c-1.16 6.41-5.81 10.83-15.75 10.83zm42.23-34.17a8.81 8.81 0 0 0 .13-1.28c0-2.82-1.92-4.42-6.33-4.42h-29c-5.06 0-7.62 2.11-8.26 5.7l-4.09 23.35a8.81 8.81 0 0 0-.13 1.28c0 2.76 1.92 4.42 6.33 4.42h29c5.06 0 7.62-2.18 8.26-5.7zm8.97 34.17l7.93-45h6.59l-7 39.93h43.44l-.93 5.07zm61.73 0l8-45h6.59l-7.98 45zm22.21 0l.9-5.12h38.27c4.67 0 7.61-2.43 8.19-5.63l.83-4.93a7 7 0 0 0 .06-1.09c0-2.75-2-4.48-6.2-4.48h-26.05c-8.64 0-12-3.39-12-8.44a15.12 15.12 0 0 1 .19-2.37l.38-2.18c1.16-6.4 5.7-10.81 15.62-10.81h37.31l-.9 5.18h-37.34c-5 0-7.42 2.24-8.06 5.57l-.41 2.3a7.82 7.82 0 0 0-.13 1.09c0 2.82 2.05 4.48 6.28 4.48h26c8.58 0 12 3.33 12 8.38a17.58 17.58 0 0 1-.25 2.43l-.84 4.87c-1.06 6.4-5.73 10.75-15.58 10.75z" fill="#754c24"/><path d="M0 54.05h441" fill="none" stroke-width="2"/></g></g></svg>