<svg xmlns="http://www.w3.org/2000/svg" viewBox="0 0 8.467 8.467"><g fill-opacity=".05"><path d="M0 8.467V0h8.467v.265H.265v8.202z"/><path d="M4.233 3.704h.265v.53h.53v.264h-.53v.53h-.265v-.53h-.529v-.265h.53zM3.44 4.233v.265H2.38v-.265zM6.35 4.233v.265H5.292v-.265zM7.673 4.233v.265H6.615v-.265zM2.117 4.233v.265H1.058v-.265zM4.233 3.44h.265V2.38h-.265zM4.233 2.117h.265V1.058h-.265zM4.233 6.35h.265V5.292h-.265zM4.233 7.673h.265V6.615h-.265zM4.233.794h.265v-.53h-.265zM4.233 8.467h.265v-.53h-.265zM.794 4.233v.265h-.53v-.265zM8.467 4.233v.265h-.53v-.265z"/></g></svg>
