<svg id="レイヤー_1" data-name="レイヤー 1" xmlns="http://www.w3.org/2000/svg" viewBox="0 0 512 512"><title>groundpolis [復元]</title><path d="M127.58,126.25c2.63-15.48,19.76-23.38,51-23.38H355.48l4.61-26.68H183.23c-53.68,0-83.65,16.8-89.57,50.06L70.6,258a50.32,50.32,0,0,0-1,9.55c0,27,24.38,40.51,72.79,40.51h99.78A192.47,192.47,0,0,0,275,305.5c-6.76-7.44-12.67-15.37-15.59-24.29-3.92.32-8.13.49-12.66.49H147c-28.65,0-42.82-6.59-42.82-19.76a16.07,16.07,0,0,1,.33-4Z"/><path d="M219.29,364.54l-15.48,87.27H169.89L210.73,220H396.14c44.46,0,62.25,17.13,62.25,43.47a84.48,84.48,0,0,1-1,12.51l-5.6,32.61c-5.6,33.26-30,56-81,56Zm204.18-88.6a43.36,43.36,0,0,0,.66-6.25c0-18.77-18.11-23.05-52.36-23.05H240L223.9,338.19H370.12c28.65,0,44.46-10.21,47.76-29.31Z"/><path d="M331.43,258.64l13.84-77.06h-33.6l-13.83,77.06c-2.53,13.24-15.2,20.69-38.39,22.57,2.92,8.92,8.83,16.85,15.59,24.29C308.24,299.74,326.85,284.12,331.43,258.64Z"/></svg>