<svg xmlns="http://www.w3.org/2000/svg" viewBox="0 0 135.467 135.467"><path stroke-width=".29" d="M50.295 95.05c-5.865.02-10.904-3.514-13.28-7.63-1.269-1.797-3.779-2.436-3.814 0v11.253c0 4.521-1.649 8.43-4.945 11.727-3.203 3.202-7.111 4.803-11.726 4.803-4.521 0-8.43-1.601-11.727-4.803C1.601 107.103 0 103.194 0 98.673v-61.88c0-3.485.989-6.64 2.967-9.465 2.072-2.92 4.71-4.945 7.911-6.075 1.79-.66 3.674-.99 5.652-.99 5.086 0 9.324 1.979 12.715 5.934 1.79 1.978 2.825 3.014 3.108 3.108 0 0 13.431 16.242 13.808 16.524.377.283 1.483 2.443 4.134 2.443 2.651 0 3.9-2.16 4.276-2.443.377-.282 13.808-16.524 13.808-16.524.094.095 1.083-.941 2.967-3.108 3.485-3.955 7.77-5.933 12.856-5.933 1.884 0 3.768.33 5.651.989 3.203 1.13 5.793 3.155 7.77 6.075 2.073 2.825 3.109 5.98 3.109 9.465v61.88c0 4.521-1.648 8.43-4.945 11.727-3.202 3.202-7.11 4.803-11.726 4.803-4.52 0-8.43-1.601-11.726-4.803-3.202-3.297-4.804-7.206-4.804-11.727V87.421c-.278-3.071-2.992-1.136-3.955 0-2.543 4.709-7.415 7.609-13.28 7.629zm70.761-46.248q-5.934 0-10.172-4.097-4.097-4.239-4.097-10.172 0-5.934 4.097-10.031 4.238-4.238 10.172-4.238t10.172 4.238q4.239 4.097 4.239 10.03 0 5.934-4.239 10.173-4.238 4.097-10.172 4.097zm.141 2.826q5.934 0 10.031 4.238 4.239 4.238 4.239 10.172v34.896q0 5.934-4.239 10.172-4.097 4.097-10.03 4.097-5.934 0-10.173-4.097-4.238-4.238-4.238-10.172V66.038q0-5.934 4.238-10.172 4.239-4.238 10.172-4.238z" aria-label="Mi"/></svg>