<svg width="32" height="32" viewBox="0 0 32 32" fill="none" xmlns="http://www.w3.org/2000/svg">
<path d="M10.9844 22.625L2.875 14.4531C1.5547 13.1328 2.04687 11.8125 2.62501 11.2344L11.1875 2.71876C12.211 1.69532 13.375 1.89065 14.3125 2.82815L22.375 10.8281L10.9844 22.625Z" fill="#8A584C"/>
<path d="M10.9844 22.625L2.875 14.4531C1.5547 13.1328 2.04687 11.8125 2.62501 11.2344L11.1875 2.71876C12.211 1.69532 13.375 1.89065 14.3125 2.82815L22.375 10.8281L10.9844 22.625Z" fill="url(#paint0_radial_18_32062)"/>
<path d="M10.9844 22.625L2.875 14.4531C1.5547 13.1328 2.04687 11.8125 2.62501 11.2344L11.1875 2.71876C12.211 1.69532 13.375 1.89065 14.3125 2.82815L22.375 10.8281L10.9844 22.625Z" fill="url(#paint1_radial_18_32062)"/>
<path d="M10.9844 22.625L2.875 14.4531C1.5547 13.1328 2.04687 11.8125 2.62501 11.2344L11.1875 2.71876C12.211 1.69532 13.375 1.89065 14.3125 2.82815L22.375 10.8281L10.9844 22.625Z" fill="url(#paint2_radial_18_32062)"/>
<g filter="url(#filter0_f_18_32062)">
<path d="M6.46309 9.72343C6.47658 9.71056 6.49039 9.6979 6.50466 9.6859C7.03753 9.23812 7.71518 9.24807 8.23887 9.69368C8.24699 9.70059 8.25463 9.70742 8.26249 9.71463C8.36319 9.80688 9.10895 10.4917 9.67969 11.0625C10.2582 11.641 10.9331 12.3785 11.0077 12.4602C11.0125 12.4654 11.0169 12.4703 11.0215 12.4756C11.4733 12.9952 11.5049 13.6871 11.0259 14.2228C11.0184 14.2312 11.0113 14.2392 11.0039 14.2477C10.9204 14.3435 10.357 14.9867 9.67969 15.664C9.02564 16.3181 8.40257 16.8978 8.2741 17.0168C8.25775 17.0319 8.24131 17.0464 8.22388 17.0602C7.64411 17.5221 7.00112 17.4542 6.48458 17C6.48373 16.9993 6.48346 16.999 6.48261 16.9983C6.45576 16.9747 5.65368 16.2708 5.04688 15.664C4.44065 15.0578 3.74501 14.2642 3.72049 14.2362C3.71971 14.2353 3.71942 14.235 3.71865 14.2341C3.25359 13.6982 3.26579 12.9793 3.70954 12.4791C3.71632 12.4715 3.72307 12.4642 3.73012 12.4568C3.82368 12.3587 4.53588 11.6125 5.08595 11.0625C5.62082 10.5276 6.33466 9.84586 6.46309 9.72343Z" fill="#824534"/>
<path d="M6.46309 9.72343C6.47658 9.71056 6.49039 9.6979 6.50466 9.6859C7.03753 9.23812 7.71518 9.24807 8.23887 9.69368C8.24699 9.70059 8.25463 9.70742 8.26249 9.71463C8.36319 9.80688 9.10895 10.4917 9.67969 11.0625C10.2582 11.641 10.9331 12.3785 11.0077 12.4602C11.0125 12.4654 11.0169 12.4703 11.0215 12.4756C11.4733 12.9952 11.5049 13.6871 11.0259 14.2228C11.0184 14.2312 11.0113 14.2392 11.0039 14.2477C10.9204 14.3435 10.357 14.9867 9.67969 15.664C9.02564 16.3181 8.40257 16.8978 8.2741 17.0168C8.25775 17.0319 8.24131 17.0464 8.22388 17.0602C7.64411 17.5221 7.00112 17.4542 6.48458 17C6.48373 16.9993 6.48346 16.999 6.48261 16.9983C6.45576 16.9747 5.65368 16.2708 5.04688 15.664C4.44065 15.0578 3.74501 14.2642 3.72049 14.2362C3.71971 14.2353 3.71942 14.235 3.71865 14.2341C3.25359 13.6982 3.26579 12.9793 3.70954 12.4791C3.71632 12.4715 3.72307 12.4642 3.73012 12.4568C3.82368 12.3587 4.53588 11.6125 5.08595 11.0625C5.62082 10.5276 6.33466 9.84586 6.46309 9.72343Z" fill="url(#paint3_linear_18_32062)"/>
<path d="M6.46309 9.72343C6.47658 9.71056 6.49039 9.6979 6.50466 9.6859C7.03753 9.23812 7.71518 9.24807 8.23887 9.69368C8.24699 9.70059 8.25463 9.70742 8.26249 9.71463C8.36319 9.80688 9.10895 10.4917 9.67969 11.0625C10.2582 11.641 10.9331 12.3785 11.0077 12.4602C11.0125 12.4654 11.0169 12.4703 11.0215 12.4756C11.4733 12.9952 11.5049 13.6871 11.0259 14.2228C11.0184 14.2312 11.0113 14.2392 11.0039 14.2477C10.9204 14.3435 10.357 14.9867 9.67969 15.664C9.02564 16.3181 8.40257 16.8978 8.2741 17.0168C8.25775 17.0319 8.24131 17.0464 8.22388 17.0602C7.64411 17.5221 7.00112 17.4542 6.48458 17C6.48373 16.9993 6.48346 16.999 6.48261 16.9983C6.45576 16.9747 5.65368 16.2708 5.04688 15.664C4.44065 15.0578 3.74501 14.2642 3.72049 14.2362C3.71971 14.2353 3.71942 14.235 3.71865 14.2341C3.25359 13.6982 3.26579 12.9793 3.70954 12.4791C3.71632 12.4715 3.72307 12.4642 3.73012 12.4568C3.82368 12.3587 4.53588 11.6125 5.08595 11.0625C5.62082 10.5276 6.33466 9.84586 6.46309 9.72343Z" fill="#7B3E41"/>
</g>
<path d="M6.77559 9.16093C6.78908 9.14806 6.80289 9.1354 6.81716 9.1234C7.35003 8.67562 8.02768 8.68557 8.55137 9.13118C8.55949 9.13809 8.56713 9.14492 8.57499 9.15213C8.67569 9.24438 9.42145 9.92923 9.99219 10.5C10.5707 11.0785 11.2456 11.816 11.3202 11.8977C11.325 11.9029 11.3294 11.9078 11.334 11.9131C11.7858 12.4327 11.8174 13.1246 11.3384 13.6603C11.3309 13.6687 11.3238 13.6767 11.3164 13.6852C11.2329 13.781 10.6695 14.4242 9.99219 15.1015C9.33814 15.7556 8.71507 16.3353 8.5866 16.4543C8.57025 16.4694 8.55381 16.4839 8.53638 16.4977C7.95661 16.9596 7.31362 16.8917 6.79708 16.4375C6.79623 16.4368 6.79596 16.4365 6.79511 16.4358C6.76826 16.4122 5.96618 15.7083 5.35938 15.1015C4.75315 14.4953 4.05751 13.7017 4.03299 13.6737C4.03221 13.6728 4.03192 13.6725 4.03115 13.6716C3.56609 13.1357 3.57829 12.4168 4.02204 11.9166C4.02882 11.909 4.03557 11.9017 4.04262 11.8943C4.13618 11.7962 4.84838 11.05 5.39845 10.5C5.93332 9.96511 6.64716 9.28336 6.77559 9.16093Z" fill="#824534"/>
<path d="M6.77559 9.16093C6.78908 9.14806 6.80289 9.1354 6.81716 9.1234C7.35003 8.67562 8.02768 8.68557 8.55137 9.13118C8.55949 9.13809 8.56713 9.14492 8.57499 9.15213C8.67569 9.24438 9.42145 9.92923 9.99219 10.5C10.5707 11.0785 11.2456 11.816 11.3202 11.8977C11.325 11.9029 11.3294 11.9078 11.334 11.9131C11.7858 12.4327 11.8174 13.1246 11.3384 13.6603C11.3309 13.6687 11.3238 13.6767 11.3164 13.6852C11.2329 13.781 10.6695 14.4242 9.99219 15.1015C9.33814 15.7556 8.71507 16.3353 8.5866 16.4543C8.57025 16.4694 8.55381 16.4839 8.53638 16.4977C7.95661 16.9596 7.31362 16.8917 6.79708 16.4375C6.79623 16.4368 6.79596 16.4365 6.79511 16.4358C6.76826 16.4122 5.96618 15.7083 5.35938 15.1015C4.75315 14.4953 4.05751 13.7017 4.03299 13.6737C4.03221 13.6728 4.03192 13.6725 4.03115 13.6716C3.56609 13.1357 3.57829 12.4168 4.02204 11.9166C4.02882 11.909 4.03557 11.9017 4.04262 11.8943C4.13618 11.7962 4.84838 11.05 5.39845 10.5C5.93332 9.96511 6.64716 9.28336 6.77559 9.16093Z" fill="url(#paint4_linear_18_32062)"/>
<path d="M6.77559 9.16093C6.78908 9.14806 6.80289 9.1354 6.81716 9.1234C7.35003 8.67562 8.02768 8.68557 8.55137 9.13118C8.55949 9.13809 8.56713 9.14492 8.57499 9.15213C8.67569 9.24438 9.42145 9.92923 9.99219 10.5C10.5707 11.0785 11.2456 11.816 11.3202 11.8977C11.325 11.9029 11.3294 11.9078 11.334 11.9131C11.7858 12.4327 11.8174 13.1246 11.3384 13.6603C11.3309 13.6687 11.3238 13.6767 11.3164 13.6852C11.2329 13.781 10.6695 14.4242 9.99219 15.1015C9.33814 15.7556 8.71507 16.3353 8.5866 16.4543C8.57025 16.4694 8.55381 16.4839 8.53638 16.4977C7.95661 16.9596 7.31362 16.8917 6.79708 16.4375C6.79623 16.4368 6.79596 16.4365 6.79511 16.4358C6.76826 16.4122 5.96618 15.7083 5.35938 15.1015C4.75315 14.4953 4.05751 13.7017 4.03299 13.6737C4.03221 13.6728 4.03192 13.6725 4.03115 13.6716C3.56609 13.1357 3.57829 12.4168 4.02204 11.9166C4.02882 11.909 4.03557 11.9017 4.04262 11.8943C4.13618 11.7962 4.84838 11.05 5.39845 10.5C5.93332 9.96511 6.64716 9.28336 6.77559 9.16093Z" fill="url(#paint5_linear_18_32062)"/>
<path d="M6.77559 9.16093C6.78908 9.14806 6.80289 9.1354 6.81716 9.1234C7.35003 8.67562 8.02768 8.68557 8.55137 9.13118C8.55949 9.13809 8.56713 9.14492 8.57499 9.15213C8.67569 9.24438 9.42145 9.92923 9.99219 10.5C10.5707 11.0785 11.2456 11.816 11.3202 11.8977C11.325 11.9029 11.3294 11.9078 11.334 11.9131C11.7858 12.4327 11.8174 13.1246 11.3384 13.6603C11.3309 13.6687 11.3238 13.6767 11.3164 13.6852C11.2329 13.781 10.6695 14.4242 9.99219 15.1015C9.33814 15.7556 8.71507 16.3353 8.5866 16.4543C8.57025 16.4694 8.55381 16.4839 8.53638 16.4977C7.95661 16.9596 7.31362 16.8917 6.79708 16.4375C6.79623 16.4368 6.79596 16.4365 6.79511 16.4358C6.76826 16.4122 5.96618 15.7083 5.35938 15.1015C4.75315 14.4953 4.05751 13.7017 4.03299 13.6737C4.03221 13.6728 4.03192 13.6725 4.03115 13.6716C3.56609 13.1357 3.57829 12.4168 4.02204 11.9166C4.02882 11.909 4.03557 11.9017 4.04262 11.8943C4.13618 11.7962 4.84838 11.05 5.39845 10.5C5.93332 9.96511 6.64716 9.28336 6.77559 9.16093Z" fill="url(#paint6_linear_18_32062)"/>
<path d="M6.77559 9.16093C6.78908 9.14806 6.80289 9.1354 6.81716 9.1234C7.35003 8.67562 8.02768 8.68557 8.55137 9.13118C8.55949 9.13809 8.56713 9.14492 8.57499 9.15213C8.67569 9.24438 9.42145 9.92923 9.99219 10.5C10.5707 11.0785 11.2456 11.816 11.3202 11.8977C11.325 11.9029 11.3294 11.9078 11.334 11.9131C11.7858 12.4327 11.8174 13.1246 11.3384 13.6603C11.3309 13.6687 11.3238 13.6767 11.3164 13.6852C11.2329 13.781 10.6695 14.4242 9.99219 15.1015C9.33814 15.7556 8.71507 16.3353 8.5866 16.4543C8.57025 16.4694 8.55381 16.4839 8.53638 16.4977C7.95661 16.9596 7.31362 16.8917 6.79708 16.4375C6.79623 16.4368 6.79596 16.4365 6.79511 16.4358C6.76826 16.4122 5.96618 15.7083 5.35938 15.1015C4.75315 14.4953 4.05751 13.7017 4.03299 13.6737C4.03221 13.6728 4.03192 13.6725 4.03115 13.6716C3.56609 13.1357 3.57829 12.4168 4.02204 11.9166C4.02882 11.909 4.03557 11.9017 4.04262 11.8943C4.13618 11.7962 4.84838 11.05 5.39845 10.5C5.93332 9.96511 6.64716 9.28336 6.77559 9.16093Z" fill="url(#paint7_linear_18_32062)"/>
<g filter="url(#filter1_f_18_32062)">
<path d="M4.39003 13.1845C4.2339 13.0047 4.22852 12.7406 4.38087 12.5576C4.67465 12.2047 5.19322 11.6037 5.80061 10.9963C6.40743 10.3895 7.00484 9.87436 7.35569 9.58263C7.53818 9.43089 7.80117 9.43597 7.98065 9.59126C8.38765 9.94341 9.10397 10.5727 9.55267 11.0214C9.99768 11.4664 10.6204 12.1747 10.9741 12.5834C11.1334 12.7674 11.1344 13.0384 10.9761 13.2233C10.6339 13.6226 10.0351 14.3086 9.57032 14.7734C9.1059 15.2379 8.42064 15.836 8.02119 16.1783C7.8359 16.3371 7.56387 16.3355 7.37965 16.1754C6.96194 15.8126 6.23492 15.1724 5.8183 14.7558C5.39836 14.3359 4.7513 13.6006 4.39003 13.1845Z" fill="url(#paint8_linear_18_32062)"/>
<path d="M4.39003 13.1845C4.2339 13.0047 4.22852 12.7406 4.38087 12.5576C4.67465 12.2047 5.19322 11.6037 5.80061 10.9963C6.40743 10.3895 7.00484 9.87436 7.35569 9.58263C7.53818 9.43089 7.80117 9.43597 7.98065 9.59126C8.38765 9.94341 9.10397 10.5727 9.55267 11.0214C9.99768 11.4664 10.6204 12.1747 10.9741 12.5834C11.1334 12.7674 11.1344 13.0384 10.9761 13.2233C10.6339 13.6226 10.0351 14.3086 9.57032 14.7734C9.1059 15.2379 8.42064 15.836 8.02119 16.1783C7.8359 16.3371 7.56387 16.3355 7.37965 16.1754C6.96194 15.8126 6.23492 15.1724 5.8183 14.7558C5.39836 14.3359 4.7513 13.6006 4.39003 13.1845Z" fill="url(#paint9_linear_18_32062)"/>
<path d="M4.39003 13.1845C4.2339 13.0047 4.22852 12.7406 4.38087 12.5576C4.67465 12.2047 5.19322 11.6037 5.80061 10.9963C6.40743 10.3895 7.00484 9.87436 7.35569 9.58263C7.53818 9.43089 7.80117 9.43597 7.98065 9.59126C8.38765 9.94341 9.10397 10.5727 9.55267 11.0214C9.99768 11.4664 10.6204 12.1747 10.9741 12.5834C11.1334 12.7674 11.1344 13.0384 10.9761 13.2233C10.6339 13.6226 10.0351 14.3086 9.57032 14.7734C9.1059 15.2379 8.42064 15.836 8.02119 16.1783C7.8359 16.3371 7.56387 16.3355 7.37965 16.1754C6.96194 15.8126 6.23492 15.1724 5.8183 14.7558C5.39836 14.3359 4.7513 13.6006 4.39003 13.1845Z" fill="url(#paint10_linear_18_32062)"/>
</g>
<path d="M11.9631 4.00468C11.9766 3.99181 11.9904 3.97915 12.0047 3.96715C12.5375 3.51937 13.2152 3.52932 13.7389 3.97493C13.747 3.98184 13.7546 3.98867 13.7625 3.99588C13.8632 4.08813 14.6089 4.77298 15.1797 5.34373C15.7582 5.92224 16.4331 6.6597 16.5077 6.74144C16.5125 6.74663 16.5169 6.75157 16.5215 6.75687C16.9733 7.27646 17.0049 7.96838 16.5259 8.50405C16.5184 8.51244 16.5113 8.52045 16.5039 8.52893C16.4204 8.62477 15.857 9.26797 15.1797 9.94529C14.5256 10.5993 13.9026 11.179 13.7741 11.298C13.7577 11.3132 13.7413 11.3276 13.7239 11.3415C13.1441 11.8034 12.5011 11.7354 11.9846 11.2813C11.9837 11.2805 11.9835 11.2803 11.9826 11.2795C11.9558 11.256 11.1537 10.5521 10.5469 9.94529C9.94065 9.33906 9.24501 8.54543 9.22049 8.51743C9.21971 8.51654 9.21942 8.51621 9.21865 8.51531C8.75359 7.97944 8.76579 7.26059 9.20954 6.76036C9.21632 6.75271 9.22307 6.74549 9.23012 6.73809C9.32368 6.63994 10.0359 5.89379 10.5859 5.34373C11.1208 4.80886 11.8347 4.12711 11.9631 4.00468Z" fill="#824534"/>
<path d="M11.9631 4.00468C11.9766 3.99181 11.9904 3.97915 12.0047 3.96715C12.5375 3.51937 13.2152 3.52932 13.7389 3.97493C13.747 3.98184 13.7546 3.98867 13.7625 3.99588C13.8632 4.08813 14.6089 4.77298 15.1797 5.34373C15.7582 5.92224 16.4331 6.6597 16.5077 6.74144C16.5125 6.74663 16.5169 6.75157 16.5215 6.75687C16.9733 7.27646 17.0049 7.96838 16.5259 8.50405C16.5184 8.51244 16.5113 8.52045 16.5039 8.52893C16.4204 8.62477 15.857 9.26797 15.1797 9.94529C14.5256 10.5993 13.9026 11.179 13.7741 11.298C13.7577 11.3132 13.7413 11.3276 13.7239 11.3415C13.1441 11.8034 12.5011 11.7354 11.9846 11.2813C11.9837 11.2805 11.9835 11.2803 11.9826 11.2795C11.9558 11.256 11.1537 10.5521 10.5469 9.94529C9.94065 9.33906 9.24501 8.54543 9.22049 8.51743C9.21971 8.51654 9.21942 8.51621 9.21865 8.51531C8.75359 7.97944 8.76579 7.26059 9.20954 6.76036C9.21632 6.75271 9.22307 6.74549 9.23012 6.73809C9.32368 6.63994 10.0359 5.89379 10.5859 5.34373C11.1208 4.80886 11.8347 4.12711 11.9631 4.00468Z" fill="url(#paint11_linear_18_32062)"/>
<path d="M11.9631 4.00468C11.9766 3.99181 11.9904 3.97915 12.0047 3.96715C12.5375 3.51937 13.2152 3.52932 13.7389 3.97493C13.747 3.98184 13.7546 3.98867 13.7625 3.99588C13.8632 4.08813 14.6089 4.77298 15.1797 5.34373C15.7582 5.92224 16.4331 6.6597 16.5077 6.74144C16.5125 6.74663 16.5169 6.75157 16.5215 6.75687C16.9733 7.27646 17.0049 7.96838 16.5259 8.50405C16.5184 8.51244 16.5113 8.52045 16.5039 8.52893C16.4204 8.62477 15.857 9.26797 15.1797 9.94529C14.5256 10.5993 13.9026 11.179 13.7741 11.298C13.7577 11.3132 13.7413 11.3276 13.7239 11.3415C13.1441 11.8034 12.5011 11.7354 11.9846 11.2813C11.9837 11.2805 11.9835 11.2803 11.9826 11.2795C11.9558 11.256 11.1537 10.5521 10.5469 9.94529C9.94065 9.33906 9.24501 8.54543 9.22049 8.51743C9.21971 8.51654 9.21942 8.51621 9.21865 8.51531C8.75359 7.97944 8.76579 7.26059 9.20954 6.76036C9.21632 6.75271 9.22307 6.74549 9.23012 6.73809C9.32368 6.63994 10.0359 5.89379 10.5859 5.34373C11.1208 4.80886 11.8347 4.12711 11.9631 4.00468Z" fill="url(#paint12_linear_18_32062)"/>
<path d="M11.9631 4.00468C11.9766 3.99181 11.9904 3.97915 12.0047 3.96715C12.5375 3.51937 13.2152 3.52932 13.7389 3.97493C13.747 3.98184 13.7546 3.98867 13.7625 3.99588C13.8632 4.08813 14.6089 4.77298 15.1797 5.34373C15.7582 5.92224 16.4331 6.6597 16.5077 6.74144C16.5125 6.74663 16.5169 6.75157 16.5215 6.75687C16.9733 7.27646 17.0049 7.96838 16.5259 8.50405C16.5184 8.51244 16.5113 8.52045 16.5039 8.52893C16.4204 8.62477 15.857 9.26797 15.1797 9.94529C14.5256 10.5993 13.9026 11.179 13.7741 11.298C13.7577 11.3132 13.7413 11.3276 13.7239 11.3415C13.1441 11.8034 12.5011 11.7354 11.9846 11.2813C11.9837 11.2805 11.9835 11.2803 11.9826 11.2795C11.9558 11.256 11.1537 10.5521 10.5469 9.94529C9.94065 9.33906 9.24501 8.54543 9.22049 8.51743C9.21971 8.51654 9.21942 8.51621 9.21865 8.51531C8.75359 7.97944 8.76579 7.26059 9.20954 6.76036C9.21632 6.75271 9.22307 6.74549 9.23012 6.73809C9.32368 6.63994 10.0359 5.89379 10.5859 5.34373C11.1208 4.80886 11.8347 4.12711 11.9631 4.00468Z" fill="url(#paint13_linear_18_32062)"/>
<path d="M11.9631 4.00468C11.9766 3.99181 11.9904 3.97915 12.0047 3.96715C12.5375 3.51937 13.2152 3.52932 13.7389 3.97493C13.747 3.98184 13.7546 3.98867 13.7625 3.99588C13.8632 4.08813 14.6089 4.77298 15.1797 5.34373C15.7582 5.92224 16.4331 6.6597 16.5077 6.74144C16.5125 6.74663 16.5169 6.75157 16.5215 6.75687C16.9733 7.27646 17.0049 7.96838 16.5259 8.50405C16.5184 8.51244 16.5113 8.52045 16.5039 8.52893C16.4204 8.62477 15.857 9.26797 15.1797 9.94529C14.5256 10.5993 13.9026 11.179 13.7741 11.298C13.7577 11.3132 13.7413 11.3276 13.7239 11.3415C13.1441 11.8034 12.5011 11.7354 11.9846 11.2813C11.9837 11.2805 11.9835 11.2803 11.9826 11.2795C11.9558 11.256 11.1537 10.5521 10.5469 9.94529C9.94065 9.33906 9.24501 8.54543 9.22049 8.51743C9.21971 8.51654 9.21942 8.51621 9.21865 8.51531C8.75359 7.97944 8.76579 7.26059 9.20954 6.76036C9.21632 6.75271 9.22307 6.74549 9.23012 6.73809C9.32368 6.63994 10.0359 5.89379 10.5859 5.34373C11.1208 4.80886 11.8347 4.12711 11.9631 4.00468Z" fill="url(#paint14_linear_18_32062)"/>
<g filter="url(#filter2_f_18_32062)">
<path d="M9.58023 8.02622C9.42436 7.84587 9.41986 7.5814 9.5728 7.39856C9.87588 7.03625 10.4173 6.41088 11.0507 5.7774C11.6836 5.1445 12.3052 4.60674 12.6654 4.30578C12.8477 4.15346 13.1111 4.15764 13.2911 4.31264C13.699 4.66392 14.4166 5.29158 14.8652 5.74017C15.3102 6.18519 15.9315 6.89491 16.2843 7.30448C16.4432 7.48892 16.4434 7.76006 16.2846 7.94456C15.9316 8.35465 15.3048 9.0702 14.8203 9.55468C14.3362 10.0388 13.6215 10.6649 13.2112 11.018C13.0263 11.1772 12.7541 11.1764 12.5695 11.0168C12.1509 10.6549 11.4224 10.0161 11.0058 9.59953C10.586 9.17972 9.94063 8.44325 9.58023 8.02622Z" fill="url(#paint15_linear_18_32062)"/>
<path d="M9.58023 8.02622C9.42436 7.84587 9.41986 7.5814 9.5728 7.39856C9.87588 7.03625 10.4173 6.41088 11.0507 5.7774C11.6836 5.1445 12.3052 4.60674 12.6654 4.30578C12.8477 4.15346 13.1111 4.15764 13.2911 4.31264C13.699 4.66392 14.4166 5.29158 14.8652 5.74017C15.3102 6.18519 15.9315 6.89491 16.2843 7.30448C16.4432 7.48892 16.4434 7.76006 16.2846 7.94456C15.9316 8.35465 15.3048 9.0702 14.8203 9.55468C14.3362 10.0388 13.6215 10.6649 13.2112 11.018C13.0263 11.1772 12.7541 11.1764 12.5695 11.0168C12.1509 10.6549 11.4224 10.0161 11.0058 9.59953C10.586 9.17972 9.94063 8.44325 9.58023 8.02622Z" fill="url(#paint16_linear_18_32062)"/>
<path d="M9.58023 8.02622C9.42436 7.84587 9.41986 7.5814 9.5728 7.39856C9.87588 7.03625 10.4173 6.41088 11.0507 5.7774C11.6836 5.1445 12.3052 4.60674 12.6654 4.30578C12.8477 4.15346 13.1111 4.15764 13.2911 4.31264C13.699 4.66392 14.4166 5.29158 14.8652 5.74017C15.3102 6.18519 15.9315 6.89491 16.2843 7.30448C16.4432 7.48892 16.4434 7.76006 16.2846 7.94456C15.9316 8.35465 15.3048 9.0702 14.8203 9.55468C14.3362 10.0388 13.6215 10.6649 13.2112 11.018C13.0263 11.1772 12.7541 11.1764 12.5695 11.0168C12.1509 10.6549 11.4224 10.0161 11.0058 9.59953C10.586 9.17972 9.94063 8.44325 9.58023 8.02622Z" fill="url(#paint17_linear_18_32062)"/>
</g>
<g filter="url(#filter3_f_18_32062)">
<path d="M17.0902 9.92832C17.1037 9.91546 17.1175 9.90279 17.1318 9.8908C17.6646 9.44301 18.3423 9.45297 18.866 9.89858C18.8741 9.90549 18.8818 9.91232 18.8896 9.91952C18.9903 10.0118 19.7361 10.6966 20.3068 11.2674C20.8853 11.8459 21.5602 12.5833 21.6349 12.6651C21.6396 12.6703 21.644 12.6752 21.6486 12.6805C22.1004 13.2001 22.132 13.892 21.6531 14.4277C21.6456 14.4361 21.6384 14.4441 21.631 14.4526C21.5476 14.5484 20.9841 15.1916 20.3068 15.8689C19.6528 16.523 19.0297 17.1027 18.9012 17.2217C18.8849 17.2368 18.8684 17.2513 18.851 17.2651C18.2712 17.727 17.6282 17.6591 17.1117 17.2049C17.1109 17.2042 17.1106 17.2039 17.1097 17.2032C17.0829 17.1796 16.2808 16.4757 15.674 15.8689C15.0678 15.2627 14.3721 14.4691 14.3476 14.4411C14.3468 14.4402 14.3465 14.4399 14.3458 14.439C13.8807 13.9031 13.8929 13.1842 14.3367 12.684C14.3434 12.6764 14.3502 12.6691 14.3572 12.6617C14.4508 12.5636 15.163 11.8174 15.7131 11.2674C16.2479 10.7325 16.9618 10.0508 17.0902 9.92832Z" fill="#824534"/>
<path d="M17.0902 9.92832C17.1037 9.91546 17.1175 9.90279 17.1318 9.8908C17.6646 9.44301 18.3423 9.45297 18.866 9.89858C18.8741 9.90549 18.8818 9.91232 18.8896 9.91952C18.9903 10.0118 19.7361 10.6966 20.3068 11.2674C20.8853 11.8459 21.5602 12.5833 21.6349 12.6651C21.6396 12.6703 21.644 12.6752 21.6486 12.6805C22.1004 13.2001 22.132 13.892 21.6531 14.4277C21.6456 14.4361 21.6384 14.4441 21.631 14.4526C21.5476 14.5484 20.9841 15.1916 20.3068 15.8689C19.6528 16.523 19.0297 17.1027 18.9012 17.2217C18.8849 17.2368 18.8684 17.2513 18.851 17.2651C18.2712 17.727 17.6282 17.6591 17.1117 17.2049C17.1109 17.2042 17.1106 17.2039 17.1097 17.2032C17.0829 17.1796 16.2808 16.4757 15.674 15.8689C15.0678 15.2627 14.3721 14.4691 14.3476 14.4411C14.3468 14.4402 14.3465 14.4399 14.3458 14.439C13.8807 13.9031 13.8929 13.1842 14.3367 12.684C14.3434 12.6764 14.3502 12.6691 14.3572 12.6617C14.4508 12.5636 15.163 11.8174 15.7131 11.2674C16.2479 10.7325 16.9618 10.0508 17.0902 9.92832Z" fill="url(#paint18_linear_18_32062)"/>
<path d="M17.0902 9.92832C17.1037 9.91546 17.1175 9.90279 17.1318 9.8908C17.6646 9.44301 18.3423 9.45297 18.866 9.89858C18.8741 9.90549 18.8818 9.91232 18.8896 9.91952C18.9903 10.0118 19.7361 10.6966 20.3068 11.2674C20.8853 11.8459 21.5602 12.5833 21.6349 12.6651C21.6396 12.6703 21.644 12.6752 21.6486 12.6805C22.1004 13.2001 22.132 13.892 21.6531 14.4277C21.6456 14.4361 21.6384 14.4441 21.631 14.4526C21.5476 14.5484 20.9841 15.1916 20.3068 15.8689C19.6528 16.523 19.0297 17.1027 18.9012 17.2217C18.8849 17.2368 18.8684 17.2513 18.851 17.2651C18.2712 17.727 17.6282 17.6591 17.1117 17.2049C17.1109 17.2042 17.1106 17.2039 17.1097 17.2032C17.0829 17.1796 16.2808 16.4757 15.674 15.8689C15.0678 15.2627 14.3721 14.4691 14.3476 14.4411C14.3468 14.4402 14.3465 14.4399 14.3458 14.439C13.8807 13.9031 13.8929 13.1842 14.3367 12.684C14.3434 12.6764 14.3502 12.6691 14.3572 12.6617C14.4508 12.5636 15.163 11.8174 15.7131 11.2674C16.2479 10.7325 16.9618 10.0508 17.0902 9.92832Z" fill="url(#paint19_linear_18_32062)"/>
<path d="M17.0902 9.92832C17.1037 9.91546 17.1175 9.90279 17.1318 9.8908C17.6646 9.44301 18.3423 9.45297 18.866 9.89858C18.8741 9.90549 18.8818 9.91232 18.8896 9.91952C18.9903 10.0118 19.7361 10.6966 20.3068 11.2674C20.8853 11.8459 21.5602 12.5833 21.6349 12.6651C21.6396 12.6703 21.644 12.6752 21.6486 12.6805C22.1004 13.2001 22.132 13.892 21.6531 14.4277C21.6456 14.4361 21.6384 14.4441 21.631 14.4526C21.5476 14.5484 20.9841 15.1916 20.3068 15.8689C19.6528 16.523 19.0297 17.1027 18.9012 17.2217C18.8849 17.2368 18.8684 17.2513 18.851 17.2651C18.2712 17.727 17.6282 17.6591 17.1117 17.2049C17.1109 17.2042 17.1106 17.2039 17.1097 17.2032C17.0829 17.1796 16.2808 16.4757 15.674 15.8689C15.0678 15.2627 14.3721 14.4691 14.3476 14.4411C14.3468 14.4402 14.3465 14.4399 14.3458 14.439C13.8807 13.9031 13.8929 13.1842 14.3367 12.684C14.3434 12.6764 14.3502 12.6691 14.3572 12.6617C14.4508 12.5636 15.163 11.8174 15.7131 11.2674C16.2479 10.7325 16.9618 10.0508 17.0902 9.92832Z" fill="url(#paint20_linear_18_32062)"/>
<path d="M17.0902 9.92832C17.1037 9.91546 17.1175 9.90279 17.1318 9.8908C17.6646 9.44301 18.3423 9.45297 18.866 9.89858C18.8741 9.90549 18.8818 9.91232 18.8896 9.91952C18.9903 10.0118 19.7361 10.6966 20.3068 11.2674C20.8853 11.8459 21.5602 12.5833 21.6349 12.6651C21.6396 12.6703 21.644 12.6752 21.6486 12.6805C22.1004 13.2001 22.132 13.892 21.6531 14.4277C21.6456 14.4361 21.6384 14.4441 21.631 14.4526C21.5476 14.5484 20.9841 15.1916 20.3068 15.8689C19.6528 16.523 19.0297 17.1027 18.9012 17.2217C18.8849 17.2368 18.8684 17.2513 18.851 17.2651C18.2712 17.727 17.6282 17.6591 17.1117 17.2049C17.1109 17.2042 17.1106 17.2039 17.1097 17.2032C17.0829 17.1796 16.2808 16.4757 15.674 15.8689C15.0678 15.2627 14.3721 14.4691 14.3476 14.4411C14.3468 14.4402 14.3465 14.4399 14.3458 14.439C13.8807 13.9031 13.8929 13.1842 14.3367 12.684C14.3434 12.6764 14.3502 12.6691 14.3572 12.6617C14.4508 12.5636 15.163 11.8174 15.7131 11.2674C16.2479 10.7325 16.9618 10.0508 17.0902 9.92832Z" fill="#613534"/>
</g>
<path d="M17.4943 9.47343C17.5078 9.46056 17.5216 9.4479 17.5359 9.4359C18.0688 8.98812 18.7464 8.99807 19.2701 9.44368C19.2782 9.45059 19.2859 9.45742 19.2937 9.46463C19.3944 9.55688 20.1402 10.2417 20.7109 10.8125C21.2895 11.391 21.9643 12.1285 22.039 12.2102C22.0437 12.2154 22.0482 12.2203 22.0528 12.2256C22.5046 12.7452 22.5361 13.4371 22.0572 13.9728C22.0497 13.9812 22.0425 13.9892 22.0351 13.9977C21.9517 14.0935 21.3883 14.7367 20.7109 15.414C20.0569 16.0681 19.4338 16.6478 19.3053 16.7668C19.289 16.7819 19.2726 16.7964 19.2551 16.8102C18.6754 17.2721 18.0324 17.2042 17.5158 16.75C17.515 16.7493 17.5147 16.749 17.5139 16.7483C17.487 16.7247 16.6849 16.0208 16.0781 15.414C15.4719 14.8078 14.7763 14.0142 14.7517 13.9862C14.751 13.9853 14.7507 13.985 14.7499 13.9841C14.2848 13.4482 14.297 12.7293 14.7408 12.2291C14.7476 12.2215 14.7543 12.2142 14.7614 12.2068C14.8549 12.1087 15.5671 11.3625 16.1172 10.8125C16.6521 10.2776 17.3659 9.59586 17.4943 9.47343Z" fill="#824534"/>
<path d="M17.4943 9.47343C17.5078 9.46056 17.5216 9.4479 17.5359 9.4359C18.0688 8.98812 18.7464 8.99807 19.2701 9.44368C19.2782 9.45059 19.2859 9.45742 19.2937 9.46463C19.3944 9.55688 20.1402 10.2417 20.7109 10.8125C21.2895 11.391 21.9643 12.1285 22.039 12.2102C22.0437 12.2154 22.0482 12.2203 22.0528 12.2256C22.5046 12.7452 22.5361 13.4371 22.0572 13.9728C22.0497 13.9812 22.0425 13.9892 22.0351 13.9977C21.9517 14.0935 21.3883 14.7367 20.7109 15.414C20.0569 16.0681 19.4338 16.6478 19.3053 16.7668C19.289 16.7819 19.2726 16.7964 19.2551 16.8102C18.6754 17.2721 18.0324 17.2042 17.5158 16.75C17.515 16.7493 17.5147 16.749 17.5139 16.7483C17.487 16.7247 16.6849 16.0208 16.0781 15.414C15.4719 14.8078 14.7763 14.0142 14.7517 13.9862C14.751 13.9853 14.7507 13.985 14.7499 13.9841C14.2848 13.4482 14.297 12.7293 14.7408 12.2291C14.7476 12.2215 14.7543 12.2142 14.7614 12.2068C14.8549 12.1087 15.5671 11.3625 16.1172 10.8125C16.6521 10.2776 17.3659 9.59586 17.4943 9.47343Z" fill="url(#paint21_linear_18_32062)"/>
<path d="M17.4943 9.47343C17.5078 9.46056 17.5216 9.4479 17.5359 9.4359C18.0688 8.98812 18.7464 8.99807 19.2701 9.44368C19.2782 9.45059 19.2859 9.45742 19.2937 9.46463C19.3944 9.55688 20.1402 10.2417 20.7109 10.8125C21.2895 11.391 21.9643 12.1285 22.039 12.2102C22.0437 12.2154 22.0482 12.2203 22.0528 12.2256C22.5046 12.7452 22.5361 13.4371 22.0572 13.9728C22.0497 13.9812 22.0425 13.9892 22.0351 13.9977C21.9517 14.0935 21.3883 14.7367 20.7109 15.414C20.0569 16.0681 19.4338 16.6478 19.3053 16.7668C19.289 16.7819 19.2726 16.7964 19.2551 16.8102C18.6754 17.2721 18.0324 17.2042 17.5158 16.75C17.515 16.7493 17.5147 16.749 17.5139 16.7483C17.487 16.7247 16.6849 16.0208 16.0781 15.414C15.4719 14.8078 14.7763 14.0142 14.7517 13.9862C14.751 13.9853 14.7507 13.985 14.7499 13.9841C14.2848 13.4482 14.297 12.7293 14.7408 12.2291C14.7476 12.2215 14.7543 12.2142 14.7614 12.2068C14.8549 12.1087 15.5671 11.3625 16.1172 10.8125C16.6521 10.2776 17.3659 9.59586 17.4943 9.47343Z" fill="url(#paint22_linear_18_32062)"/>
<path d="M17.4943 9.47343C17.5078 9.46056 17.5216 9.4479 17.5359 9.4359C18.0688 8.98812 18.7464 8.99807 19.2701 9.44368C19.2782 9.45059 19.2859 9.45742 19.2937 9.46463C19.3944 9.55688 20.1402 10.2417 20.7109 10.8125C21.2895 11.391 21.9643 12.1285 22.039 12.2102C22.0437 12.2154 22.0482 12.2203 22.0528 12.2256C22.5046 12.7452 22.5361 13.4371 22.0572 13.9728C22.0497 13.9812 22.0425 13.9892 22.0351 13.9977C21.9517 14.0935 21.3883 14.7367 20.7109 15.414C20.0569 16.0681 19.4338 16.6478 19.3053 16.7668C19.289 16.7819 19.2726 16.7964 19.2551 16.8102C18.6754 17.2721 18.0324 17.2042 17.5158 16.75C17.515 16.7493 17.5147 16.749 17.5139 16.7483C17.487 16.7247 16.6849 16.0208 16.0781 15.414C15.4719 14.8078 14.7763 14.0142 14.7517 13.9862C14.751 13.9853 14.7507 13.985 14.7499 13.9841C14.2848 13.4482 14.297 12.7293 14.7408 12.2291C14.7476 12.2215 14.7543 12.2142 14.7614 12.2068C14.8549 12.1087 15.5671 11.3625 16.1172 10.8125C16.6521 10.2776 17.3659 9.59586 17.4943 9.47343Z" fill="url(#paint23_linear_18_32062)"/>
<path d="M17.4943 9.47343C17.5078 9.46056 17.5216 9.4479 17.5359 9.4359C18.0688 8.98812 18.7464 8.99807 19.2701 9.44368C19.2782 9.45059 19.2859 9.45742 19.2937 9.46463C19.3944 9.55688 20.1402 10.2417 20.7109 10.8125C21.2895 11.391 21.9643 12.1285 22.039 12.2102C22.0437 12.2154 22.0482 12.2203 22.0528 12.2256C22.5046 12.7452 22.5361 13.4371 22.0572 13.9728C22.0497 13.9812 22.0425 13.9892 22.0351 13.9977C21.9517 14.0935 21.3883 14.7367 20.7109 15.414C20.0569 16.0681 19.4338 16.6478 19.3053 16.7668C19.289 16.7819 19.2726 16.7964 19.2551 16.8102C18.6754 17.2721 18.0324 17.2042 17.5158 16.75C17.515 16.7493 17.5147 16.749 17.5139 16.7483C17.487 16.7247 16.6849 16.0208 16.0781 15.414C15.4719 14.8078 14.7763 14.0142 14.7517 13.9862C14.751 13.9853 14.7507 13.985 14.7499 13.9841C14.2848 13.4482 14.297 12.7293 14.7408 12.2291C14.7476 12.2215 14.7543 12.2142 14.7614 12.2068C14.8549 12.1087 15.5671 11.3625 16.1172 10.8125C16.6521 10.2776 17.3659 9.59586 17.4943 9.47343Z" fill="url(#paint24_linear_18_32062)"/>
<g filter="url(#filter4_f_18_32062)">
<path d="M15.1088 13.497C14.9527 13.3172 14.9473 13.0531 15.0996 12.8701C15.3934 12.5172 15.912 11.9162 16.5194 11.3088C17.1262 10.702 17.7236 10.1869 18.0744 9.89513C18.2569 9.74339 18.5199 9.74847 18.6994 9.90376C19.1064 10.2559 19.8227 10.8852 20.2714 11.3339C20.7164 11.7789 21.3391 12.4872 21.6929 12.8959C21.8522 13.0799 21.8532 13.3509 21.6948 13.5358C21.3526 13.9351 20.7539 14.6211 20.2891 15.0859C19.8246 15.5504 19.1394 16.1485 18.7399 16.4908C18.5546 16.6496 18.2826 16.648 18.0984 16.4879C17.6807 16.1251 16.9537 15.4849 16.537 15.0683C16.1171 14.6484 15.4701 13.9131 15.1088 13.497Z" fill="url(#paint25_linear_18_32062)"/>
<path d="M15.1088 13.497C14.9527 13.3172 14.9473 13.0531 15.0996 12.8701C15.3934 12.5172 15.912 11.9162 16.5194 11.3088C17.1262 10.702 17.7236 10.1869 18.0744 9.89513C18.2569 9.74339 18.5199 9.74847 18.6994 9.90376C19.1064 10.2559 19.8227 10.8852 20.2714 11.3339C20.7164 11.7789 21.3391 12.4872 21.6929 12.8959C21.8522 13.0799 21.8532 13.3509 21.6948 13.5358C21.3526 13.9351 20.7539 14.6211 20.2891 15.0859C19.8246 15.5504 19.1394 16.1485 18.7399 16.4908C18.5546 16.6496 18.2826 16.648 18.0984 16.4879C17.6807 16.1251 16.9537 15.4849 16.537 15.0683C16.1171 14.6484 15.4701 13.9131 15.1088 13.497Z" fill="url(#paint26_linear_18_32062)"/>
<path d="M15.1088 13.497C14.9527 13.3172 14.9473 13.0531 15.0996 12.8701C15.3934 12.5172 15.912 11.9162 16.5194 11.3088C17.1262 10.702 17.7236 10.1869 18.0744 9.89513C18.2569 9.74339 18.5199 9.74847 18.6994 9.90376C19.1064 10.2559 19.8227 10.8852 20.2714 11.3339C20.7164 11.7789 21.3391 12.4872 21.6929 12.8959C21.8522 13.0799 21.8532 13.3509 21.6948 13.5358C21.3526 13.9351 20.7539 14.6211 20.2891 15.0859C19.8246 15.5504 19.1394 16.1485 18.7399 16.4908C18.5546 16.6496 18.2826 16.648 18.0984 16.4879C17.6807 16.1251 16.9537 15.4849 16.537 15.0683C16.1171 14.6484 15.4701 13.9131 15.1088 13.497Z" fill="url(#paint27_linear_18_32062)"/>
</g>
<g filter="url(#filter5_f_18_32062)">
<path d="M11.9631 15.1578C11.9766 15.1449 11.9904 15.1322 12.0047 15.1202C12.5375 14.6724 13.2152 14.6824 13.7389 15.128C13.747 15.1349 13.7546 15.1418 13.7625 15.149C13.8632 15.2412 14.6089 15.9261 15.1797 16.4968C15.7582 17.0753 16.4331 17.8128 16.5077 17.8945C16.5125 17.8997 16.5169 17.9046 16.5215 17.91C16.9733 18.4295 17.0049 19.1215 16.5259 19.6571C16.5184 19.6655 16.5113 19.6735 16.5039 19.682C16.4204 19.7779 15.857 20.421 15.1797 21.0984C14.5256 21.7524 13.9026 22.3321 13.7741 22.4511C13.7577 22.4662 13.7413 22.4807 13.7239 22.4946C13.1441 22.9565 12.5011 22.8885 11.9846 22.4344C11.9837 22.4336 11.9835 22.4334 11.9826 22.4326C11.9558 22.4091 11.1537 21.7052 10.5469 21.0984C9.94065 20.4921 9.24501 19.6985 9.22049 19.6705C9.21971 19.6696 9.21942 19.6693 9.21865 19.6684C8.75359 19.1325 8.76579 18.4137 9.20954 17.9134C9.21632 17.9058 9.22307 17.8986 9.23012 17.8912C9.32368 17.793 10.0359 17.0469 10.5859 16.4968C11.1208 15.9619 11.8347 15.2802 11.9631 15.1578Z" fill="url(#paint28_linear_18_32062)"/>
</g>
<path d="M12.3225 14.6766C12.336 14.6637 12.3498 14.651 12.364 14.639C12.8969 14.1912 13.5746 14.2012 14.0982 14.6468C14.1064 14.6537 14.114 14.6605 14.1219 14.6678C14.2226 14.76 14.9683 15.4449 15.5391 16.0156C16.1176 16.5941 16.7925 17.3316 16.8671 17.4133C16.8719 17.4185 16.8763 17.4234 16.8809 17.4287C17.3327 17.9483 17.3642 18.6403 16.8853 19.1759C16.8778 19.1843 16.8707 19.1923 16.8633 19.2008C16.7798 19.2966 16.2164 19.9398 15.5391 20.6172C14.885 21.2712 14.2619 21.8509 14.1335 21.9699C14.1171 21.985 14.1007 21.9995 14.0833 22.0134C13.5035 22.4753 12.8605 22.4073 12.344 21.9531C12.3431 21.9524 12.3428 21.9522 12.342 21.9514C12.3151 21.9279 11.5131 21.224 10.9063 20.6172C10.3 20.0109 9.60438 19.2173 9.57986 19.1893C9.57908 19.1884 9.5788 19.1881 9.57802 19.1872C9.11297 18.6513 9.12517 17.9325 9.56892 17.4322C9.5757 17.4246 9.58244 17.4174 9.58949 17.41C9.68306 17.3118 10.3953 16.5657 10.9453 16.0156C11.4802 15.4807 12.194 14.799 12.3225 14.6766Z" fill="#824534"/>
<path d="M12.3225 14.6766C12.336 14.6637 12.3498 14.651 12.364 14.639C12.8969 14.1912 13.5746 14.2012 14.0982 14.6468C14.1064 14.6537 14.114 14.6605 14.1219 14.6678C14.2226 14.76 14.9683 15.4449 15.5391 16.0156C16.1176 16.5941 16.7925 17.3316 16.8671 17.4133C16.8719 17.4185 16.8763 17.4234 16.8809 17.4287C17.3327 17.9483 17.3642 18.6403 16.8853 19.1759C16.8778 19.1843 16.8707 19.1923 16.8633 19.2008C16.7798 19.2966 16.2164 19.9398 15.5391 20.6172C14.885 21.2712 14.2619 21.8509 14.1335 21.9699C14.1171 21.985 14.1007 21.9995 14.0833 22.0134C13.5035 22.4753 12.8605 22.4073 12.344 21.9531C12.3431 21.9524 12.3428 21.9522 12.342 21.9514C12.3151 21.9279 11.5131 21.224 10.9063 20.6172C10.3 20.0109 9.60438 19.2173 9.57986 19.1893C9.57908 19.1884 9.5788 19.1881 9.57802 19.1872C9.11297 18.6513 9.12517 17.9325 9.56892 17.4322C9.5757 17.4246 9.58244 17.4174 9.58949 17.41C9.68306 17.3118 10.3953 16.5657 10.9453 16.0156C11.4802 15.4807 12.194 14.799 12.3225 14.6766Z" fill="url(#paint29_linear_18_32062)"/>
<path d="M12.3225 14.6766C12.336 14.6637 12.3498 14.651 12.364 14.639C12.8969 14.1912 13.5746 14.2012 14.0982 14.6468C14.1064 14.6537 14.114 14.6605 14.1219 14.6678C14.2226 14.76 14.9683 15.4449 15.5391 16.0156C16.1176 16.5941 16.7925 17.3316 16.8671 17.4133C16.8719 17.4185 16.8763 17.4234 16.8809 17.4287C17.3327 17.9483 17.3642 18.6403 16.8853 19.1759C16.8778 19.1843 16.8707 19.1923 16.8633 19.2008C16.7798 19.2966 16.2164 19.9398 15.5391 20.6172C14.885 21.2712 14.2619 21.8509 14.1335 21.9699C14.1171 21.985 14.1007 21.9995 14.0833 22.0134C13.5035 22.4753 12.8605 22.4073 12.344 21.9531C12.3431 21.9524 12.3428 21.9522 12.342 21.9514C12.3151 21.9279 11.5131 21.224 10.9063 20.6172C10.3 20.0109 9.60438 19.2173 9.57986 19.1893C9.57908 19.1884 9.5788 19.1881 9.57802 19.1872C9.11297 18.6513 9.12517 17.9325 9.56892 17.4322C9.5757 17.4246 9.58244 17.4174 9.58949 17.41C9.68306 17.3118 10.3953 16.5657 10.9453 16.0156C11.4802 15.4807 12.194 14.799 12.3225 14.6766Z" fill="url(#paint30_linear_18_32062)"/>
<path d="M12.3225 14.6766C12.336 14.6637 12.3498 14.651 12.364 14.639C12.8969 14.1912 13.5746 14.2012 14.0982 14.6468C14.1064 14.6537 14.114 14.6605 14.1219 14.6678C14.2226 14.76 14.9683 15.4449 15.5391 16.0156C16.1176 16.5941 16.7925 17.3316 16.8671 17.4133C16.8719 17.4185 16.8763 17.4234 16.8809 17.4287C17.3327 17.9483 17.3642 18.6403 16.8853 19.1759C16.8778 19.1843 16.8707 19.1923 16.8633 19.2008C16.7798 19.2966 16.2164 19.9398 15.5391 20.6172C14.885 21.2712 14.2619 21.8509 14.1335 21.9699C14.1171 21.985 14.1007 21.9995 14.0833 22.0134C13.5035 22.4753 12.8605 22.4073 12.344 21.9531C12.3431 21.9524 12.3428 21.9522 12.342 21.9514C12.3151 21.9279 11.5131 21.224 10.9063 20.6172C10.3 20.0109 9.60438 19.2173 9.57986 19.1893C9.57908 19.1884 9.5788 19.1881 9.57802 19.1872C9.11297 18.6513 9.12517 17.9325 9.56892 17.4322C9.5757 17.4246 9.58244 17.4174 9.58949 17.41C9.68306 17.3118 10.3953 16.5657 10.9453 16.0156C11.4802 15.4807 12.194 14.799 12.3225 14.6766Z" fill="url(#paint31_linear_18_32062)"/>
<path d="M12.3225 14.6766C12.336 14.6637 12.3498 14.651 12.364 14.639C12.8969 14.1912 13.5746 14.2012 14.0982 14.6468C14.1064 14.6537 14.114 14.6605 14.1219 14.6678C14.2226 14.76 14.9683 15.4449 15.5391 16.0156C16.1176 16.5941 16.7925 17.3316 16.8671 17.4133C16.8719 17.4185 16.8763 17.4234 16.8809 17.4287C17.3327 17.9483 17.3642 18.6403 16.8853 19.1759C16.8778 19.1843 16.8707 19.1923 16.8633 19.2008C16.7798 19.2966 16.2164 19.9398 15.5391 20.6172C14.885 21.2712 14.2619 21.8509 14.1335 21.9699C14.1171 21.985 14.1007 21.9995 14.0833 22.0134C13.5035 22.4753 12.8605 22.4073 12.344 21.9531C12.3431 21.9524 12.3428 21.9522 12.342 21.9514C12.3151 21.9279 11.5131 21.224 10.9063 20.6172C10.3 20.0109 9.60438 19.2173 9.57986 19.1893C9.57908 19.1884 9.5788 19.1881 9.57802 19.1872C9.11297 18.6513 9.12517 17.9325 9.56892 17.4322C9.5757 17.4246 9.58244 17.4174 9.58949 17.41C9.68306 17.3118 10.3953 16.5657 10.9453 16.0156C11.4802 15.4807 12.194 14.799 12.3225 14.6766Z" fill="url(#paint32_linear_18_32062)"/>
<g filter="url(#filter6_f_18_32062)">
<path d="M9.93691 18.7001C9.78078 18.5203 9.77539 18.2563 9.92775 18.0732C10.2215 17.7203 10.7401 17.1193 11.3475 16.5119C11.9543 15.9051 12.5517 15.39 12.9026 15.0983C13.0851 14.9465 13.348 14.9516 13.5275 15.1069C13.9345 15.459 14.6508 16.0883 15.0995 16.537C15.5446 16.9821 16.1672 17.6903 16.521 18.099C16.6803 18.283 16.6813 18.5541 16.5229 18.7389C16.1808 19.1382 15.582 19.8242 15.1172 20.2891C14.6528 20.7535 13.9675 21.3516 13.5681 21.6939C13.3828 21.8527 13.1107 21.8511 12.9265 21.6911C12.5088 21.3282 11.7818 20.688 11.3652 20.2714C10.9452 19.8515 10.2982 19.1162 9.93691 18.7001Z" fill="url(#paint33_linear_18_32062)"/>
<path d="M9.93691 18.7001C9.78078 18.5203 9.77539 18.2563 9.92775 18.0732C10.2215 17.7203 10.7401 17.1193 11.3475 16.5119C11.9543 15.9051 12.5517 15.39 12.9026 15.0983C13.0851 14.9465 13.348 14.9516 13.5275 15.1069C13.9345 15.459 14.6508 16.0883 15.0995 16.537C15.5446 16.9821 16.1672 17.6903 16.521 18.099C16.6803 18.283 16.6813 18.5541 16.5229 18.7389C16.1808 19.1382 15.582 19.8242 15.1172 20.2891C14.6528 20.7535 13.9675 21.3516 13.5681 21.6939C13.3828 21.8527 13.1107 21.8511 12.9265 21.6911C12.5088 21.3282 11.7818 20.688 11.3652 20.2714C10.9452 19.8515 10.2982 19.1162 9.93691 18.7001Z" fill="url(#paint34_linear_18_32062)"/>
<path d="M9.93691 18.7001C9.78078 18.5203 9.77539 18.2563 9.92775 18.0732C10.2215 17.7203 10.7401 17.1193 11.3475 16.5119C11.9543 15.9051 12.5517 15.39 12.9026 15.0983C13.0851 14.9465 13.348 14.9516 13.5275 15.1069C13.9345 15.459 14.6508 16.0883 15.0995 16.537C15.5446 16.9821 16.1672 17.6903 16.521 18.099C16.6803 18.283 16.6813 18.5541 16.5229 18.7389C16.1808 19.1382 15.582 19.8242 15.1172 20.2891C14.6528 20.7535 13.9675 21.3516 13.5681 21.6939C13.3828 21.8527 13.1107 21.8511 12.9265 21.6911C12.5088 21.3282 11.7818 20.688 11.3652 20.2714C10.9452 19.8515 10.2982 19.1162 9.93691 18.7001Z" fill="url(#paint35_linear_18_32062)"/>
</g>
<path d="M10.2578 21.7831C10.2578 21.7831 16.5546 28.3456 17.664 29.33C18.7734 30.3144 19.9921 30.1269 20.9453 29.33C21.8984 28.5331 28.3203 22.0956 29.3359 21.0331C30.3515 19.9706 30.0703 18.5488 29.1796 17.6581C28.289 16.7675 21.7109 10.2519 21.7109 10.2519L10.2578 21.7831Z" fill="url(#paint36_linear_18_32062)"/>
<path d="M10.2578 21.7831C10.2578 21.7831 16.5546 28.3456 17.664 29.33C18.7734 30.3144 19.9921 30.1269 20.9453 29.33C21.8984 28.5331 28.3203 22.0956 29.3359 21.0331C30.3515 19.9706 30.0703 18.5488 29.1796 17.6581C28.289 16.7675 21.7109 10.2519 21.7109 10.2519L10.2578 21.7831Z" fill="url(#paint37_linear_18_32062)"/>
<g filter="url(#filter7_f_18_32062)">
<path d="M12.1329 21.5234C12.1329 21.5234 16.8586 26.498 17.8978 27.4201C18.937 28.3421 19.376 28.869 20.2688 28.1226C21.1616 27.3762 27.1771 21.3461 28.1284 20.3508C29.0798 19.3556 28.6577 18.7408 27.8235 17.9066C26.9892 17.0723 22 12.1416 22 12.1416L12.1329 21.5234Z" fill="#D3245A"/>
<path d="M12.1329 21.5234C12.1329 21.5234 16.8586 26.498 17.8978 27.4201C18.937 28.3421 19.376 28.869 20.2688 28.1226C21.1616 27.3762 27.1771 21.3461 28.1284 20.3508C29.0798 19.3556 28.6577 18.7408 27.8235 17.9066C26.9892 17.0723 22 12.1416 22 12.1416L12.1329 21.5234Z" fill="url(#paint38_linear_18_32062)"/>
<path d="M12.1329 21.5234C12.1329 21.5234 16.8586 26.498 17.8978 27.4201C18.937 28.3421 19.376 28.869 20.2688 28.1226C21.1616 27.3762 27.1771 21.3461 28.1284 20.3508C29.0798 19.3556 28.6577 18.7408 27.8235 17.9066C26.9892 17.0723 22 12.1416 22 12.1416L12.1329 21.5234Z" fill="url(#paint39_linear_18_32062)"/>
</g>
<g filter="url(#filter8_f_18_32062)">
<path d="M22.4907 12.0862C22.4907 12.0862 14.132 23.4293 13.8188 23.7425C13.5057 24.0557 13.2494 24.1126 12.8223 23.8422C12.3952 23.5717 11.0855 22.0342 10.872 21.7922C10.6584 21.5501 10.6653 21.2495 10.9466 20.987C11.2279 20.7244 21.1525 10.8406 21.1525 10.8406C21.3127 10.6804 21.6015 10.7222 21.7291 10.8406C21.7291 10.8406 22.3128 11.3388 22.4907 11.5168C22.6687 11.6948 22.5818 11.9587 22.4907 12.0862Z" fill="#572916"/>
</g>
<path d="M23.2266 11.5469C23.2266 11.5469 13.7188 24.4531 13.375 24.7969C13.0312 25.1406 12.75 25.2031 12.2812 24.9063C11.8125 24.6094 10.375 22.9219 10.1406 22.6563C9.90625 22.3906 9.91374 22.0606 10.2225 21.7725C10.5312 21.4844 21.7578 10.1797 21.7578 10.1797C21.9336 10.0039 22.2506 10.0497 22.3906 10.1797C22.3906 10.1797 23.0312 10.7266 23.2266 10.9219C23.4219 11.1172 23.3266 11.4069 23.2266 11.5469Z" fill="url(#paint40_linear_18_32062)"/>
<g filter="url(#filter9_f_18_32062)">
<path d="M22.875 11.2812C22.875 10.8281 22.375 10.3438 21.9219 10.5C21.4688 10.6562 16.5 16.2812 16.5 16.2812L18.0781 17.5468C19.6615 15.651 22.875 11.7422 22.875 11.2812Z" fill="url(#paint41_linear_18_32062)"/>
</g>
<defs>
<filter id="filter0_f_18_32062" x="2.37329" y="8.35474" width="9.99959" height="10.0206" filterUnits="userSpaceOnUse" color-interpolation-filters="sRGB">
<feFlood flood-opacity="0" result="BackgroundImageFix"/>
<feBlend mode="normal" in="SourceGraphic" in2="BackgroundImageFix" result="shape"/>
<feGaussianBlur stdDeviation="0.5" result="effect1_foregroundBlur_18_32062"/>
</filter>
<filter id="filter1_f_18_32062" x="4.0197" y="9.22174" width="7.32452" height="7.32471" filterUnits="userSpaceOnUse" color-interpolation-filters="sRGB">
<feFlood flood-opacity="0" result="BackgroundImageFix"/>
<feBlend mode="normal" in="SourceGraphic" in2="BackgroundImageFix" result="shape"/>
<feGaussianBlur stdDeviation="0.125" result="effect1_foregroundBlur_18_32062"/>
</filter>
<filter id="filter2_f_18_32062" x="9.21066" y="3.94391" width="7.44289" height="7.44305" filterUnits="userSpaceOnUse" color-interpolation-filters="sRGB">
<feFlood flood-opacity="0" result="BackgroundImageFix"/>
<feBlend mode="normal" in="SourceGraphic" in2="BackgroundImageFix" result="shape"/>
<feGaussianBlur stdDeviation="0.125" result="effect1_foregroundBlur_18_32062"/>
</filter>
<filter id="filter3_f_18_32062" x="13.0004" y="8.55963" width="9.99959" height="10.0206" filterUnits="userSpaceOnUse" color-interpolation-filters="sRGB">
<feFlood flood-opacity="0" result="BackgroundImageFix"/>
<feBlend mode="normal" in="SourceGraphic" in2="BackgroundImageFix" result="shape"/>
<feGaussianBlur stdDeviation="0.5" result="effect1_foregroundBlur_18_32062"/>
</filter>
<filter id="filter4_f_18_32062" x="14.7384" y="9.53424" width="7.32452" height="7.32471" filterUnits="userSpaceOnUse" color-interpolation-filters="sRGB">
<feFlood flood-opacity="0" result="BackgroundImageFix"/>
<feBlend mode="normal" in="SourceGraphic" in2="BackgroundImageFix" result="shape"/>
<feGaussianBlur stdDeviation="0.125" result="effect1_foregroundBlur_18_32062"/>
</filter>
<filter id="filter5_f_18_32062" x="7.87329" y="13.7891" width="9.99959" height="10.0206" filterUnits="userSpaceOnUse" color-interpolation-filters="sRGB">
<feFlood flood-opacity="0" result="BackgroundImageFix"/>
<feBlend mode="normal" in="SourceGraphic" in2="BackgroundImageFix" result="shape"/>
<feGaussianBlur stdDeviation="0.5" result="effect1_foregroundBlur_18_32062"/>
</filter>
<filter id="filter6_f_18_32062" x="9.56657" y="14.7374" width="7.32452" height="7.32471" filterUnits="userSpaceOnUse" color-interpolation-filters="sRGB">
<feFlood flood-opacity="0" result="BackgroundImageFix"/>
<feBlend mode="normal" in="SourceGraphic" in2="BackgroundImageFix" result="shape"/>
<feGaussianBlur stdDeviation="0.125" result="effect1_foregroundBlur_18_32062"/>
</filter>
<filter id="filter7_f_18_32062" x="11.1329" y="11.1417" width="18.5395" height="18.3354" filterUnits="userSpaceOnUse" color-interpolation-filters="sRGB">
<feFlood flood-opacity="0" result="BackgroundImageFix"/>
<feBlend mode="normal" in="SourceGraphic" in2="BackgroundImageFix" result="shape"/>
<feGaussianBlur stdDeviation="0.5" result="effect1_foregroundBlur_18_32062"/>
</filter>
<filter id="filter8_f_18_32062" x="9.72244" y="9.73553" width="13.8717" height="15.2796" filterUnits="userSpaceOnUse" color-interpolation-filters="sRGB">
<feFlood flood-opacity="0" result="BackgroundImageFix"/>
<feBlend mode="normal" in="SourceGraphic" in2="BackgroundImageFix" result="shape"/>
<feGaussianBlur stdDeviation="0.5" result="effect1_foregroundBlur_18_32062"/>
</filter>
<filter id="filter9_f_18_32062" x="16" y="9.97003" width="7.375" height="8.07678" filterUnits="userSpaceOnUse" color-interpolation-filters="sRGB">
<feFlood flood-opacity="0" result="BackgroundImageFix"/>
<feBlend mode="normal" in="SourceGraphic" in2="BackgroundImageFix" result="shape"/>
<feGaussianBlur stdDeviation="0.25" result="effect1_foregroundBlur_18_32062"/>
</filter>
<radialGradient id="paint0_radial_18_32062" cx="0" cy="0" r="1" gradientUnits="userSpaceOnUse" gradientTransform="translate(6.375 5.875) rotate(135) scale(12.3302 6.13734)">
<stop stop-color="#735040"/>
<stop offset="1" stop-color="#724A3A" stop-opacity="0"/>
</radialGradient>
<radialGradient id="paint1_radial_18_32062" cx="0" cy="0" r="1" gradientUnits="userSpaceOnUse" gradientTransform="translate(4.03125 18.9062) rotate(45) scale(11.5596 8.97142)">
<stop stop-color="#834D4F"/>
<stop offset="1" stop-color="#834B4D" stop-opacity="0"/>
</radialGradient>
<radialGradient id="paint2_radial_18_32062" cx="0" cy="0" r="1" gradientUnits="userSpaceOnUse" gradientTransform="translate(17.5 6.6875) rotate(45) scale(10.1647 3.13779)">
<stop stop-color="#AC7A64"/>
<stop offset="1" stop-color="#AC7A63" stop-opacity="0"/>
</radialGradient>
<linearGradient id="paint3_linear_18_32062" x1="6.59375" y1="14.8125" x2="5.3125" y2="16.0937" gradientUnits="userSpaceOnUse">
<stop stop-color="#835355" stop-opacity="0"/>
<stop offset="0.542683" stop-color="#825254"/>
</linearGradient>
<linearGradient id="paint4_linear_18_32062" x1="6.90625" y1="14.25" x2="5.625" y2="15.5312" gradientUnits="userSpaceOnUse">
<stop stop-color="#835355" stop-opacity="0"/>
<stop offset="0.542683" stop-color="#825254"/>
</linearGradient>
<linearGradient id="paint5_linear_18_32062" x1="9.55469" y1="11.6016" x2="10.375" y2="10.7813" gradientUnits="userSpaceOnUse">
<stop stop-color="#91634B" stop-opacity="0"/>
<stop offset="0.257143" stop-color="#8E5E45"/>
<stop offset="0.971429" stop-color="#79452B"/>
</linearGradient>
<linearGradient id="paint6_linear_18_32062" x1="5.3125" y1="10.5625" x2="6.25781" y2="11.5078" gradientUnits="userSpaceOnUse">
<stop stop-color="#754A38"/>
<stop offset="0.198347" stop-color="#764B38"/>
<stop offset="1" stop-color="#8A5648" stop-opacity="0"/>
</linearGradient>
<linearGradient id="paint7_linear_18_32062" x1="10.4375" y1="15.0313" x2="9.54687" y2="14.1406" gradientUnits="userSpaceOnUse">
<stop offset="0.192983" stop-color="#7F4131"/>
<stop offset="0.508772" stop-color="#884B3F"/>
<stop offset="1" stop-color="#905452" stop-opacity="0"/>
</linearGradient>
<linearGradient id="paint8_linear_18_32062" x1="4.71562" y1="13.599" x2="10.6952" y2="13.5756" gradientUnits="userSpaceOnUse">
<stop stop-color="#865345"/>
<stop offset="1" stop-color="#945C4E"/>
</linearGradient>
<linearGradient id="paint9_linear_18_32062" x1="5.9333" y1="14.7546" x2="9.4925" y2="11.2617" gradientUnits="userSpaceOnUse">
<stop offset="0.0276698" stop-color="#7F4A40"/>
<stop offset="0.183829" stop-color="#844A45" stop-opacity="0"/>
</linearGradient>
<linearGradient id="paint10_linear_18_32062" x1="9.61" y1="11.1453" x2="6.4587" y2="14.2966" gradientUnits="userSpaceOnUse">
<stop offset="0.0194806" stop-color="#9B705C"/>
<stop offset="0.204546" stop-color="#9B705C" stop-opacity="0"/>
</linearGradient>
<linearGradient id="paint11_linear_18_32062" x1="12.0937" y1="9.09375" x2="10.8125" y2="10.375" gradientUnits="userSpaceOnUse">
<stop offset="0.402439" stop-color="#7A3C35" stop-opacity="0"/>
<stop offset="0.865854" stop-color="#783930"/>
<stop offset="1" stop-color="#713126"/>
</linearGradient>
<linearGradient id="paint12_linear_18_32062" x1="14.6562" y1="6.46875" x2="15.5625" y2="5.625" gradientUnits="userSpaceOnUse">
<stop stop-color="#A87760" stop-opacity="0"/>
<stop offset="0.342675" stop-color="#A8775F"/>
<stop offset="1" stop-color="#A3735A"/>
</linearGradient>
<linearGradient id="paint13_linear_18_32062" x1="10.5" y1="5.40625" x2="11.4453" y2="6.35156" gradientUnits="userSpaceOnUse">
<stop stop-color="#754A38"/>
<stop offset="0.198347" stop-color="#764B38"/>
<stop offset="1" stop-color="#8A5648" stop-opacity="0"/>
</linearGradient>
<linearGradient id="paint14_linear_18_32062" x1="15.625" y1="9.875" x2="14.7344" y2="8.98438" gradientUnits="userSpaceOnUse">
<stop offset="0.192983" stop-color="#7F4131"/>
<stop offset="0.508772" stop-color="#884B3F"/>
<stop offset="1" stop-color="#905452" stop-opacity="0"/>
</linearGradient>
<linearGradient id="paint15_linear_18_32062" x1="9.90402" y1="8.44186" x2="15.9816" y2="8.5181" gradientUnits="userSpaceOnUse">
<stop stop-color="#8B5A4A"/>
<stop offset="1" stop-color="#9B6351"/>
</linearGradient>
<linearGradient id="paint16_linear_18_32062" x1="11.1227" y1="9.59642" x2="13.8559" y2="6.86243" gradientUnits="userSpaceOnUse">
<stop offset="0.0276698" stop-color="#804643"/>
<stop offset="0.183829" stop-color="#874B4F" stop-opacity="0"/>
</linearGradient>
<linearGradient id="paint17_linear_18_32062" x1="14.9214" y1="5.86515" x2="12.6745" y2="8.00623" gradientUnits="userSpaceOnUse">
<stop offset="0.0194806" stop-color="#9B705C"/>
<stop offset="0.204546" stop-color="#9B705C" stop-opacity="0"/>
</linearGradient>
<linearGradient id="paint18_linear_18_32062" x1="17.2209" y1="15.0174" x2="15.9396" y2="16.2986" gradientUnits="userSpaceOnUse">
<stop offset="0.109756" stop-color="#6D3F3D" stop-opacity="0"/>
<stop offset="0.670732" stop-color="#643026"/>
<stop offset="1" stop-color="#5D2A1F"/>
</linearGradient>
<linearGradient id="paint19_linear_18_32062" x1="19.8693" y1="12.369" x2="20.6896" y2="11.5486" gradientUnits="userSpaceOnUse">
<stop stop-color="#91634B" stop-opacity="0"/>
<stop offset="0.257143" stop-color="#8E5E45"/>
<stop offset="0.971429" stop-color="#79452B"/>
</linearGradient>
<linearGradient id="paint20_linear_18_32062" x1="15.6271" y1="11.3299" x2="16.5724" y2="12.2752" gradientUnits="userSpaceOnUse">
<stop stop-color="#733821"/>
<stop offset="0.198347" stop-color="#773D25"/>
<stop offset="1" stop-color="#7F4B35" stop-opacity="0"/>
</linearGradient>
<linearGradient id="paint21_linear_18_32062" x1="17.625" y1="14.5625" x2="16.3437" y2="15.8437" gradientUnits="userSpaceOnUse">
<stop offset="0.109756" stop-color="#6D3F3D" stop-opacity="0"/>
<stop offset="0.670732" stop-color="#643026"/>
<stop offset="1" stop-color="#5D2A1F"/>
</linearGradient>
<linearGradient id="paint22_linear_18_32062" x1="20.2734" y1="11.9141" x2="21.0938" y2="11.0938" gradientUnits="userSpaceOnUse">
<stop stop-color="#91634B" stop-opacity="0"/>
<stop offset="0.257143" stop-color="#8E5E45"/>
<stop offset="0.971429" stop-color="#79452B"/>
</linearGradient>
<linearGradient id="paint23_linear_18_32062" x1="16.0312" y1="10.875" x2="16.9766" y2="11.8203" gradientUnits="userSpaceOnUse">
<stop stop-color="#733821"/>
<stop offset="0.198347" stop-color="#773D25"/>
<stop offset="1" stop-color="#7F4B35" stop-opacity="0"/>
</linearGradient>
<linearGradient id="paint24_linear_18_32062" x1="21.1562" y1="15.3438" x2="20.2656" y2="14.4531" gradientUnits="userSpaceOnUse">
<stop offset="0.192983" stop-color="#7F4131"/>
<stop offset="0.508772" stop-color="#884B3F"/>
<stop offset="1" stop-color="#905452" stop-opacity="0"/>
</linearGradient>
<linearGradient id="paint25_linear_18_32062" x1="15.4344" y1="13.9115" x2="21.414" y2="13.8881" gradientUnits="userSpaceOnUse">
<stop stop-color="#865345"/>
<stop offset="1" stop-color="#945C4E"/>
</linearGradient>
<linearGradient id="paint26_linear_18_32062" x1="16.652" y1="15.0671" x2="20.2113" y2="11.5742" gradientUnits="userSpaceOnUse">
<stop offset="0.0276698" stop-color="#7F4A40"/>
<stop offset="0.183829" stop-color="#844A45" stop-opacity="0"/>
</linearGradient>
<linearGradient id="paint27_linear_18_32062" x1="20.3288" y1="11.4578" x2="17.1775" y2="14.6091" gradientUnits="userSpaceOnUse">
<stop offset="0.0194806" stop-color="#9B705C"/>
<stop offset="0.204546" stop-color="#9B705C" stop-opacity="0"/>
</linearGradient>
<linearGradient id="paint28_linear_18_32062" x1="11.375" y1="21.375" x2="9.21875" y2="19.2188" gradientUnits="userSpaceOnUse">
<stop stop-color="#64342F"/>
<stop offset="1" stop-color="#773C41"/>
</linearGradient>
<linearGradient id="paint29_linear_18_32062" x1="12.4531" y1="19.7656" x2="11.1719" y2="21.0469" gradientUnits="userSpaceOnUse">
<stop stop-color="#835355" stop-opacity="0"/>
<stop offset="0.542683" stop-color="#825254"/>
</linearGradient>
<linearGradient id="paint30_linear_18_32062" x1="15.1016" y1="17.1172" x2="15.9219" y2="16.2969" gradientUnits="userSpaceOnUse">
<stop stop-color="#91634B" stop-opacity="0"/>
<stop offset="0.257143" stop-color="#8E5E45"/>
<stop offset="0.971429" stop-color="#79452B"/>
</linearGradient>
<linearGradient id="paint31_linear_18_32062" x1="10.8594" y1="16.0781" x2="11.8047" y2="17.0234" gradientUnits="userSpaceOnUse">
<stop stop-color="#733821"/>
<stop offset="0.198347" stop-color="#783F28"/>
<stop offset="1" stop-color="#7E4934" stop-opacity="0"/>
</linearGradient>
<linearGradient id="paint32_linear_18_32062" x1="15.9844" y1="20.5469" x2="15.0937" y2="19.6563" gradientUnits="userSpaceOnUse">
<stop offset="0.192983" stop-color="#7F4131"/>
<stop offset="0.508772" stop-color="#884B3F"/>
<stop offset="1" stop-color="#905452" stop-opacity="0"/>
</linearGradient>
<linearGradient id="paint33_linear_18_32062" x1="10.2625" y1="19.1146" x2="16.2421" y2="19.0912" gradientUnits="userSpaceOnUse">
<stop stop-color="#865345"/>
<stop offset="1" stop-color="#945C4E"/>
</linearGradient>
<linearGradient id="paint34_linear_18_32062" x1="11.4802" y1="20.2702" x2="15.0394" y2="16.7774" gradientUnits="userSpaceOnUse">
<stop offset="0.0276698" stop-color="#7F4A40"/>
<stop offset="0.183829" stop-color="#844A45" stop-opacity="0"/>
</linearGradient>
<linearGradient id="paint35_linear_18_32062" x1="15.1569" y1="16.6609" x2="12.0056" y2="19.8122" gradientUnits="userSpaceOnUse">
<stop offset="0.0194806" stop-color="#9B705C"/>
<stop offset="0.204546" stop-color="#9B705C" stop-opacity="0"/>
</linearGradient>
<linearGradient id="paint36_linear_18_32062" x1="26.9375" y1="16.3125" x2="15.75" y2="27.5" gradientUnits="userSpaceOnUse">
<stop stop-color="#ED4253"/>
<stop offset="1" stop-color="#C41959"/>
</linearGradient>
<linearGradient id="paint37_linear_18_32062" x1="25.9375" y1="25.125" x2="22.6875" y2="21.875" gradientUnits="userSpaceOnUse">
<stop stop-color="#D61E58"/>
<stop offset="0.932692" stop-color="#D71D59" stop-opacity="0"/>
</linearGradient>
<linearGradient id="paint38_linear_18_32062" x1="25.75" y1="15.125" x2="22.8437" y2="18.0312" gradientUnits="userSpaceOnUse">
<stop offset="0.0860215" stop-color="#EA4B6C"/>
<stop offset="0.693548" stop-color="#EC4B6C" stop-opacity="0"/>
</linearGradient>
<linearGradient id="paint39_linear_18_32062" x1="17.4375" y1="18.5" x2="18.8438" y2="19.5313" gradientUnits="userSpaceOnUse">
<stop offset="0.384393" stop-color="#B3154F"/>
<stop offset="0.766859" stop-color="#B71550" stop-opacity="0"/>
</linearGradient>
<linearGradient id="paint40_linear_18_32062" x1="23.3401" y1="11.4724" x2="11.25" y2="23.625" gradientUnits="userSpaceOnUse">
<stop stop-color="#C1C1C2"/>
<stop offset="0.0875295" stop-color="#ADABB2"/>
<stop offset="0.198407" stop-color="#B1A4C2"/>
<stop offset="0.757899" stop-color="#B3A5C6"/>
<stop offset="0.879116" stop-color="#A892C1"/>
<stop offset="1" stop-color="#A485C3"/>
</linearGradient>
<linearGradient id="paint41_linear_18_32062" x1="22.25" y1="10.7831" x2="16.5" y2="16.5331" gradientUnits="userSpaceOnUse">
<stop stop-color="#D4D1DB"/>
<stop offset="1" stop-color="#B3A6C5" stop-opacity="0"/>
</linearGradient>
</defs>
</svg>
