<svg width="32" height="32" viewBox="0 0 32 32" fill="none" xmlns="http://www.w3.org/2000/svg">
<path d="M2 16C2 25.29 8.27 30 16 30C23.73 30 30 25.26 30 16C30 6.57 23.73 2 16 2C8.27 2 2 6.43 2 16Z" fill="#DDB78F"/>
<path d="M2 16C2 25.29 8.27 30 16 30C23.73 30 30 25.26 30 16C30 6.57 23.73 2 16 2C8.27 2 2 6.43 2 16Z" fill="url(#paint0_radial_18_31720)"/>
<path d="M2 16C2 25.29 8.27 30 16 30C23.73 30 30 25.26 30 16C30 6.57 23.73 2 16 2C8.27 2 2 6.43 2 16Z" fill="url(#paint1_radial_18_31720)"/>
<path d="M2 16C2 25.29 8.27 30 16 30C23.73 30 30 25.26 30 16C30 6.57 23.73 2 16 2C8.27 2 2 6.43 2 16Z" fill="url(#paint2_radial_18_31720)"/>
<path d="M26.92 14.61L26.96 13.99C27 13.42 26.52 12.94 25.95 12.98L25.34 13.02C25.1 13.03 24.85 13.11 24.63 13.24C24.01 13.63 23.76 14.42 24.04 15.09C24.38 15.89 25.32 16.23 26.09 15.85C26.59 15.62 26.88 15.13 26.92 14.61Z" fill="#6F434A"/>
<g filter="url(#filter0_f_18_31720)">
<path d="M26.7344 13.875C26.7688 13.3847 26.4531 13.25 26.0156 13.25C25.5781 13.25 25.1653 13.4633 24.8125 13.6718C24.2792 14.0073 23.9955 14.43 24.2364 15.0063C24.5288 15.6944 25.0877 15.7019 25.75 15.375C26.3626 15.0932 26.5801 14.4399 26.7344 13.875Z" fill="url(#paint3_radial_18_31720)"/>
</g>
<path d="M19.89 8.32001L20.51 8.36001C21.08 8.40001 21.56 7.92001 21.52 7.35001L21.48 6.74001C21.47 6.50001 21.39 6.25001 21.26 6.03001C20.87 5.41001 20.08 5.16001 19.41 5.44001C18.61 5.78001 18.27 6.72001 18.65 7.49001C18.88 7.99001 19.37 8.28001 19.89 8.32001Z" fill="#6F434A"/>
<g filter="url(#filter1_f_18_31720)">
<path d="M20.0001 7.68832L20.4808 7.71707C20.9227 7.74582 21.2948 7.40083 21.2638 6.99115L21.2328 6.55273C21.2251 6.38023 21.163 6.20055 21.0622 6.04243C20.7599 5.59681 20.1474 5.41713 19.6279 5.61837C19.0077 5.86274 18.7441 6.53835 19.0387 7.09178C19.217 7.45114 19.5969 7.65957 20.0001 7.68832Z" fill="url(#paint4_radial_18_31720)"/>
</g>
<path d="M10.67 23.75L10.62 24.52C10.57 25.23 11.16 25.82 11.87 25.77L12.63 25.72C12.93 25.7 13.23 25.61 13.51 25.44C14.28 24.96 14.59 23.98 14.24 23.14C13.82 22.14 12.65 21.72 11.7 22.2C11.08 22.51 10.71 23.11 10.67 23.75Z" fill="#6F434A"/>
<g filter="url(#filter2_f_18_31720)">
<path d="M10.9819 23.765L10.9402 24.4071C10.8985 24.9991 11.3905 25.4911 11.9825 25.4494L12.6162 25.4077C12.8664 25.3911 13.1165 25.316 13.35 25.1743C13.9921 24.774 14.2506 23.9568 13.9587 23.2564C13.6085 22.4225 12.6329 22.0723 11.8407 22.4726C11.3238 22.7311 11.0152 23.2314 10.9819 23.765Z" fill="url(#paint5_radial_18_31720)"/>
</g>
<path d="M20.4 15.19L20.43 14.73C20.53 13.22 19.28 11.97 17.76 12.06L17.31 12.09C16.86 12.11 16.41 12.24 15.99 12.49C14.75 13.22 14.22 14.78 14.77 16.11C15.42 17.7 17.27 18.37 18.78 17.62C19.76 17.15 20.34 16.2 20.4 15.19Z" fill="#6F434A"/>
<g filter="url(#filter3_f_18_31720)">
<path d="M20.024 14.9836L20.0483 14.6099C20.1296 13.3833 19.1142 12.368 17.8795 12.4411L17.514 12.4655C17.1485 12.4817 16.7829 12.5873 16.4418 12.7904C15.4345 13.3833 15.004 14.6505 15.4508 15.7309C15.9788 17.0224 17.4815 17.5666 18.7081 16.9574C19.5041 16.5756 19.9752 15.804 20.024 14.9836Z" fill="url(#paint6_radial_18_31720)"/>
</g>
<path d="M7.68 9.41994L7.65 8.99994C7.57 7.62994 8.7 6.48994 10.07 6.57994L10.48 6.60994C10.89 6.62994 11.3 6.74994 11.68 6.96994C12.81 7.62994 13.28 9.04994 12.79 10.2599C12.2 11.6999 10.52 12.3099 9.15 11.6299C8.27 11.1899 7.74 10.3299 7.68 9.41994Z" fill="url(#paint7_radial_18_31720)"/>
<g filter="url(#filter4_f_18_31720)">
<path d="M8.15663 9.38764L8.13206 9.04363C8.06654 7.92149 8.99209 6.98774 10.1142 7.06146L10.45 7.08603C10.7859 7.10241 11.2825 7.0698 11.5938 7.25C12.5193 7.79059 12.8076 8.94642 12.4062 9.9375C11.923 11.117 10.4828 11.7548 9.36068 11.1978C8.63989 10.8374 8.20578 10.133 8.15663 9.38764Z" fill="url(#paint8_radial_18_31720)"/>
</g>
<path d="M24.26 22.82L24.28 23.18C24.36 24.35 23.38 25.33 22.21 25.25L21.86 25.23C21.51 25.21 21.16 25.11 20.83 24.92C19.86 24.35 19.46 23.14 19.88 22.11C20.39 20.88 21.82 20.35 23 20.94C23.76 21.3 24.21 22.03 24.26 22.82Z" fill="#6F434A"/>
<g filter="url(#filter5_f_18_31720)">
<path d="M24.0262 22.7197L24.043 23.0224C24.1103 24.0064 23.2861 24.8306 22.3021 24.7633L22.0078 24.7465C21.7134 24.7297 21.4191 24.6456 21.1415 24.4858C20.3258 24.0064 19.9893 22.9888 20.3426 22.1226C20.7715 21.0881 21.9741 20.6424 22.9665 21.1386C23.6057 21.4413 23.9842 22.0553 24.0262 22.7197Z" fill="url(#paint9_radial_18_31720)"/>
</g>
<path d="M5.90999 17.54L5.86999 16.92C5.82999 16.35 6.30999 15.87 6.87999 15.91L7.48999 15.95C7.72999 15.96 7.97999 16.04 8.19999 16.17C8.81999 16.56 9.06999 17.35 8.78999 18.02C8.44999 18.82 7.50999 19.16 6.73999 18.78C6.23999 18.55 5.93999 18.06 5.90999 17.54Z" fill="#6F434A"/>
<g filter="url(#filter6_f_18_31720)">
<path d="M6.21167 17.5158L6.17985 17.0226C6.14803 16.5691 6.52991 16.1872 6.9834 16.219L7.46872 16.2508C7.65966 16.2588 7.85856 16.3224 8.03359 16.4259C8.52686 16.7362 8.72576 17.3647 8.50299 17.8977C8.23249 18.5342 7.48463 18.8047 6.87202 18.5024C6.47422 18.3194 6.23554 17.9296 6.21167 17.5158Z" fill="url(#paint10_radial_18_31720)"/>
</g>
<defs>
<filter id="filter0_f_18_31720" x="23.6498" y="12.75" width="3.58717" height="3.33459" filterUnits="userSpaceOnUse" color-interpolation-filters="sRGB">
<feFlood flood-opacity="0" result="BackgroundImageFix"/>
<feBlend mode="normal" in="SourceGraphic" in2="BackgroundImageFix" result="shape"/>
<feGaussianBlur stdDeviation="0.25" result="effect1_foregroundBlur_18_31720"/>
</filter>
<filter id="filter1_f_18_31720" x="18.4181" y="5.03638" width="3.34752" height="3.18237" filterUnits="userSpaceOnUse" color-interpolation-filters="sRGB">
<feFlood flood-opacity="0" result="BackgroundImageFix"/>
<feBlend mode="normal" in="SourceGraphic" in2="BackgroundImageFix" result="shape"/>
<feGaussianBlur stdDeviation="0.25" result="effect1_foregroundBlur_18_31720"/>
</filter>
<filter id="filter2_f_18_31720" x="10.4377" y="21.807" width="4.14041" height="4.1449" filterUnits="userSpaceOnUse" color-interpolation-filters="sRGB">
<feFlood flood-opacity="0" result="BackgroundImageFix"/>
<feBlend mode="normal" in="SourceGraphic" in2="BackgroundImageFix" result="shape"/>
<feGaussianBlur stdDeviation="0.25" result="effect1_foregroundBlur_18_31720"/>
</filter>
<filter id="filter3_f_18_31720" x="14.7748" y="11.9374" width="5.77806" height="5.76941" filterUnits="userSpaceOnUse" color-interpolation-filters="sRGB">
<feFlood flood-opacity="0" result="BackgroundImageFix"/>
<feBlend mode="normal" in="SourceGraphic" in2="BackgroundImageFix" result="shape"/>
<feGaussianBlur stdDeviation="0.25" result="effect1_foregroundBlur_18_31720"/>
</filter>
<filter id="filter4_f_18_31720" x="7.62878" y="6.55737" width="5.45396" height="5.34436" filterUnits="userSpaceOnUse" color-interpolation-filters="sRGB">
<feFlood flood-opacity="0" result="BackgroundImageFix"/>
<feBlend mode="normal" in="SourceGraphic" in2="BackgroundImageFix" result="shape"/>
<feGaussianBlur stdDeviation="0.25" result="effect1_foregroundBlur_18_31720"/>
</filter>
<filter id="filter5_f_18_31720" x="19.7031" y="20.4355" width="4.84375" height="4.83167" filterUnits="userSpaceOnUse" color-interpolation-filters="sRGB">
<feFlood flood-opacity="0" result="BackgroundImageFix"/>
<feBlend mode="normal" in="SourceGraphic" in2="BackgroundImageFix" result="shape"/>
<feGaussianBlur stdDeviation="0.25" result="effect1_foregroundBlur_18_31720"/>
</filter>
<filter id="filter6_f_18_31720" x="5.67799" y="15.7172" width="3.41576" height="3.40894" filterUnits="userSpaceOnUse" color-interpolation-filters="sRGB">
<feFlood flood-opacity="0" result="BackgroundImageFix"/>
<feBlend mode="normal" in="SourceGraphic" in2="BackgroundImageFix" result="shape"/>
<feGaussianBlur stdDeviation="0.25" result="effect1_foregroundBlur_18_31720"/>
</filter>
<radialGradient id="paint0_radial_18_31720" cx="0" cy="0" r="1" gradientUnits="userSpaceOnUse" gradientTransform="translate(23.4375 7.8125) rotate(119.554) scale(20.9077)">
<stop stop-color="#FFDAAE"/>
<stop offset="1" stop-color="#D59077" stop-opacity="0"/>
</radialGradient>
<radialGradient id="paint1_radial_18_31720" cx="0" cy="0" r="1" gradientUnits="userSpaceOnUse" gradientTransform="translate(17.375 16) rotate(83.2902) scale(17.1172 16.2696)">
<stop offset="0.772068" stop-color="#BF9E7A" stop-opacity="0"/>
<stop offset="1" stop-color="#C4A47E"/>
</radialGradient>
<radialGradient id="paint2_radial_18_31720" cx="0" cy="0" r="1" gradientUnits="userSpaceOnUse" gradientTransform="translate(19.375 6.5) rotate(92.6808) scale(37.4159)">
<stop offset="0.324983" stop-color="#E9AB8B" stop-opacity="0"/>
<stop offset="0.505034" stop-color="#DE9A80"/>
<stop offset="0.656015" stop-color="#D07067"/>
</radialGradient>
<radialGradient id="paint3_radial_18_31720" cx="0" cy="0" r="1" gradientUnits="userSpaceOnUse" gradientTransform="translate(26.6119 13.3594) rotate(140.104) scale(2.75277 2.61177)">
<stop offset="0.175443" stop-color="#886562"/>
<stop offset="1" stop-color="#8E6C67" stop-opacity="0"/>
</radialGradient>
<radialGradient id="paint4_radial_18_31720" cx="0" cy="0" r="1" gradientUnits="userSpaceOnUse" gradientTransform="translate(21.2656 7.41039) rotate(-149.903) scale(2.90043 2.79159)">
<stop offset="0.175443" stop-color="#886562"/>
<stop offset="1" stop-color="#8E6C67" stop-opacity="0"/>
</radialGradient>
<radialGradient id="paint5_radial_18_31720" cx="0" cy="0" r="1" gradientUnits="userSpaceOnUse" gradientTransform="translate(11.1292 25.2582) rotate(-41.0159) scale(3.90831 4.00044)">
<stop offset="0.469854" stop-color="#896764" stop-opacity="0"/>
<stop offset="0.935135" stop-color="#896763"/>
</radialGradient>
<radialGradient id="paint6_radial_18_31720" cx="0" cy="0" r="1" gradientUnits="userSpaceOnUse" gradientTransform="translate(15.2748 16) rotate(-21.7768) scale(5.55942 5.69235)">
<stop offset="0.388269" stop-color="#896764" stop-opacity="0"/>
<stop offset="0.935135" stop-color="#896763"/>
</radialGradient>
<radialGradient id="paint7_radial_18_31720" cx="0" cy="0" r="1" gradientUnits="userSpaceOnUse" gradientTransform="translate(11.125 8.875) rotate(123.403) scale(3.63294 3.63565)">
<stop stop-color="#7D5755"/>
<stop offset="1" stop-color="#60383B"/>
</radialGradient>
<radialGradient id="paint8_radial_18_31720" cx="0" cy="0" r="1" gradientUnits="userSpaceOnUse" gradientTransform="translate(8.12878 9.5625) rotate(-3.96087) scale(4.82023 4.82383)">
<stop offset="0.596528" stop-color="#896764" stop-opacity="0"/>
<stop offset="0.935135" stop-color="#896763"/>
</radialGradient>
<radialGradient id="paint9_radial_18_31720" cx="0" cy="0" r="1" gradientUnits="userSpaceOnUse" gradientTransform="translate(20.4375 24.5313) rotate(-40.886) scale(4.77422 4.88362)">
<stop offset="0.469854" stop-color="#896764" stop-opacity="0"/>
<stop offset="0.935135" stop-color="#896763"/>
</radialGradient>
<radialGradient id="paint10_radial_18_31720" cx="0" cy="0" r="1" gradientUnits="userSpaceOnUse" gradientTransform="translate(6.3253 18.4778) rotate(-40.8959) scale(3.00101 3.06992)">
<stop offset="0.469854" stop-color="#896764" stop-opacity="0"/>
<stop offset="0.935135" stop-color="#896763"/>
</radialGradient>
</defs>
</svg>
