<svg width="32" height="32" viewBox="0 0 32 32" fill="none" xmlns="http://www.w3.org/2000/svg">
<path d="M27.32 14C25.67 9.34 21.22 6 16 6C10.78 6 6.33 9.34 4.68 14H4V18C4 24.63 9.37 30 16 30C22.63 30 28 24.63 28 18V14H27.32ZM20.5 17.64C20.5 19.85 18.71 21.64 16.5 21.64H15.5C13.29 21.64 11.5 19.85 11.5 17.64C11.5 15.43 13.29 14 15.5 14H16.5C18.71 14 20.5 15.43 20.5 17.64Z" fill="url(#paint0_linear_18_31224)"/>
<path d="M27.32 14C25.67 9.34 21.22 6 16 6C10.78 6 6.33 9.34 4.68 14H4V18C4 24.63 9.37 30 16 30C22.63 30 28 24.63 28 18V14H27.32ZM20.5 17.64C20.5 19.85 18.71 21.64 16.5 21.64H15.5C13.29 21.64 11.5 19.85 11.5 17.64C11.5 15.43 13.29 14 15.5 14H16.5C18.71 14 20.5 15.43 20.5 17.64Z" fill="url(#paint1_radial_18_31224)"/>
<path d="M27.32 14C25.67 9.34 21.22 6 16 6C10.78 6 6.33 9.34 4.68 14H4V18C4 24.63 9.37 30 16 30C22.63 30 28 24.63 28 18V14H27.32ZM20.5 17.64C20.5 19.85 18.71 21.64 16.5 21.64H15.5C13.29 21.64 11.5 19.85 11.5 17.64C11.5 15.43 13.29 14 15.5 14H16.5C18.71 14 20.5 15.43 20.5 17.64Z" fill="url(#paint2_radial_18_31224)"/>
<path d="M16 2C9.37 2 3.8125 7.37 3.8125 14C3.8125 20.63 8.96875 26.3438 16 26.3438C23.0312 26.3438 28.25 20.63 28.25 14C28.25 7.37 22.63 2 16 2ZM20.5 14C20.5 16.21 18.71 18 16.5 18H15.5C13.29 18 11.5 16.21 11.5 14C11.5 12 13.29 10.2812 15.5 10.2812H16.5C18.71 10.2812 20.5 11.9688 20.5 14Z" fill="url(#paint3_radial_18_31224)"/>
<path d="M16 2C9.37 2 3.8125 7.37 3.8125 14C3.8125 20.63 8.96875 26.3438 16 26.3438C23.0312 26.3438 28.25 20.63 28.25 14C28.25 7.37 22.63 2 16 2ZM20.5 14C20.5 16.21 18.71 18 16.5 18H15.5C13.29 18 11.5 16.21 11.5 14C11.5 12 13.29 10.2812 15.5 10.2812H16.5C18.71 10.2812 20.5 11.9688 20.5 14Z" fill="url(#paint4_radial_18_31224)"/>
<path d="M16 2C9.37 2 3.8125 7.37 3.8125 14C3.8125 20.63 8.96875 26.3438 16 26.3438C23.0312 26.3438 28.25 20.63 28.25 14C28.25 7.37 22.63 2 16 2ZM20.5 14C20.5 16.21 18.71 18 16.5 18H15.5C13.29 18 11.5 16.21 11.5 14C11.5 12 13.29 10.2812 15.5 10.2812H16.5C18.71 10.2812 20.5 11.9688 20.5 14Z" fill="url(#paint5_radial_18_31224)"/>
<g filter="url(#filter0_f_18_31224)">
<path d="M24.4825 11.3693C24.6825 11.1693 24.6825 10.8293 24.4825 10.6293L23.7025 9.84934C23.5025 9.64934 23.1625 9.64934 22.9625 9.84934C22.7625 10.0493 22.7625 10.3893 22.9625 10.5893L23.7425 11.3693C23.9425 11.5793 24.2825 11.5793 24.4825 11.3693Z" fill="#783C43"/>
</g>
<g filter="url(#filter1_f_18_31224)">
<path d="M23.0563 16.19C22.8563 15.99 22.8563 15.65 23.0563 15.45L23.8363 14.67C24.0363 14.47 24.3763 14.47 24.5763 14.67C24.7763 14.87 24.7763 15.21 24.5763 15.41L23.7963 16.19C23.5963 16.4 23.2563 16.4 23.0563 16.19Z" fill="#733D42"/>
</g>
<g filter="url(#filter2_f_18_31224)">
<path d="M21.7019 20.335C21.9019 20.135 21.9019 19.795 21.7019 19.595L20.9219 18.815C20.7219 18.615 20.3819 18.615 20.1819 18.815C19.9819 19.015 19.9819 19.355 20.1819 19.555L20.9619 20.335C21.1619 20.545 21.5019 20.545 21.7019 20.335Z" fill="#7E3B46"/>
</g>
<g filter="url(#filter3_f_18_31224)">
<path d="M14.0331 23.2882C13.8331 23.0882 13.8331 22.7482 14.0331 22.5482L14.8131 21.7682C15.0131 21.5682 15.3531 21.5682 15.5531 21.7682C15.7531 21.9682 15.7531 22.3082 15.5531 22.5082L14.7731 23.2882C14.5731 23.4982 14.2331 23.4982 14.0331 23.2882Z" fill="#823C46"/>
</g>
<path d="M24.7525 11.2912C24.5525 11.4912 24.2125 11.4912 24.0125 11.2912L23.2325 10.5112C23.0325 10.3112 23.0325 9.97122 23.2325 9.77122C23.4325 9.57122 23.7725 9.57122 23.9725 9.77122L24.7525 10.5512C24.9625 10.7512 24.9625 11.0912 24.7525 11.2912Z" fill="url(#paint6_linear_18_31224)"/>
<path d="M24.7525 11.2912C24.5525 11.4912 24.2125 11.4912 24.0125 11.2912L23.2325 10.5112C23.0325 10.3112 23.0325 9.97122 23.2325 9.77122C23.4325 9.57122 23.7725 9.57122 23.9725 9.77122L24.7525 10.5512C24.9625 10.7512 24.9625 11.0912 24.7525 11.2912Z" fill="url(#paint7_radial_18_31224)"/>
<g filter="url(#filter4_f_18_31224)">
<path d="M15.9156 6.40181C15.7156 6.20181 15.7156 5.86181 15.9156 5.66181L16.6956 4.88181C16.8956 4.68181 17.2356 4.68181 17.4356 4.88181C17.6356 5.08181 17.6356 5.42181 17.4356 5.62181L16.6556 6.40181C16.4556 6.61181 16.1156 6.61181 15.9156 6.40181Z" fill="#67383D"/>
</g>
<g filter="url(#filter5_f_18_31224)">
<path d="M20.9781 8.42061C20.7781 8.22061 20.7781 7.88061 20.9781 7.68061L21.7581 6.90061C21.9581 6.70061 22.2981 6.70061 22.4981 6.90061C22.6981 7.10061 22.6981 7.44061 22.4981 7.64061L21.7181 8.42061C21.5181 8.63061 21.1781 8.63061 20.9781 8.42061Z" fill="#6B3C40"/>
</g>
<path d="M16.15 6.27999C15.95 6.07999 15.95 5.73999 16.15 5.53999L16.93 4.75999C17.13 4.55999 17.47 4.55999 17.67 4.75999C17.87 4.95999 17.87 5.29999 17.67 5.49999L16.89 6.27999C16.69 6.48999 16.35 6.48999 16.15 6.27999Z" fill="url(#paint8_linear_18_31224)"/>
<path d="M16.15 6.27999C15.95 6.07999 15.95 5.73999 16.15 5.53999L16.93 4.75999C17.13 4.55999 17.47 4.55999 17.67 4.75999C17.87 4.95999 17.87 5.29999 17.67 5.49999L16.89 6.27999C16.69 6.48999 16.35 6.48999 16.15 6.27999Z" fill="url(#paint9_radial_18_31224)"/>
<g filter="url(#filter6_f_18_31224)">
<path d="M8.06003 9.36556C7.86003 9.16556 7.86003 8.82556 8.06003 8.62556L8.84003 7.84556C9.04003 7.64556 9.38003 7.64556 9.58003 7.84556C9.78003 8.04556 9.78003 8.38556 9.58003 8.58556L8.80003 9.36556C8.60003 9.56556 8.26003 9.56556 8.06003 9.36556Z" fill="#62393D"/>
</g>
<path d="M8.33378 9.25618C8.13378 9.05618 8.13378 8.71618 8.33378 8.51618L9.11378 7.73618C9.31378 7.53618 9.65378 7.53618 9.85378 7.73618C10.0538 7.93618 10.0538 8.27618 9.85378 8.47618L9.07378 9.25618C8.87378 9.45618 8.53378 9.45618 8.33378 9.25618Z" fill="url(#paint10_linear_18_31224)"/>
<path d="M8.33378 9.25618C8.13378 9.05618 8.13378 8.71618 8.33378 8.51618L9.11378 7.73618C9.31378 7.53618 9.65378 7.53618 9.85378 7.73618C10.0538 7.93618 10.0538 8.27618 9.85378 8.47618L9.07378 9.25618C8.87378 9.45618 8.53378 9.45618 8.33378 9.25618Z" fill="url(#paint11_radial_18_31224)"/>
<path d="M14.33 23.1975C14.13 22.9975 14.13 22.6575 14.33 22.4575L15.11 21.6775C15.31 21.4775 15.65 21.4775 15.85 21.6775C16.05 21.8775 16.05 22.2175 15.85 22.4175L15.07 23.1975C14.87 23.4075 14.53 23.4075 14.33 23.1975Z" fill="url(#paint12_linear_18_31224)"/>
<path d="M14.33 23.1975C14.13 22.9975 14.13 22.6575 14.33 22.4575L15.11 21.6775C15.31 21.4775 15.65 21.4775 15.85 21.6775C16.05 21.8775 16.05 22.2175 15.85 22.4175L15.07 23.1975C14.87 23.4075 14.53 23.4075 14.33 23.1975Z" fill="url(#paint13_radial_18_31224)"/>
<path d="M21.8425 20.1624C21.6425 20.3624 21.3025 20.3624 21.1025 20.1624L20.3225 19.3824C20.1225 19.1824 20.1225 18.8424 20.3225 18.6424C20.5225 18.4424 20.8625 18.4424 21.0625 18.6424L21.8425 19.4224C22.0525 19.6224 22.0525 19.9624 21.8425 20.1624Z" fill="url(#paint14_linear_18_31224)"/>
<path d="M21.8425 20.1624C21.6425 20.3624 21.3025 20.3624 21.1025 20.1624L20.3225 19.3824C20.1225 19.1824 20.1225 18.8424 20.3225 18.6424C20.5225 18.4424 20.8625 18.4424 21.0625 18.6424L21.8425 19.4224C22.0525 19.6224 22.0525 19.9624 21.8425 20.1624Z" fill="url(#paint15_radial_18_31224)"/>
<path d="M23.24 16.1037C23.04 15.9037 23.04 15.5637 23.24 15.3637L24.02 14.5837C24.22 14.3837 24.56 14.3837 24.76 14.5837C24.96 14.7837 24.96 15.1237 24.76 15.3237L23.98 16.1037C23.78 16.3137 23.44 16.3137 23.24 16.1037Z" fill="url(#paint16_linear_18_31224)"/>
<path d="M23.24 16.1037C23.04 15.9037 23.04 15.5637 23.24 15.3637L24.02 14.5837C24.22 14.3837 24.56 14.3837 24.76 14.5837C24.96 14.7837 24.96 15.1237 24.76 15.3237L23.98 16.1037C23.78 16.3137 23.44 16.3137 23.24 16.1037Z" fill="url(#paint17_radial_18_31224)"/>
<g filter="url(#filter7_f_18_31224)">
<path d="M11.618 21.2525C11.418 21.4525 11.078 21.4525 10.878 21.2525L10.098 20.4725C9.89801 20.2725 9.89801 19.9325 10.098 19.7325C10.298 19.5325 10.638 19.5325 10.838 19.7325L11.618 20.5125C11.828 20.7125 11.828 21.0525 11.618 21.2525Z" fill="#693D49"/>
</g>
<path d="M11.8375 21.0725C11.6375 21.2725 11.2975 21.2725 11.0975 21.0725L10.3175 20.2925C10.1175 20.0925 10.1175 19.7525 10.3175 19.5525C10.5175 19.3525 10.8575 19.3525 11.0575 19.5525L11.8375 20.3325C12.0475 20.5325 12.0475 20.8725 11.8375 21.0725Z" fill="url(#paint18_linear_18_31224)"/>
<path d="M11.8375 21.0725C11.6375 21.2725 11.2975 21.2725 11.0975 21.0725L10.3175 20.2925C10.1175 20.0925 10.1175 19.7525 10.3175 19.5525C10.5175 19.3525 10.8575 19.3525 11.0575 19.5525L11.8375 20.3325C12.0475 20.5325 12.0475 20.8725 11.8375 21.0725Z" fill="url(#paint19_radial_18_31224)"/>
<g filter="url(#filter8_f_18_31224)">
<path d="M6.05543 14.1662C5.85543 13.9662 5.85543 13.6262 6.05543 13.4262L6.83543 12.6462C7.03543 12.4462 7.37543 12.4462 7.57543 12.6462C7.77543 12.8462 7.77543 13.1862 7.57543 13.3862L6.79543 14.1662C6.59543 14.3762 6.25543 14.3762 6.05543 14.1662Z" fill="#5A3840"/>
</g>
<g filter="url(#filter9_f_18_31224)">
<path d="M12.5852 7.31929C12.3852 7.51929 12.0452 7.51929 11.8452 7.31929L11.0552 6.53929C10.8552 6.33929 10.8552 5.99929 11.0552 5.79929C11.2552 5.59929 11.5952 5.59929 11.7952 5.79929L12.5752 6.57929C12.7852 6.77929 12.7852 7.11929 12.5852 7.31929Z" fill="#5A3840"/>
</g>
<path d="M12.7613 7.19747C12.5613 7.39747 12.2213 7.39747 12.0213 7.19747L11.2313 6.41747C11.0313 6.21747 11.0313 5.87747 11.2313 5.67747C11.4313 5.47747 11.7713 5.47747 11.9713 5.67747L12.7513 6.45747C12.9613 6.65747 12.9613 6.99747 12.7613 7.19747Z" fill="url(#paint20_linear_18_31224)"/>
<path d="M12.7613 7.19747C12.5613 7.39747 12.2213 7.39747 12.0213 7.19747L11.2313 6.41747C11.0313 6.21747 11.0313 5.87747 11.2313 5.67747C11.4313 5.47747 11.7713 5.47747 11.9713 5.67747L12.7513 6.45747C12.9613 6.65747 12.9613 6.99747 12.7613 7.19747Z" fill="url(#paint21_radial_18_31224)"/>
<path d="M6.33379 14.0725C6.13379 13.8725 6.13379 13.5325 6.33379 13.3325L7.11379 12.5525C7.31379 12.3525 7.65379 12.3525 7.85379 12.5525C8.05379 12.7525 8.05379 13.0925 7.85379 13.2925L7.07379 14.0725C6.87379 14.2825 6.53379 14.2825 6.33379 14.0725Z" fill="url(#paint22_linear_18_31224)"/>
<path d="M6.33379 14.0725C6.13379 13.8725 6.13379 13.5325 6.33379 13.3325L7.11379 12.5525C7.31379 12.3525 7.65379 12.3525 7.85379 12.5525C8.05379 12.7525 8.05379 13.0925 7.85379 13.2925L7.07379 14.0725C6.87379 14.2825 6.53379 14.2825 6.33379 14.0725Z" fill="url(#paint23_radial_18_31224)"/>
<path d="M21.2363 8.3387C21.0363 8.1387 21.0363 7.7987 21.2363 7.5987L22.0163 6.8187C22.2163 6.6187 22.5563 6.6187 22.7563 6.8187C22.9563 7.0187 22.9563 7.3587 22.7563 7.5587L21.9763 8.3387C21.7763 8.5487 21.4363 8.5487 21.2363 8.3387Z" fill="url(#paint24_linear_18_31224)"/>
<path d="M21.2363 8.3387C21.0363 8.1387 21.0363 7.7987 21.2363 7.5987L22.0163 6.8187C22.2163 6.6187 22.5563 6.6187 22.7563 6.8187C22.9563 7.0187 22.9563 7.3587 22.7563 7.5587L21.9763 8.3387C21.7763 8.5487 21.4363 8.5487 21.2363 8.3387Z" fill="url(#paint25_radial_18_31224)"/>
<g filter="url(#filter10_f_18_31224)">
<path d="M10.5019 17.4825C10.3019 17.6825 9.96191 17.6825 9.76191 17.4825L8.98191 16.7025C8.78191 16.5025 8.78191 16.1625 8.98191 15.9625C9.18191 15.7625 9.52191 15.7625 9.72191 15.9625L10.5019 16.7425C10.7119 16.9425 10.7119 17.2725 10.5019 17.4825Z" fill="#6F3A43"/>
</g>
<path d="M10.76 17.2638C10.56 17.4638 10.22 17.4638 10.02 17.2638L9.24003 16.4837C9.04003 16.2837 9.04003 15.9438 9.24003 15.7438C9.44003 15.5438 9.78003 15.5438 9.98003 15.7438L10.76 16.5237C10.97 16.7237 10.97 17.0538 10.76 17.2638Z" fill="url(#paint26_linear_18_31224)"/>
<path d="M10.76 17.2638C10.56 17.4638 10.22 17.4638 10.02 17.2638L9.24003 16.4837C9.04003 16.2837 9.04003 15.9438 9.24003 15.7438C9.44003 15.5438 9.78003 15.5438 9.98003 15.7438L10.76 16.5237C10.97 16.7237 10.97 17.0538 10.76 17.2638Z" fill="url(#paint27_radial_18_31224)"/>
<g filter="url(#filter11_f_18_31224)">
<path d="M10.5781 10.4844C8.93209 13.1078 11.0312 15.5938 11.0312 15.5938C10.5298 14.3629 10.6853 12.5943 11.2031 11.5156C12.1052 9.63666 13.4219 8.45318 16.3125 8.25C13.5781 7.85943 11.7593 8.60176 10.5781 10.4844Z" fill="url(#paint28_radial_18_31224)"/>
</g>
<g filter="url(#filter12_f_18_31224)">
<path d="M25.375 20.1875C20.625 25.75 12.6875 23.6874 12.6875 23.6874C19.2953 23.6874 22.2286 22.608 24.75 19.1249C27.2714 15.6417 26.9375 9.6874 24.125 5.65623C27.375 8.99994 28.6902 16.3051 25.375 20.1875Z" fill="url(#paint29_radial_18_31224)"/>
</g>
<defs>
<filter id="filter0_f_18_31224" x="22.5625" y="9.44934" width="2.32001" height="2.32751" filterUnits="userSpaceOnUse" color-interpolation-filters="sRGB">
<feFlood flood-opacity="0" result="BackgroundImageFix"/>
<feBlend mode="normal" in="SourceGraphic" in2="BackgroundImageFix" result="shape"/>
<feGaussianBlur stdDeviation="0.125" result="effect1_foregroundBlur_18_31224"/>
</filter>
<filter id="filter1_f_18_31224" x="22.6563" y="14.27" width="2.32001" height="2.32751" filterUnits="userSpaceOnUse" color-interpolation-filters="sRGB">
<feFlood flood-opacity="0" result="BackgroundImageFix"/>
<feBlend mode="normal" in="SourceGraphic" in2="BackgroundImageFix" result="shape"/>
<feGaussianBlur stdDeviation="0.125" result="effect1_foregroundBlur_18_31224"/>
</filter>
<filter id="filter2_f_18_31224" x="19.7819" y="18.415" width="2.32001" height="2.32751" filterUnits="userSpaceOnUse" color-interpolation-filters="sRGB">
<feFlood flood-opacity="0" result="BackgroundImageFix"/>
<feBlend mode="normal" in="SourceGraphic" in2="BackgroundImageFix" result="shape"/>
<feGaussianBlur stdDeviation="0.125" result="effect1_foregroundBlur_18_31224"/>
</filter>
<filter id="filter3_f_18_31224" x="13.6331" y="21.3682" width="2.32001" height="2.32751" filterUnits="userSpaceOnUse" color-interpolation-filters="sRGB">
<feFlood flood-opacity="0" result="BackgroundImageFix"/>
<feBlend mode="normal" in="SourceGraphic" in2="BackgroundImageFix" result="shape"/>
<feGaussianBlur stdDeviation="0.125" result="effect1_foregroundBlur_18_31224"/>
</filter>
<filter id="filter4_f_18_31224" x="15.5156" y="4.48181" width="2.32001" height="2.32751" filterUnits="userSpaceOnUse" color-interpolation-filters="sRGB">
<feFlood flood-opacity="0" result="BackgroundImageFix"/>
<feBlend mode="normal" in="SourceGraphic" in2="BackgroundImageFix" result="shape"/>
<feGaussianBlur stdDeviation="0.125" result="effect1_foregroundBlur_18_31224"/>
</filter>
<filter id="filter5_f_18_31224" x="20.5781" y="6.50061" width="2.32001" height="2.32751" filterUnits="userSpaceOnUse" color-interpolation-filters="sRGB">
<feFlood flood-opacity="0" result="BackgroundImageFix"/>
<feBlend mode="normal" in="SourceGraphic" in2="BackgroundImageFix" result="shape"/>
<feGaussianBlur stdDeviation="0.125" result="effect1_foregroundBlur_18_31224"/>
</filter>
<filter id="filter6_f_18_31224" x="7.66003" y="7.44556" width="2.32001" height="2.31995" filterUnits="userSpaceOnUse" color-interpolation-filters="sRGB">
<feFlood flood-opacity="0" result="BackgroundImageFix"/>
<feBlend mode="normal" in="SourceGraphic" in2="BackgroundImageFix" result="shape"/>
<feGaussianBlur stdDeviation="0.125" result="effect1_foregroundBlur_18_31224"/>
</filter>
<filter id="filter7_f_18_31224" x="9.69801" y="19.3325" width="2.3275" height="2.31995" filterUnits="userSpaceOnUse" color-interpolation-filters="sRGB">
<feFlood flood-opacity="0" result="BackgroundImageFix"/>
<feBlend mode="normal" in="SourceGraphic" in2="BackgroundImageFix" result="shape"/>
<feGaussianBlur stdDeviation="0.125" result="effect1_foregroundBlur_18_31224"/>
</filter>
<filter id="filter8_f_18_31224" x="5.65543" y="12.2462" width="2.32001" height="2.32751" filterUnits="userSpaceOnUse" color-interpolation-filters="sRGB">
<feFlood flood-opacity="0" result="BackgroundImageFix"/>
<feBlend mode="normal" in="SourceGraphic" in2="BackgroundImageFix" result="shape"/>
<feGaussianBlur stdDeviation="0.125" result="effect1_foregroundBlur_18_31224"/>
</filter>
<filter id="filter9_f_18_31224" x="10.6552" y="5.39929" width="2.32877" height="2.31995" filterUnits="userSpaceOnUse" color-interpolation-filters="sRGB">
<feFlood flood-opacity="0" result="BackgroundImageFix"/>
<feBlend mode="normal" in="SourceGraphic" in2="BackgroundImageFix" result="shape"/>
<feGaussianBlur stdDeviation="0.125" result="effect1_foregroundBlur_18_31224"/>
</filter>
<filter id="filter10_f_18_31224" x="8.58191" y="15.5625" width="2.3275" height="2.31995" filterUnits="userSpaceOnUse" color-interpolation-filters="sRGB">
<feFlood flood-opacity="0" result="BackgroundImageFix"/>
<feBlend mode="normal" in="SourceGraphic" in2="BackgroundImageFix" result="shape"/>
<feGaussianBlur stdDeviation="0.125" result="effect1_foregroundBlur_18_31224"/>
</filter>
<filter id="filter11_f_18_31224" x="8.94801" y="7.14905" width="8.36449" height="9.4447" filterUnits="userSpaceOnUse" color-interpolation-filters="sRGB">
<feFlood flood-opacity="0" result="BackgroundImageFix"/>
<feBlend mode="normal" in="SourceGraphic" in2="BackgroundImageFix" result="shape"/>
<feGaussianBlur stdDeviation="0.5" result="effect1_foregroundBlur_18_31224"/>
</filter>
<filter id="filter12_f_18_31224" x="11.6875" y="4.65625" width="16.6161" height="20.4052" filterUnits="userSpaceOnUse" color-interpolation-filters="sRGB">
<feFlood flood-opacity="0" result="BackgroundImageFix"/>
<feBlend mode="normal" in="SourceGraphic" in2="BackgroundImageFix" result="shape"/>
<feGaussianBlur stdDeviation="0.5" result="effect1_foregroundBlur_18_31224"/>
</filter>
<linearGradient id="paint0_linear_18_31224" x1="3.5625" y1="20.5625" x2="28.375" y2="20.5625" gradientUnits="userSpaceOnUse">
<stop stop-color="#BE8A63"/>
<stop offset="0.183879" stop-color="#DF8777"/>
<stop offset="0.463476" stop-color="#F28886"/>
<stop offset="0.803526" stop-color="#F0AE9C"/>
<stop offset="1" stop-color="#EAC891"/>
</linearGradient>
<radialGradient id="paint1_radial_18_31224" cx="0" cy="0" r="1" gradientUnits="userSpaceOnUse" gradientTransform="translate(16.75 11.6875) rotate(97.5709) scale(9.96184 9.16466)">
<stop offset="0.405405" stop-color="#F48F75"/>
<stop offset="0.598905" stop-color="#FFA85B"/>
<stop offset="0.954955" stop-color="#FFA85B" stop-opacity="0"/>
</radialGradient>
<radialGradient id="paint2_radial_18_31224" cx="0" cy="0" r="1" gradientUnits="userSpaceOnUse" gradientTransform="translate(15.6875 16.6875) rotate(90) scale(5.1875 5.88997)">
<stop offset="0.53012" stop-color="#CD777A"/>
<stop offset="1" stop-color="#D47A70" stop-opacity="0"/>
</radialGradient>
<radialGradient id="paint3_radial_18_31224" cx="0" cy="0" r="1" gradientUnits="userSpaceOnUse" gradientTransform="translate(23.875 20.125) rotate(-135.234) scale(21.6553 18.6519)">
<stop offset="0.393247" stop-color="#AB6B59"/>
<stop offset="0.912271" stop-color="#7E4C42"/>
<stop offset="1" stop-color="#664946"/>
</radialGradient>
<radialGradient id="paint4_radial_18_31224" cx="0" cy="0" r="1" gradientUnits="userSpaceOnUse" gradientTransform="translate(16.875 13) rotate(88.698) scale(5.50142 5.67515)">
<stop offset="0.686112" stop-color="#854D42"/>
<stop offset="1" stop-color="#844C43" stop-opacity="0"/>
</radialGradient>
<radialGradient id="paint5_radial_18_31224" cx="0" cy="0" r="1" gradientUnits="userSpaceOnUse" gradientTransform="translate(16.3125 9.75) rotate(90) scale(17.9375 19.5)">
<stop offset="0.790941" stop-color="#A15B79" stop-opacity="0"/>
<stop offset="0.9144" stop-color="#A15B75"/>
</radialGradient>
<linearGradient id="paint6_linear_18_31224" x1="23.5634" y1="10.9375" x2="24.3447" y2="10.1568" gradientUnits="userSpaceOnUse">
<stop stop-color="#D256BC"/>
<stop offset="0.501103" stop-color="#FF73E1"/>
<stop offset="1" stop-color="#FF82E8"/>
</linearGradient>
<radialGradient id="paint7_radial_18_31224" cx="0" cy="0" r="1" gradientUnits="userSpaceOnUse" gradientTransform="translate(24.7111 10.8047) rotate(138.898) scale(0.404057 0.258873)">
<stop stop-color="#FF94FF"/>
<stop offset="1" stop-color="#FF94FF" stop-opacity="0"/>
</radialGradient>
<linearGradient id="paint8_linear_18_31224" x1="16.5937" y1="5.125" x2="17.2812" y2="5.90625" gradientUnits="userSpaceOnUse">
<stop stop-color="#F66EC9"/>
<stop offset="0.498647" stop-color="#FF8AF5"/>
<stop offset="1" stop-color="#FF72DB"/>
</linearGradient>
<radialGradient id="paint9_radial_18_31224" cx="0" cy="0" r="1" gradientUnits="userSpaceOnUse" gradientTransform="translate(17.3281 5.03125) rotate(135) scale(1.5026 0.85995)">
<stop offset="0.636927" stop-color="#E55DC8" stop-opacity="0"/>
<stop offset="1" stop-color="#DB5BC1"/>
</radialGradient>
<linearGradient id="paint10_linear_18_31224" x1="8.77753" y1="8.09908" x2="9.46184" y2="8.87992" gradientUnits="userSpaceOnUse">
<stop stop-color="#F66EC9"/>
<stop offset="0.498647" stop-color="#FF8AF5"/>
<stop offset="1" stop-color="#FF72DB"/>
</linearGradient>
<radialGradient id="paint11_radial_18_31224" cx="0" cy="0" r="1" gradientUnits="userSpaceOnUse" gradientTransform="translate(9.5119 8.00572) rotate(135.118) scale(1.49952 0.85818)">
<stop offset="0.636927" stop-color="#E55DC8" stop-opacity="0"/>
<stop offset="1" stop-color="#DB5BC1"/>
</radialGradient>
<linearGradient id="paint12_linear_18_31224" x1="14.7737" y1="22.0425" x2="15.4612" y2="22.8237" gradientUnits="userSpaceOnUse">
<stop stop-color="#F66EC9"/>
<stop offset="0.498647" stop-color="#FF8AF5"/>
<stop offset="1" stop-color="#FF72DB"/>
</linearGradient>
<radialGradient id="paint13_radial_18_31224" cx="0" cy="0" r="1" gradientUnits="userSpaceOnUse" gradientTransform="translate(15.5081 21.9487) rotate(135) scale(1.5026 0.85995)">
<stop offset="0.636927" stop-color="#E55DC8" stop-opacity="0"/>
<stop offset="1" stop-color="#DB5BC1"/>
</radialGradient>
<linearGradient id="paint14_linear_18_31224" x1="20.6534" y1="19.8087" x2="21.4347" y2="19.028" gradientUnits="userSpaceOnUse">
<stop stop-color="#D256BC"/>
<stop offset="0.501103" stop-color="#FF73E1"/>
<stop offset="1" stop-color="#FF82E8"/>
</linearGradient>
<radialGradient id="paint15_radial_18_31224" cx="0" cy="0" r="1" gradientUnits="userSpaceOnUse" gradientTransform="translate(21.8011 19.6759) rotate(138.898) scale(0.404057 0.258873)">
<stop stop-color="#FF94FF"/>
<stop offset="1" stop-color="#FF94FF" stop-opacity="0"/>
</radialGradient>
<linearGradient id="paint16_linear_18_31224" x1="23.6838" y1="14.9487" x2="24.3713" y2="15.73" gradientUnits="userSpaceOnUse">
<stop stop-color="#22A4FA"/>
<stop offset="0.498647" stop-color="#49C0FF"/>
<stop offset="1" stop-color="#2AB1FF"/>
</linearGradient>
<radialGradient id="paint17_radial_18_31224" cx="0" cy="0" r="1" gradientUnits="userSpaceOnUse" gradientTransform="translate(24.4182 14.855) rotate(133.986) scale(1.69913 1.74052)">
<stop offset="0.658529" stop-color="#2A77DD" stop-opacity="0"/>
<stop offset="1" stop-color="#2B73DA"/>
</radialGradient>
<linearGradient id="paint18_linear_18_31224" x1="10.6484" y1="20.7187" x2="11.4297" y2="19.938" gradientUnits="userSpaceOnUse">
<stop stop-color="#2A61B8"/>
<stop offset="0.501103" stop-color="#25A1FF"/>
<stop offset="1" stop-color="#2DBFFF"/>
</linearGradient>
<radialGradient id="paint19_radial_18_31224" cx="0" cy="0" r="1" gradientUnits="userSpaceOnUse" gradientTransform="translate(11.796 20.5859) rotate(138.898) scale(0.404057 0.258873)">
<stop stop-color="#4FC9FF"/>
<stop offset="1" stop-color="#50CBFF" stop-opacity="0"/>
</radialGradient>
<linearGradient id="paint20_linear_18_31224" x1="11.5625" y1="6.84375" x2="12.3438" y2="6.0625" gradientUnits="userSpaceOnUse">
<stop stop-color="#2A61B8"/>
<stop offset="0.501103" stop-color="#25A1FF"/>
<stop offset="1" stop-color="#2DBFFF"/>
</linearGradient>
<radialGradient id="paint21_radial_18_31224" cx="0" cy="0" r="1" gradientUnits="userSpaceOnUse" gradientTransform="translate(12.7109 6.71094) rotate(138.918) scale(0.404217 0.258951)">
<stop stop-color="#4FC9FF"/>
<stop offset="1" stop-color="#50CBFF" stop-opacity="0"/>
</radialGradient>
<linearGradient id="paint22_linear_18_31224" x1="6.77754" y1="12.9175" x2="7.46504" y2="13.6987" gradientUnits="userSpaceOnUse">
<stop stop-color="#22A4FA"/>
<stop offset="0.498647" stop-color="#49C0FF"/>
<stop offset="1" stop-color="#2AB1FF"/>
</linearGradient>
<radialGradient id="paint23_radial_18_31224" cx="0" cy="0" r="1" gradientUnits="userSpaceOnUse" gradientTransform="translate(7.51192 12.8237) rotate(133.986) scale(1.69913 1.74052)">
<stop offset="0.658529" stop-color="#2A77DD" stop-opacity="0"/>
<stop offset="1" stop-color="#2B73DA"/>
</radialGradient>
<linearGradient id="paint24_linear_18_31224" x1="21.68" y1="7.18372" x2="22.3675" y2="7.96497" gradientUnits="userSpaceOnUse">
<stop stop-color="#22A4FA"/>
<stop offset="0.498647" stop-color="#49C0FF"/>
<stop offset="1" stop-color="#2AB1FF"/>
</linearGradient>
<radialGradient id="paint25_radial_18_31224" cx="0" cy="0" r="1" gradientUnits="userSpaceOnUse" gradientTransform="translate(22.4144 7.08997) rotate(133.986) scale(1.69913 1.74052)">
<stop offset="0.658529" stop-color="#2A77DD" stop-opacity="0"/>
<stop offset="1" stop-color="#2B73DA"/>
</radialGradient>
<linearGradient id="paint26_linear_18_31224" x1="9.57092" y1="16.91" x2="10.3522" y2="16.1293" gradientUnits="userSpaceOnUse">
<stop stop-color="#D256BC"/>
<stop offset="0.501103" stop-color="#FF73E1"/>
<stop offset="1" stop-color="#FF82E8"/>
</linearGradient>
<radialGradient id="paint27_radial_18_31224" cx="0" cy="0" r="1" gradientUnits="userSpaceOnUse" gradientTransform="translate(10.7186 16.7772) rotate(138.898) scale(0.404057 0.258873)">
<stop stop-color="#FF94FF"/>
<stop offset="1" stop-color="#FF94FF" stop-opacity="0"/>
</radialGradient>
<radialGradient id="paint28_radial_18_31224" cx="0" cy="0" r="1" gradientUnits="userSpaceOnUse" gradientTransform="translate(12.1875 10.4375) rotate(47.0901) scale(6.05863 29.5218)">
<stop stop-color="#C79A91"/>
<stop offset="1" stop-color="#C79A91" stop-opacity="0"/>
</radialGradient>
<radialGradient id="paint29_radial_18_31224" cx="0" cy="0" r="1" gradientUnits="userSpaceOnUse" gradientTransform="translate(25.25 19.0625) rotate(-157.529) scale(15.083 71.364)">
<stop stop-color="#CF9689"/>
<stop offset="1" stop-color="#D1988A" stop-opacity="0"/>
</radialGradient>
</defs>
</svg>
