<?xml version="1.0" encoding="UTF-8" standalone="no"?>
<!DOCTYPE svg PUBLIC "-//W3C//DTD SVG 1.1//EN" "http://www.w3.org/Graphics/SVG/1.1/DTD/svg11.dtd">
<svg width="32px" height="32px" version="1.1" xmlns="http://www.w3.org/2000/svg" xmlns:xlink="http://www.w3.org/1999/xlink" xml:space="preserve" xmlns:serif="http://www.serif.com/" style="fill-rule:evenodd;clip-rule:evenodd;stroke-linecap:round;">
    <g transform="matrix(1,0,0,1,0,0.3089)">
        <path d="M21.357,12.066L10.653,12.066C5.871,12.066 2,15.947 2,20.729C2,25.511 5.871,29.382 10.653,29.382L21.347,29.382C26.129,29.382 30,25.511 30,20.729C30.01,15.947 26.139,12.066 21.357,12.066Z" style="fill:url(#_Linear1);fill-rule:nonzero;"/>
        <g>
            <path d="M21.283,12.484L10.758,12.484C6.057,12.484 2.25,16.155 2.25,20.677C2.25,25.198 6.057,28.859 10.758,28.859L21.273,28.859C25.975,28.859 29.781,25.198 29.781,20.677C29.791,16.155 25.985,12.484 21.283,12.484Z" style="fill:url(#_Linear2);fill-rule:nonzero;"/>
        </g>
        <g>
            <path d="M21.417,14.823L10.593,14.823L4.011,16.714L4.011,19.275C4.011,22.916 6.962,25.857 10.593,25.857L21.407,25.857C25.048,25.857 27.989,22.906 27.989,19.275L27.989,16.714L21.417,14.823Z" style="fill:url(#_Linear3);fill-rule:nonzero;"/>
        </g>
        <path d="M21.417,14.287L10.593,14.287L4.011,16.177L4.011,18.738C4.011,22.38 6.962,25.321 10.593,25.321L21.407,25.321C25.048,25.321 27.989,22.37 27.989,18.738L27.989,16.177L21.417,14.287Z" style="fill:url(#_Linear4);fill-rule:nonzero;"/>
        <path d="M21.417,9.195L10.593,9.195C6.952,9.195 4.011,12.146 4.011,15.777C4.011,19.419 6.962,22.36 10.593,22.36L21.407,22.36C25.048,22.36 27.989,19.409 27.989,15.777C27.999,12.136 25.048,9.195 21.417,9.195Z" style="fill:url(#_Linear5);fill-rule:nonzero;"/>
        <path d="M21.417,9.195L10.593,9.195C6.952,9.195 4.011,12.146 4.011,15.777C4.011,19.419 6.962,22.36 10.593,22.36L21.407,22.36C25.048,22.36 27.989,19.409 27.989,15.777C27.999,12.136 25.048,9.195 21.417,9.195Z" style="fill:url(#_Radial6);fill-rule:nonzero;"/>
        <path d="M21.417,9.195L10.593,9.195C6.952,9.195 4.011,12.146 4.011,15.777C4.011,19.419 6.962,22.36 10.593,22.36L21.407,22.36C25.048,22.36 27.989,19.409 27.989,15.777C27.999,12.136 25.048,9.195 21.417,9.195Z" style="fill:url(#_Radial7);fill-rule:nonzero;"/>
        <path d="M21.417,8.515L10.593,8.515L4.011,10.416L4.011,12.977C4.011,16.618 6.962,19.559 10.593,19.559L21.407,19.559C25.048,19.559 27.989,16.608 27.989,12.977L27.989,10.416L21.417,8.515Z" style="fill:url(#_Linear8);fill-rule:nonzero;"/>
        <path d="M21.416,3.422L10.592,3.422C6.951,3.422 4.01,6.374 4.01,10.005C4.01,13.646 6.961,16.587 10.592,16.587L21.406,16.587C25.048,16.587 27.989,13.636 27.989,10.005C27.999,6.374 25.048,3.422 21.416,3.422Z" style="fill:url(#_Linear9);fill-rule:nonzero;"/>
        <g>
            <path d="M18.375,3.579L10.687,3.579C7.109,3.579 4.219,6.53 4.219,10.161C4.219,13.802 7.119,16.743 10.687,16.743L18.375,16.743L18.375,3.579Z" style="fill:url(#_Linear10);fill-rule:nonzero;"/>
            <path d="M18.375,3.579L10.687,3.579C7.109,3.579 4.219,6.53 4.219,10.161C4.219,13.802 7.119,16.743 10.687,16.743L18.375,16.743L18.375,3.579Z" style="fill:url(#_Radial11);fill-rule:nonzero;"/>
            <path d="M18.375,3.579L10.687,3.579C7.109,3.579 4.219,6.53 4.219,10.161C4.219,13.802 7.119,16.743 10.687,16.743L18.375,16.743L18.375,3.579Z" style="fill:url(#_Radial12);fill-rule:nonzero;"/>
        </g>
        <path d="M19.436,6.204L12.564,6.204C10.523,6.204 8.872,7.855 8.872,9.895C8.872,11.566 9.983,12.986 11.513,13.437C11.974,13.577 12.284,14.007 12.284,14.487L12.284,20.299C12.284,21.009 12.834,21.61 13.544,21.63C14.264,21.64 14.855,21.059 14.855,20.349L14.855,14.677C14.855,14.077 15.335,13.597 15.935,13.597C16.535,13.597 17.015,14.077 17.015,14.677L17.015,16.328C17.015,17.038 17.566,17.638 18.276,17.658C18.996,17.668 19.586,17.088 19.586,16.378L19.586,14.537C19.586,14.047 19.906,13.607 20.387,13.477C21.977,13.066 23.148,11.616 23.148,9.905C23.138,7.855 21.477,6.204 19.436,6.204Z" style="fill:url(#_Radial13);fill-rule:nonzero;"/>
        <path d="M19.436,6.204L12.564,6.204C10.523,6.204 8.872,7.855 8.872,9.895C8.872,11.566 9.983,12.986 11.513,13.437C11.974,13.577 12.284,14.007 12.284,14.487L12.284,20.299C12.284,21.009 12.834,21.61 13.544,21.63C14.264,21.64 14.855,21.059 14.855,20.349L14.855,14.677C14.855,14.077 15.335,13.597 15.935,13.597C16.535,13.597 17.015,14.077 17.015,14.677L17.015,16.328C17.015,17.038 17.566,17.638 18.276,17.658C18.996,17.668 19.586,17.088 19.586,16.378L19.586,14.537C19.586,14.047 19.906,13.607 20.387,13.477C21.977,13.066 23.148,11.616 23.148,9.905C23.138,7.855 21.477,6.204 19.436,6.204Z" style="fill:rgb(136,71,52);fill-rule:nonzero;"/>
        <path d="M19.436,6.204L12.564,6.204C10.523,6.204 8.872,7.855 8.872,9.895C8.872,11.566 9.983,12.986 11.513,13.437C11.974,13.577 12.284,14.007 12.284,14.487L12.284,20.299C12.284,21.009 12.834,21.61 13.544,21.63C14.264,21.64 14.855,21.059 14.855,20.349L14.855,14.677C14.855,14.077 15.335,13.597 15.935,13.597C16.535,13.597 17.015,14.077 17.015,14.677L17.015,16.328C17.015,17.038 17.566,17.638 18.276,17.658C18.996,17.668 19.586,17.088 19.586,16.378L19.586,14.537C19.586,14.047 19.906,13.607 20.387,13.477C21.977,13.066 23.148,11.616 23.148,9.905C23.138,7.855 21.477,6.204 19.436,6.204Z" style="fill:url(#_Linear14);fill-rule:nonzero;"/>
        <g>
            <path d="M8.953,9.805C8.953,11.4 10.107,12.552 11.606,12.982C12.057,13.115 12.361,13.526 12.361,13.985L12.361,19.964C12.361,20.642 12.9,21.2 13.595,21.219C14.3,21.228 14.75,20.85 14.75,20.172L14.75,14.079C14.75,13.505 15.349,13.047 15.937,13.047C16.524,13.047 17.156,13.505 17.156,14.079L17.156,16.219C17.156,16.897 17.533,17.497 18.229,17.516C18.934,17.525 19.512,16.897 19.512,16.219L19.512,14.059C19.512,13.591 19.826,13.171 20.296,13.047C21.854,12.655 23.094,11.439 23.094,9.805C23.094,3.859 8.953,3.947 8.953,9.805Z" style="fill:url(#_Radial15);fill-rule:nonzero;"/>
            <path d="M8.953,9.805C8.953,11.4 10.107,12.552 11.606,12.982C12.057,13.115 12.361,13.526 12.361,13.985L12.361,19.964C12.361,20.642 12.9,21.2 13.595,21.219C14.3,21.228 14.75,20.85 14.75,20.172L14.75,14.079C14.75,13.505 15.349,13.047 15.937,13.047C16.524,13.047 17.156,13.505 17.156,14.079L17.156,16.219C17.156,16.897 17.533,17.497 18.229,17.516C18.934,17.525 19.512,16.897 19.512,16.219L19.512,14.059C19.512,13.591 19.826,13.171 20.296,13.047C21.854,12.655 23.094,11.439 23.094,9.805C23.094,3.859 8.953,3.947 8.953,9.805Z" style="fill:url(#_Radial16);fill-rule:nonzero;"/>
            <path d="M8.953,9.805C8.953,11.4 10.107,12.552 11.606,12.982C12.057,13.115 12.361,13.526 12.361,13.985L12.361,19.964C12.361,20.642 12.9,21.2 13.595,21.219C14.3,21.228 14.75,20.85 14.75,20.172L14.75,14.079C14.75,13.505 15.349,13.047 15.937,13.047C16.524,13.047 17.156,13.505 17.156,14.079L17.156,16.219C17.156,16.897 17.533,17.497 18.229,17.516C18.934,17.525 19.512,16.897 19.512,16.219L19.512,14.059C19.512,13.591 19.826,13.171 20.296,13.047C21.854,12.655 23.094,11.439 23.094,9.805C23.094,3.859 8.953,3.947 8.953,9.805Z" style="fill:url(#_Radial17);fill-rule:nonzero;"/>
            <path d="M8.953,9.805C8.953,11.4 10.107,12.552 11.606,12.982C12.057,13.115 12.361,13.526 12.361,13.985L12.361,19.964C12.361,20.642 12.9,21.2 13.595,21.219C14.3,21.228 14.75,20.85 14.75,20.172L14.75,14.079C14.75,13.505 15.349,13.047 15.937,13.047C16.524,13.047 17.156,13.505 17.156,14.079L17.156,16.219C17.156,16.897 17.533,17.497 18.229,17.516C18.934,17.525 19.512,16.897 19.512,16.219L19.512,14.059C19.512,13.591 19.826,13.171 20.296,13.047C21.854,12.655 23.094,11.439 23.094,9.805C23.094,3.859 8.953,3.947 8.953,9.805Z" style="fill:url(#_Radial18);fill-rule:nonzero;"/>
            <path d="M8.953,9.805C8.953,11.4 10.107,12.552 11.606,12.982C12.057,13.115 12.361,13.526 12.361,13.985L12.361,19.964C12.361,20.642 12.9,21.2 13.595,21.219C14.3,21.228 14.75,20.85 14.75,20.172L14.75,14.079C14.75,13.505 15.349,13.047 15.937,13.047C16.524,13.047 17.156,13.505 17.156,14.079L17.156,16.219C17.156,16.897 17.533,17.497 18.229,17.516C18.934,17.525 19.512,16.897 19.512,16.219L19.512,14.059C19.512,13.591 19.826,13.171 20.296,13.047C21.854,12.655 23.094,11.439 23.094,9.805C23.094,3.859 8.953,3.947 8.953,9.805Z" style="fill:url(#_Radial19);fill-rule:nonzero;"/>
            <path d="M8.953,9.805C8.953,11.4 10.107,12.552 11.606,12.982C12.057,13.115 12.361,13.526 12.361,13.985L12.361,19.964C12.361,20.642 12.9,21.2 13.595,21.219C14.3,21.228 14.75,20.85 14.75,20.172L14.75,14.079C14.75,13.505 15.349,13.047 15.937,13.047C16.524,13.047 17.156,13.505 17.156,14.079L17.156,16.219C17.156,16.897 17.533,17.497 18.229,17.516C18.934,17.525 19.512,16.897 19.512,16.219L19.512,14.059C19.512,13.591 19.826,13.171 20.296,13.047C21.854,12.655 23.094,11.439 23.094,9.805C23.094,3.859 8.953,3.947 8.953,9.805Z" style="fill:url(#_Radial20);fill-rule:nonzero;"/>
            <path d="M8.953,9.805C8.953,11.4 10.107,12.552 11.606,12.982C12.057,13.115 12.361,13.526 12.361,13.985L12.361,19.964C12.361,20.642 12.9,21.2 13.595,21.219C14.3,21.228 14.75,20.85 14.75,20.172L14.75,14.079C14.75,13.505 15.349,13.047 15.937,13.047C16.524,13.047 17.156,13.505 17.156,14.079L17.156,16.219C17.156,16.897 17.533,17.497 18.229,17.516C18.934,17.525 19.512,16.897 19.512,16.219L19.512,14.059C19.512,13.591 19.826,13.171 20.296,13.047C21.854,12.655 23.094,11.439 23.094,9.805C23.094,3.859 8.953,3.947 8.953,9.805Z" style="fill:url(#_Radial21);fill-rule:nonzero;"/>
        </g>
        <g>
            <path d="M11.479,7.266L11.479,7.641C11.479,8.062 11.671,8.484 12.055,8.721L15.092,10.511C15.659,10.871 16.361,10.871 16.918,10.511L19.955,8.721C20.339,8.474 20.531,8.052 20.531,7.641L20.531,7.266L11.479,7.266Z" style="fill:rgb(115,57,25);fill-rule:nonzero;"/>
        </g>
        <path d="M17.406,5.113L16.955,4.843C16.365,4.492 15.635,4.492 15.055,4.843L14.605,5.113L11.293,5.113L11.293,7.213C11.293,7.624 11.493,8.034 11.894,8.264L15.055,10.134C15.645,10.485 16.375,10.485 16.955,10.134L20.116,8.264C20.517,8.024 20.717,7.614 20.717,7.213L20.717,5.113L17.406,5.113Z" style="fill:url(#_Linear22);fill-rule:nonzero;"/>
        <path d="M17.406,5.113L16.955,4.843C16.365,4.492 15.635,4.492 15.055,4.843L14.605,5.113L11.293,5.113L11.293,7.213C11.293,7.624 11.493,8.034 11.894,8.264L15.055,10.134C15.645,10.485 16.375,10.485 16.955,10.134L20.116,8.264C20.517,8.024 20.717,7.614 20.717,7.213L20.717,5.113L17.406,5.113Z" style="fill:url(#_Radial23);fill-rule:nonzero;"/>
        <path d="M15.055,2.263L11.894,4.133C11.093,4.603 11.093,5.764 11.894,6.244L15.055,8.115C15.645,8.465 16.375,8.465 16.955,8.115L20.116,6.244C20.917,5.774 20.917,4.613 20.116,4.133L16.955,2.263C16.365,1.912 15.645,1.912 15.055,2.263Z" style="fill:url(#_Linear24);fill-rule:nonzero;"/>
        <circle cx="22.492" cy="26.922" r="1.492" style="fill:url(#_Radial25);"/>
        <circle cx="24.52" cy="25.857" r="0.536" style="fill:url(#_Radial26);"/>
        <g>
            <path d="M19.516,13.375C20.234,12.75 22.984,11.922 22.75,9.375C22.125,11.156 21.731,11.677 20.125,12.031C18.922,12.297 18.844,13.234 18.844,13.719L18.953,16.766L19.281,16.766C19.369,16.237 19.18,13.667 19.516,13.375Z" style="fill:url(#_Radial27);fill-rule:nonzero;"/>
        </g>
        <g>
            <path d="M13.828,17.047C13.828,17.185 13.94,17.297 14.078,17.297C14.216,17.297 14.328,17.185 14.328,17.047L13.828,17.047ZM17.283,14.283C17.283,14.421 17.395,14.533 17.533,14.533C17.671,14.533 17.783,14.421 17.783,14.283L17.283,14.283ZM14.328,17.047L14.328,14.283L13.828,14.283L13.828,17.047L14.328,17.047ZM14.328,14.283C14.328,13.975 14.487,13.586 14.769,13.271C15.048,12.958 15.418,12.75 15.813,12.75L15.813,12.25C15.238,12.25 14.741,12.551 14.396,12.938C14.052,13.322 13.828,13.825 13.828,14.283L14.328,14.283ZM15.813,12.75C16.201,12.75 16.568,12.968 16.847,13.291C17.128,13.617 17.283,14.007 17.283,14.283L17.783,14.283C17.783,13.855 17.561,13.354 17.225,12.964C16.886,12.572 16.393,12.25 15.813,12.25L15.813,12.75Z" style="fill:url(#_Linear28);fill-rule:nonzero;"/>
        </g>
        <g>
            <path d="M21.359,16.438C23.75,16.438 27.094,14.859 27.75,11.453" style="fill:none;fill-rule:nonzero;stroke:url(#_Radial29);stroke-width:0.3px;"/>
        </g>
        <g>
            <path d="M23.782,28.281C26,27.688 28.781,25.406 29.625,21.469" style="fill:none;fill-rule:nonzero;stroke:url(#_Radial30);stroke-width:0.3px;"/>
        </g>
        <g>
            <path d="M20.695,5.273C20.695,5.555 20.506,5.938 20.156,6.188C19.806,6.438 17.74,7.563 16.594,8.219C16.345,8.361 15.773,8.453 15.258,8.094" style="fill:none;fill-rule:nonzero;stroke:url(#_Radial31);stroke-width:0.3px;"/>
        </g>
    </g>
    <defs>
        <linearGradient id="_Linear1" x1="0" y1="0" x2="1" y2="0" gradientUnits="userSpaceOnUse" gradientTransform="matrix(28,0,0,28,2,21.125)"><stop offset="0" style="stop-color:rgb(187,183,188);stop-opacity:1"/><stop offset="0.1" style="stop-color:rgb(173,149,194);stop-opacity:1"/><stop offset="0.23" style="stop-color:rgb(195,160,226);stop-opacity:1"/><stop offset="0.8" style="stop-color:rgb(201,166,231);stop-opacity:1"/><stop offset="1" style="stop-color:rgb(216,208,223);stop-opacity:1"/></linearGradient>
        <linearGradient id="_Linear2" x1="0" y1="0" x2="1" y2="0" gradientUnits="userSpaceOnUse" gradientTransform="matrix(27.3125,0,0,27.3125,2.8125,20.125)"><stop offset="0" style="stop-color:rgb(190,180,182);stop-opacity:1"/><stop offset="0.16" style="stop-color:rgb(219,206,213);stop-opacity:1"/><stop offset="0.49" style="stop-color:rgb(223,205,210);stop-opacity:1"/><stop offset="0.82" style="stop-color:rgb(223,209,214);stop-opacity:1"/><stop offset="1" style="stop-color:rgb(227,216,205);stop-opacity:1"/></linearGradient>
        <linearGradient id="_Linear3" x1="0" y1="0" x2="1" y2="0" gradientUnits="userSpaceOnUse" gradientTransform="matrix(7.18837e-16,11.7395,-11.7395,7.18837e-16,16,14.823)"><stop offset="0" style="stop-color:rgb(180,157,159);stop-opacity:1"/><stop offset="0.89" style="stop-color:rgb(180,157,159);stop-opacity:1"/><stop offset="1" style="stop-color:rgb(180,157,159);stop-opacity:0"/></linearGradient>
        <linearGradient id="_Linear4" x1="0" y1="0" x2="1" y2="0" gradientUnits="userSpaceOnUse" gradientTransform="matrix(23.9786,0,0,23.9786,4.01074,19.1875)"><stop offset="0" style="stop-color:rgb(184,140,67);stop-opacity:1"/><stop offset="0.16" style="stop-color:rgb(198,144,57);stop-opacity:1"/><stop offset="0.33" style="stop-color:rgb(217,159,63);stop-opacity:1"/><stop offset="0.76" style="stop-color:rgb(217,167,52);stop-opacity:1"/><stop offset="1" style="stop-color:rgb(236,211,76);stop-opacity:1"/></linearGradient>
        <linearGradient id="_Linear5" x1="0" y1="0" x2="1" y2="0" gradientUnits="userSpaceOnUse" gradientTransform="matrix(23.4268,0,0,23.4268,4.5625,17.875)"><stop offset="0" style="stop-color:rgb(169,110,68);stop-opacity:1"/><stop offset="0.15" style="stop-color:rgb(184,120,76);stop-opacity:1"/><stop offset="0.34" style="stop-color:rgb(186,119,75);stop-opacity:1"/><stop offset="0.59" style="stop-color:rgb(214,140,86);stop-opacity:1"/><stop offset="0.82" style="stop-color:rgb(227,152,93);stop-opacity:1"/><stop offset="1" style="stop-color:rgb(234,173,116);stop-opacity:1"/></linearGradient>
        <radialGradient id="_Radial6" cx="0" cy="0" r="1" gradientUnits="userSpaceOnUse" gradientTransform="matrix(-2.04736e-15,5.34759,-13.25,-5.07285e-15,16,15.7774)"><stop offset="0" style="stop-color:rgb(153,81,44);stop-opacity:1"/><stop offset="0.66" style="stop-color:rgb(153,81,44);stop-opacity:1"/><stop offset="1" style="stop-color:rgb(166,87,47);stop-opacity:0"/></radialGradient>
        <radialGradient id="_Radial7" cx="0" cy="0" r="1" gradientUnits="userSpaceOnUse" gradientTransform="matrix(2.875,0,0,2.85976,12.25,19.5)"><stop offset="0" style="stop-color:rgb(147,74,40);stop-opacity:1"/><stop offset="1" style="stop-color:rgb(147,74,40);stop-opacity:0"/></radialGradient>
        <linearGradient id="_Linear8" x1="0" y1="0" x2="1" y2="0" gradientUnits="userSpaceOnUse" gradientTransform="matrix(23.4268,0,0,23.4268,4.5625,13.625)"><stop offset="0" style="stop-color:rgb(178,140,76);stop-opacity:1"/><stop offset="0.13" style="stop-color:rgb(185,127,51);stop-opacity:1"/><stop offset="0.28" style="stop-color:rgb(189,118,40);stop-opacity:1"/><stop offset="0.49" style="stop-color:rgb(195,124,40);stop-opacity:1"/><stop offset="0.59" style="stop-color:rgb(208,135,38);stop-opacity:1"/><stop offset="0.7" style="stop-color:rgb(214,146,45);stop-opacity:1"/><stop offset="0.82" style="stop-color:rgb(222,169,51);stop-opacity:1"/><stop offset="1" style="stop-color:rgb(229,206,83);stop-opacity:1"/></linearGradient>
        <linearGradient id="_Linear9" x1="0" y1="0" x2="1" y2="0" gradientUnits="userSpaceOnUse" gradientTransform="matrix(23.3636,0,0,23.3636,4.625,8.8125)"><stop offset="0" style="stop-color:rgb(204,162,117);stop-opacity:1"/><stop offset="0.14" style="stop-color:rgb(214,168,122);stop-opacity:1"/><stop offset="0.72" style="stop-color:rgb(225,177,124);stop-opacity:1"/><stop offset="1" style="stop-color:rgb(230,178,125);stop-opacity:1"/></linearGradient>
        <linearGradient id="_Linear10" x1="0" y1="0" x2="1" y2="0" gradientUnits="userSpaceOnUse" gradientTransform="matrix(19.3405,0,0,19.3405,7.22204,7.96546)"><stop offset="0" style="stop-color:rgb(212,167,120);stop-opacity:1"/><stop offset="0.06" style="stop-color:rgb(212,167,120);stop-opacity:1"/><stop offset="1" style="stop-color:rgb(231,178,125);stop-opacity:1"/></linearGradient>
        <radialGradient id="_Radial11" cx="0" cy="0" r="1" gradientUnits="userSpaceOnUse" gradientTransform="matrix(4.5,4.3125,-3.88579,4.05475,9.875,9.8125)"><stop offset="0" style="stop-color:rgb(179,130,88);stop-opacity:1"/><stop offset="0.77" style="stop-color:rgb(187,143,101);stop-opacity:0"/><stop offset="1" style="stop-color:rgb(187,143,101);stop-opacity:0"/></radialGradient>
        <radialGradient id="_Radial12" cx="0" cy="0" r="1" gradientUnits="userSpaceOnUse" gradientTransform="matrix(2.375,0,0,4.25084,12.8125,15.4375)"><stop offset="0" style="stop-color:rgb(175,119,78);stop-opacity:1"/><stop offset="1" style="stop-color:rgb(175,119,78);stop-opacity:0"/></radialGradient>
        <radialGradient id="_Radial13" cx="0" cy="0" r="1" gradientUnits="userSpaceOnUse" gradientTransform="matrix(-12.4374,5.12507,-4.74283,-11.5098,20.5,10.0625)"><stop offset="0" style="stop-color:rgb(157,98,60);stop-opacity:1"/><stop offset="0.03" style="stop-color:rgb(157,98,60);stop-opacity:1"/><stop offset="1" style="stop-color:rgb(130,82,62);stop-opacity:1"/></radialGradient>
        <linearGradient id="_Linear14" x1="0" y1="0" x2="1" y2="0" gradientUnits="userSpaceOnUse" gradientTransform="matrix(13.5225,0,0,13.5225,9.625,11.875)"><stop offset="0" style="stop-color:rgb(128,75,51);stop-opacity:1"/><stop offset="1" style="stop-color:rgb(159,94,62);stop-opacity:1"/></linearGradient>
        <radialGradient id="_Radial15" cx="0" cy="0" r="1" gradientUnits="userSpaceOnUse" gradientTransform="matrix(-12.1805,4.89355,-4.44716,-11.0694,20.4072,9.95537)"><stop offset="0" style="stop-color:rgb(157,98,60);stop-opacity:1"/><stop offset="0.03" style="stop-color:rgb(157,98,60);stop-opacity:1"/><stop offset="1" style="stop-color:rgb(130,82,62);stop-opacity:1"/></radialGradient>
        <radialGradient id="_Radial16" cx="0" cy="0" r="1" gradientUnits="userSpaceOnUse" gradientTransform="matrix(3.45827,1.87983,-1.00439,1.84774,13.6437,9.00053)"><stop offset="0" style="stop-color:rgb(118,67,38);stop-opacity:1"/><stop offset="1" style="stop-color:rgb(115,62,33);stop-opacity:0"/></radialGradient>
        <radialGradient id="_Radial17" cx="0" cy="0" r="1" gradientUnits="userSpaceOnUse" gradientTransform="matrix(-3.62501,4.18749,-4.06664,-3.5204,10.75,6.75)"><stop offset="0" style="stop-color:rgb(114,77,61);stop-opacity:1"/><stop offset="1" style="stop-color:rgb(114,76,59);stop-opacity:0"/></radialGradient>
        <radialGradient id="_Radial18" cx="0" cy="0" r="1" gradientUnits="userSpaceOnUse" gradientTransform="matrix(-2.37499,-0.625018,0.413551,-1.57144,18.6563,17.6875)"><stop offset="0" style="stop-color:rgb(138,70,84);stop-opacity:1"/><stop offset="1" style="stop-color:rgb(140,71,86);stop-opacity:0"/></radialGradient>
        <radialGradient id="_Radial19" cx="0" cy="0" r="1" gradientUnits="userSpaceOnUse" gradientTransform="matrix(-1.29214e-15,-3.375,1.27037,-4.8637e-16,13.1562,19.875)"><stop offset="0" style="stop-color:rgb(136,75,79);stop-opacity:1"/><stop offset="1" style="stop-color:rgb(134,68,83);stop-opacity:0"/></radialGradient>
        <radialGradient id="_Radial20" cx="0" cy="0" r="1" gradientUnits="userSpaceOnUse" gradientTransform="matrix(-0.1875,1.09374,-0.673499,-0.115457,13.9063,16.0625)"><stop offset="0" style="stop-color:rgb(163,118,101);stop-opacity:1"/><stop offset="1" style="stop-color:rgb(165,120,103);stop-opacity:0"/></radialGradient>
        <radialGradient id="_Radial21" cx="0" cy="0" r="1" gradientUnits="userSpaceOnUse" gradientTransform="matrix(-0.281246,0.937501,-0.651233,-0.195367,18.8906,15.7344)"><stop offset="0" style="stop-color:rgb(166,121,104);stop-opacity:1"/><stop offset="1" style="stop-color:rgb(168,123,104);stop-opacity:0"/></radialGradient>
        <linearGradient id="_Linear22" x1="0" y1="0" x2="1" y2="0" gradientUnits="userSpaceOnUse" gradientTransform="matrix(9.2792,0,0,9.2792,11.4375,7.48849)"><stop offset="0" style="stop-color:rgb(199,162,43);stop-opacity:1"/><stop offset="1" style="stop-color:rgb(232,193,46);stop-opacity:1"/></linearGradient>
        <radialGradient id="_Radial23" cx="0" cy="0" r="1" gradientUnits="userSpaceOnUse" gradientTransform="matrix(-1.14857e-15,3,-3.44251,-1.31799e-15,16.005,10.9375)"><stop offset="0" style="stop-color:rgb(219,165,41);stop-opacity:1"/><stop offset="1" style="stop-color:rgb(217,163,43);stop-opacity:0"/></radialGradient>
        <linearGradient id="_Linear24" x1="0" y1="0" x2="1" y2="0" gradientUnits="userSpaceOnUse" gradientTransform="matrix(3.1641,5.02344,-5.02344,3.1641,14.3984,2.60156)"><stop offset="0" style="stop-color:rgb(207,186,58);stop-opacity:1"/><stop offset="0.01" style="stop-color:rgb(207,186,58);stop-opacity:1"/><stop offset="0.09" style="stop-color:rgb(213,193,55);stop-opacity:1"/><stop offset="0.93" style="stop-color:rgb(231,206,55);stop-opacity:1"/><stop offset="1" style="stop-color:rgb(231,206,55);stop-opacity:1"/></linearGradient>
        <radialGradient id="_Radial25" cx="0" cy="0" r="1" gradientUnits="userSpaceOnUse" gradientTransform="matrix(-2.98437,2.28517e-15,-2.16435e-15,-2.82658,23.5774,26.9224)"><stop offset="0" style="stop-color:rgb(160,103,64);stop-opacity:1"/><stop offset="0.71" style="stop-color:rgb(142,81,46);stop-opacity:1"/><stop offset="1" style="stop-color:rgb(142,81,46);stop-opacity:1"/></radialGradient>
        <radialGradient id="_Radial26" cx="0" cy="0" r="1" gradientUnits="userSpaceOnUse" gradientTransform="matrix(-1.07227,8.21052e-16,-7.77636e-16,-1.01557,24.9104,25.8569)"><stop offset="0" style="stop-color:rgb(160,103,64);stop-opacity:1"/><stop offset="0.71" style="stop-color:rgb(142,81,46);stop-opacity:1"/><stop offset="1" style="stop-color:rgb(142,81,46);stop-opacity:1"/></radialGradient>
        <radialGradient id="_Radial27" cx="0" cy="0" r="1" gradientUnits="userSpaceOnUse" gradientTransform="matrix(-2.98808e-15,7.80469,-4.14003,-1.58504e-15,20.8039,13.0703)"><stop offset="0" style="stop-color:rgb(173,124,104);stop-opacity:1"/><stop offset="1" style="stop-color:rgb(172,123,101);stop-opacity:0"/></radialGradient>
        <linearGradient id="_Linear28" x1="0" y1="0" x2="1" y2="0" gradientUnits="userSpaceOnUse" gradientTransform="matrix(3.7188,0,0,3.7188,14.0312,13.5027)"><stop offset="0" style="stop-color:rgb(162,119,100);stop-opacity:1"/><stop offset="0.46" style="stop-color:rgb(156,111,94);stop-opacity:1"/><stop offset="0.62" style="stop-color:rgb(111,63,46);stop-opacity:1"/><stop offset="1" style="stop-color:rgb(111,63,46);stop-opacity:1"/></linearGradient>
        <radialGradient id="_Radial29" cx="0" cy="0" r="1" gradientUnits="userSpaceOnUse" gradientTransform="matrix(2.53125,-2.40625,1.27457,1.34078,25.7188,14.5)"><stop offset="0" style="stop-color:rgb(239,185,146);stop-opacity:1"/><stop offset="0.45" style="stop-color:rgb(241,189,146);stop-opacity:1"/><stop offset="0.99" style="stop-color:rgb(240,188,143);stop-opacity:0"/><stop offset="1" style="stop-color:rgb(240,188,143);stop-opacity:0"/></radialGradient>
        <radialGradient id="_Radial30" cx="0" cy="0" r="1" gradientUnits="userSpaceOnUse" gradientTransform="matrix(3.50413,-4.40625,2.33395,1.8561,26.9687,25.875)"><stop offset="0" style="stop-color:rgb(235,225,240);stop-opacity:1"/><stop offset="0.45" style="stop-color:rgb(235,226,240);stop-opacity:1"/><stop offset="0.99" style="stop-color:rgb(232,223,236);stop-opacity:0"/><stop offset="1" style="stop-color:rgb(232,223,236);stop-opacity:0"/></radialGradient>
        <radialGradient id="_Radial31" cx="0" cy="0" r="1" gradientUnits="userSpaceOnUse" gradientTransform="matrix(2.88719,-1.6592,0.823999,1.43385,18.1875,7.3125)"><stop offset="0" style="stop-color:rgb(240,209,81);stop-opacity:1"/><stop offset="0.45" style="stop-color:rgb(242,211,89);stop-opacity:1"/><stop offset="0.99" style="stop-color:rgb(243,211,87);stop-opacity:0"/><stop offset="1" style="stop-color:rgb(243,211,87);stop-opacity:0"/></radialGradient>
    </defs>
</svg>
