<svg width="32" height="32" viewBox="0 0 32 32" fill="none" xmlns="http://www.w3.org/2000/svg">
<path d="M21.3569 12.066H10.6531C5.87138 12.066 2 15.9474 2 20.7291C2 25.5108 5.87138 29.3822 10.6531 29.3822H21.3469C26.1286 29.3822 30 25.5108 30 20.7291C30.01 15.9474 26.1386 12.066 21.3569 12.066Z" fill="url(#paint0_linear_18_29513)"/>
<g filter="url(#filter0_f_18_29513)">
<path d="M21.2828 12.4844H10.7582C6.05657 12.4844 2.25 16.1548 2.25 20.6766C2.25 25.1984 6.05657 28.8594 10.7582 28.8594H21.273C25.9747 28.8594 29.7812 25.1984 29.7812 20.6766C29.7911 16.1548 25.9845 12.4844 21.2828 12.4844Z" fill="url(#paint1_linear_18_29513)"/>
</g>
<g filter="url(#filter1_f_18_29513)">
<path d="M21.4169 14.823H10.5931L4.01074 16.7137V19.2746C4.01074 22.9159 6.96179 25.8569 10.5931 25.8569H21.4069C25.0482 25.8569 27.9893 22.9059 27.9893 19.2746V16.7137L21.4169 14.823Z" fill="url(#paint2_linear_18_29513)"/>
</g>
<path d="M21.4169 14.2869H10.5931L4.01074 16.1775V18.7385C4.01074 22.3797 6.96179 25.3208 10.5931 25.3208H21.4069C25.0482 25.3208 27.9893 22.3697 27.9893 18.7385V16.1775L21.4169 14.2869Z" fill="url(#paint3_linear_18_29513)"/>
<path d="M21.4169 9.19507H10.5931C6.95179 9.19507 4.01074 12.1461 4.01074 15.7774C4.01074 19.4187 6.96179 22.3598 10.5931 22.3598H21.4069C25.0482 22.3598 27.9893 19.4087 27.9893 15.7774C27.9993 12.1361 25.0482 9.19507 21.4169 9.19507Z" fill="url(#paint4_linear_18_29513)"/>
<path d="M21.4169 9.19507H10.5931C6.95179 9.19507 4.01074 12.1461 4.01074 15.7774C4.01074 19.4187 6.96179 22.3598 10.5931 22.3598H21.4069C25.0482 22.3598 27.9893 19.4087 27.9893 15.7774C27.9993 12.1361 25.0482 9.19507 21.4169 9.19507Z" fill="url(#paint5_radial_18_29513)"/>
<path d="M21.4169 9.19507H10.5931C6.95179 9.19507 4.01074 12.1461 4.01074 15.7774C4.01074 19.4187 6.96179 22.3598 10.5931 22.3598H21.4069C25.0482 22.3598 27.9893 19.4087 27.9893 15.7774C27.9993 12.1361 25.0482 9.19507 21.4169 9.19507Z" fill="url(#paint6_radial_18_29513)"/>
<path d="M21.4169 8.51489H10.5931L4.01074 10.4156V12.9765C4.01074 16.6178 6.96179 19.5588 10.5931 19.5588H21.4069C25.0482 19.5588 27.9893 16.6078 27.9893 12.9765V10.4156L21.4169 8.51489Z" fill="url(#paint7_linear_18_29513)"/>
<path d="M21.4162 3.42249H10.5924C6.95106 3.42249 4.01001 6.37354 4.01001 10.0048C4.01001 13.6461 6.96106 16.5872 10.5924 16.5872H21.4062C25.0475 16.5872 27.9886 13.6361 27.9886 10.0048C27.9986 6.37354 25.0475 3.42249 21.4162 3.42249Z" fill="url(#paint8_linear_18_29513)"/>
<g filter="url(#filter2_f_18_29513)">
<path d="M18.375 3.57874H10.6869C7.10877 3.57874 4.21875 6.52979 4.21875 10.1611C4.21875 13.8024 7.1186 16.7434 10.6869 16.7434H18.375V3.57874Z" fill="url(#paint9_linear_18_29513)"/>
<path d="M18.375 3.57874H10.6869C7.10877 3.57874 4.21875 6.52979 4.21875 10.1611C4.21875 13.8024 7.1186 16.7434 10.6869 16.7434H18.375V3.57874Z" fill="url(#paint10_radial_18_29513)"/>
<path d="M18.375 3.57874H10.6869C7.10877 3.57874 4.21875 6.52979 4.21875 10.1611C4.21875 13.8024 7.1186 16.7434 10.6869 16.7434H18.375V3.57874Z" fill="url(#paint11_radial_18_29513)"/>
</g>
<path d="M19.4362 6.20398H12.5638C10.523 6.20398 8.87244 7.85457 8.87244 9.8953C8.87244 11.5659 9.98283 12.9864 11.5134 13.4366C11.9735 13.5766 12.2837 14.0068 12.2837 14.4869V20.299C12.2837 21.0093 12.8338 21.6095 13.5441 21.6295C14.2644 21.6395 14.8546 21.0593 14.8546 20.349V14.677C14.8546 14.0768 15.3347 13.5966 15.935 13.5966C16.5352 13.5966 17.0153 14.0768 17.0153 14.677V16.3276C17.0153 17.0378 17.5655 17.6381 18.2758 17.6581C18.996 17.6681 19.5863 17.0879 19.5863 16.3776V14.5369C19.5863 14.0468 19.9064 13.6066 20.3865 13.4766C21.9771 13.0664 23.1475 11.6159 23.1475 9.9053C23.1375 7.85457 21.4769 6.20398 19.4362 6.20398Z" fill="url(#paint12_radial_18_29513)"/>
<path d="M19.4362 6.20398H12.5638C10.523 6.20398 8.87244 7.85457 8.87244 9.8953C8.87244 11.5659 9.98283 12.9864 11.5134 13.4366C11.9735 13.5766 12.2837 14.0068 12.2837 14.4869V20.299C12.2837 21.0093 12.8338 21.6095 13.5441 21.6295C14.2644 21.6395 14.8546 21.0593 14.8546 20.349V14.677C14.8546 14.0768 15.3347 13.5966 15.935 13.5966C16.5352 13.5966 17.0153 14.0768 17.0153 14.677V16.3276C17.0153 17.0378 17.5655 17.6381 18.2758 17.6581C18.996 17.6681 19.5863 17.0879 19.5863 16.3776V14.5369C19.5863 14.0468 19.9064 13.6066 20.3865 13.4766C21.9771 13.0664 23.1475 11.6159 23.1475 9.9053C23.1375 7.85457 21.4769 6.20398 19.4362 6.20398Z" fill="#884734"/>
<path d="M19.4362 6.20398H12.5638C10.523 6.20398 8.87244 7.85457 8.87244 9.8953C8.87244 11.5659 9.98283 12.9864 11.5134 13.4366C11.9735 13.5766 12.2837 14.0068 12.2837 14.4869V20.299C12.2837 21.0093 12.8338 21.6095 13.5441 21.6295C14.2644 21.6395 14.8546 21.0593 14.8546 20.349V14.677C14.8546 14.0768 15.3347 13.5966 15.935 13.5966C16.5352 13.5966 17.0153 14.0768 17.0153 14.677V16.3276C17.0153 17.0378 17.5655 17.6381 18.2758 17.6581C18.996 17.6681 19.5863 17.0879 19.5863 16.3776V14.5369C19.5863 14.0468 19.9064 13.6066 20.3865 13.4766C21.9771 13.0664 23.1475 11.6159 23.1475 9.9053C23.1375 7.85457 21.4769 6.20398 19.4362 6.20398Z" fill="url(#paint13_linear_18_29513)"/>
<g filter="url(#filter3_f_18_29513)">
<path d="M8.95312 9.80535C8.95312 11.4005 10.1074 12.5517 11.6063 12.9815C12.0569 13.1153 12.3606 13.526 12.3606 13.9845V19.9639C12.3606 20.6421 12.8995 21.1996 13.595 21.2188C14.3004 21.2283 14.75 20.85 14.75 20.1719V14.0785C14.75 13.5054 15.3487 13.0469 15.9365 13.0469C16.5243 13.0469 17.1562 13.5054 17.1562 14.0785V16.2188C17.1562 16.8969 17.5334 17.4965 18.2289 17.5156C18.9343 17.5252 19.5123 16.8969 19.5123 16.2188V14.0594C19.5123 13.5913 19.8258 13.1711 20.2961 13.0469C21.8537 12.6553 23.0938 11.4387 23.0938 9.80535C23.0938 3.85947 8.95312 3.94721 8.95312 9.80535Z" fill="url(#paint14_radial_18_29513)"/>
<path d="M8.95312 9.80535C8.95312 11.4005 10.1074 12.5517 11.6063 12.9815C12.0569 13.1153 12.3606 13.526 12.3606 13.9845V19.9639C12.3606 20.6421 12.8995 21.1996 13.595 21.2188C14.3004 21.2283 14.75 20.85 14.75 20.1719V14.0785C14.75 13.5054 15.3487 13.0469 15.9365 13.0469C16.5243 13.0469 17.1562 13.5054 17.1562 14.0785V16.2188C17.1562 16.8969 17.5334 17.4965 18.2289 17.5156C18.9343 17.5252 19.5123 16.8969 19.5123 16.2188V14.0594C19.5123 13.5913 19.8258 13.1711 20.2961 13.0469C21.8537 12.6553 23.0938 11.4387 23.0938 9.80535C23.0938 3.85947 8.95312 3.94721 8.95312 9.80535Z" fill="url(#paint15_radial_18_29513)"/>
<path d="M8.95312 9.80535C8.95312 11.4005 10.1074 12.5517 11.6063 12.9815C12.0569 13.1153 12.3606 13.526 12.3606 13.9845V19.9639C12.3606 20.6421 12.8995 21.1996 13.595 21.2188C14.3004 21.2283 14.75 20.85 14.75 20.1719V14.0785C14.75 13.5054 15.3487 13.0469 15.9365 13.0469C16.5243 13.0469 17.1562 13.5054 17.1562 14.0785V16.2188C17.1562 16.8969 17.5334 17.4965 18.2289 17.5156C18.9343 17.5252 19.5123 16.8969 19.5123 16.2188V14.0594C19.5123 13.5913 19.8258 13.1711 20.2961 13.0469C21.8537 12.6553 23.0938 11.4387 23.0938 9.80535C23.0938 3.85947 8.95312 3.94721 8.95312 9.80535Z" fill="url(#paint16_radial_18_29513)"/>
<path d="M8.95312 9.80535C8.95312 11.4005 10.1074 12.5517 11.6063 12.9815C12.0569 13.1153 12.3606 13.526 12.3606 13.9845V19.9639C12.3606 20.6421 12.8995 21.1996 13.595 21.2188C14.3004 21.2283 14.75 20.85 14.75 20.1719V14.0785C14.75 13.5054 15.3487 13.0469 15.9365 13.0469C16.5243 13.0469 17.1562 13.5054 17.1562 14.0785V16.2188C17.1562 16.8969 17.5334 17.4965 18.2289 17.5156C18.9343 17.5252 19.5123 16.8969 19.5123 16.2188V14.0594C19.5123 13.5913 19.8258 13.1711 20.2961 13.0469C21.8537 12.6553 23.0938 11.4387 23.0938 9.80535C23.0938 3.85947 8.95312 3.94721 8.95312 9.80535Z" fill="url(#paint17_radial_18_29513)"/>
<path d="M8.95312 9.80535C8.95312 11.4005 10.1074 12.5517 11.6063 12.9815C12.0569 13.1153 12.3606 13.526 12.3606 13.9845V19.9639C12.3606 20.6421 12.8995 21.1996 13.595 21.2188C14.3004 21.2283 14.75 20.85 14.75 20.1719V14.0785C14.75 13.5054 15.3487 13.0469 15.9365 13.0469C16.5243 13.0469 17.1562 13.5054 17.1562 14.0785V16.2188C17.1562 16.8969 17.5334 17.4965 18.2289 17.5156C18.9343 17.5252 19.5123 16.8969 19.5123 16.2188V14.0594C19.5123 13.5913 19.8258 13.1711 20.2961 13.0469C21.8537 12.6553 23.0938 11.4387 23.0938 9.80535C23.0938 3.85947 8.95312 3.94721 8.95312 9.80535Z" fill="url(#paint18_radial_18_29513)"/>
<path d="M8.95312 9.80535C8.95312 11.4005 10.1074 12.5517 11.6063 12.9815C12.0569 13.1153 12.3606 13.526 12.3606 13.9845V19.9639C12.3606 20.6421 12.8995 21.1996 13.595 21.2188C14.3004 21.2283 14.75 20.85 14.75 20.1719V14.0785C14.75 13.5054 15.3487 13.0469 15.9365 13.0469C16.5243 13.0469 17.1562 13.5054 17.1562 14.0785V16.2188C17.1562 16.8969 17.5334 17.4965 18.2289 17.5156C18.9343 17.5252 19.5123 16.8969 19.5123 16.2188V14.0594C19.5123 13.5913 19.8258 13.1711 20.2961 13.0469C21.8537 12.6553 23.0938 11.4387 23.0938 9.80535C23.0938 3.85947 8.95312 3.94721 8.95312 9.80535Z" fill="url(#paint19_radial_18_29513)"/>
<path d="M8.95312 9.80535C8.95312 11.4005 10.1074 12.5517 11.6063 12.9815C12.0569 13.1153 12.3606 13.526 12.3606 13.9845V19.9639C12.3606 20.6421 12.8995 21.1996 13.595 21.2188C14.3004 21.2283 14.75 20.85 14.75 20.1719V14.0785C14.75 13.5054 15.3487 13.0469 15.9365 13.0469C16.5243 13.0469 17.1562 13.5054 17.1562 14.0785V16.2188C17.1562 16.8969 17.5334 17.4965 18.2289 17.5156C18.9343 17.5252 19.5123 16.8969 19.5123 16.2188V14.0594C19.5123 13.5913 19.8258 13.1711 20.2961 13.0469C21.8537 12.6553 23.0938 11.4387 23.0938 9.80535C23.0938 3.85947 8.95312 3.94721 8.95312 9.80535Z" fill="url(#paint20_radial_18_29513)"/>
</g>
<g filter="url(#filter4_f_18_29513)">
<path d="M11.4788 7.26562V7.64063C11.4788 8.06244 11.671 8.48425 12.0554 8.72088L15.0921 10.5112C15.659 10.8713 16.3606 10.8713 16.9179 10.5112L19.9546 8.72088C20.339 8.47396 20.5312 8.05215 20.5312 7.64063V7.26562H11.4788Z" fill="#733919"/>
</g>
<path d="M17.4055 5.11265L16.9554 4.84255C16.3651 4.49242 15.6349 4.49242 15.0547 4.84255L14.6045 5.11265H11.2933V7.2134C11.2933 7.62354 11.4934 8.03369 11.8935 8.26377L15.0547 10.1344C15.6449 10.4846 16.3751 10.4846 16.9554 10.1344L20.1165 8.26377C20.5166 8.02368 20.7167 7.61354 20.7167 7.2134V5.11265H17.4055Z" fill="url(#paint21_linear_18_29513)"/>
<path d="M17.4055 5.11265L16.9554 4.84255C16.3651 4.49242 15.6349 4.49242 15.0547 4.84255L14.6045 5.11265H11.2933V7.2134C11.2933 7.62354 11.4934 8.03369 11.8935 8.26377L15.0547 10.1344C15.6449 10.4846 16.3751 10.4846 16.9554 10.1344L20.1165 8.26377C20.5166 8.02368 20.7167 7.61354 20.7167 7.2134V5.11265H17.4055Z" fill="url(#paint22_radial_18_29513)"/>
<path d="M15.0547 2.26259L11.8935 4.13326C11.0933 4.60343 11.0933 5.76384 11.8935 6.24401L15.0547 8.11468C15.6449 8.4648 16.3751 8.4648 16.9554 8.11468L20.1165 6.24401C20.9168 5.77384 20.9168 4.61343 20.1165 4.13326L16.9554 2.26259C16.3651 1.91247 15.6449 1.91247 15.0547 2.26259Z" fill="url(#paint23_linear_18_29513)"/>
<circle cx="22.4922" cy="26.9224" r="1.49219" fill="url(#paint24_radial_18_29513)"/>
<circle cx="24.5205" cy="25.8569" r="0.536133" fill="url(#paint25_radial_18_29513)"/>
<g filter="url(#filter5_f_18_29513)">
<path d="M19.5156 13.375C20.2344 12.75 22.9844 11.9219 22.75 9.375C22.125 11.1562 21.7305 11.6768 20.125 12.0312C18.9219 12.2969 18.8438 13.2344 18.8438 13.7188L18.9531 16.7656H19.2812C19.3694 16.2374 19.1801 13.6667 19.5156 13.375Z" fill="url(#paint26_radial_18_29513)"/>
</g>
<g filter="url(#filter6_f_18_29513)">
<path d="M13.8281 17.0469C13.8281 17.1849 13.9401 17.2969 14.0781 17.2969C14.2162 17.2969 14.3281 17.1849 14.3281 17.0469H13.8281ZM17.2826 14.2826C17.2826 14.4207 17.3945 14.5326 17.5326 14.5326C17.6707 14.5326 17.7826 14.4207 17.7826 14.2826H17.2826ZM14.3281 17.0469V14.2826H13.8281V17.0469H14.3281ZM14.3281 14.2826C14.3281 13.9748 14.4869 13.586 14.7685 13.2707C15.0479 12.9579 15.4183 12.75 15.8125 12.75L15.8125 12.25C15.238 12.25 14.7412 12.5506 14.3956 12.9377C14.0522 13.3222 13.8281 13.8248 13.8281 14.2826H14.3281ZM15.8125 12.75C16.2011 12.75 16.5677 12.968 16.8466 13.291C17.1282 13.6172 17.2826 14.007 17.2826 14.2826H17.7826C17.7826 13.8551 17.5613 13.3537 17.2251 12.9643C16.8861 12.5718 16.3926 12.25 15.8125 12.25L15.8125 12.75Z" fill="url(#paint27_linear_18_29513)"/>
</g>
<g filter="url(#filter7_f_18_29513)">
<path d="M21.3594 16.4375C23.75 16.4375 27.0938 14.8594 27.75 11.4531" stroke="url(#paint28_radial_18_29513)" stroke-width="0.3" stroke-linecap="round"/>
</g>
<g filter="url(#filter8_f_18_29513)">
<path d="M23.7818 28.2812C26 27.6875 28.7812 25.4062 29.625 21.4688" stroke="url(#paint29_radial_18_29513)" stroke-width="0.3" stroke-linecap="round"/>
</g>
<g filter="url(#filter9_f_18_29513)">
<path d="M20.6953 5.27344C20.6953 5.55469 20.5062 5.9375 20.1562 6.1875C19.8063 6.4375 17.7396 7.5625 16.5938 8.21875C16.3449 8.3613 15.7734 8.45312 15.2578 8.09375" stroke="url(#paint30_radial_18_29513)" stroke-width="0.3" stroke-linecap="round"/>
</g>
<defs>
<filter id="filter0_f_18_29513" x="1.75" y="11.9844" width="28.5312" height="17.375" filterUnits="userSpaceOnUse" color-interpolation-filters="sRGB">
<feFlood flood-opacity="0" result="BackgroundImageFix"/>
<feBlend mode="normal" in="SourceGraphic" in2="BackgroundImageFix" result="shape"/>
<feGaussianBlur stdDeviation="0.25" result="effect1_foregroundBlur_18_29513"/>
</filter>
<filter id="filter1_f_18_29513" x="3.51074" y="14.323" width="24.9785" height="12.0339" filterUnits="userSpaceOnUse" color-interpolation-filters="sRGB">
<feFlood flood-opacity="0" result="BackgroundImageFix"/>
<feBlend mode="normal" in="SourceGraphic" in2="BackgroundImageFix" result="shape"/>
<feGaussianBlur stdDeviation="0.25" result="effect1_foregroundBlur_18_29513"/>
</filter>
<filter id="filter2_f_18_29513" x="3.96875" y="3.32874" width="14.6562" height="13.6647" filterUnits="userSpaceOnUse" color-interpolation-filters="sRGB">
<feFlood flood-opacity="0" result="BackgroundImageFix"/>
<feBlend mode="normal" in="SourceGraphic" in2="BackgroundImageFix" result="shape"/>
<feGaussianBlur stdDeviation="0.125" result="effect1_foregroundBlur_18_29513"/>
</filter>
<filter id="filter3_f_18_29513" x="8.70312" y="5.12878" width="14.6406" height="16.3401" filterUnits="userSpaceOnUse" color-interpolation-filters="sRGB">
<feFlood flood-opacity="0" result="BackgroundImageFix"/>
<feBlend mode="normal" in="SourceGraphic" in2="BackgroundImageFix" result="shape"/>
<feGaussianBlur stdDeviation="0.125" result="effect1_foregroundBlur_18_29513"/>
</filter>
<filter id="filter4_f_18_29513" x="10.9788" y="6.76562" width="10.0525" height="4.51562" filterUnits="userSpaceOnUse" color-interpolation-filters="sRGB">
<feFlood flood-opacity="0" result="BackgroundImageFix"/>
<feBlend mode="normal" in="SourceGraphic" in2="BackgroundImageFix" result="shape"/>
<feGaussianBlur stdDeviation="0.25" result="effect1_foregroundBlur_18_29513"/>
</filter>
<filter id="filter5_f_18_29513" x="18.3438" y="8.875" width="4.92041" height="8.39062" filterUnits="userSpaceOnUse" color-interpolation-filters="sRGB">
<feFlood flood-opacity="0" result="BackgroundImageFix"/>
<feBlend mode="normal" in="SourceGraphic" in2="BackgroundImageFix" result="shape"/>
<feGaussianBlur stdDeviation="0.25" result="effect1_foregroundBlur_18_29513"/>
</filter>
<filter id="filter6_f_18_29513" x="13.0781" y="11.5" width="5.45447" height="6.54688" filterUnits="userSpaceOnUse" color-interpolation-filters="sRGB">
<feFlood flood-opacity="0" result="BackgroundImageFix"/>
<feBlend mode="normal" in="SourceGraphic" in2="BackgroundImageFix" result="shape"/>
<feGaussianBlur stdDeviation="0.375" result="effect1_foregroundBlur_18_29513"/>
</filter>
<filter id="filter7_f_18_29513" x="20.9594" y="11.0531" width="7.19067" height="5.78442" filterUnits="userSpaceOnUse" color-interpolation-filters="sRGB">
<feFlood flood-opacity="0" result="BackgroundImageFix"/>
<feBlend mode="normal" in="SourceGraphic" in2="BackgroundImageFix" result="shape"/>
<feGaussianBlur stdDeviation="0.125" result="effect1_foregroundBlur_18_29513"/>
</filter>
<filter id="filter8_f_18_29513" x="23.3817" y="21.0687" width="6.64331" height="7.61255" filterUnits="userSpaceOnUse" color-interpolation-filters="sRGB">
<feFlood flood-opacity="0" result="BackgroundImageFix"/>
<feBlend mode="normal" in="SourceGraphic" in2="BackgroundImageFix" result="shape"/>
<feGaussianBlur stdDeviation="0.125" result="effect1_foregroundBlur_18_29513"/>
</filter>
<filter id="filter9_f_18_29513" x="14.8578" y="4.87341" width="6.23755" height="3.87122" filterUnits="userSpaceOnUse" color-interpolation-filters="sRGB">
<feFlood flood-opacity="0" result="BackgroundImageFix"/>
<feBlend mode="normal" in="SourceGraphic" in2="BackgroundImageFix" result="shape"/>
<feGaussianBlur stdDeviation="0.125" result="effect1_foregroundBlur_18_29513"/>
</filter>
<linearGradient id="paint0_linear_18_29513" x1="2" y1="21.125" x2="30" y2="21.125" gradientUnits="userSpaceOnUse">
<stop stop-color="#BBB7BC"/>
<stop offset="0.100446" stop-color="#AD95C2"/>
<stop offset="0.232143" stop-color="#C3A0E2"/>
<stop offset="0.803571" stop-color="#C9A6E7"/>
<stop offset="1" stop-color="#D8D0DF"/>
</linearGradient>
<linearGradient id="paint1_linear_18_29513" x1="2.8125" y1="20.125" x2="30.125" y2="20.125" gradientUnits="userSpaceOnUse">
<stop stop-color="#BEB4B6"/>
<stop offset="0.157895" stop-color="#DBCED5"/>
<stop offset="0.485126" stop-color="#DFCDD2"/>
<stop offset="0.82151" stop-color="#DFD1D6"/>
<stop offset="1" stop-color="#E3D8CD"/>
</linearGradient>
<linearGradient id="paint2_linear_18_29513" x1="16" y1="14.823" x2="16" y2="26.5625" gradientUnits="userSpaceOnUse">
<stop offset="0.885536" stop-color="#B49D9F"/>
<stop offset="1" stop-color="#B49D9F" stop-opacity="0"/>
</linearGradient>
<linearGradient id="paint3_linear_18_29513" x1="4.01074" y1="19.1875" x2="27.9893" y2="19.1875" gradientUnits="userSpaceOnUse">
<stop stop-color="#B88C43"/>
<stop offset="0.155942" stop-color="#C69039"/>
<stop offset="0.325364" stop-color="#D99F3F"/>
<stop offset="0.758043" stop-color="#D9A734"/>
<stop offset="1" stop-color="#ECD34C"/>
</linearGradient>
<linearGradient id="paint4_linear_18_29513" x1="4.5625" y1="17.875" x2="27.9893" y2="17.875" gradientUnits="userSpaceOnUse">
<stop stop-color="#A96E44"/>
<stop offset="0.146734" stop-color="#B8784C"/>
<stop offset="0.338821" stop-color="#BA774B"/>
<stop offset="0.589602" stop-color="#D68C56"/>
<stop offset="0.81904" stop-color="#E3985D"/>
<stop offset="1" stop-color="#EAAD74"/>
</linearGradient>
<radialGradient id="paint5_radial_18_29513" cx="0" cy="0" r="1" gradientUnits="userSpaceOnUse" gradientTransform="translate(16 15.7774) rotate(90) scale(5.34759 13.25)">
<stop offset="0.661062" stop-color="#99512C"/>
<stop offset="1" stop-color="#A6572F" stop-opacity="0"/>
</radialGradient>
<radialGradient id="paint6_radial_18_29513" cx="0" cy="0" r="1" gradientUnits="userSpaceOnUse" gradientTransform="translate(12.25 19.5) scale(2.875 2.85976)">
<stop stop-color="#934A28"/>
<stop offset="1" stop-color="#934A28" stop-opacity="0"/>
</radialGradient>
<linearGradient id="paint7_linear_18_29513" x1="4.5625" y1="13.625" x2="27.9893" y2="13.625" gradientUnits="userSpaceOnUse">
<stop stop-color="#B28C4C"/>
<stop offset="0.133394" stop-color="#B97F33"/>
<stop offset="0.282796" stop-color="#BD7628"/>
<stop offset="0.490891" stop-color="#C37C28"/>
<stop offset="0.592271" stop-color="#D08726"/>
<stop offset="0.696318" stop-color="#D6922D"/>
<stop offset="0.816373" stop-color="#DEA933"/>
<stop offset="1" stop-color="#E5CE53"/>
</linearGradient>
<linearGradient id="paint8_linear_18_29513" x1="4.625" y1="8.8125" x2="27.9886" y2="8.8125" gradientUnits="userSpaceOnUse">
<stop stop-color="#CCA275"/>
<stop offset="0.144456" stop-color="#D6A87A"/>
<stop offset="0.719603" stop-color="#E1B17C"/>
<stop offset="1" stop-color="#E6B27D"/>
</linearGradient>
<linearGradient id="paint9_linear_18_29513" x1="7.22204" y1="7.96546" x2="26.5625" y2="7.96546" gradientUnits="userSpaceOnUse">
<stop offset="0.0628586" stop-color="#D4A778"/>
<stop offset="1" stop-color="#E7B27D"/>
</linearGradient>
<radialGradient id="paint10_radial_18_29513" cx="0" cy="0" r="1" gradientUnits="userSpaceOnUse" gradientTransform="translate(9.875 9.8125) rotate(43.7811) scale(6.23279 5.61608)">
<stop stop-color="#B38258"/>
<stop offset="0.768153" stop-color="#BB8F65" stop-opacity="0"/>
</radialGradient>
<radialGradient id="paint11_radial_18_29513" cx="0" cy="0" r="1" gradientUnits="userSpaceOnUse" gradientTransform="translate(12.8125 15.4375) scale(2.375 4.25084)">
<stop stop-color="#AF774E"/>
<stop offset="1" stop-color="#AF774E" stop-opacity="0"/>
</radialGradient>
<radialGradient id="paint12_radial_18_29513" cx="0" cy="0" r="1" gradientUnits="userSpaceOnUse" gradientTransform="translate(20.5 10.0625) rotate(157.605) scale(13.452 12.4487)">
<stop offset="0.0252995" stop-color="#9D623C"/>
<stop offset="1" stop-color="#82523E"/>
</radialGradient>
<linearGradient id="paint13_linear_18_29513" x1="9.625" y1="11.875" x2="23.1475" y2="11.875" gradientUnits="userSpaceOnUse">
<stop stop-color="#804B33"/>
<stop offset="1" stop-color="#9F5E3E"/>
</linearGradient>
<radialGradient id="paint14_radial_18_29513" cx="0" cy="0" r="1" gradientUnits="userSpaceOnUse" gradientTransform="translate(20.4072 9.95537) rotate(158.112) scale(13.1267 11.9293)">
<stop offset="0.0252995" stop-color="#9D623C"/>
<stop offset="1" stop-color="#82523E"/>
</radialGradient>
<radialGradient id="paint15_radial_18_29513" cx="0" cy="0" r="1" gradientUnits="userSpaceOnUse" gradientTransform="translate(13.6437 9.00053) rotate(28.5274) scale(3.93616 2.10308)">
<stop stop-color="#764326"/>
<stop offset="1" stop-color="#733E21" stop-opacity="0"/>
</radialGradient>
<radialGradient id="paint16_radial_18_29513" cx="0" cy="0" r="1" gradientUnits="userSpaceOnUse" gradientTransform="translate(10.75 6.75) rotate(130.882) scale(5.53857 5.37873)">
<stop stop-color="#724D3D"/>
<stop offset="1" stop-color="#724C3B" stop-opacity="0"/>
</radialGradient>
<radialGradient id="paint17_radial_18_29513" cx="0" cy="0" r="1" gradientUnits="userSpaceOnUse" gradientTransform="translate(18.6563 17.6875) rotate(-165.256) scale(2.45586 1.62495)">
<stop stop-color="#8A4654"/>
<stop offset="1" stop-color="#8C4756" stop-opacity="0"/>
</radialGradient>
<radialGradient id="paint18_radial_18_29513" cx="0" cy="0" r="1" gradientUnits="userSpaceOnUse" gradientTransform="translate(13.1562 19.875) rotate(-90) scale(3.375 1.27037)">
<stop stop-color="#884B4F"/>
<stop offset="1" stop-color="#864453" stop-opacity="0"/>
</radialGradient>
<radialGradient id="paint19_radial_18_29513" cx="0" cy="0" r="1" gradientUnits="userSpaceOnUse" gradientTransform="translate(13.9063 16.0625) rotate(99.7276) scale(1.1097 0.683324)">
<stop stop-color="#A37665"/>
<stop offset="1" stop-color="#A57867" stop-opacity="0"/>
</radialGradient>
<radialGradient id="paint20_radial_18_29513" cx="0" cy="0" r="1" gradientUnits="userSpaceOnUse" gradientTransform="translate(18.8906 15.7344) rotate(106.699) scale(0.978779 0.679906)">
<stop stop-color="#A67968"/>
<stop offset="1" stop-color="#A87B68" stop-opacity="0"/>
</radialGradient>
<linearGradient id="paint21_linear_18_29513" x1="11.4375" y1="7.48849" x2="20.7167" y2="7.48849" gradientUnits="userSpaceOnUse">
<stop stop-color="#C7A22B"/>
<stop offset="1" stop-color="#E8C12E"/>
</linearGradient>
<radialGradient id="paint22_radial_18_29513" cx="0" cy="0" r="1" gradientUnits="userSpaceOnUse" gradientTransform="translate(16.005 10.9375) rotate(90) scale(3 3.44251)">
<stop stop-color="#DBA529"/>
<stop offset="1" stop-color="#D9A32B" stop-opacity="0"/>
</radialGradient>
<linearGradient id="paint23_linear_18_29513" x1="14.3984" y1="2.60156" x2="17.5625" y2="7.625" gradientUnits="userSpaceOnUse">
<stop offset="0.00840904" stop-color="#CFBA3A"/>
<stop offset="0.0851224" stop-color="#D5C137"/>
<stop offset="0.933534" stop-color="#E7CE37"/>
</linearGradient>
<radialGradient id="paint24_radial_18_29513" cx="0" cy="0" r="1" gradientUnits="userSpaceOnUse" gradientTransform="translate(23.5774 26.9224) rotate(-180) scale(2.98437 2.82658)">
<stop stop-color="#A06740"/>
<stop offset="0.705263" stop-color="#8E512E"/>
</radialGradient>
<radialGradient id="paint25_radial_18_29513" cx="0" cy="0" r="1" gradientUnits="userSpaceOnUse" gradientTransform="translate(24.9104 25.8569) rotate(-180) scale(1.07227 1.01557)">
<stop stop-color="#A06740"/>
<stop offset="0.705263" stop-color="#8E512E"/>
</radialGradient>
<radialGradient id="paint26_radial_18_29513" cx="0" cy="0" r="1" gradientUnits="userSpaceOnUse" gradientTransform="translate(20.8039 13.0703) rotate(90) scale(7.80469 4.14003)">
<stop stop-color="#AD7C68"/>
<stop offset="1" stop-color="#AC7B65" stop-opacity="0"/>
</radialGradient>
<linearGradient id="paint27_linear_18_29513" x1="14.0312" y1="13.5027" x2="17.75" y2="13.5027" gradientUnits="userSpaceOnUse">
<stop stop-color="#A27764"/>
<stop offset="0.462185" stop-color="#9C6F5E"/>
<stop offset="0.617647" stop-color="#6F3F2E"/>
</linearGradient>
<radialGradient id="paint28_radial_18_29513" cx="0" cy="0" r="1" gradientUnits="userSpaceOnUse" gradientTransform="translate(25.7188 14.5) rotate(-43.5498) scale(3.49246 1.84992)">
<stop stop-color="#EFB992"/>
<stop offset="0.448599" stop-color="#F1BD92"/>
<stop offset="0.987847" stop-color="#F0BC8F" stop-opacity="0"/>
</radialGradient>
<radialGradient id="paint29_radial_18_29513" cx="0" cy="0" r="1" gradientUnits="userSpaceOnUse" gradientTransform="translate(26.9687 25.875) rotate(-51.5061) scale(5.62974 2.98202)">
<stop stop-color="#EBE1F0"/>
<stop offset="0.448599" stop-color="#EBE2F0"/>
<stop offset="0.987847" stop-color="#E8DFEC" stop-opacity="0"/>
</radialGradient>
<radialGradient id="paint30_radial_18_29513" cx="0" cy="0" r="1" gradientUnits="userSpaceOnUse" gradientTransform="translate(18.1875 7.3125) rotate(-29.885) scale(3.32999 1.65375)">
<stop stop-color="#F0D151"/>
<stop offset="0.448599" stop-color="#F2D359"/>
<stop offset="0.987847" stop-color="#F3D357" stop-opacity="0"/>
</radialGradient>
</defs>
</svg>
