<svg width="32" height="32" viewBox="0 0 32 32" fill="none" xmlns="http://www.w3.org/2000/svg">
<path d="M3.62662 29.8194L28.2564 22.7518L29.044 22.0281V7.97828L28.0222 5.99854L2.07263 13.3428V28.2866C2.07263 29.5124 2.5681 30.0718 3.62662 29.8194Z" fill="url(#paint0_linear_18_28590)"/>
<path d="M3.62662 29.8194L28.2564 22.7518L29.044 22.0281V7.97828L28.0222 5.99854L2.07263 13.3428V28.2866C2.07263 29.5124 2.5681 30.0718 3.62662 29.8194Z" fill="url(#paint1_linear_18_28590)"/>
<path d="M3.62662 29.8194L28.2564 22.7518L29.044 22.0281V7.97828L28.0222 5.99854L2.07263 13.3428V28.2866C2.07263 29.5124 2.5681 30.0718 3.62662 29.8194Z" fill="url(#paint2_linear_18_28590)"/>
<path d="M3.62662 29.8194L28.2564 22.7518L29.044 22.0281V7.97828L28.0222 5.99854L2.07263 13.3428V28.2866C2.07263 29.5124 2.5681 30.0718 3.62662 29.8194Z" fill="url(#paint3_linear_18_28590)"/>
<path d="M3.62662 29.8194L28.2564 22.7518L29.044 22.0281V7.97828L28.0222 5.99854L2.07263 13.3428V28.2866C2.07263 29.5124 2.5681 30.0718 3.62662 29.8194Z" fill="url(#paint4_linear_18_28590)"/>
<path d="M13.0343 2.50785L3.06373 11.7306C1.1178 13.3925 2.12899 14.5421 3.99847 14.1298L27.0244 7.52429C27.6164 7.38349 27.9903 7.33764 27.9903 8.02282V12.0422C27.9903 12.73 28.0536 13.0877 27.6164 13.2262C27.6164 13.2262 5.41104 19.9199 4.93322 20.0499C4.45541 20.1799 3.39348 20.3784 3.06373 20.3303C2.73398 20.2822 2.31595 20.0499 2.12899 20.0499C1.94203 20.0499 1.94203 20.1583 1.94203 20.673V22.8402C1.94203 23.0031 2.08256 23.1077 2.08256 23.1077C2.61038 23.4445 3.3353 23.5904 3.99847 23.415L27.2425 16.6848C27.6164 16.5914 27.9903 16.8413 27.9903 17.308V22.6064C27.9903 22.9277 28.1845 22.9449 28.3223 22.9277C29.3142 22.6422 30 22.0554 30 21.0469V8.02282C30 7.1697 29.3829 5.7452 27.9903 5.31206L16.9603 2.72593C15.9126 2.50785 13.8883 1.84658 13.0343 2.50785Z" fill="url(#paint5_linear_18_28590)"/>
<path d="M13.0343 2.50785L3.06373 11.7306C1.1178 13.3925 2.12899 14.5421 3.99847 14.1298L27.0244 7.52429C27.6164 7.38349 27.9903 7.33764 27.9903 8.02282V12.0422C27.9903 12.73 28.0536 13.0877 27.6164 13.2262C27.6164 13.2262 5.41104 19.9199 4.93322 20.0499C4.45541 20.1799 3.39348 20.3784 3.06373 20.3303C2.73398 20.2822 2.31595 20.0499 2.12899 20.0499C1.94203 20.0499 1.94203 20.1583 1.94203 20.673V22.8402C1.94203 23.0031 2.08256 23.1077 2.08256 23.1077C2.61038 23.4445 3.3353 23.5904 3.99847 23.415L27.2425 16.6848C27.6164 16.5914 27.9903 16.8413 27.9903 17.308V22.6064C27.9903 22.9277 28.1845 22.9449 28.3223 22.9277C29.3142 22.6422 30 22.0554 30 21.0469V8.02282C30 7.1697 29.3829 5.7452 27.9903 5.31206L16.9603 2.72593C15.9126 2.50785 13.8883 1.84658 13.0343 2.50785Z" fill="url(#paint6_linear_18_28590)"/>
<path d="M13.0343 2.50785L3.06373 11.7306C1.1178 13.3925 2.12899 14.5421 3.99847 14.1298L27.0244 7.52429C27.6164 7.38349 27.9903 7.33764 27.9903 8.02282V12.0422C27.9903 12.73 28.0536 13.0877 27.6164 13.2262C27.6164 13.2262 5.41104 19.9199 4.93322 20.0499C4.45541 20.1799 3.39348 20.3784 3.06373 20.3303C2.73398 20.2822 2.31595 20.0499 2.12899 20.0499C1.94203 20.0499 1.94203 20.1583 1.94203 20.673V22.8402C1.94203 23.0031 2.08256 23.1077 2.08256 23.1077C2.61038 23.4445 3.3353 23.5904 3.99847 23.415L27.2425 16.6848C27.6164 16.5914 27.9903 16.8413 27.9903 17.308V22.6064C27.9903 22.9277 28.1845 22.9449 28.3223 22.9277C29.3142 22.6422 30 22.0554 30 21.0469V8.02282C30 7.1697 29.3829 5.7452 27.9903 5.31206L16.9603 2.72593C15.9126 2.50785 13.8883 1.84658 13.0343 2.50785Z" fill="url(#paint7_linear_18_28590)"/>
<path d="M13.0343 2.50785L3.06373 11.7306C1.1178 13.3925 2.12899 14.5421 3.99847 14.1298L27.0244 7.52429C27.6164 7.38349 27.9903 7.33764 27.9903 8.02282V12.0422C27.9903 12.73 28.0536 13.0877 27.6164 13.2262C27.6164 13.2262 5.41104 19.9199 4.93322 20.0499C4.45541 20.1799 3.39348 20.3784 3.06373 20.3303C2.73398 20.2822 2.31595 20.0499 2.12899 20.0499C1.94203 20.0499 1.94203 20.1583 1.94203 20.673V22.8402C1.94203 23.0031 2.08256 23.1077 2.08256 23.1077C2.61038 23.4445 3.3353 23.5904 3.99847 23.415L27.2425 16.6848C27.6164 16.5914 27.9903 16.8413 27.9903 17.308V22.6064C27.9903 22.9277 28.1845 22.9449 28.3223 22.9277C29.3142 22.6422 30 22.0554 30 21.0469V8.02282C30 7.1697 29.3829 5.7452 27.9903 5.31206L16.9603 2.72593C15.9126 2.50785 13.8883 1.84658 13.0343 2.50785Z" fill="url(#paint8_linear_18_28590)"/>
<path d="M13.0343 2.50785L3.06373 11.7306C1.1178 13.3925 2.12899 14.5421 3.99847 14.1298L27.0244 7.52429C27.6164 7.38349 27.9903 7.33764 27.9903 8.02282V12.0422C27.9903 12.73 28.0536 13.0877 27.6164 13.2262C27.6164 13.2262 5.41104 19.9199 4.93322 20.0499C4.45541 20.1799 3.39348 20.3784 3.06373 20.3303C2.73398 20.2822 2.31595 20.0499 2.12899 20.0499C1.94203 20.0499 1.94203 20.1583 1.94203 20.673V22.8402C1.94203 23.0031 2.08256 23.1077 2.08256 23.1077C2.61038 23.4445 3.3353 23.5904 3.99847 23.415L27.2425 16.6848C27.6164 16.5914 27.9903 16.8413 27.9903 17.308V22.6064C27.9903 22.9277 28.1845 22.9449 28.3223 22.9277C29.3142 22.6422 30 22.0554 30 21.0469V8.02282C30 7.1697 29.3829 5.7452 27.9903 5.31206L16.9603 2.72593C15.9126 2.50785 13.8883 1.84658 13.0343 2.50785Z" fill="url(#paint9_radial_18_28590)"/>
<path d="M13.0343 2.50785L3.06373 11.7306C1.1178 13.3925 2.12899 14.5421 3.99847 14.1298L27.0244 7.52429C27.6164 7.38349 27.9903 7.33764 27.9903 8.02282V12.0422C27.9903 12.73 28.0536 13.0877 27.6164 13.2262C27.6164 13.2262 5.41104 19.9199 4.93322 20.0499C4.45541 20.1799 3.39348 20.3784 3.06373 20.3303C2.73398 20.2822 2.31595 20.0499 2.12899 20.0499C1.94203 20.0499 1.94203 20.1583 1.94203 20.673V22.8402C1.94203 23.0031 2.08256 23.1077 2.08256 23.1077C2.61038 23.4445 3.3353 23.5904 3.99847 23.415L27.2425 16.6848C27.6164 16.5914 27.9903 16.8413 27.9903 17.308V22.6064C27.9903 22.9277 28.1845 22.9449 28.3223 22.9277C29.3142 22.6422 30 22.0554 30 21.0469V8.02282C30 7.1697 29.3829 5.7452 27.9903 5.31206L16.9603 2.72593C15.9126 2.50785 13.8883 1.84658 13.0343 2.50785Z" fill="url(#paint10_linear_18_28590)"/>
<path d="M13.0343 2.50785L3.06373 11.7306C1.1178 13.3925 2.12899 14.5421 3.99847 14.1298L27.0244 7.52429C27.6164 7.38349 27.9903 7.33764 27.9903 8.02282V12.0422C27.9903 12.73 28.0536 13.0877 27.6164 13.2262C27.6164 13.2262 5.41104 19.9199 4.93322 20.0499C4.45541 20.1799 3.39348 20.3784 3.06373 20.3303C2.73398 20.2822 2.31595 20.0499 2.12899 20.0499C1.94203 20.0499 1.94203 20.1583 1.94203 20.673V22.8402C1.94203 23.0031 2.08256 23.1077 2.08256 23.1077C2.61038 23.4445 3.3353 23.5904 3.99847 23.415L27.2425 16.6848C27.6164 16.5914 27.9903 16.8413 27.9903 17.308V22.6064C27.9903 22.9277 28.1845 22.9449 28.3223 22.9277C29.3142 22.6422 30 22.0554 30 21.0469V8.02282C30 7.1697 29.3829 5.7452 27.9903 5.31206L16.9603 2.72593C15.9126 2.50785 13.8883 1.84658 13.0343 2.50785Z" fill="url(#paint11_linear_18_28590)"/>
<path d="M13.0343 2.50785L3.06373 11.7306C1.1178 13.3925 2.12899 14.5421 3.99847 14.1298L27.0244 7.52429C27.6164 7.38349 27.9903 7.33764 27.9903 8.02282V12.0422C27.9903 12.73 28.0536 13.0877 27.6164 13.2262C27.6164 13.2262 5.41104 19.9199 4.93322 20.0499C4.45541 20.1799 3.39348 20.3784 3.06373 20.3303C2.73398 20.2822 2.31595 20.0499 2.12899 20.0499C1.94203 20.0499 1.94203 20.1583 1.94203 20.673V22.8402C1.94203 23.0031 2.08256 23.1077 2.08256 23.1077C2.61038 23.4445 3.3353 23.5904 3.99847 23.415L27.2425 16.6848C27.6164 16.5914 27.9903 16.8413 27.9903 17.308V22.6064C27.9903 22.9277 28.1845 22.9449 28.3223 22.9277C29.3142 22.6422 30 22.0554 30 21.0469V8.02282C30 7.1697 29.3829 5.7452 27.9903 5.31206L16.9603 2.72593C15.9126 2.50785 13.8883 1.84658 13.0343 2.50785Z" fill="url(#paint12_radial_18_28590)"/>
<g filter="url(#filter0_f_18_28590)">
<path d="M12.6638 7.57812C12.0239 7.57812 11.8034 7.21741 11.8906 6.55369C12.5556 -2.95118 20.7344 7.57812 14.6272 7.57812H12.6638Z" fill="#D52D26"/>
<path d="M12.6638 7.57812C12.0239 7.57812 11.8034 7.21741 11.8906 6.55369C12.5556 -2.95118 20.7344 7.57812 14.6272 7.57812H12.6638Z" fill="#A23828"/>
</g>
<path d="M12.0239 4.51721C12.15 3.88874 12.3587 2.11502 14.5399 1.68115L16.8961 2.88827L17.7542 5.46254C16.9495 7.62399 15.2905 7.46959 14.6272 7.46959H12.6638C12.0239 7.46959 11.6603 7.106 11.7475 6.43698L12.0239 4.51721Z" fill="#D52D26"/>
<path d="M12.0239 4.51721C12.15 3.88874 12.3587 2.11502 14.5399 1.68115L16.8961 2.88827L17.7542 5.46254C16.9495 7.62399 15.2905 7.46959 14.6272 7.46959H12.6638C12.0239 7.46959 11.6603 7.106 11.7475 6.43698L12.0239 4.51721Z" fill="url(#paint13_radial_18_28590)"/>
<g filter="url(#filter1_f_18_28590)">
<path d="M16.8984 4.46875C16.4588 3.97424 16.5416 3.1992 16.5416 3.1992C16.5416 3.1992 15.8482 3.18285 15.5 2.80471C13.2076 0.514908 16.0055 2.04444 16.7266 2.68745C17.6641 3.52339 17.8281 4.99222 17.8281 4.99222C17.7505 5.08686 17.9844 5.48441 17.7344 5.34375C17.4844 5.20309 16.8984 4.46875 16.8984 4.46875Z" fill="#8DC527"/>
<path d="M16.8984 4.46875C16.4588 3.97424 16.5416 3.1992 16.5416 3.1992C16.5416 3.1992 15.8482 3.18285 15.5 2.80471C13.2076 0.514908 16.0055 2.04444 16.7266 2.68745C17.6641 3.52339 17.8281 4.99222 17.8281 4.99222C17.7505 5.08686 17.9844 5.48441 17.7344 5.34375C17.4844 5.20309 16.8984 4.46875 16.8984 4.46875Z" fill="#672A17"/>
</g>
<path d="M16.9397 4.37186C16.5 3.87735 16.6197 3.12106 16.6197 3.12106C16.6197 3.12106 15.9063 3.12106 15.558 2.74292L14.3654 1.50669C14.3008 1.41943 14.3654 1.3235 14.4527 1.25942C14.4527 1.25942 15.1543 0.727663 16.2416 1.41943C16.8437 1.86328 17.9883 3.28125 18.2777 3.87735C18.8047 4.77734 18.1323 5.5499 18.1323 5.5499C18.0547 5.64453 17.9649 5.67188 17.856 5.5499L16.9397 4.37186Z" fill="#8DC527"/>
<path d="M16.9397 4.37186C16.5 3.87735 16.6197 3.12106 16.6197 3.12106C16.6197 3.12106 15.9063 3.12106 15.558 2.74292L14.3654 1.50669C14.3008 1.41943 14.3654 1.3235 14.4527 1.25942C14.4527 1.25942 15.1543 0.727663 16.2416 1.41943C16.8437 1.86328 17.9883 3.28125 18.2777 3.87735C18.8047 4.77734 18.1323 5.5499 18.1323 5.5499C18.0547 5.64453 17.9649 5.67188 17.856 5.5499L16.9397 4.37186Z" fill="url(#paint14_radial_18_28590)"/>
<defs>
<filter id="filter0_f_18_28590" x="11.7724" y="2.47947" width="5.20642" height="5.19866" filterUnits="userSpaceOnUse" color-interpolation-filters="sRGB">
<feFlood flood-opacity="0" result="BackgroundImageFix"/>
<feBlend mode="normal" in="SourceGraphic" in2="BackgroundImageFix" result="shape"/>
<feGaussianBlur stdDeviation="0.05" result="effect1_foregroundBlur_18_28590"/>
</filter>
<filter id="filter1_f_18_28590" x="14.5143" y="1.48899" width="3.43917" height="3.98455" filterUnits="userSpaceOnUse" color-interpolation-filters="sRGB">
<feFlood flood-opacity="0" result="BackgroundImageFix"/>
<feBlend mode="normal" in="SourceGraphic" in2="BackgroundImageFix" result="shape"/>
<feGaussianBlur stdDeviation="0.05" result="effect1_foregroundBlur_18_28590"/>
</filter>
<linearGradient id="paint0_linear_18_28590" x1="1.6875" y1="18.4687" x2="25.9375" y2="18.4375" gradientUnits="userSpaceOnUse">
<stop offset="0.0148428" stop-color="#CA957F"/>
<stop offset="0.0489989" stop-color="#FFB4A4"/>
<stop offset="0.077346" stop-color="#FFD6B0"/>
<stop offset="0.141789" stop-color="#FFD9B0"/>
<stop offset="0.520656" stop-color="#FFC18A"/>
<stop offset="0.915048" stop-color="#FF9D50"/>
</linearGradient>
<linearGradient id="paint1_linear_18_28590" x1="14" y1="21.6875" x2="15.5583" y2="26.8125" gradientUnits="userSpaceOnUse">
<stop offset="0.781568" stop-color="#FFB37B" stop-opacity="0"/>
<stop offset="0.886147" stop-color="#FF9C81"/>
<stop offset="0.926915" stop-color="#F67F9D"/>
</linearGradient>
<linearGradient id="paint2_linear_18_28590" x1="19.875" y1="15.1875" x2="21" y2="19.25" gradientUnits="userSpaceOnUse">
<stop offset="0.260607" stop-color="#F08456" stop-opacity="0"/>
<stop offset="0.759837" stop-color="#E4794B"/>
<stop offset="0.918554" stop-color="#E4794B" stop-opacity="0"/>
</linearGradient>
<linearGradient id="paint3_linear_18_28590" x1="15.5583" y1="8.0625" x2="16.4375" y2="11.1875" gradientUnits="userSpaceOnUse">
<stop offset="0.260607" stop-color="#F08456" stop-opacity="0"/>
<stop offset="0.759837" stop-color="#E4794B"/>
<stop offset="0.918554" stop-color="#E4794B" stop-opacity="0"/>
</linearGradient>
<linearGradient id="paint4_linear_18_28590" x1="2.07263" y1="20.5" x2="4" y2="20.5" gradientUnits="userSpaceOnUse">
<stop stop-color="#C29677"/>
<stop offset="0.578441" stop-color="#FEB3A3"/>
<stop offset="1" stop-color="#FFCEB1" stop-opacity="0"/>
</linearGradient>
<linearGradient id="paint5_linear_18_28590" x1="10.9688" y1="3.46875" x2="17.625" y2="26" gradientUnits="userSpaceOnUse">
<stop stop-color="#F3CFA2"/>
<stop offset="0.255825" stop-color="#F3CFA2"/>
<stop offset="0.298159" stop-color="#FFF0CB"/>
<stop offset="0.321715" stop-color="#FFD5CE"/>
<stop offset="0.547438" stop-color="#FFD6CF"/>
<stop offset="0.604194" stop-color="#FFFEE2"/>
<stop offset="0.620631" stop-color="#FFE4E5"/>
<stop offset="0.972283" stop-color="#FFE3E3"/>
<stop offset="1" stop-color="#F9AAE0"/>
</linearGradient>
<linearGradient id="paint6_linear_18_28590" x1="1.94203" y1="21.625" x2="3.6875" y2="21.625" gradientUnits="userSpaceOnUse">
<stop stop-color="#C69C9B"/>
<stop offset="0.140632" stop-color="#DDA4B5"/>
<stop offset="1" stop-color="#F8B6D3" stop-opacity="0"/>
</linearGradient>
<linearGradient id="paint7_linear_18_28590" x1="8.5" y1="6.54687" x2="8.95313" y2="7.03125" gradientUnits="userSpaceOnUse">
<stop stop-color="#B7A287"/>
<stop offset="0.81576" stop-color="#CFB18C" stop-opacity="0"/>
</linearGradient>
<linearGradient id="paint8_linear_18_28590" x1="21.2969" y1="3.67188" x2="21.2187" y2="4.02344" gradientUnits="userSpaceOnUse">
<stop stop-color="#B7A287"/>
<stop offset="0.81576" stop-color="#CFB18C" stop-opacity="0"/>
</linearGradient>
<radialGradient id="paint9_radial_18_28590" cx="0" cy="0" r="1" gradientUnits="userSpaceOnUse" gradientTransform="translate(28.9375 12.8556) rotate(90) scale(6.61319 3.0625)">
<stop stop-color="#FFDED3"/>
<stop offset="1" stop-color="#FFDED5" stop-opacity="0"/>
</radialGradient>
<linearGradient id="paint10_linear_18_28590" x1="30" y1="12.8556" x2="27.5625" y2="12.8556" gradientUnits="userSpaceOnUse">
<stop stop-color="#D6C0AA"/>
<stop offset="0.0416696" stop-color="#F6D4BC"/>
<stop offset="0.19231" stop-color="#FFDED4"/>
<stop offset="1" stop-color="#FFDED3" stop-opacity="0"/>
</linearGradient>
<linearGradient id="paint11_linear_18_28590" x1="27.6094" y1="20.9844" x2="28.5312" y2="23.2187" gradientUnits="userSpaceOnUse">
<stop offset="0.292722" stop-color="#FFD6E3" stop-opacity="0"/>
<stop offset="0.58947" stop-color="#F4A8DC" stop-opacity="0"/>
<stop offset="0.945341" stop-color="#E596DD"/>
</linearGradient>
<radialGradient id="paint12_radial_18_28590" cx="0" cy="0" r="1" gradientUnits="userSpaceOnUse" gradientTransform="translate(13.8281 6.6875) rotate(87.9905) scale(1.78235 4.40613)">
<stop offset="0.51952" stop-color="#B28162"/>
<stop offset="1" stop-color="#C29A79" stop-opacity="0"/>
</radialGradient>
<radialGradient id="paint13_radial_18_28590" cx="0" cy="0" r="1" gradientUnits="userSpaceOnUse" gradientTransform="translate(16.1875 3.375) rotate(113.864) scale(4.48002 4.65688)">
<stop offset="0.141926" stop-color="#FF6A83"/>
<stop offset="0.52076" stop-color="#EE2D47"/>
<stop offset="1" stop-color="#F32F59" stop-opacity="0"/>
</radialGradient>
<radialGradient id="paint14_radial_18_28590" cx="0" cy="0" r="1" gradientUnits="userSpaceOnUse" gradientTransform="translate(16.4093 3.34783) rotate(90) scale(2.28362 2.07009)">
<stop stop-color="#B1EB67"/>
<stop offset="0.901386" stop-color="#AFEA63" stop-opacity="0"/>
</radialGradient>
</defs>
</svg>
