<?xml version="1.0" encoding="UTF-8" standalone="no"?>
<!DOCTYPE svg PUBLIC "-//W3C//DTD SVG 1.1//EN" "http://www.w3.org/Graphics/SVG/1.1/DTD/svg11.dtd">
<svg width="32px" height="32px" version="1.1" xmlns="http://www.w3.org/2000/svg" xmlns:xlink="http://www.w3.org/1999/xlink" xml:space="preserve" xmlns:serif="http://www.serif.com/" style="fill-rule:evenodd;clip-rule:evenodd;stroke-linejoin:round;stroke-miterlimit:2;">
    <g transform="matrix(1,0,0,1,0,0.528489)">
        <path d="M3.627,29.819L28.256,22.752L29.044,22.028L29.044,7.978L28.022,5.999L2.073,13.343L2.073,28.287C2.073,29.512 2.568,30.072 3.627,29.819Z" style="fill:url(#_Linear1);fill-rule:nonzero;"/>
        <path d="M3.627,29.819L28.256,22.752L29.044,22.028L29.044,7.978L28.022,5.999L2.073,13.343L2.073,28.287C2.073,29.512 2.568,30.072 3.627,29.819Z" style="fill:url(#_Linear2);fill-rule:nonzero;"/>
        <path d="M3.627,29.819L28.256,22.752L29.044,22.028L29.044,7.978L28.022,5.999L2.073,13.343L2.073,28.287C2.073,29.512 2.568,30.072 3.627,29.819Z" style="fill:url(#_Linear3);fill-rule:nonzero;"/>
        <path d="M3.627,29.819L28.256,22.752L29.044,22.028L29.044,7.978L28.022,5.999L2.073,13.343L2.073,28.287C2.073,29.512 2.568,30.072 3.627,29.819Z" style="fill:url(#_Linear4);fill-rule:nonzero;"/>
        <path d="M3.627,29.819L28.256,22.752L29.044,22.028L29.044,7.978L28.022,5.999L2.073,13.343L2.073,28.287C2.073,29.512 2.568,30.072 3.627,29.819Z" style="fill:url(#_Linear5);fill-rule:nonzero;"/>
        <path d="M13.034,2.508L3.064,11.731C1.118,13.393 2.129,14.542 3.998,14.13L27.024,7.524C27.616,7.383 27.99,7.338 27.99,8.023L27.99,12.042C27.99,12.73 28.054,13.088 27.616,13.226C27.616,13.226 5.411,19.92 4.933,20.05C4.455,20.18 3.393,20.378 3.064,20.33C2.734,20.282 2.316,20.05 2.129,20.05C1.942,20.05 1.942,20.158 1.942,20.673L1.942,22.84C1.942,23.003 2.083,23.108 2.083,23.108C2.61,23.445 3.335,23.59 3.998,23.415L27.243,16.685C27.616,16.591 27.99,16.841 27.99,17.308L27.99,22.606C27.99,22.928 28.185,22.945 28.322,22.928C29.314,22.642 30,22.055 30,21.047L30,8.023C30,7.17 29.383,5.745 27.99,5.312L16.96,2.726C15.913,2.508 13.888,1.847 13.034,2.508Z" style="fill:url(#_Linear6);fill-rule:nonzero;"/>
        <path d="M13.034,2.508L3.064,11.731C1.118,13.393 2.129,14.542 3.998,14.13L27.024,7.524C27.616,7.383 27.99,7.338 27.99,8.023L27.99,12.042C27.99,12.73 28.054,13.088 27.616,13.226C27.616,13.226 5.411,19.92 4.933,20.05C4.455,20.18 3.393,20.378 3.064,20.33C2.734,20.282 2.316,20.05 2.129,20.05C1.942,20.05 1.942,20.158 1.942,20.673L1.942,22.84C1.942,23.003 2.083,23.108 2.083,23.108C2.61,23.445 3.335,23.59 3.998,23.415L27.243,16.685C27.616,16.591 27.99,16.841 27.99,17.308L27.99,22.606C27.99,22.928 28.185,22.945 28.322,22.928C29.314,22.642 30,22.055 30,21.047L30,8.023C30,7.17 29.383,5.745 27.99,5.312L16.96,2.726C15.913,2.508 13.888,1.847 13.034,2.508Z" style="fill:url(#_Linear7);fill-rule:nonzero;"/>
        <path d="M13.034,2.508L3.064,11.731C1.118,13.393 2.129,14.542 3.998,14.13L27.024,7.524C27.616,7.383 27.99,7.338 27.99,8.023L27.99,12.042C27.99,12.73 28.054,13.088 27.616,13.226C27.616,13.226 5.411,19.92 4.933,20.05C4.455,20.18 3.393,20.378 3.064,20.33C2.734,20.282 2.316,20.05 2.129,20.05C1.942,20.05 1.942,20.158 1.942,20.673L1.942,22.84C1.942,23.003 2.083,23.108 2.083,23.108C2.61,23.445 3.335,23.59 3.998,23.415L27.243,16.685C27.616,16.591 27.99,16.841 27.99,17.308L27.99,22.606C27.99,22.928 28.185,22.945 28.322,22.928C29.314,22.642 30,22.055 30,21.047L30,8.023C30,7.17 29.383,5.745 27.99,5.312L16.96,2.726C15.913,2.508 13.888,1.847 13.034,2.508Z" style="fill:url(#_Linear8);fill-rule:nonzero;"/>
        <path d="M13.034,2.508L3.064,11.731C1.118,13.393 2.129,14.542 3.998,14.13L27.024,7.524C27.616,7.383 27.99,7.338 27.99,8.023L27.99,12.042C27.99,12.73 28.054,13.088 27.616,13.226C27.616,13.226 5.411,19.92 4.933,20.05C4.455,20.18 3.393,20.378 3.064,20.33C2.734,20.282 2.316,20.05 2.129,20.05C1.942,20.05 1.942,20.158 1.942,20.673L1.942,22.84C1.942,23.003 2.083,23.108 2.083,23.108C2.61,23.445 3.335,23.59 3.998,23.415L27.243,16.685C27.616,16.591 27.99,16.841 27.99,17.308L27.99,22.606C27.99,22.928 28.185,22.945 28.322,22.928C29.314,22.642 30,22.055 30,21.047L30,8.023C30,7.17 29.383,5.745 27.99,5.312L16.96,2.726C15.913,2.508 13.888,1.847 13.034,2.508Z" style="fill:url(#_Linear9);fill-rule:nonzero;"/>
        <path d="M13.034,2.508L3.064,11.731C1.118,13.393 2.129,14.542 3.998,14.13L27.024,7.524C27.616,7.383 27.99,7.338 27.99,8.023L27.99,12.042C27.99,12.73 28.054,13.088 27.616,13.226C27.616,13.226 5.411,19.92 4.933,20.05C4.455,20.18 3.393,20.378 3.064,20.33C2.734,20.282 2.316,20.05 2.129,20.05C1.942,20.05 1.942,20.158 1.942,20.673L1.942,22.84C1.942,23.003 2.083,23.108 2.083,23.108C2.61,23.445 3.335,23.59 3.998,23.415L27.243,16.685C27.616,16.591 27.99,16.841 27.99,17.308L27.99,22.606C27.99,22.928 28.185,22.945 28.322,22.928C29.314,22.642 30,22.055 30,21.047L30,8.023C30,7.17 29.383,5.745 27.99,5.312L16.96,2.726C15.913,2.508 13.888,1.847 13.034,2.508Z" style="fill:url(#_Radial10);fill-rule:nonzero;"/>
        <path d="M13.034,2.508L3.064,11.731C1.118,13.393 2.129,14.542 3.998,14.13L27.024,7.524C27.616,7.383 27.99,7.338 27.99,8.023L27.99,12.042C27.99,12.73 28.054,13.088 27.616,13.226C27.616,13.226 5.411,19.92 4.933,20.05C4.455,20.18 3.393,20.378 3.064,20.33C2.734,20.282 2.316,20.05 2.129,20.05C1.942,20.05 1.942,20.158 1.942,20.673L1.942,22.84C1.942,23.003 2.083,23.108 2.083,23.108C2.61,23.445 3.335,23.59 3.998,23.415L27.243,16.685C27.616,16.591 27.99,16.841 27.99,17.308L27.99,22.606C27.99,22.928 28.185,22.945 28.322,22.928C29.314,22.642 30,22.055 30,21.047L30,8.023C30,7.17 29.383,5.745 27.99,5.312L16.96,2.726C15.913,2.508 13.888,1.847 13.034,2.508Z" style="fill:url(#_Linear11);fill-rule:nonzero;"/>
        <path d="M13.034,2.508L3.064,11.731C1.118,13.393 2.129,14.542 3.998,14.13L27.024,7.524C27.616,7.383 27.99,7.338 27.99,8.023L27.99,12.042C27.99,12.73 28.054,13.088 27.616,13.226C27.616,13.226 5.411,19.92 4.933,20.05C4.455,20.18 3.393,20.378 3.064,20.33C2.734,20.282 2.316,20.05 2.129,20.05C1.942,20.05 1.942,20.158 1.942,20.673L1.942,22.84C1.942,23.003 2.083,23.108 2.083,23.108C2.61,23.445 3.335,23.59 3.998,23.415L27.243,16.685C27.616,16.591 27.99,16.841 27.99,17.308L27.99,22.606C27.99,22.928 28.185,22.945 28.322,22.928C29.314,22.642 30,22.055 30,21.047L30,8.023C30,7.17 29.383,5.745 27.99,5.312L16.96,2.726C15.913,2.508 13.888,1.847 13.034,2.508Z" style="fill:url(#_Linear12);fill-rule:nonzero;"/>
        <path d="M13.034,2.508L3.064,11.731C1.118,13.393 2.129,14.542 3.998,14.13L27.024,7.524C27.616,7.383 27.99,7.338 27.99,8.023L27.99,12.042C27.99,12.73 28.054,13.088 27.616,13.226C27.616,13.226 5.411,19.92 4.933,20.05C4.455,20.18 3.393,20.378 3.064,20.33C2.734,20.282 2.316,20.05 2.129,20.05C1.942,20.05 1.942,20.158 1.942,20.673L1.942,22.84C1.942,23.003 2.083,23.108 2.083,23.108C2.61,23.445 3.335,23.59 3.998,23.415L27.243,16.685C27.616,16.591 27.99,16.841 27.99,17.308L27.99,22.606C27.99,22.928 28.185,22.945 28.322,22.928C29.314,22.642 30,22.055 30,21.047L30,8.023C30,7.17 29.383,5.745 27.99,5.312L16.96,2.726C15.913,2.508 13.888,1.847 13.034,2.508Z" style="fill:url(#_Radial13);fill-rule:nonzero;"/>
        <g>
            <path d="M12.664,7.578C12.024,7.578 11.803,7.217 11.891,6.554C12.556,-2.951 20.734,7.578 14.627,7.578L12.664,7.578Z" style="fill:rgb(213,45,38);fill-rule:nonzero;"/>
            <path d="M12.664,7.578C12.024,7.578 11.803,7.217 11.891,6.554C12.556,-2.951 20.734,7.578 14.627,7.578L12.664,7.578Z" style="fill:rgb(162,56,40);fill-rule:nonzero;"/>
        </g>
        <path d="M12.024,4.517C12.15,3.889 12.359,2.115 14.54,1.681L16.896,2.888L17.754,5.463C16.95,7.624 15.291,7.47 14.627,7.47L12.664,7.47C12.024,7.47 11.66,7.106 11.748,6.437L12.024,4.517Z" style="fill:rgb(213,45,38);fill-rule:nonzero;"/>
        <path d="M12.024,4.517C12.15,3.889 12.359,2.115 14.54,1.681L16.896,2.888L17.754,5.463C16.95,7.624 15.291,7.47 14.627,7.47L12.664,7.47C12.024,7.47 11.66,7.106 11.748,6.437L12.024,4.517Z" style="fill:url(#_Radial14);fill-rule:nonzero;"/>
        <g>
            <path d="M16.898,4.469C16.459,3.974 16.542,3.199 16.542,3.199C16.542,3.199 15.848,3.183 15.5,2.805C13.208,0.515 16.006,2.044 16.727,2.687C17.664,3.523 17.828,4.992 17.828,4.992C17.751,5.087 17.984,5.484 17.734,5.344C17.484,5.203 16.898,4.469 16.898,4.469Z" style="fill:rgb(141,197,39);fill-rule:nonzero;"/>
            <path d="M16.898,4.469C16.459,3.974 16.542,3.199 16.542,3.199C16.542,3.199 15.848,3.183 15.5,2.805C13.208,0.515 16.006,2.044 16.727,2.687C17.664,3.523 17.828,4.992 17.828,4.992C17.751,5.087 17.984,5.484 17.734,5.344C17.484,5.203 16.898,4.469 16.898,4.469Z" style="fill:rgb(103,42,23);fill-rule:nonzero;"/>
        </g>
        <path d="M16.94,4.372C16.5,3.877 16.62,3.121 16.62,3.121C16.62,3.121 15.906,3.121 15.558,2.743L14.365,1.507C14.301,1.419 14.365,1.323 14.453,1.259C14.453,1.259 15.154,0.728 16.242,1.419C16.844,1.863 17.988,3.281 18.278,3.877C18.805,4.777 18.132,5.55 18.132,5.55C18.055,5.645 17.965,5.672 17.856,5.55L16.94,4.372Z" style="fill:rgb(141,197,39);fill-rule:nonzero;"/>
        <path d="M16.94,4.372C16.5,3.877 16.62,3.121 16.62,3.121C16.62,3.121 15.906,3.121 15.558,2.743L14.365,1.507C14.301,1.419 14.365,1.323 14.453,1.259C14.453,1.259 15.154,0.728 16.242,1.419C16.844,1.863 17.988,3.281 18.278,3.877C18.805,4.777 18.132,5.55 18.132,5.55C18.055,5.645 17.965,5.672 17.856,5.55L16.94,4.372Z" style="fill:url(#_Radial15);fill-rule:nonzero;"/>
    </g>
    <defs>
        <linearGradient id="_Linear1" x1="0" y1="0" x2="1" y2="0" gradientUnits="userSpaceOnUse" gradientTransform="matrix(24.25,-0.0312,0.0312,24.25,1.6875,18.4687)"><stop offset="0" style="stop-color:rgb(202,149,127);stop-opacity:1"/><stop offset="0.01" style="stop-color:rgb(202,149,127);stop-opacity:1"/><stop offset="0.05" style="stop-color:rgb(255,180,164);stop-opacity:1"/><stop offset="0.08" style="stop-color:rgb(255,214,176);stop-opacity:1"/><stop offset="0.14" style="stop-color:rgb(255,217,176);stop-opacity:1"/><stop offset="0.52" style="stop-color:rgb(255,193,138);stop-opacity:1"/><stop offset="0.92" style="stop-color:rgb(255,157,80);stop-opacity:1"/><stop offset="1" style="stop-color:rgb(255,157,80);stop-opacity:1"/></linearGradient>
        <linearGradient id="_Linear2" x1="0" y1="0" x2="1" y2="0" gradientUnits="userSpaceOnUse" gradientTransform="matrix(1.5583,5.125,-5.125,1.5583,14,21.6875)"><stop offset="0" style="stop-color:rgb(255,179,123);stop-opacity:0"/><stop offset="0.78" style="stop-color:rgb(255,179,123);stop-opacity:0"/><stop offset="0.89" style="stop-color:rgb(255,156,129);stop-opacity:1"/><stop offset="0.93" style="stop-color:rgb(246,127,157);stop-opacity:1"/><stop offset="1" style="stop-color:rgb(246,127,157);stop-opacity:1"/></linearGradient>
        <linearGradient id="_Linear3" x1="0" y1="0" x2="1" y2="0" gradientUnits="userSpaceOnUse" gradientTransform="matrix(1.125,4.0625,-4.0625,1.125,19.875,15.1875)"><stop offset="0" style="stop-color:rgb(240,132,86);stop-opacity:0"/><stop offset="0.26" style="stop-color:rgb(240,132,86);stop-opacity:0"/><stop offset="0.76" style="stop-color:rgb(228,121,75);stop-opacity:1"/><stop offset="0.92" style="stop-color:rgb(228,121,75);stop-opacity:0"/><stop offset="1" style="stop-color:rgb(228,121,75);stop-opacity:0"/></linearGradient>
        <linearGradient id="_Linear4" x1="0" y1="0" x2="1" y2="0" gradientUnits="userSpaceOnUse" gradientTransform="matrix(0.8792,3.125,-3.125,0.8792,15.5583,8.0625)"><stop offset="0" style="stop-color:rgb(240,132,86);stop-opacity:0"/><stop offset="0.26" style="stop-color:rgb(240,132,86);stop-opacity:0"/><stop offset="0.76" style="stop-color:rgb(228,121,75);stop-opacity:1"/><stop offset="0.92" style="stop-color:rgb(228,121,75);stop-opacity:0"/><stop offset="1" style="stop-color:rgb(228,121,75);stop-opacity:0"/></linearGradient>
        <linearGradient id="_Linear5" x1="0" y1="0" x2="1" y2="0" gradientUnits="userSpaceOnUse" gradientTransform="matrix(1.92737,0,0,1.92737,2.07263,20.5)"><stop offset="0" style="stop-color:rgb(194,150,119);stop-opacity:1"/><stop offset="0.58" style="stop-color:rgb(254,179,163);stop-opacity:1"/><stop offset="1" style="stop-color:rgb(255,206,177);stop-opacity:0"/></linearGradient>
        <linearGradient id="_Linear6" x1="0" y1="0" x2="1" y2="0" gradientUnits="userSpaceOnUse" gradientTransform="matrix(6.6562,22.5312,-22.5312,6.6562,10.9688,3.46875)"><stop offset="0" style="stop-color:rgb(243,207,162);stop-opacity:1"/><stop offset="0.26" style="stop-color:rgb(243,207,162);stop-opacity:1"/><stop offset="0.3" style="stop-color:rgb(255,240,203);stop-opacity:1"/><stop offset="0.32" style="stop-color:rgb(255,213,206);stop-opacity:1"/><stop offset="0.55" style="stop-color:rgb(255,214,207);stop-opacity:1"/><stop offset="0.6" style="stop-color:rgb(255,254,226);stop-opacity:1"/><stop offset="0.62" style="stop-color:rgb(255,228,229);stop-opacity:1"/><stop offset="0.97" style="stop-color:rgb(255,227,227);stop-opacity:1"/><stop offset="1" style="stop-color:rgb(249,170,224);stop-opacity:1"/></linearGradient>
        <linearGradient id="_Linear7" x1="0" y1="0" x2="1" y2="0" gradientUnits="userSpaceOnUse" gradientTransform="matrix(1.74547,0,0,1.74547,1.94203,21.625)"><stop offset="0" style="stop-color:rgb(198,156,155);stop-opacity:1"/><stop offset="0.14" style="stop-color:rgb(221,164,181);stop-opacity:1"/><stop offset="1" style="stop-color:rgb(248,182,211);stop-opacity:0"/></linearGradient>
        <linearGradient id="_Linear8" x1="0" y1="0" x2="1" y2="0" gradientUnits="userSpaceOnUse" gradientTransform="matrix(0.45313,0.48438,-0.48438,0.45313,8.5,6.54687)"><stop offset="0" style="stop-color:rgb(183,162,135);stop-opacity:1"/><stop offset="0.82" style="stop-color:rgb(207,177,140);stop-opacity:0"/><stop offset="1" style="stop-color:rgb(207,177,140);stop-opacity:0"/></linearGradient>
        <linearGradient id="_Linear9" x1="0" y1="0" x2="1" y2="0" gradientUnits="userSpaceOnUse" gradientTransform="matrix(-0.0782,0.35156,-0.35156,-0.0782,21.2969,3.67188)"><stop offset="0" style="stop-color:rgb(183,162,135);stop-opacity:1"/><stop offset="0.82" style="stop-color:rgb(207,177,140);stop-opacity:0"/><stop offset="1" style="stop-color:rgb(207,177,140);stop-opacity:0"/></linearGradient>
        <radialGradient id="_Radial10" cx="0" cy="0" r="1" gradientUnits="userSpaceOnUse" gradientTransform="matrix(-2.53191e-15,6.61319,-3.0625,-1.1725e-15,28.9375,12.8556)"><stop offset="0" style="stop-color:rgb(255,222,211);stop-opacity:1"/><stop offset="1" style="stop-color:rgb(255,222,213);stop-opacity:0"/></radialGradient>
        <linearGradient id="_Linear11" x1="0" y1="0" x2="1" y2="0" gradientUnits="userSpaceOnUse" gradientTransform="matrix(-2.4375,2.98508e-16,-2.98508e-16,-2.4375,30,12.8556)"><stop offset="0" style="stop-color:rgb(214,192,170);stop-opacity:1"/><stop offset="0.04" style="stop-color:rgb(246,212,188);stop-opacity:1"/><stop offset="0.19" style="stop-color:rgb(255,222,212);stop-opacity:1"/><stop offset="1" style="stop-color:rgb(255,222,211);stop-opacity:0"/></linearGradient>
        <linearGradient id="_Linear12" x1="0" y1="0" x2="1" y2="0" gradientUnits="userSpaceOnUse" gradientTransform="matrix(0.9218,2.2343,-2.2343,0.9218,27.6094,20.9844)"><stop offset="0" style="stop-color:rgb(255,214,227);stop-opacity:0"/><stop offset="0.29" style="stop-color:rgb(255,214,227);stop-opacity:0"/><stop offset="0.59" style="stop-color:rgb(244,168,220);stop-opacity:0"/><stop offset="0.95" style="stop-color:rgb(229,150,221);stop-opacity:1"/><stop offset="1" style="stop-color:rgb(229,150,221);stop-opacity:1"/></linearGradient>
        <radialGradient id="_Radial13" cx="0" cy="0" r="1" gradientUnits="userSpaceOnUse" gradientTransform="matrix(0.0624985,1.78125,-4.40342,0.154502,13.8281,6.6875)"><stop offset="0" style="stop-color:rgb(178,129,98);stop-opacity:1"/><stop offset="0.52" style="stop-color:rgb(178,129,98);stop-opacity:1"/><stop offset="1" style="stop-color:rgb(194,154,121);stop-opacity:0"/></radialGradient>
        <radialGradient id="_Radial14" cx="0" cy="0" r="1" gradientUnits="userSpaceOnUse" gradientTransform="matrix(-1.81247,4.09702,-4.25876,-1.88402,16.1875,3.375)"><stop offset="0" style="stop-color:rgb(255,106,131);stop-opacity:1"/><stop offset="0.14" style="stop-color:rgb(255,106,131);stop-opacity:1"/><stop offset="0.52" style="stop-color:rgb(238,45,71);stop-opacity:1"/><stop offset="1" style="stop-color:rgb(243,47,89);stop-opacity:0"/></radialGradient>
        <radialGradient id="_Radial15" cx="0" cy="0" r="1" gradientUnits="userSpaceOnUse" gradientTransform="matrix(-8.743e-16,2.28362,-2.07009,-7.92548e-16,16.4093,3.34783)"><stop offset="0" style="stop-color:rgb(177,235,103);stop-opacity:1"/><stop offset="0.9" style="stop-color:rgb(175,234,99);stop-opacity:0"/><stop offset="1" style="stop-color:rgb(175,234,99);stop-opacity:0"/></radialGradient>
    </defs>
</svg>
