<svg width="32" height="32" viewBox="0 0 32 32" fill="none" xmlns="http://www.w3.org/2000/svg">
<path d="M14.8021 18.0831H14.0721H12.0221H11.2921V20.1093C11.2921 20.1093 11.7321 20.0387 11.9421 20.2907C12.0521 20.4218 12.0321 20.7444 12.0321 20.7444C12.0321 21.3189 12.4921 21.7726 13.0521 21.7726C13.6121 21.7726 14.0721 21.3089 14.0721 20.7444C14.0721 20.7444 14.0621 20.3411 14.1821 20.1395C14.3321 19.8774 14.6121 19.8674 14.6121 19.8674L14.8021 18.0831Z" fill="url(#paint0_radial_18_28477)"/>
<path d="M15.7121 22.6293H10.7021L11.5221 29.2319C11.5721 29.6654 11.9421 29.988 12.3721 29.988H15.7221H19.9821C20.4121 29.988 20.7721 29.6654 20.8321 29.2319L21.6521 22.6293H15.7121Z" fill="url(#paint1_linear_18_28477)"/>
<path d="M15.7121 22.6293H10.7021L11.5221 29.2319C11.5721 29.6654 11.9421 29.988 12.3721 29.988H15.7221H19.9821C20.4121 29.988 20.7721 29.6654 20.8321 29.2319L21.6521 22.6293H15.7121Z" fill="url(#paint2_linear_18_28477)"/>
<g opacity="0.5">
<path d="M19.8421 22.6293H18.4421L16.2321 24.857L14.0221 22.6293H12.6221L10.9021 24.3631L11.2221 26.9739L12.6721 28.4356L11.5921 29.5243C11.7321 29.7964 12.0221 29.988 12.3521 29.988H12.4221L13.3121 29.0908L14.2021 29.988H15.4921L13.9821 28.4356L16.2421 26.1574L18.5021 28.4356L16.9621 29.988H18.2521L19.1421 29.0908L20.0321 29.988C20.3721 29.9678 20.6521 29.746 20.7721 29.4335L19.7821 28.4356L21.0821 27.1251L21.2621 25.6433L19.1321 27.7904L16.8721 25.5123L19.1321 23.2341L21.2921 25.4115L21.4321 24.2522L19.8421 22.6293ZM13.3321 27.7804L11.0721 25.5022L13.3321 23.224L15.5921 25.5022L13.3321 27.7804Z" fill="url(#paint3_linear_18_28477)"/>
<path d="M19.8421 22.6293H18.4421L16.2321 24.857L14.0221 22.6293H12.6221L10.9021 24.3631L11.2221 26.9739L12.6721 28.4356L11.5921 29.5243C11.7321 29.7964 12.0221 29.988 12.3521 29.988H12.4221L13.3121 29.0908L14.2021 29.988H15.4921L13.9821 28.4356L16.2421 26.1574L18.5021 28.4356L16.9621 29.988H18.2521L19.1421 29.0908L20.0321 29.988C20.3721 29.9678 20.6521 29.746 20.7721 29.4335L19.7821 28.4356L21.0821 27.1251L21.2621 25.6433L19.1321 27.7904L16.8721 25.5123L19.1321 23.2341L21.2921 25.4115L21.4321 24.2522L19.8421 22.6293ZM13.3321 27.7804L11.0721 25.5022L13.3321 23.224L15.5921 25.5022L13.3321 27.7804Z" fill="url(#paint4_linear_18_28477)"/>
</g>
<path d="M21.8359 7.40625C21.8359 6.46094 20.5156 5.81254 19.7969 5.81254H18.6719C18.5019 5.82262 18 5.69535 18 5.31254C18 5.31254 17.9531 4.30926 17.9531 3.78129C17.9531 3.25331 17.6791 2.46623 16.7891 2.54688C16.0391 2.61744 15.7821 3.31528 15.7221 3.6177C15.6621 3.95035 15.4288 4.43069 14.9688 4.77342C14.0188 5.47905 11.1641 6.59373 11.1641 6.59373C10.3227 6.87643 9.64311 7.8143 9.71094 8.70311C9.71094 9.14752 10.0234 9.55505 10.0234 9.87498C10.0234 10.1949 9.41406 10.3672 9.41406 10.3672L22.0156 9.35938C22.0156 9.35938 21.5547 9.07812 21.5547 8.74219C21.5547 8.46094 21.8359 8.17188 21.8359 7.40625Z" fill="url(#paint5_linear_18_28477)"/>
<path d="M21.8359 7.40625C21.8359 6.46094 20.5156 5.81254 19.7969 5.81254H18.6719C18.5019 5.82262 18 5.69535 18 5.31254C18 5.31254 17.9531 4.30926 17.9531 3.78129C17.9531 3.25331 17.6791 2.46623 16.7891 2.54688C16.0391 2.61744 15.7821 3.31528 15.7221 3.6177C15.6621 3.95035 15.4288 4.43069 14.9688 4.77342C14.0188 5.47905 11.1641 6.59373 11.1641 6.59373C10.3227 6.87643 9.64311 7.8143 9.71094 8.70311C9.71094 9.14752 10.0234 9.55505 10.0234 9.87498C10.0234 10.1949 9.41406 10.3672 9.41406 10.3672L22.0156 9.35938C22.0156 9.35938 21.5547 9.07812 21.5547 8.74219C21.5547 8.46094 21.8359 8.17188 21.8359 7.40625Z" fill="url(#paint6_radial_18_28477)"/>
<path d="M21.8359 7.40625C21.8359 6.46094 20.5156 5.81254 19.7969 5.81254H18.6719C18.5019 5.82262 18 5.69535 18 5.31254C18 5.31254 17.9531 4.30926 17.9531 3.78129C17.9531 3.25331 17.6791 2.46623 16.7891 2.54688C16.0391 2.61744 15.7821 3.31528 15.7221 3.6177C15.6621 3.95035 15.4288 4.43069 14.9688 4.77342C14.0188 5.47905 11.1641 6.59373 11.1641 6.59373C10.3227 6.87643 9.64311 7.8143 9.71094 8.70311C9.71094 9.14752 10.0234 9.55505 10.0234 9.87498C10.0234 10.1949 9.41406 10.3672 9.41406 10.3672L22.0156 9.35938C22.0156 9.35938 21.5547 9.07812 21.5547 8.74219C21.5547 8.46094 21.8359 8.17188 21.8359 7.40625Z" fill="url(#paint7_radial_18_28477)"/>
<path d="M21.8359 7.40625C21.8359 6.46094 20.5156 5.81254 19.7969 5.81254H18.6719C18.5019 5.82262 18 5.69535 18 5.31254C18 5.31254 17.9531 4.30926 17.9531 3.78129C17.9531 3.25331 17.6791 2.46623 16.7891 2.54688C16.0391 2.61744 15.7821 3.31528 15.7221 3.6177C15.6621 3.95035 15.4288 4.43069 14.9688 4.77342C14.0188 5.47905 11.1641 6.59373 11.1641 6.59373C10.3227 6.87643 9.64311 7.8143 9.71094 8.70311C9.71094 9.14752 10.0234 9.55505 10.0234 9.87498C10.0234 10.1949 9.41406 10.3672 9.41406 10.3672L22.0156 9.35938C22.0156 9.35938 21.5547 9.07812 21.5547 8.74219C21.5547 8.46094 21.8359 8.17188 21.8359 7.40625Z" fill="url(#paint8_radial_18_28477)"/>
<path d="M21.3021 9.24249C19.7917 9.36788 9.8621 10.2505 9.8621 10.2505C8.5021 10.3715 7.59375 11.5468 7.59375 12.6484C7.59375 13.4453 7.99999 13.6406 7.99999 14.1171C7.99999 14.5937 7.59375 14.7265 7.59375 14.7265L24.1953 13.6406C24.1953 13.6406 23.7882 13.375 23.7882 12.7696C23.7882 12.3984 24.0625 12.2656 24.0625 11.5469C24.0625 10.2734 22.8125 9.11711 21.3021 9.24249Z" fill="url(#paint9_linear_18_28477)"/>
<path d="M21.3021 9.24249C19.7917 9.36788 9.8621 10.2505 9.8621 10.2505C8.5021 10.3715 7.59375 11.5468 7.59375 12.6484C7.59375 13.4453 7.99999 13.6406 7.99999 14.1171C7.99999 14.5937 7.59375 14.7265 7.59375 14.7265L24.1953 13.6406C24.1953 13.6406 23.7882 13.375 23.7882 12.7696C23.7882 12.3984 24.0625 12.2656 24.0625 11.5469C24.0625 10.2734 22.8125 9.11711 21.3021 9.24249Z" fill="url(#paint10_radial_18_28477)"/>
<path d="M21.3021 9.24249C19.7917 9.36788 9.8621 10.2505 9.8621 10.2505C8.5021 10.3715 7.59375 11.5468 7.59375 12.6484C7.59375 13.4453 7.99999 13.6406 7.99999 14.1171C7.99999 14.5937 7.59375 14.7265 7.59375 14.7265L24.1953 13.6406C24.1953 13.6406 23.7882 13.375 23.7882 12.7696C23.7882 12.3984 24.0625 12.2656 24.0625 11.5469C24.0625 10.2734 22.8125 9.11711 21.3021 9.24249Z" fill="url(#paint11_radial_18_28477)"/>
<path d="M25.7721 15.956C25.6221 14.2827 24.1621 13.0428 22.5021 13.1839L8.54211 14.4137C6.88211 14.5649 5.65211 16.0367 5.79211 17.71C5.94211 19.3834 7.40211 20.6233 9.06211 20.4821L17.1021 19.7765C17.3721 19.7563 20.5221 19.4741 20.7621 19.4539L23.0221 19.2523C24.6821 19.1011 25.9121 17.6294 25.7721 15.956Z" fill="url(#paint12_radial_18_28477)"/>
<path d="M22.2221 22.6294H10.2521C9.7821 22.6294 9.39211 22.2463 9.39211 21.7624V20.2605L23.0721 19.202V21.7624C23.0821 22.2463 22.6921 22.6294 22.2221 22.6294Z" fill="url(#paint13_linear_18_28477)"/>
<path d="M22.2221 22.6294H10.2521C9.7821 22.6294 9.39211 22.2463 9.39211 21.7624V20.2605L23.0721 19.202V21.7624C23.0821 22.2463 22.6921 22.6294 22.2221 22.6294Z" fill="url(#paint14_linear_18_28477)"/>
<g filter="url(#filter0_f_18_28477)">
<path d="M22.5021 13.7943C19.496 14.0591 12.4038 17.4238 10.1094 19.4374C9.64133 19.8482 10.8122 20.1392 11.4175 20.4009C11.7187 20.5312 11.768 20.9875 11.8125 21.1249C11.9463 21.5384 12.3125 21.8749 12.8125 21.8749C13.3125 21.8749 13.8047 21.3327 13.8047 21.039C13.8047 20.8374 13.7109 20.4791 14.8437 20.4009C15.9766 20.3228 16.8518 20.2724 20.8125 19.9634C24.7732 19.6545 22.8858 16.4166 22.5021 13.7943Z" fill="url(#paint15_linear_18_28477)"/>
<path d="M22.5021 13.7943C19.496 14.0591 12.4038 17.4238 10.1094 19.4374C9.64133 19.8482 10.8122 20.1392 11.4175 20.4009C11.7187 20.5312 11.768 20.9875 11.8125 21.1249C11.9463 21.5384 12.3125 21.8749 12.8125 21.8749C13.3125 21.8749 13.8047 21.3327 13.8047 21.039C13.8047 20.8374 13.7109 20.4791 14.8437 20.4009C15.9766 20.3228 16.8518 20.2724 20.8125 19.9634C24.7732 19.6545 22.8858 16.4166 22.5021 13.7943Z" fill="url(#paint16_radial_18_28477)"/>
<path d="M22.5021 13.7943C19.496 14.0591 12.4038 17.4238 10.1094 19.4374C9.64133 19.8482 10.8122 20.1392 11.4175 20.4009C11.7187 20.5312 11.768 20.9875 11.8125 21.1249C11.9463 21.5384 12.3125 21.8749 12.8125 21.8749C13.3125 21.8749 13.8047 21.3327 13.8047 21.039C13.8047 20.8374 13.7109 20.4791 14.8437 20.4009C15.9766 20.3228 16.8518 20.2724 20.8125 19.9634C24.7732 19.6545 22.8858 16.4166 22.5021 13.7943Z" fill="#C67B4D"/>
</g>
<path d="M25.7721 15.956C25.6221 14.2827 24.1621 13.0428 22.5021 13.1839L8.54211 14.4137C6.88211 14.5649 5.65211 16.0367 5.79211 17.71C5.94211 19.3834 7.40211 20.6233 9.06211 20.4821L11.3921 20.2805C11.6121 20.2604 11.8021 20.4418 11.8021 20.6636L11.8321 20.8551C11.8321 21.3591 12.2421 21.7724 12.7421 21.7724C13.2421 21.7724 13.6521 21.3591 13.6521 20.8551L13.6221 20.4317C13.6221 20.2301 13.7721 20.0688 13.9721 20.0487L17.0921 19.7765C17.3621 19.7563 20.5121 19.4741 20.7521 19.4539L23.0121 19.2523C24.6821 19.1011 25.9121 17.6294 25.7721 15.956Z" fill="url(#paint17_linear_18_28477)"/>
<path d="M25.7721 15.956C25.6221 14.2827 24.1621 13.0428 22.5021 13.1839L8.54211 14.4137C6.88211 14.5649 5.65211 16.0367 5.79211 17.71C5.94211 19.3834 7.40211 20.6233 9.06211 20.4821L11.3921 20.2805C11.6121 20.2604 11.8021 20.4418 11.8021 20.6636L11.8321 20.8551C11.8321 21.3591 12.2421 21.7724 12.7421 21.7724C13.2421 21.7724 13.6521 21.3591 13.6521 20.8551L13.6221 20.4317C13.6221 20.2301 13.7721 20.0688 13.9721 20.0487L17.0921 19.7765C17.3621 19.7563 20.5121 19.4741 20.7521 19.4539L23.0121 19.2523C24.6821 19.1011 25.9121 17.6294 25.7721 15.956Z" fill="url(#paint18_radial_18_28477)"/>
<path d="M25.7721 15.956C25.6221 14.2827 24.1621 13.0428 22.5021 13.1839L8.54211 14.4137C6.88211 14.5649 5.65211 16.0367 5.79211 17.71C5.94211 19.3834 7.40211 20.6233 9.06211 20.4821L11.3921 20.2805C11.6121 20.2604 11.8021 20.4418 11.8021 20.6636L11.8321 20.8551C11.8321 21.3591 12.2421 21.7724 12.7421 21.7724C13.2421 21.7724 13.6521 21.3591 13.6521 20.8551L13.6221 20.4317C13.6221 20.2301 13.7721 20.0688 13.9721 20.0487L17.0921 19.7765C17.3621 19.7563 20.5121 19.4741 20.7521 19.4539L23.0121 19.2523C24.6821 19.1011 25.9121 17.6294 25.7721 15.956Z" fill="url(#paint19_radial_18_28477)"/>
<path d="M25.7721 15.956C25.6221 14.2827 24.1621 13.0428 22.5021 13.1839L8.54211 14.4137C6.88211 14.5649 5.65211 16.0367 5.79211 17.71C5.94211 19.3834 7.40211 20.6233 9.06211 20.4821L11.3921 20.2805C11.6121 20.2604 11.8021 20.4418 11.8021 20.6636L11.8321 20.8551C11.8321 21.3591 12.2421 21.7724 12.7421 21.7724C13.2421 21.7724 13.6521 21.3591 13.6521 20.8551L13.6221 20.4317C13.6221 20.2301 13.7721 20.0688 13.9721 20.0487L17.0921 19.7765C17.3621 19.7563 20.5121 19.4741 20.7521 19.4539L23.0121 19.2523C24.6821 19.1011 25.9121 17.6294 25.7721 15.956Z" fill="url(#paint20_radial_18_28477)"/>
<defs>
<filter id="filter0_f_18_28477" x="9.00156" y="12.7943" width="15.2857" height="10.0806" filterUnits="userSpaceOnUse" color-interpolation-filters="sRGB">
<feFlood flood-opacity="0" result="BackgroundImageFix"/>
<feBlend mode="normal" in="SourceGraphic" in2="BackgroundImageFix" result="shape"/>
<feGaussianBlur stdDeviation="0.5" result="effect1_foregroundBlur_18_28477"/>
</filter>
<radialGradient id="paint0_radial_18_28477" cx="0" cy="0" r="1" gradientUnits="userSpaceOnUse" gradientTransform="translate(13.046 19.9264) scale(1.7953 1.80973)">
<stop stop-color="#FFE0A8"/>
<stop offset="1" stop-color="#FFDEA3"/>
</radialGradient>
<linearGradient id="paint1_linear_18_28477" x1="11.125" y1="26.75" x2="21.25" y2="26.75" gradientUnits="userSpaceOnUse">
<stop stop-color="#C5987C"/>
<stop offset="0.216049" stop-color="#CC8953"/>
<stop offset="0.567901" stop-color="#EAA36E"/>
<stop offset="1" stop-color="#FCBD73"/>
</linearGradient>
<linearGradient id="paint2_linear_18_28477" x1="16.1771" y1="22.6293" x2="16.1771" y2="29.988" gradientUnits="userSpaceOnUse">
<stop offset="0.882728" stop-color="#C8746A" stop-opacity="0"/>
<stop offset="1" stop-color="#BE6D82"/>
</linearGradient>
<linearGradient id="paint3_linear_18_28477" x1="10.9021" y1="25.75" x2="21.4321" y2="25.75" gradientUnits="userSpaceOnUse">
<stop stop-color="#D4A789"/>
<stop offset="0.424775" stop-color="#FAB88D"/>
<stop offset="0.757159" stop-color="#FFF0C9"/>
<stop offset="1" stop-color="#F9CF9A"/>
</linearGradient>
<linearGradient id="paint4_linear_18_28477" x1="16.1671" y1="22.6293" x2="16.1671" y2="29.988" gradientUnits="userSpaceOnUse">
<stop offset="0.916702" stop-color="#E09A80" stop-opacity="0"/>
<stop offset="1" stop-color="#CA7D95"/>
</linearGradient>
<linearGradient id="paint5_linear_18_28477" x1="16.25" y1="9.84375" x2="15.5977" y2="3.19204" gradientUnits="userSpaceOnUse">
<stop offset="0.0275603" stop-color="#FFE4A8"/>
<stop offset="0.143815" stop-color="#FFD59B"/>
<stop offset="0.250725" stop-color="#FEDCAB"/>
</linearGradient>
<radialGradient id="paint6_radial_18_28477" cx="0" cy="0" r="1" gradientUnits="userSpaceOnUse" gradientTransform="translate(20.9375 6.875) rotate(115.278) scale(2.48825 4.09612)">
<stop stop-color="#FFF6BA"/>
<stop offset="1" stop-color="#FFE5B1" stop-opacity="0"/>
</radialGradient>
<radialGradient id="paint7_radial_18_28477" cx="0" cy="0" r="1" gradientUnits="userSpaceOnUse" gradientTransform="translate(17.1875 8.0625) rotate(82.6476) scale(5.86069 10.89)">
<stop offset="0.45355" stop-color="#E0BB89" stop-opacity="0"/>
<stop offset="0.662231" stop-color="#E6BE8D"/>
</radialGradient>
<radialGradient id="paint8_radial_18_28477" cx="0" cy="0" r="1" gradientUnits="userSpaceOnUse" gradientTransform="translate(17.9063 4.46875) rotate(177.089) scale(3.69226 9.43834)">
<stop offset="0.128265" stop-color="#FFF8BA"/>
<stop offset="0.347135" stop-color="#FFE0AF"/>
<stop offset="0.645989" stop-color="#FAD8A6" stop-opacity="0"/>
</radialGradient>
<linearGradient id="paint9_linear_18_28477" x1="16.9054" y1="13.754" x2="16.5214" y2="9.54913" gradientUnits="userSpaceOnUse">
<stop offset="0.0571005" stop-color="#FFE4A8"/>
<stop offset="0.157977" stop-color="#FFD59B"/>
<stop offset="0.356286" stop-color="#FFDEA7"/>
<stop offset="0.846352" stop-color="#FFE1A8"/>
<stop offset="0.968133" stop-color="#FDD594"/>
</linearGradient>
<radialGradient id="paint10_radial_18_28477" cx="0" cy="0" r="1" gradientUnits="userSpaceOnUse" gradientTransform="translate(20.4375 10.9375) rotate(174.189) scale(14.198 7.83563)">
<stop offset="0.685205" stop-color="#FED29C" stop-opacity="0"/>
<stop offset="0.780293" stop-color="#F9C994"/>
<stop offset="0.880128" stop-color="#E4B783"/>
</radialGradient>
<radialGradient id="paint11_radial_18_28477" cx="0" cy="0" r="1" gradientUnits="userSpaceOnUse" gradientTransform="translate(22.875 10.5625) rotate(123.275) scale(2.39221 3.65631)">
<stop stop-color="#FFF8BD"/>
<stop offset="1" stop-color="#FFE7B1" stop-opacity="0"/>
</radialGradient>
<radialGradient id="paint12_radial_18_28477" cx="0" cy="0" r="1" gradientUnits="userSpaceOnUse" gradientTransform="translate(15.7821 16.8319) scale(7.523 7.58349)">
<stop offset="0.00558659" stop-color="#FFF5D4"/>
<stop offset="1" stop-color="#FFDEA3"/>
</radialGradient>
<linearGradient id="paint13_linear_18_28477" x1="9.39211" y1="21.625" x2="22.625" y2="21.625" gradientUnits="userSpaceOnUse">
<stop stop-color="#D2AD8C"/>
<stop offset="0.0884459" stop-color="#D19870"/>
<stop offset="0.319877" stop-color="#EAA26B"/>
<stop offset="0.744954" stop-color="#F8BA81"/>
<stop offset="1" stop-color="#F8C589"/>
</linearGradient>
<linearGradient id="paint14_linear_18_28477" x1="16.2322" y1="19.202" x2="16.2322" y2="22.6294" gradientUnits="userSpaceOnUse">
<stop offset="0.798134" stop-color="#DB9176" stop-opacity="0"/>
<stop offset="0.89843" stop-color="#E19978"/>
<stop offset="1" stop-color="#C97758"/>
</linearGradient>
<linearGradient id="paint15_linear_18_28477" x1="17" y1="20.9855" x2="16.5625" y2="14.2355" gradientUnits="userSpaceOnUse">
<stop offset="0.029796" stop-color="#D89387"/>
<stop offset="0.312982" stop-color="#F8C6A3"/>
<stop offset="0.577315" stop-color="#FFDBA7"/>
<stop offset="0.840851" stop-color="#FFE0A6"/>
<stop offset="0.978024" stop-color="#FDD594"/>
</linearGradient>
<radialGradient id="paint16_radial_18_28477" cx="0" cy="0" r="1" gradientUnits="userSpaceOnUse" gradientTransform="translate(18.5625 16.048) rotate(83.3255) scale(5.91509 13.7581)">
<stop offset="0.720443" stop-color="#E1AE83" stop-opacity="0"/>
<stop offset="1" stop-color="#E7B286"/>
</radialGradient>
<linearGradient id="paint17_linear_18_28477" x1="17" y1="20.375" x2="16.5625" y2="13.625" gradientUnits="userSpaceOnUse">
<stop offset="0.029796" stop-color="#D89387"/>
<stop offset="0.312982" stop-color="#F8C6A3"/>
<stop offset="0.577315" stop-color="#FFDBA7"/>
<stop offset="0.840851" stop-color="#FFE0A6"/>
<stop offset="0.978024" stop-color="#FDD594"/>
</linearGradient>
<radialGradient id="paint18_radial_18_28477" cx="0" cy="0" r="1" gradientUnits="userSpaceOnUse" gradientTransform="translate(18.5625 15.4375) rotate(83.3255) scale(5.91509 13.7581)">
<stop offset="0.720443" stop-color="#E1AE83" stop-opacity="0"/>
<stop offset="0.925198" stop-color="#E7B286"/>
</radialGradient>
<radialGradient id="paint19_radial_18_28477" cx="0" cy="0" r="1" gradientUnits="userSpaceOnUse" gradientTransform="translate(24.3125 14.9375) rotate(113.929) scale(2.7736 3.64835)">
<stop stop-color="#FFF8BD"/>
<stop offset="1" stop-color="#FFEEB6" stop-opacity="0"/>
</radialGradient>
<radialGradient id="paint20_radial_18_28477" cx="0" cy="0" r="1" gradientUnits="userSpaceOnUse" gradientTransform="translate(13.3125 20.8437) rotate(-5.0796) scale(1.41179 2.5081)">
<stop offset="0.197452" stop-color="#FFD4A8"/>
<stop offset="0.407382" stop-color="#FDC59F"/>
<stop offset="0.831214" stop-color="#FBC49E" stop-opacity="0"/>
</radialGradient>
</defs>
</svg>
